<svg width="41" height="55" viewBox="0 0 41 55" fill="none" xmlns="http://www.w3.org/2000/svg">
<path d="M22.1899 13.9046C23.3413 12.3844 21.6742 9.38059 24.1905 7.67526C25.7531 6.75406 27.8993 6.86992 29.6583 7.20053C32.4007 7.85328 32.347 10.7186 32.3809 13.0088C32.5956 14.7085 34.7912 14.0756 35.8622 16.0409C36.7594 17.3548 36.6082 19.1591 37.3019 20.5776C38.0197 21.9876 40.1559 22.5881 40.4696 24.227C41.0149 32.5418 40.5444 40.954 40.6702 49.2998C40.6702 50.6774 40.3509 52.2146 39.2912 53.1343C38.2528 54.1219 36.6845 54.2915 35.2942 54.283C30.1486 54.3056 25.0184 54.3056 19.8713 54.2844C16.2615 54.4525 14.2834 52.5876 14.4558 48.9353C14.5872 40.7053 14.1379 32.4273 14.6423 24.227C14.9277 22.6573 17.0951 21.9212 17.7902 20.5762C18.693 18.6716 18.3822 16.2189 20.144 14.8922C20.7304 14.4429 21.6261 14.409 22.1701 13.9201L22.1884 13.9018L22.1899 13.9046ZM16.479 37.898C16.4932 41.9741 16.4508 46.0559 16.496 50.1362C16.4819 51.6791 17.3706 52.0987 18.9261 52.0606C24.9082 52.0549 30.8875 52.1058 36.8682 52.0408C37.3796 52.0196 38.0126 51.8825 38.2966 51.4968C38.5297 51.2213 38.6187 50.7777 38.6427 50.416C38.7402 42.5463 38.6766 34.6695 38.7162 26.7984C38.7261 25.6455 38.8645 23.9628 37.1974 23.8625C30.8832 23.7353 24.5522 23.7848 18.2338 23.8427C16.342 23.8809 16.4734 25.5424 16.479 26.8606C16.4776 30.5426 16.479 34.2203 16.479 37.8965V37.898ZM35.0173 20.9153C35.2335 20.343 34.8887 19.4445 34.6881 18.8779C34.2204 17.4947 33.5875 16.5113 32.566 16.322C29.274 16.0762 25.9509 16.2146 22.6547 16.2584C22.1348 16.3178 21.6516 16.4902 21.2517 16.8476C20.4859 17.4269 19.0646 20.6666 20.4351 21.308C24.8178 21.7616 29.1892 21.3391 33.7584 21.4748C34.1823 21.4635 34.7983 21.4211 35.0074 20.9435L35.0187 20.9167L35.0173 20.9153ZM24.8757 13.9032C26.0611 14.5757 29.5255 14.5955 30.3859 13.6135C30.9751 12.9961 30.8267 11.9096 30.8493 10.9418C30.838 10.193 30.8832 9.26897 29.8801 8.77306C28.3924 8.14998 24.7712 8.16128 24.3007 9.53035C23.9729 10.3343 24.1326 11.2442 24.0972 12.0792C24.1001 12.8591 24.2343 13.5189 24.8771 13.9046L24.8757 13.9032Z" fill="#7132F5"/>
<path d="M5.43746 20.5744C4.5304 20.6493 3.74908 19.7309 4.01329 18.8535C4.31988 17.8037 6.08031 16.802 7.13714 17.0931C7.98486 17.3177 8.3621 18.3802 7.9015 19.1163C7.42537 19.8849 6.35865 20.5037 5.47137 20.573H5.43746V20.5744Z" fill="#7132F5"/>
<path d="M6.43207 3.41086C5.58153 3.37412 4.67305 2.85984 4.33961 2.05733C3.75892 0.446657 5.53207 -0.0746917 6.79235 0.566751C8.57822 1.27601 8.49628 3.40521 6.46739 3.41227H6.43207V3.41086Z" fill="#7132F5"/>
<path d="M10.1012 15.6677C10.1959 14.7917 11.2795 14.2647 11.9959 13.8733C12.893 13.359 13.9598 13.7334 13.9682 14.8341C13.9866 16.5832 10.2524 18.0935 10.0984 15.6987L10.1012 15.6677Z" fill="#7132F5"/>
<path d="M13.6827 6.546C12.6669 7.75683 9.71824 6.05856 10.5052 4.56091C11.555 2.82308 14.83 4.81664 13.7025 6.52198L13.6827 6.546Z" fill="#7132F5"/>
<path d="M9.45979 11.5974C8.99496 11.5705 8.52306 11.4928 8.13735 11.2583C7.24865 10.7313 7.59763 9.38766 8.55555 9.14041C9.49653 8.83947 11.2329 8.97086 11.4929 9.98813C11.7472 11.1326 10.5279 11.7005 9.49935 11.5974H9.46121H9.45979Z" fill="#7132F5"/>
<path d="M2.49018 11.6071C1.37402 11.6763 0.147644 10.9091 0.766481 9.73221C1.39097 8.68103 3.79144 8.72059 4.38343 9.80992C4.94292 11.0278 3.57668 11.6466 2.52692 11.6071H2.49018Z" fill="#7132F5"/>
<path d="M16.4818 11.6055C15.7598 11.6041 14.9898 11.4063 14.6762 10.7479C14.3597 10.0669 14.8613 9.32659 15.5423 9.12172C16.4338 8.81089 17.6912 8.98326 18.1674 9.69676C18.8696 10.8327 17.5909 11.6451 16.5186 11.6055H16.4818Z" fill="#7132F5"/>
</svg>
