<svg width="55" height="55" viewBox="0 0 55 55" fill="none" xmlns="http://www.w3.org/2000/svg">
<path d="M19.2643 15.871C25.8523 22.4644 32.3795 28.997 38.9464 35.5705C39.4951 35.0239 40.0591 34.4656 40.626 33.9046C41.3835 33.1548 42.1461 32.4001 42.8839 31.6616C44.3408 30.2028 45.7972 28.7467 47.2533 27.291C49.0717 25.473 50.8895 23.6556 52.707 21.8342C53.2088 21.3311 53.2616 21.064 53.2612 20.9566C53.2608 20.8448 53.202 20.571 52.6955 20.0577L52.6951 20.0572C52.3966 19.7543 52.0964 19.4557 51.7918 19.1527C51.7042 19.0655 51.6161 18.978 51.5277 18.8898L51.5274 18.8895C50.8314 18.1957 50.1968 17.9042 49.6201 17.8537C49.0417 17.8031 48.3554 17.9804 47.5298 18.5458L46.9196 17.6547L47.5298 18.5458C47.1685 18.7932 46.7704 19.0741 46.3608 19.3631C45.3975 20.0429 44.3705 20.7676 43.6089 21.2068L43.6085 21.207C43.557 21.2367 43.4424 21.2982 43.2842 21.3323C43.1283 21.3658 42.7933 21.399 42.4577 21.1795C42.1157 20.9559 42.0114 20.6267 41.9814 20.4564C41.9519 20.2893 41.9684 20.1541 41.9775 20.094C42.0066 19.9021 42.0867 19.7356 42.108 19.6912C42.1091 19.689 42.11 19.6871 42.1108 19.6855C42.181 19.5379 42.289 19.3477 42.4048 19.1524C42.6453 18.7463 43.001 18.1814 43.3908 17.5742C43.9856 16.6473 44.6796 15.5906 45.2037 14.7926C45.3681 14.5423 45.5158 14.3174 45.6384 14.13C45.8342 13.8307 45.8726 13.6149 45.8647 13.4792C45.8576 13.3556 45.8072 13.196 45.6152 13.0004C43.7477 11.0995 41.8562 9.22171 39.9586 7.3378C39.809 7.18929 39.6594 7.04074 39.5097 6.89214L39.5095 6.89196C39.334 6.71761 39.187 6.66154 39.059 6.64425C38.9142 6.62469 38.705 6.64445 38.4107 6.76217C38.2616 6.82218 38.1195 6.8818 37.945 6.95502C37.8324 7.00226 37.7064 7.05516 37.5562 7.11748L35.3141 8.04802L36.1241 5.75959C36.1597 5.65921 36.1841 5.58427 36.2097 5.50542C36.2234 5.46355 36.2374 5.42058 36.2536 5.37212C36.2943 5.25021 36.3493 5.0937 36.4333 4.93059M19.2643 15.871L36.9122 2.74273C37.5461 3.34432 37.799 4.00511 37.6432 4.74296C37.6312 4.74766 37.6191 4.75241 37.6072 4.7572L37.6055 4.75788C37.4434 4.82307 37.276 4.8933 37.0873 4.97244C36.9892 5.0136 36.8853 5.05717 36.7734 5.1037L36.4344 4.92854C36.434 4.92923 36.4337 4.9299 36.4333 4.93059M19.2643 15.871C20.1297 15.0057 20.9972 14.1381 21.8665 13.2687C25.6198 9.51491 29.4058 5.72851 33.2006 1.95045M36.4333 4.93059C36.6115 4.58208 36.6252 4.35029 36.5957 4.19145C36.5652 4.02747 36.4631 3.8056 36.1696 3.52683L38.009 5.76086L38.2234 6.2964C38.2041 6.35434 38.1828 6.41694 38.1603 6.48036L37.1422 6.11998L36.7282 5.12247C36.7424 5.1166 36.7564 5.11077 36.7703 5.10498M36.4333 4.93059C36.4331 4.93107 36.4328 4.93156 36.4326 4.93204L36.7703 5.10498M36.7703 5.10498L37.3939 5.42428L36.7703 5.10498ZM16.1856 18.9773C16.3596 18.8007 16.5332 18.6246 16.7062 18.4491C19.9156 21.6561 23.1034 24.8416 26.2796 28.0155C29.6646 31.3981 33.0365 34.7676 36.4076 38.1359C36.2354 38.3124 36.0636 38.4891 35.8917 38.6658C34.903 39.6822 33.914 40.6991 32.8776 41.6842L32.8772 41.6846C32.6633 41.8882 32.5086 41.9105 32.4038 41.9021C32.2711 41.8914 32.0344 41.8121 31.7273 41.5128L31.7272 41.5127C30.9254 40.7314 30.1398 39.9424 29.3472 39.1465C28.9701 38.7677 28.5913 38.3873 28.2085 38.0055C26.9169 36.7163 25.4346 35.9801 23.8823 36.1373C22.3303 36.2945 21.0288 37.3125 20.0268 38.8243C19.3187 39.8927 18.6182 40.9611 17.9194 42.0269C15.9385 45.0481 13.9712 48.0484 11.8822 50.9713C9.256 54.6447 3.84807 54.071 2.00256 50.0112L2.00252 50.0111C0.942137 47.679 1.52087 44.8781 3.46962 43.4162L3.46987 43.416C5.63089 41.794 7.8729 40.298 10.1433 38.7831C10.9449 38.2482 11.7501 37.711 12.5564 37.1651L12.5567 37.1649C13.1669 36.7515 13.7897 36.3528 14.4264 35.9451L14.508 35.8928C15.1688 35.4697 15.8438 35.0364 16.5081 34.5817L16.5083 34.5815C17.8079 33.6915 18.6273 32.4451 18.778 31.0448C18.9288 29.6433 18.3921 28.2531 17.3042 27.1131C16.5297 26.3012 15.7175 25.4972 14.9186 24.7064C14.4478 24.2404 13.9817 23.779 13.5305 23.3232C13.0719 22.8591 13.0231 22.6057 13.0234 22.5032C13.0236 22.3977 13.0762 22.1394 13.5383 21.6675C14.4237 20.7648 15.3108 19.8648 16.1856 18.9773Z" stroke="#7132F5" stroke-width="2.16" stroke-miterlimit="10"/>
</svg>
