<svg width="58" height="68" viewBox="0 0 58 68" fill="none" xmlns="http://www.w3.org/2000/svg">
<path d="M50.6097 58.9932C50.7493 59.419 50.9413 59.8315 50.8732 60.3049C50.868 60.3448 50.875 60.3885 50.8855 60.4265C50.9989 60.8391 51.1176 61.2497 51.2275 61.6641C51.3148 61.993 51.3898 62.3257 51.4701 62.6564C51.1176 62.7116 50.7476 62.7097 50.4178 62.8351C49.896 63.0328 49.3917 63.2914 48.8978 63.5651C47.5122 64.3331 46.7199 65.9224 46.8089 67.5554C46.8176 67.7018 46.8071 67.85 46.8054 67.9983H4.42896C4.4848 67.8291 4.51098 67.639 4.60347 67.4984C4.98215 66.9166 5.35735 66.3311 5.77618 65.7836C6.33287 65.0555 6.9105 64.3426 7.51082 63.6583C7.99945 63.1013 8.66433 63.0138 9.23324 63.3731C9.72536 63.683 10.2105 64.0024 10.6974 64.3198C11.2261 64.6639 11.7497 65.0137 12.3692 65.1525C13.3081 65.3616 14.0585 65.1373 14.4878 64.0309C14.842 63.1184 15.198 62.204 15.6116 61.3238C16.0793 60.3277 16.8035 59.6737 17.8872 59.6281C18.1176 59.6718 18.3532 59.6965 18.5783 59.7612C19.491 60.0254 20.4159 60.2003 21.3635 60.2193C21.4717 60.3011 21.5781 60.3904 21.6916 60.4627C21.901 60.5957 22.1435 60.6832 22.3215 60.8543C22.4961 61.0197 22.7282 61.1451 22.8957 61.2193C23.1574 61.3352 23.2499 61.7344 23.5833 61.666C23.5937 61.7421 23.6059 61.82 23.6094 61.8428C23.7246 61.858 23.8415 61.8428 23.9218 61.8922C24.0963 62.0006 24.2412 62.1641 24.4174 62.2667C24.6513 62.4036 24.9043 62.5006 25.1504 62.6165C25.5674 62.8142 25.9845 63.0138 26.4033 63.2096C26.6459 63.3218 26.892 63.4245 27.1345 63.5328C27.6773 63.7742 28.2095 64.048 28.7627 64.2514C29.2252 64.4225 29.7173 64.5004 30.1902 64.6411C30.9127 64.8559 31.6544 64.8806 32.3716 64.7419C33.0889 64.6031 33.8445 64.5061 34.4483 63.9719C34.4692 63.9529 34.4989 63.9472 34.5251 63.9377C34.7851 63.8446 35.0678 63.7933 35.3017 63.6488C35.7275 63.3864 36.1323 63.0766 36.5337 62.7686C37.1602 62.2895 37.7762 61.7953 38.3975 61.3086C38.6348 61.1242 38.8809 60.9512 39.1182 60.7668C39.3992 60.5482 39.6749 60.3201 39.9524 60.0977C39.9925 60.073 40.0344 60.0501 40.0745 60.0254L40.071 60.0292C40.5684 59.8353 41.0518 59.8543 41.5212 60.13C41.7795 60.2821 42.043 60.4227 42.303 60.571C44.1336 61.6204 46.0166 61.8808 47.9711 61.0025C48.7809 60.6376 49.5679 60.2288 50.1857 59.5236C50.334 59.3544 50.4666 59.17 50.6062 58.9932H50.6097Z" fill="#DBCBAA"/>
<path d="M17.8907 59.6276C16.8053 59.6733 16.0828 60.3272 15.6151 61.3233C15.2015 62.2035 14.8455 63.1179 14.4913 64.0304C14.0602 65.1368 13.3116 65.363 12.3727 65.152C11.7514 65.0132 11.2297 64.6634 10.7009 64.3194C10.214 64.0019 9.72712 63.6825 9.23675 63.3727C8.66959 63.0153 8.00295 63.1008 7.51432 63.6578C6.91401 64.3441 6.33638 65.0551 5.77969 65.7831C5.36261 66.3306 4.98566 66.9162 4.60698 67.4979C4.51448 67.6386 4.49005 67.8306 4.43246 67.9978H0.00512695V67.6119C0.209305 67.4637 0.416972 67.3211 0.619405 67.169C1.07662 66.823 1.53559 66.4789 1.98757 66.1253C2.64373 65.6102 3.28593 65.0722 3.95256 64.5703C4.24923 64.346 4.50925 64.0817 4.84431 63.8935C5.26314 63.6578 5.5982 63.2396 5.95245 62.8803C6.1514 62.6788 6.31543 62.4354 6.49693 62.2111C6.87561 62.1446 7.08852 61.9526 7.14611 61.6294C7.18101 61.6047 7.21591 61.5819 7.24907 61.5572C7.33283 61.5477 7.44976 61.5724 7.49687 61.523C7.76213 61.2359 7.97329 60.8747 8.2717 60.6409C8.76557 60.2569 9.07445 59.7056 9.47059 59.236C9.502 59.198 9.48979 59.1163 9.49851 59.0535H9.502C9.72538 58.8064 9.99761 58.5935 10.029 58.2057C10.0308 58.1695 10.0343 58.1315 10.036 58.0954C10.2419 58.1391 10.3222 57.9718 10.3763 57.8179C10.5822 57.2285 10.7707 56.6335 10.9661 56.0404C11.1284 55.5461 11.2925 55.0538 11.4565 54.5595C11.4705 54.5063 11.4844 54.4511 11.5019 54.3789C11.5473 54.4207 11.57 54.4397 11.5891 54.4626C12.0883 55.0747 12.5612 55.7172 13.0969 56.2913C13.5245 56.7514 14.0288 57.1259 14.5 57.5384C14.6815 57.6981 14.8525 57.8768 15.0497 58.008C15.3533 58.2114 15.671 58.392 15.9886 58.565C16.4667 58.8254 16.9536 59.0649 17.4335 59.3235C17.5941 59.409 17.7407 59.5231 17.8942 59.6257L17.8907 59.6276Z" fill="#C5A575"/>
<path d="M46.8038 68.0001C46.8038 67.8518 46.816 67.7054 46.8073 67.5571C46.7183 65.9242 47.5106 64.3349 48.8962 63.5669C49.39 63.2932 49.8944 63.0346 50.4162 62.8369C50.746 62.7114 51.1159 62.7133 51.4685 62.6582V62.662C51.4842 62.6867 51.5016 62.7133 51.5173 62.738C51.903 64.0193 52.4719 65.1961 53.2869 66.2131C53.7493 66.791 54.2641 67.3176 54.7545 67.8689C54.7859 67.905 54.8034 67.9564 54.8278 68.0001H46.8003H46.8038Z" fill="#C5A575"/>
<path d="M6.4918 62.2095C6.31205 62.4338 6.14801 62.6771 5.94733 62.8786C5.59307 63.2379 5.25801 63.6562 4.83918 63.8919C4.50412 64.0801 4.2441 64.3462 3.94743 64.5686C3.28255 65.0705 2.64035 65.6085 1.98244 66.1237C1.53046 66.4792 1.0715 66.8233 0.614278 67.1673C0.411845 67.3194 0.205923 67.4639 0 67.6103C0 67.5456 0 67.481 0 67.4183C0.0767847 67.3803 0.162295 67.3536 0.230354 67.3004C1.46764 66.3176 2.71015 65.3424 3.93522 64.3443C4.74844 63.6809 5.53723 62.9813 6.33823 62.2988C6.3836 62.2608 6.43945 62.238 6.49005 62.2095H6.4918Z" fill="#C0AC8D"/>
<path d="M56.536 34.5192C57.2829 35.3082 57.3266 35.9051 56.6756 36.8784C56.4819 37.1674 56.2446 37.424 56.009 37.6749C55.9165 37.7738 55.7717 37.865 55.6478 37.8688C55.2377 37.8783 55.133 38.154 55.0091 38.5228C54.7281 39.3649 54.2185 39.9847 53.3634 40.171C53.3093 39.5664 53.2884 38.9543 53.1976 38.3574C53.0022 37.0628 52.6287 35.8176 52.0581 34.6675C51.5712 33.6866 51.0407 32.7171 50.4229 31.8331C49.5382 30.5651 48.4667 29.4891 47.2538 28.5747C45.9956 27.6261 44.6606 26.8448 43.2209 26.3049C42.1773 25.9152 41.111 25.5654 40.0308 25.3335C38.7464 25.0578 37.4393 24.8886 36.1357 24.7499C35.3522 24.6662 34.5547 24.7213 33.7641 24.7328C32.9998 24.7442 32.2284 24.708 31.4746 24.8164C30.0593 25.0179 28.6457 25.2593 27.2479 25.5749C26.1782 25.8163 25.1241 26.1604 24.0823 26.5292C22.5448 27.0729 21.0685 27.7877 19.6881 28.7116C18.8976 29.2401 18.1245 29.8028 17.3793 30.4054C16.2921 31.2856 15.3026 32.2931 14.4301 33.4242C13.9537 34.0421 13.479 34.6713 13.0776 35.3462C12.5541 36.2282 12.0794 37.1464 11.6327 38.0779C10.987 39.4163 10.5507 40.8439 10.275 42.3248C10.1476 43.013 10.0726 43.7145 9.97308 44.4103C9.48445 44.3532 9.04294 44.1859 8.70962 43.7677C8.67298 43.7202 8.63109 43.6613 8.62411 43.6042C8.56304 43.0643 8.18609 42.9332 7.78995 42.7906C7.4514 42.6689 7.11285 42.5225 6.80746 42.3267C6.45494 42.1024 6.30312 41.6937 6.14955 41.2945C6.07626 41.1044 5.96457 40.9105 5.82322 40.7793C5.28049 40.2698 5.18102 39.8972 5.43406 39.1368C5.63474 39.0665 5.71153 38.9068 5.76214 38.6901C5.9 38.1008 6.02739 37.5038 6.2211 36.9354C6.88948 34.9755 7.8458 33.1904 9.13718 31.6449C9.89455 30.7381 10.6921 29.8617 11.5454 29.0671C12.3918 28.2782 13.3097 27.5748 14.2329 26.8904C14.9606 26.3524 15.7319 25.8772 16.505 25.4171C17.313 24.9362 18.1297 24.4685 18.9709 24.0655C19.819 23.6587 20.6915 23.2994 21.5746 22.9895C22.749 22.5751 23.9322 22.1797 25.1328 21.866C26.1014 21.6132 27.0943 21.4516 28.0838 21.3223C29.3473 21.1569 30.616 20.9972 31.8864 20.9573C33.2266 20.9174 34.5721 20.982 35.9106 21.0771C36.9542 21.1512 38.0065 21.2596 39.0291 21.4953C40.5125 21.8375 41.9766 22.2861 43.4373 22.731C45.1248 23.2443 46.7058 24.0427 48.252 24.9343C49.9517 25.9152 51.5136 27.1014 52.9062 28.55C54.0702 29.7591 55.0649 31.1183 55.8205 32.6657C56.1085 33.255 56.3004 33.9014 56.536 34.5211V34.5192Z" fill="#CD9E96"/>
<path d="M9.97485 44.4046C10.0743 43.7088 10.1476 43.0093 10.2768 42.3192C10.5525 40.8383 10.9888 39.4106 11.6345 38.0723C12.0829 37.1427 12.5576 36.2226 13.0794 35.3405C13.4808 34.6638 13.9554 34.0364 14.4319 33.4186C15.3044 32.2875 16.2921 31.2799 17.3811 30.3998C18.1245 29.799 18.8993 29.2363 19.6899 28.7059C21.0702 27.782 22.5466 27.0692 24.084 26.5236C25.1241 26.1548 26.1799 25.8107 27.2497 25.5693C28.6475 25.2537 30.061 25.0123 31.4763 24.8107C32.2302 24.7043 33.0015 24.7385 33.7659 24.7271C34.5564 24.7157 35.354 24.6606 36.1375 24.7442C37.4411 24.883 38.7482 25.0522 40.0326 25.3278C41.1128 25.5598 42.1791 25.9095 43.2226 26.2993C44.6641 26.8372 45.9974 27.6205 47.2556 28.5691C48.4684 29.4835 49.5399 30.5594 50.4247 31.8274C51.0425 32.7133 51.573 33.6828 52.0599 34.6619C52.6323 35.812 53.004 37.0571 53.1994 38.3517C53.2902 38.9506 53.3129 39.5608 53.3652 40.1653C52.9883 40.1843 52.6113 40.2033 52.2344 40.2205C52.1768 40.1102 52.1175 39.9999 52.0616 39.8897C51.84 39.4448 51.6201 38.9981 51.3985 38.5533C51.1838 38.1673 50.9709 37.7814 50.7563 37.3955C50.245 36.6674 49.7336 35.9412 49.2241 35.2132C48.9867 34.9223 48.7651 34.6143 48.5068 34.3463C48.1683 33.9965 47.8035 33.6771 47.4458 33.3482C47.0095 32.9471 46.5802 32.5384 46.13 32.1582C45.9433 32.0004 45.7112 31.9035 45.5 31.7799L45.5052 31.759C45.486 31.7286 45.4668 31.6982 45.4477 31.6696C45.2871 31.567 45.1196 31.4776 44.9677 31.3598C43.8771 30.5081 42.6468 29.9549 41.4112 29.434C40.605 29.0938 39.7621 28.8504 38.9244 28.6071C38.2561 28.4132 37.572 28.2763 36.8914 28.1318C36.586 28.0672 36.2719 28.0482 35.963 28.0083C35.7204 27.9626 35.4796 27.8999 35.237 27.8771C34.6681 27.8239 34.0992 27.7744 33.5286 27.7554C32.9038 27.7364 32.2756 27.7136 31.6543 27.7649C30.8743 27.8296 30.0942 27.9303 29.3246 28.0805C28.7243 28.1984 28.1414 28.4151 27.5498 28.5862C27.4626 28.5919 27.3683 28.5786 27.2881 28.609C26.6424 28.8466 25.9914 29.0728 25.3545 29.3409C24.7734 29.5842 24.2045 29.8618 23.639 30.1469C23.2255 30.356 22.8293 30.6032 22.4262 30.8351C22.2482 30.9168 22.0667 30.9872 21.8957 31.0822C21.4105 31.3503 20.9254 31.6145 20.4507 31.9035C20.0232 32.1639 19.6131 32.4567 19.1943 32.7323C18.7632 33.0156 18.3234 33.2836 17.9029 33.5821C17.4823 33.8805 17.0705 34.1961 16.6708 34.5288C16.3166 34.8234 15.985 35.1504 15.6447 35.4622C15.554 35.5401 15.451 35.6067 15.3742 35.6979C15.1613 35.9488 14.9571 36.2112 14.7495 36.4697C14.5226 36.696 14.2678 36.8956 14.0759 37.1522C13.7879 37.5343 13.5453 37.9544 13.2818 38.3574C13.0672 38.77 12.8211 39.1673 12.6431 39.5988C12.076 40.9695 11.8142 42.4351 11.5751 43.9046C11.535 44.148 11.4687 44.3362 11.2086 44.3514C10.7968 44.3685 10.385 44.3856 9.97485 44.4027V44.4046ZM16.7912 34.3254L16.8035 34.3045L16.7825 34.3007L16.7912 34.3254Z" fill="#A47F78"/>
<path d="M56.5362 34.5189C56.3006 33.8992 56.1086 33.2529 55.8207 32.6635C55.0633 31.1161 54.0704 29.7569 52.9064 28.5478C51.5138 27.1011 49.9519 25.9149 48.2522 24.9321C46.706 24.0405 45.1249 23.244 43.4374 22.7288C41.9768 22.284 40.5126 21.8353 39.0293 21.4931C38.0084 21.2574 36.9561 21.149 35.9108 21.0749C34.5723 20.9799 33.2268 20.9152 31.8866 20.9551C30.6161 20.9932 29.3474 21.1528 28.084 21.3201C27.0945 21.4494 26.1015 21.611 25.133 21.8638C23.9341 22.1775 22.7492 22.5729 21.5747 22.9873C20.6917 23.2991 19.8209 23.6565 18.971 24.0633C18.1299 24.4663 17.3132 24.934 16.5052 25.4149C15.7321 25.875 14.9608 26.3483 14.233 26.8882C13.3099 27.5707 12.392 28.2741 11.5456 29.0649C10.6922 29.8614 9.8947 30.7378 9.13733 31.6427C7.84595 33.1882 6.88788 34.9733 6.22125 36.9332C6.02754 37.5017 5.89841 38.0986 5.76229 38.6879C5.71168 38.9046 5.6349 39.0643 5.43421 39.1346C5.22305 38.8989 5.00491 38.667 4.92115 38.3362C4.87926 38.1746 4.82691 38.0054 4.82866 37.8419C4.83215 37.188 4.9927 36.5987 5.4534 36.1367C5.50576 36.0854 5.53193 35.8953 5.49703 35.863C5.07472 35.4714 5.26668 35.0075 5.35393 34.5589C5.39233 34.3631 5.46562 34.1768 5.50401 33.981C5.60697 33.4449 5.95076 33.0989 6.30851 32.77C6.44462 32.6445 6.63659 32.5894 6.77969 32.4715C6.84949 32.4145 6.91755 32.2662 6.89835 32.1864C6.81284 31.8328 7.024 31.5534 7.06239 31.2359C7.12522 30.7017 7.54579 30.504 7.8634 30.2112C7.92797 30.1523 8.01697 30.0972 8.04489 30.0192C8.31364 29.2778 8.81099 28.7988 9.47413 28.4984C9.65388 28.4167 9.7708 28.3254 9.77778 28.0365C9.78302 27.7836 9.99941 27.5365 10.1251 27.2894C10.1896 27.162 10.2647 27.0403 10.3345 26.9168C10.5299 26.8635 10.7271 26.8122 10.94 26.7552C10.9226 26.2305 11.1634 25.8389 11.5142 25.51C11.7498 25.4016 11.9836 25.2914 12.2192 25.183C12.5036 25.2267 12.7863 25.2686 13.0202 25.3047C13.268 24.9815 13.5088 24.6678 13.7496 24.3561C14.0324 24.223 14.3151 24.0918 14.5943 23.9531C14.6676 23.9169 14.7444 23.8618 14.795 23.7934C14.9311 23.6033 15.0532 23.4018 15.1824 23.2041C15.7077 22.8524 16.2451 22.5634 16.8961 22.706C16.9641 22.7212 17.0496 22.6413 17.1264 22.6052C17.2835 22.5463 17.4388 22.4436 17.5959 22.4379C17.9833 22.4265 18.1927 22.1699 18.3794 21.8581C18.5609 21.7631 18.7389 21.6547 18.9274 21.5787C19.238 21.4551 19.5574 21.3563 19.8697 21.2403C19.95 21.2099 20.0722 21.1738 20.0931 21.1091C20.3095 20.4343 20.8627 20.2841 21.3915 20.0921C21.4194 20.0826 21.4456 20.0674 21.4717 20.0541C21.5782 20.0693 21.6829 20.0921 21.7894 20.0997C22.1995 20.1301 22.6113 20.1339 23.0179 20.1947C23.2256 20.2251 23.36 20.1871 23.4559 19.9913C23.7404 19.8582 24.0196 19.71 24.3093 19.5921C24.9934 19.3165 25.6879 19.3583 26.386 19.5256C26.831 19.1739 27.3266 18.9439 27.8641 18.8203C28.5202 18.6986 29.1712 18.769 29.8238 18.864C30.0385 18.8944 30.2671 18.8127 30.487 18.7709C30.8534 18.7024 31.2182 18.6264 31.5829 18.5522C31.9965 18.5789 32.4101 18.6055 32.8254 18.6321C33.1203 18.7385 33.4135 18.8507 33.7102 18.9496C33.7974 18.9781 33.9179 19.0066 33.9894 18.9648C34.7852 18.4914 35.6263 18.537 36.4779 18.6853C36.5163 18.6929 36.5565 18.6891 36.5949 18.691C36.9631 18.9229 37.3278 19.1568 37.6995 19.3811C37.7571 19.4153 37.8374 19.402 37.9072 19.4096C38.682 19.1568 39.3888 19.3184 40.0554 19.7974C40.1496 19.864 40.291 19.8944 40.4044 19.8811C40.7534 19.8373 41.0972 19.7651 41.4445 19.7043C41.8337 19.7955 42.2228 19.8887 42.6137 19.9799C42.9872 20.2442 43.3606 20.5103 43.7341 20.7726C43.7899 20.8126 43.8475 20.8658 43.9103 20.8753C44.3606 20.9475 44.8143 21.0103 45.2663 21.0768C45.5211 21.2954 45.7759 21.514 46.0306 21.7327C46.0743 21.7574 46.1284 21.8144 46.1598 21.803C47.0358 21.4722 47.8456 21.6737 48.6274 22.1433C48.7007 22.187 48.7914 22.1984 48.8752 22.225L48.8734 22.2231C48.8944 22.2478 48.9153 22.2725 48.9345 22.2992C48.9432 22.341 48.9415 22.4113 48.9607 22.4189C49.4388 22.5995 49.6727 23.071 50.0008 23.4303C50.17 23.6166 50.3637 23.7782 50.5627 23.9245C50.6482 23.9873 50.7878 24.0272 50.8855 24.0025C51.4143 23.8637 51.9151 24.0348 52.4212 24.1356C52.4491 24.1413 52.4788 24.1603 52.4963 24.1831C53.025 24.8427 53.6027 25.4625 53.6655 26.4244C53.6952 26.8692 53.922 27.1715 54.3374 27.392C54.6986 27.5821 54.99 27.9661 55.2605 28.314C55.456 28.5649 55.6078 28.8786 55.6985 29.1923C55.7945 29.5307 55.798 29.8995 55.8382 30.2569C55.8573 30.426 55.8853 30.5952 55.8818 30.7644C55.8765 31.1389 56.2046 31.2587 56.3704 31.4868C56.6583 31.8784 56.7316 32.3252 56.8398 32.7738C56.9393 33.1901 56.7927 33.5779 56.702 33.9715C56.6583 34.1578 56.5938 34.3384 56.5397 34.5208L56.5362 34.5189Z" fill="#F4CCC5"/>
<path d="M51.3987 38.557C51.6204 39.0037 51.8402 39.4486 52.0619 39.8934C52.1177 40.0056 52.1771 40.1139 52.2346 40.2242C52.0985 40.9219 51.9903 41.629 51.8211 42.3172C51.6204 43.1251 51.3795 43.9236 51.1317 44.7163C50.9555 45.2771 50.7426 45.8227 50.5332 46.3702C50.4285 46.642 50.2958 46.9006 50.1754 47.1648C50.1178 47.2504 50.0515 47.3302 50.0044 47.4215C49.6973 48.0165 49.4268 48.6381 49.083 49.2065C48.5141 50.1494 47.9277 51.0828 47.296 51.9763C46.5979 52.9629 45.8737 53.9363 45.0989 54.8507C44.263 55.8373 43.3695 56.7669 42.4743 57.6908C41.9368 58.2478 41.3452 58.7421 40.785 59.2762C40.5372 59.512 40.3121 59.7743 40.0765 60.0252L40.08 60.0214C40.0398 60.0462 39.9979 60.069 39.9578 60.0937C39.6803 60.318 39.4046 60.5442 39.1237 60.7628C38.8863 60.9472 38.6403 61.1202 38.4029 61.3046C37.7799 61.7894 37.1656 62.2856 36.5391 62.7646C36.1378 63.0726 35.7329 63.3805 35.3071 63.6448C35.0733 63.7893 34.7905 63.8406 34.5305 63.9338C34.5044 63.9433 34.4747 63.9509 34.4537 63.968C33.8499 64.5022 33.0926 64.5991 32.3771 64.7379C31.6598 64.8767 30.9164 64.8519 30.1957 64.6371C29.7228 64.4965 29.2324 64.4185 28.7682 64.2474C28.215 64.044 27.681 63.7722 27.14 63.5288C26.8957 63.4205 26.6496 63.3178 26.4088 63.2057C25.99 63.0118 25.5729 62.8102 25.1558 62.6125C24.9115 62.4966 24.6585 62.3977 24.4229 62.2627C24.2466 62.1601 24.1018 61.9966 23.9273 61.8882C23.847 61.8388 23.7318 61.854 23.6149 61.8388C23.6114 61.816 23.6009 61.74 23.5887 61.662C23.2554 61.7286 23.1629 61.3293 22.9011 61.2153C22.7336 61.1411 22.5015 61.0176 22.327 60.8503C22.149 60.6811 21.9064 60.5918 21.697 60.4587C21.5836 60.3864 21.4789 60.2971 21.3689 60.2153C21.3026 60.1393 21.2433 60.05 21.1682 59.9872C20.5208 59.4359 19.8367 58.9303 19.2312 58.3314C18.4127 57.5235 17.5995 56.6947 16.8788 55.7841C16.1511 54.8659 15.5176 53.8564 14.8841 52.8565C14.0308 51.5106 13.2873 50.0943 12.6818 48.5944C12.6469 48.5088 12.5387 48.4575 12.4654 48.391C12.3624 48.0526 12.2612 47.7123 12.1565 47.3739C11.8424 46.3645 11.5265 45.3569 11.2124 44.3494C11.4724 44.3342 11.5387 44.146 11.5789 43.9027C11.818 42.4332 12.0815 40.9675 12.6469 39.5968C12.8249 39.1653 13.0709 38.768 13.2856 38.3555C13.303 38.4049 13.331 38.4562 13.3345 38.5056C13.3484 38.8954 13.3449 39.287 13.3694 39.6767C13.392 40.0398 13.4235 40.3972 13.4217 40.7641C13.4182 41.418 13.5072 42.0758 13.5648 42.7297C13.6084 43.2088 13.666 43.6859 13.7166 44.1574C13.8039 44.1479 13.858 44.1403 13.8527 44.1422C13.8527 44.3589 13.8353 44.5528 13.8562 44.741C13.8877 45.0052 13.9557 45.2638 13.9924 45.5261C14.111 46.3455 14.3135 47.1401 14.5543 47.9233C14.7393 48.5259 14.9591 49.1172 15.1755 49.7084C15.2925 50.0278 15.4303 50.3376 15.5717 50.6456C15.6345 50.7806 15.7444 50.8908 15.8055 51.0258C16.0394 51.5505 16.2401 52.0961 16.5001 52.6074C16.6449 52.8926 16.8857 53.1169 17.0742 53.3755C17.493 53.9496 17.8979 54.537 18.3237 55.1054C18.5994 55.4742 18.9013 55.8202 19.2015 56.1662C19.2504 56.2232 19.3533 56.2232 19.4109 56.2441C19.5697 56.4931 19.732 56.7441 19.8926 56.9969C19.9711 57.0387 20.0601 57.0634 20.1247 57.1224C20.8 57.7535 21.4649 58.3999 22.1438 59.0253C22.58 59.4264 22.9971 59.8846 23.4945 60.1602C23.9831 60.4302 24.3583 60.8503 24.8365 61.124C25.5851 61.5518 26.3076 62.0327 27.051 62.4738C27.407 62.6848 27.7787 62.8654 28.1522 63.0346C28.4349 63.1638 28.7717 63.1923 29.0177 63.3729C29.379 63.6391 29.7646 63.7779 30.1747 63.8767C30.7524 64.0155 31.33 64.1695 31.9251 64.1277C32.2183 64.1067 32.5184 64.063 32.7994 63.9756C33.1606 63.8615 33.5184 63.7189 33.8587 63.5421C34.6317 63.1391 35.3961 62.7152 36.157 62.2818C36.4833 62.0955 36.7904 61.873 37.1028 61.6582C37.3297 61.5023 37.5531 61.3446 37.7677 61.1697C37.8462 61.105 37.8794 60.972 37.9597 60.913C38.3331 60.6355 38.7345 60.3959 39.094 60.0975C39.6873 59.6032 40.2458 59.0595 40.8391 58.5634C41.415 58.0843 41.9629 57.5805 42.3818 56.9304C42.4812 56.8752 42.6034 56.8429 42.6784 56.7612C42.9489 56.4646 43.2037 56.151 43.4655 55.8449C43.7848 55.4704 44.0606 55.0693 44.1513 54.5503C44.2351 54.345 44.3468 54.1492 44.3991 53.9344C44.5282 53.4021 44.6417 52.8622 44.7307 52.3204C44.7499 52.2006 44.6452 52.0542 44.5928 51.9136C44.886 51.5391 44.5422 51.0391 44.6836 50.5714C44.7865 50.6304 44.886 50.6969 44.9907 50.7444C45.2804 50.8756 45.5648 51.0524 45.8685 51.1132C46.5508 51.2501 47.125 50.9935 47.6607 50.503C48.3535 49.8681 48.7933 49.062 49.165 48.1914C49.2557 47.9785 49.3325 47.7598 49.4058 47.5393C49.6536 46.7941 49.9067 46.0489 50.137 45.2961C50.2505 44.9254 50.3046 44.5338 50.4145 44.1612C50.6745 43.2696 50.863 42.3647 50.9607 41.4351C50.9886 41.1709 51.055 40.9085 51.1352 40.6576C51.2155 40.4067 51.1631 40.247 50.9398 40.1481C51.2068 40.1785 51.2347 39.977 51.2574 39.7641C51.3028 39.3573 51.3534 38.9505 51.4022 38.5456L51.3987 38.557Z" fill="#C9BA9D"/>
<path d="M40.0765 60.0289C40.3121 59.778 40.5389 59.5156 40.785 59.2799C41.3434 58.7457 41.935 58.2514 42.4743 57.6944C43.3695 56.7686 44.263 55.8409 45.0989 54.8543C45.8737 53.938 46.598 52.9666 47.296 51.9799C47.9277 51.0865 48.5141 50.1531 49.083 49.2102C49.4268 48.6417 49.6973 48.0201 50.0044 47.4251C50.0515 47.3338 50.1178 47.254 50.1754 47.1685C50.1597 48.4098 50.1423 49.6493 50.1248 50.8907C50.1283 50.9401 50.1335 50.9895 50.137 51.0408C50.165 52.0921 50.1772 53.1453 50.2243 54.1965C50.2592 54.9722 50.3273 55.7478 50.3971 56.5215C50.4599 57.2097 50.5471 57.8959 50.6152 58.5841C50.6292 58.7191 50.6117 58.8579 50.6082 58.9966C50.4686 59.1734 50.336 59.3578 50.1876 59.527C49.5699 60.2323 48.7846 60.641 47.9731 61.006C46.0186 61.8843 44.1373 61.6238 42.305 60.5745C42.045 60.4262 41.7815 60.2855 41.5232 60.1334C41.052 59.8578 40.5686 59.8388 40.073 60.0327L40.0765 60.0289Z" fill="#A8906F"/>
<path d="M12.4635 48.397C12.5368 48.4635 12.645 48.5148 12.6799 48.6004C13.2855 50.1003 14.0289 51.5166 14.8822 52.8625C15.5157 53.8624 16.1509 54.8719 16.8769 55.7901C17.5976 56.6987 18.4091 57.5295 19.2293 58.3374C19.8366 58.9363 20.5207 59.4419 21.1664 59.9932C21.2414 60.0579 21.3007 60.1453 21.3671 60.2213C20.4195 60.2023 19.4946 60.0274 18.5819 59.7632C18.3567 59.6986 18.1212 59.6738 17.8908 59.6301C17.7372 59.5294 17.5889 59.4153 17.4301 59.3279C16.9502 59.0693 16.465 58.8298 15.9851 58.5694C15.6658 58.3964 15.3482 58.2158 15.0463 58.0124C14.8491 57.8793 14.6781 57.7006 14.4966 57.5428C14.0254 57.1303 13.521 56.7558 13.0935 56.2957C12.5578 55.7216 12.0866 55.0791 11.5857 54.4669C11.5665 54.4441 11.5438 54.427 11.4985 54.3833C11.4793 54.4555 11.4653 54.5107 11.4531 54.5639C11.4339 54.4783 11.4147 54.3947 11.3955 54.3092C11.4566 54.0411 11.5264 53.7769 11.577 53.5069C11.755 52.5716 11.9347 51.6382 12.097 50.6991C12.2297 49.9349 12.3414 49.165 12.4635 48.3989V48.397Z" fill="#A8906F"/>
<path d="M11.3937 54.3066C11.4129 54.3922 11.4321 54.4758 11.4513 54.5614C11.2872 55.0556 11.1232 55.548 10.9609 56.0423C10.7655 56.6354 10.577 57.2304 10.3711 57.8197C10.317 57.9718 10.2384 58.141 10.0308 58.0973C10.2123 57.6734 10.4164 57.2589 10.5683 56.8236C10.8405 56.0385 11.0796 55.2419 11.3326 54.4492C11.3483 54.3998 11.3728 54.3561 11.3937 54.3104V54.3066Z" fill="#C0AC8D"/>
<path d="M9.49358 59.0537C9.48486 59.1164 9.49882 59.1982 9.46566 59.2362C9.06952 59.7058 8.75889 60.2552 8.26677 60.6411C7.96836 60.873 7.7572 61.2342 7.49195 61.5231C7.44483 61.5745 7.32791 61.5479 7.24414 61.5574C7.44134 61.3273 7.63679 61.0935 7.83573 60.8654C8.29121 60.3464 8.74668 59.8255 9.20564 59.3104C9.29115 59.2134 9.3976 59.1374 9.49358 59.0537Z" fill="#C0AC8D"/>
<path d="M10.0241 58.208C9.99268 58.5958 9.72044 58.8087 9.49707 59.0559C9.67333 58.7726 9.84784 58.4913 10.0241 58.208Z" fill="#C0AC8D"/>
<path d="M7.14088 61.6279C7.08329 61.9511 6.87039 62.1431 6.4917 62.2096C6.70809 62.0157 6.92449 61.8218 7.14088 61.6279Z" fill="#C0AC8D"/>
<path d="M50.137 51.0374C50.1335 50.988 50.1282 50.9385 50.1248 50.8872C50.1282 50.9366 50.1335 50.9861 50.137 51.0374Z" fill="#C9BA9D"/>
<path d="M48.9309 22.2958C48.91 22.2711 48.8891 22.2463 48.8699 22.2197C48.8908 22.2444 48.9118 22.2692 48.9309 22.2958Z" fill="#CC9F97"/>
<path d="M12.2192 25.1793C11.9836 25.2876 11.7497 25.3979 11.5142 25.5063C11.5351 25.2895 11.5299 25.0652 11.5805 24.858C11.8719 23.668 12.1756 22.4817 12.4775 21.2955C12.4827 21.2765 12.5001 21.2632 12.5281 21.2271C12.6555 21.7783 12.4478 22.2688 12.4024 22.7764C12.3291 23.5767 12.0482 24.358 12.2192 25.1812V25.1793Z" fill="#AE877F"/>
<path d="M10.3327 26.9132C10.2733 26.6338 10.1948 26.3562 10.1564 26.073C10.0587 25.362 10.0203 24.651 10.2332 23.9476C10.2786 23.7994 10.2227 23.6131 10.2123 23.4458C10.1547 22.5466 10.413 21.7386 10.8161 20.9725C10.8981 20.8147 10.9993 20.6684 11.0709 20.5068C11.104 20.4326 11.111 20.3224 11.0883 20.2444C10.8074 19.2692 10.9627 18.3871 11.5769 17.6172C11.7968 17.3416 11.8754 17.0279 11.9103 16.6819C11.9713 16.0527 12.2226 15.509 12.5123 14.9691C12.6327 14.7429 12.6502 14.4425 12.6816 14.1726C12.795 13.2278 13.1336 12.3913 13.6868 11.6594C13.8107 11.4959 13.9538 11.3476 14.0829 11.188C14.1283 11.1328 14.1859 11.072 14.1981 11.0036C14.3778 9.94659 15.0846 9.34777 15.8437 8.83449C16.1718 8.61207 16.3899 8.35353 16.5592 7.99614C16.8699 7.33649 17.4021 6.9829 18.0513 6.88594C18.2974 6.84982 18.4579 6.74337 18.5835 6.56087C18.9919 5.97155 19.5538 5.67309 20.1925 5.53051C20.3828 5.48869 20.4543 5.39934 20.4892 5.20734C20.58 4.71307 20.7841 4.28344 21.1262 3.93175C21.1803 3.87662 21.2361 3.79678 21.2448 3.72074C21.4089 2.42614 22.1383 1.6068 23.147 1.02699C23.6531 0.73613 24.1923 0.825478 24.7316 0.907222C24.9096 0.933836 25.1277 0.901519 25.2848 0.81027C25.9636 0.412956 26.6547 0.0441569 27.4365 0.00423539C28.3439 -0.0413892 29.1449 0.274181 29.5585 1.31214C29.6074 1.43571 29.6388 1.58399 29.6266 1.71706C29.6004 2.02502 29.6964 2.13528 29.9878 2.11057C30.4573 2.07255 30.8866 2.21323 31.3141 2.44705C31.9092 2.77213 32.3175 3.24928 32.5549 3.94506C32.616 3.91654 32.6893 3.90704 32.7294 3.85951C33.478 2.97554 34.7572 3.06108 35.5983 3.52683C36.1707 3.8424 36.7047 4.2112 37.059 4.82523C37.1009 4.89747 37.2702 4.92979 37.3679 4.90888C38.3783 4.70547 39.8355 5.39744 40.2717 6.55897C40.3032 6.64261 40.4567 6.72055 40.551 6.71865C41.2473 6.69204 41.7219 7.07985 42.0867 7.66917C42.2943 8.00565 42.4845 8.35544 42.673 8.70522C42.7271 8.80408 42.7847 8.93525 42.7707 9.0379C42.7009 9.50936 42.9871 9.61771 43.2978 9.79451C43.5979 9.9656 43.8632 10.2489 44.0866 10.5359C44.4618 11.0169 44.7898 11.5396 44.809 12.2164C44.8108 12.2868 44.9137 12.3894 44.987 12.4179C45.994 12.8019 46.603 13.9863 46.6239 15.0699C46.6274 15.279 46.6728 15.412 46.8316 15.5546C47.0375 15.7371 47.2417 15.9633 47.3499 16.2181C47.4668 16.4975 47.5698 16.7447 47.7827 16.9728C48.2678 17.4918 48.3429 18.1761 48.2399 18.8795C48.2033 19.1342 48.2225 19.3377 48.3481 19.5696C48.6797 20.1779 48.7879 20.868 48.8612 21.5599C48.8839 21.7805 48.8664 22.0048 48.8664 22.2272C48.7844 22.2006 48.6936 22.1892 48.6186 22.1455C47.8368 21.674 47.0253 21.4744 46.151 21.8052C46.1196 21.8166 46.0655 21.7596 46.0219 21.7348C46.0376 21.6778 46.0812 21.6113 46.0672 21.5638C45.9451 21.1056 45.8055 20.6532 45.6833 20.195C45.4093 19.1666 45.1493 18.1343 44.8684 17.1077C44.6799 16.4234 44.474 15.7428 44.2593 15.068C44.1738 14.798 44.0394 14.549 43.9277 14.2885C43.8649 14.3589 43.8649 14.4007 43.8754 14.4368C44.0202 14.9786 44.1721 15.5185 44.3082 16.0641C44.5019 16.834 44.6537 17.6153 44.8771 18.3738C45.1371 19.2578 45.2104 20.1627 45.2558 21.079C44.8038 21.0125 44.3518 20.9497 43.8998 20.8775C43.837 20.868 43.7794 20.8128 43.7236 20.7748C43.3501 20.5106 42.9767 20.2463 42.6032 19.9821C42.6329 19.9479 42.6957 19.9061 42.6887 19.8832C42.5561 19.3548 42.4147 18.8282 42.2751 18.3016C42.0151 17.315 41.7359 16.3321 41.5003 15.3379C41.2839 14.4235 41.1164 13.4939 40.9192 12.5738C40.7098 11.5967 40.4951 10.6215 40.4114 9.61771C40.3939 9.4143 40.2962 9.24511 40.0658 9.19949C40.1077 9.57209 40.1478 9.91998 40.1862 10.2698L40.1705 10.285L40.1862 10.2679C40.352 11.0511 40.5195 11.8324 40.6801 12.6175C40.9087 13.7391 41.1478 14.8607 41.3467 15.988C41.4671 16.6667 41.5561 17.3568 41.5893 18.045C41.6172 18.5982 41.7027 19.178 41.4322 19.7045C41.0867 19.7654 40.7412 19.8376 40.3922 19.8813C40.2787 19.8947 40.1374 19.8661 40.0431 19.7977C39.3765 19.3186 38.668 19.159 37.8949 19.4099C37.8338 19.1076 37.7553 18.8073 37.7117 18.5031C37.5546 17.3872 37.4028 16.2713 37.2649 15.1535C37.1253 14.0243 37.0014 12.8932 36.881 11.7602C36.7344 10.3819 36.6035 8.99988 36.4569 7.62164C36.4343 7.41063 36.361 7.20722 36.3104 7.0019C36.2667 7.00951 36.2248 7.01711 36.1812 7.02472C36.5494 10.9066 36.7798 14.7923 36.5826 18.6932C36.5442 18.6932 36.5041 18.6932 36.4657 18.6875C35.6141 18.5392 34.7729 18.4955 33.9771 18.967C33.9073 19.0088 33.7869 18.9803 33.6979 18.9517C33.4013 18.8548 33.1081 18.7426 32.8132 18.6343C32.7573 18.2027 32.6788 17.7731 32.6491 17.3397C32.5898 16.4652 32.5304 15.5869 32.5182 14.7106C32.5078 13.8798 32.5601 13.0472 32.5811 12.2145C32.6003 11.437 32.6072 10.6595 32.6369 9.88386C32.6805 8.75655 32.7434 7.62924 32.7852 6.50003C32.7905 6.34985 32.7242 6.19587 32.691 6.04189C32.6491 6.04379 32.6055 6.04759 32.5636 6.04949C32.5304 6.37647 32.4833 6.70344 32.4641 7.03042C32.417 7.83265 32.3874 8.63489 32.342 9.43522C32.3071 10.0378 32.26 10.6405 32.2163 11.2431C32.1814 11.7202 32.1448 12.1993 32.1064 12.6765C32.0662 13.1954 32.0209 13.7125 31.9842 14.2315C31.9005 15.3854 31.8237 16.5412 31.7294 17.6952C31.7172 17.8434 31.6858 18.0564 31.4537 18.0316C31.4502 18.0316 31.4432 18.0621 31.438 18.0849C31.5026 18.102 31.5671 18.1191 31.6492 18.14C31.6212 18.2845 31.5968 18.4176 31.5706 18.5525C31.2059 18.6248 30.8412 18.7027 30.4747 18.7711C30.2548 18.813 30.0245 18.8947 29.8116 18.8643C29.1572 18.7692 28.508 18.7008 27.8518 18.8206C27.789 18.1799 27.6948 17.5412 27.6686 16.9005C27.6337 16.0223 27.6197 15.1383 27.6511 14.26C27.6808 13.4084 27.7698 12.5605 27.8536 11.7126C27.953 10.6994 28.0717 9.68805 28.1921 8.67671C28.2357 8.31551 28.4155 7.93531 28.3492 7.60833C28.2549 7.13498 28.4155 6.70535 28.3893 6.2529C28.3614 5.74723 28.4102 5.23776 28.4085 4.72828C28.4085 4.62563 28.337 4.52107 28.2986 4.41841C28.2602 4.42602 28.2218 4.43172 28.1834 4.43933C28.1694 4.58761 28.1555 4.73779 28.1432 4.88607C28.0996 5.39174 28.0665 5.89741 28.0106 6.40118C27.9478 6.96959 27.8571 7.53609 27.7942 8.1045C27.6825 9.12915 27.5918 10.1576 27.4766 11.1823C27.3562 12.2525 27.2201 13.319 27.0892 14.3874C27.0054 15.0737 26.9199 15.7599 26.8309 16.4462C26.7716 16.91 26.7088 17.3739 26.639 17.8358C26.5552 18.3985 26.4627 18.9613 26.3737 19.524C25.6757 19.3567 24.9794 19.3148 24.297 19.5905C24.0073 19.7084 23.7281 19.8547 23.4437 19.9897C23.154 19.0582 23.1522 18.0849 23.1767 17.1268C23.1994 16.2333 23.3268 15.3398 23.4315 14.4501C23.4786 14.0414 23.5955 13.6441 23.6566 13.2373C23.7334 12.7297 23.6845 12.167 23.8765 11.7241C24.112 11.1842 24.1417 10.6234 24.2377 10.074C24.4279 9.00368 24.5762 7.922 24.7036 6.84032C24.7839 6.15595 24.8049 5.46018 24.8293 4.7701C24.8328 4.65794 24.7246 4.54008 24.667 4.42602C24.5867 4.54388 24.4663 4.65224 24.4331 4.78531C24.3808 4.98682 24.393 5.20734 24.3668 5.41835C24.2045 6.70154 24.0684 7.99044 23.8642 9.26603C23.6793 10.4276 23.4297 11.5777 23.1871 12.7278C22.9341 13.9254 22.6654 15.1193 22.3861 16.3093C22.1645 17.2522 21.9184 18.1894 21.6846 19.1304C21.6078 19.4384 21.5328 19.7464 21.4577 20.0543C21.4316 20.0676 21.4054 20.081 21.3775 20.0924C20.8487 20.2863 20.2955 20.4345 20.0791 21.1094C20.0582 21.174 19.9378 21.2102 19.8557 21.2406C19.5416 21.3565 19.224 21.4554 18.9134 21.579C18.7249 21.655 18.5469 21.7634 18.3654 21.8584C18.3811 21.2558 18.3567 20.6475 18.423 20.0524C18.5068 19.2958 18.6411 18.5449 18.7947 17.8016C18.9779 16.9119 19.1978 16.0318 19.4107 15.1478C19.58 14.4463 19.7598 13.7467 19.943 13.0472C20.1995 12.0643 20.4648 11.0853 20.7265 10.1044C20.8819 9.52267 21.0424 8.94095 21.196 8.35734C21.2571 8.12541 21.3077 7.88968 21.3618 7.65586C21.3356 7.64635 21.3094 7.63685 21.2832 7.62734C21.107 7.95242 20.8801 8.25848 20.7649 8.60827C20.484 9.45993 20.2449 10.3287 20.0058 11.1975C19.744 12.1499 19.5015 13.1099 19.2484 14.0661C19.128 14.5243 18.9937 14.9786 18.8802 15.4387C18.6289 16.4481 18.3898 17.4613 18.1403 18.4727C18.0932 18.6666 18.0338 18.8586 17.964 19.0468C17.9309 19.1342 17.8366 19.2008 17.8192 19.2901C17.7843 19.4593 17.8052 19.6418 17.7668 19.811C17.5539 20.7444 17.3306 21.6759 17.1107 22.6074C17.0339 22.6435 16.9484 22.7234 16.8803 22.7082C16.2311 22.5656 15.6919 22.8526 15.1666 23.2062C14.9939 22.5238 15.0759 21.8432 15.212 21.1702C15.3917 20.2806 15.568 19.3871 15.8018 18.5107C16.116 17.334 16.465 16.1686 16.8332 15.0109C17.0967 14.1802 17.4021 13.3627 17.7162 12.5529C17.9553 11.9389 18.2433 11.3476 18.4945 10.7393C18.5696 10.5587 18.594 10.3534 18.6429 10.1538C19.0198 10.053 18.8261 9.55308 19.1734 9.34777C18.8418 9.27553 18.7546 9.45043 18.6778 9.61962C18.3654 10.3059 18.0356 10.9827 17.7599 11.6841C17.3218 12.7924 16.9048 13.9102 16.5104 15.0356C16.2277 15.8417 15.9921 16.6686 15.7425 17.488C15.4092 18.5772 15.0794 19.6665 14.7513 20.7577C14.5349 21.4763 14.3203 22.1949 14.1143 22.9173C13.9782 23.3944 13.8613 23.8754 13.7374 24.3564C13.4966 24.67 13.2557 24.9837 13.0079 25.305C12.7741 25.2688 12.4914 25.227 12.2069 25.1833C12.0359 24.3621 12.3186 23.5788 12.3902 22.7785C12.4355 22.2709 12.6432 21.7805 12.5158 21.2292C12.4896 21.2653 12.4704 21.2805 12.4652 21.2976C12.165 22.4838 11.8597 23.6701 11.5682 24.8601C11.5176 25.0673 11.5228 25.2917 11.5019 25.5084C11.1511 25.8373 10.9086 26.2289 10.9278 26.7535C10.7131 26.8106 10.5177 26.8638 10.3222 26.9151L10.3327 26.9132ZM17.2311 8.77936C16.9501 9.05311 16.6343 9.29454 16.3934 9.60631C15.7355 10.4618 15.0392 11.2963 14.4895 12.2316C13.9189 13.2011 13.4651 14.26 13.0254 15.3113C12.7322 16.0128 12.5176 16.7599 12.3238 17.5032C11.8858 19.1856 11.4722 20.8756 11.0674 22.5675C10.9313 23.134 10.8475 23.7157 10.7533 24.2936C10.7393 24.383 10.7969 24.4856 10.8213 24.5826C10.919 24.5503 11.0552 24.5522 11.1058 24.4818C11.2593 24.267 11.4356 24.0427 11.5002 23.7899C11.727 22.9059 11.8841 22.001 12.1179 21.1208C12.5717 19.4232 13.0114 17.718 13.5507 16.0508C13.9922 14.6858 14.5401 13.357 15.2417 12.1176C15.7443 11.2317 16.28 10.3667 16.8035 9.49415C16.9449 9.25842 17.0967 9.0265 17.2433 8.79457C17.3149 8.73564 17.3864 8.67861 17.4562 8.61968L17.3934 8.55124C17.3393 8.62728 17.2852 8.70332 17.2311 8.78126V8.77936ZM31.3368 4.9526C31.274 4.54388 31.2495 4.14657 31.1448 3.77587C31.0227 3.34434 30.4712 3.19225 30.1362 3.45269C29.644 3.8348 29.2933 4.32907 29.213 4.98682C29.0769 6.08371 28.953 7.1844 28.8675 8.2889C28.754 9.73938 28.6772 11.1937 28.597 12.6479C28.5551 13.3836 28.5307 14.1193 28.5097 14.8569C28.4958 15.3987 28.5062 15.9405 28.4993 16.4804C28.494 16.8891 28.6546 17.2028 29.0175 17.2864C29.4434 17.3853 29.8849 17.4442 30.3211 17.4518C30.6998 17.4594 30.8691 17.2579 30.9267 16.8492C30.979 16.4823 31.0227 16.1097 31.0436 15.739C31.1099 14.568 31.178 13.3989 31.2199 12.2259C31.267 10.8838 31.2879 9.54167 31.3193 8.19955C31.3281 7.80794 31.335 7.41443 31.3368 7.02282C31.3403 6.32894 31.3368 5.63317 31.3368 4.9507V4.9526ZM33.478 5.71871C33.5025 5.72442 33.5252 5.73012 33.5496 5.73582C33.581 5.81567 33.6421 5.89551 33.6386 5.97345C33.6089 6.6217 33.5583 7.26995 33.5287 7.9201C33.4815 8.94285 33.4449 9.9656 33.403 10.9884C33.3856 11.3933 33.3559 11.7982 33.3437 12.2031C33.3035 13.5452 33.2529 14.8855 33.2372 16.2276C33.2302 16.8112 33.5531 17.2864 34.0749 17.4005C34.5478 17.5032 35.0451 17.488 35.5303 17.488C35.8409 17.488 35.9282 17.2199 35.9404 16.931C35.9474 16.7637 35.9247 16.5945 35.9177 16.4253C35.8688 15.1934 35.827 13.9616 35.7676 12.7297C35.7275 11.8894 35.6856 11.0473 35.5983 10.2108C35.4797 9.05501 35.3226 7.90489 35.1708 6.75287C35.1097 6.29092 35.012 5.83848 34.6979 5.48299C34.2738 5.00013 33.6962 5.10849 33.4763 5.71681L33.478 5.71871ZM24.7298 18.4328C25.2743 18.429 25.8816 17.9537 26.0055 17.3397C26.1503 16.6249 26.2271 15.893 26.3248 15.1668C26.3702 14.8303 26.3929 14.4881 26.4243 14.1498C26.4906 13.4274 26.5587 12.7069 26.6198 11.9845C26.6756 11.3191 26.7175 10.65 26.7786 9.98461C26.8763 8.94665 26.9915 7.90869 27.0892 6.87074C27.173 5.98486 27.2498 5.09708 27.3126 4.2093C27.3405 3.81959 27.3527 3.42228 27.3178 3.03447C27.2899 2.7265 27.056 2.63906 26.81 2.78353C26.2603 3.10861 26.0282 3.68272 25.92 4.28724C25.6879 5.58564 25.5081 6.89355 25.3214 8.20145C25.1835 9.16717 25.0753 10.1386 24.948 11.1062C24.8223 12.0662 24.6705 13.0224 24.5605 13.9844C24.4174 15.2409 24.3058 16.5013 24.1749 17.7579C24.126 18.2179 24.297 18.4366 24.7298 18.4347V18.4328ZM19.0268 20.4079C19.4474 20.2882 19.7685 20.2083 20.0843 20.1038C20.6428 19.9194 20.9866 19.5049 21.0773 18.8795C21.1558 18.3358 21.1489 17.7731 21.2536 17.237C21.4944 15.9995 21.7631 14.7676 22.0493 13.5414C22.2483 12.6841 22.5327 11.8476 22.709 10.9865C22.9393 9.86485 23.154 8.73184 23.2761 7.59122C23.3564 6.83842 23.2727 6.0628 23.2412 5.29669C23.2378 5.19974 23.1208 5.04765 23.0388 5.03054C22.9585 5.01343 22.8119 5.11229 22.7648 5.20354C22.6182 5.49059 22.4751 5.78715 22.3826 6.09892C21.9917 7.42013 21.6078 8.74324 21.2431 10.0721C20.9377 11.1861 20.641 12.3039 20.381 13.4293C20.1192 14.5642 19.8976 15.7105 19.676 16.8549C19.4544 17.9993 19.2554 19.1495 19.0268 20.4079ZM37.7169 7.03042C37.4447 7.69198 37.3749 8.37635 37.422 9.07782C37.4464 9.43902 37.4988 9.79641 37.5319 10.1576C37.6558 11.5263 37.7693 12.897 37.9001 14.2638C37.963 14.9311 38.0083 15.6059 38.1514 16.2542C38.2369 16.6401 38.4307 17.0602 38.6942 17.3207C39.0467 17.6705 39.5074 17.8986 39.9384 18.14C40.0937 18.2275 40.3014 18.2351 40.4829 18.2237C40.8145 18.2027 40.9715 17.9727 40.9192 17.6153C40.8703 17.2788 40.8127 16.9443 40.7499 16.6097C40.6278 15.9633 40.4969 15.3189 40.373 14.6725C40.2595 14.0775 40.1635 13.4787 40.0344 12.8875C39.8459 12.0168 39.6365 11.1499 39.4341 10.2812C39.2404 9.45423 39.0519 8.62538 38.8425 7.80224C38.6785 7.15969 38.312 6.92777 37.7169 7.03042ZM21.0145 6.40498C20.9778 6.38597 20.9429 6.36696 20.9063 6.34795C20.6114 6.76808 20.2344 7.14638 20.039 7.61594C19.4439 9.04741 18.9081 10.5093 18.3706 11.9674C17.985 13.0148 17.6115 14.0699 17.2712 15.1364C16.9117 16.2618 16.5784 17.3967 16.273 18.5411C16.0427 19.4099 15.8647 20.2958 15.6867 21.1797C15.6553 21.3356 15.6867 21.6018 15.7792 21.6683C15.8943 21.752 16.1247 21.7329 16.2678 21.6664C16.9082 21.3679 17.1665 20.7539 17.2904 20.0581C17.3532 19.7027 17.3655 19.3358 17.437 18.9822C17.6674 17.8491 17.8733 16.7066 18.1647 15.5926C18.4596 14.4691 18.8366 13.3703 19.1943 12.2658C19.7022 10.6975 20.2327 9.13866 20.7388 7.56841C20.8609 7.19201 20.9237 6.79469 21.0145 6.40689V6.40498ZM18.6987 8.78697C18.6813 8.77176 18.6638 8.75655 18.6446 8.73944C18.4963 8.85731 18.3375 8.96376 18.2014 9.09493C17.7878 9.49795 17.3637 9.88006 17.0985 10.4447C16.444 11.8324 15.7286 13.1859 15.0864 14.5775C14.3726 16.123 13.8665 17.7617 13.4111 19.4156C13.1667 20.3015 12.9835 21.2083 12.8055 22.1131C12.7479 22.4059 12.7689 22.7291 12.816 23.0275C12.8387 23.1739 12.9852 23.383 13.1022 23.4058C13.2557 23.4363 13.4756 23.3564 13.5925 23.2386C13.7252 23.1017 13.7967 22.8774 13.8543 22.6778C13.9259 22.4268 13.9468 22.1607 14.0044 21.904C14.1998 21.0581 14.3744 20.2064 14.6082 19.3738C14.9153 18.2845 15.2521 17.2028 15.6116 16.1325C15.9345 15.1706 16.2818 14.2163 16.6604 13.2791C17.0618 12.283 17.5051 11.3077 17.9431 10.3306C18.1787 9.80782 18.4457 9.30215 18.697 8.78697H18.6987ZM41.1146 9.81542C41.2281 10.323 41.3555 10.8211 41.4497 11.3267C41.6312 12.3058 41.7708 13.2943 41.9715 14.2676C42.2577 15.6497 42.4863 17.0507 43.0622 18.3434C43.2629 18.794 43.5525 19.0715 44.0028 19.1647C44.3762 19.2426 44.6206 18.9803 44.5176 18.5829C44.2715 17.6286 44.0272 16.6743 43.762 15.7257C43.495 14.7676 43.2157 13.8114 42.9208 12.8628C42.7446 12.2982 42.5421 11.7431 42.3257 11.1956C42.1722 10.8078 41.9959 10.4257 41.7917 10.0664C41.6626 9.83823 41.4584 9.67284 41.1146 9.81732V9.81542ZM43.9679 12.3666C43.9818 12.5244 43.9731 12.6213 44.001 12.7031C44.0935 12.9654 44.2174 13.2145 44.296 13.4806C44.5316 14.2676 44.7514 15.0622 44.9783 15.8512C45.1476 16.4386 45.3203 17.026 45.4949 17.6115C45.6572 18.159 45.7933 18.7198 45.994 19.2502C46.151 19.6665 46.4459 19.9669 46.884 20.06C47.1946 20.1247 47.2731 20.0714 47.2068 19.7274C47.1108 19.2293 46.9991 18.7293 46.8456 18.2484C46.6484 17.6286 46.4128 17.0241 46.1754 16.4196C45.7845 15.4196 45.3832 14.4235 44.9766 13.4312C44.7863 12.9654 44.446 12.6498 43.9679 12.3685V12.3666ZM43.7602 14.0148C43.7655 13.9996 43.7672 13.9901 43.7707 13.9806C43.7655 13.9806 43.7585 13.9844 43.7532 13.9863C43.755 13.9939 43.7567 14.0015 43.7602 14.0148Z" fill="#CC9F97"/>
<path d="M31.3369 4.95266C31.3369 5.63513 31.3387 6.329 31.3369 7.02478C31.3369 7.41639 31.3282 7.8099 31.3195 8.20151C31.2881 9.54363 31.2671 10.8858 31.22 12.2279C31.1781 13.3989 31.1101 14.5699 31.0438 15.741C31.0228 16.1117 30.9792 16.4824 30.9268 16.8512C30.8692 17.258 30.7 17.4595 30.3213 17.4538C29.885 17.4462 29.4452 17.3873 29.0177 17.2884C28.6547 17.2048 28.4942 16.8911 28.4994 16.4824C28.5064 15.9406 28.4959 15.3988 28.5099 14.8589C28.5291 14.1232 28.5552 13.3856 28.5971 12.6499C28.6791 11.1956 28.7559 9.74134 28.8676 8.29086C28.9531 7.18827 29.077 6.08757 29.2131 4.98878C29.2952 4.33103 29.6442 3.83486 30.1363 3.45465C30.4714 3.19611 31.0228 3.3463 31.145 3.77783C31.2497 4.14853 31.2741 4.54584 31.3369 4.95456V4.95266Z" fill="#EEC3BC"/>
<path d="M33.478 5.71874C33.6978 5.11041 34.2755 5.00206 34.6995 5.48492C35.0137 5.84231 35.1114 6.29285 35.1725 6.7548C35.3243 7.90492 35.4796 9.05694 35.6 10.2128C35.6855 11.0492 35.7274 11.8895 35.7693 12.7316C35.8286 13.9635 35.8705 15.1953 35.9194 16.4272C35.9263 16.5964 35.949 16.7656 35.9421 16.9329C35.9298 17.2218 35.8426 17.4899 35.532 17.4899C35.0451 17.4899 34.5495 17.5032 34.0765 17.4024C33.5547 17.2903 33.2319 16.815 33.2389 16.2295C33.2546 14.8874 33.3052 13.5472 33.3453 12.205C33.3575 11.8001 33.3872 11.3952 33.4047 10.9903C33.4483 9.96753 33.4832 8.94478 33.5303 7.92203C33.56 7.27378 33.6088 6.62553 33.6403 5.97538C33.6437 5.89744 33.5827 5.8176 33.5513 5.73775C33.5268 5.73205 33.5041 5.72635 33.4797 5.72064L33.478 5.71874Z" fill="#EEC3BC"/>
<path d="M24.7298 18.4322C24.297 18.4341 24.1278 18.2155 24.1749 17.7555C24.3075 16.4989 24.4174 15.2385 24.5605 13.9819C24.6705 13.02 24.8206 12.0638 24.948 11.1038C25.0753 10.1362 25.1835 9.16664 25.3214 8.19901C25.5064 6.89111 25.6879 5.58321 25.92 4.28481C26.0282 3.67838 26.2603 3.10617 26.81 2.7811C27.056 2.63472 27.2916 2.72406 27.3178 3.03203C27.3527 3.41984 27.3388 3.81715 27.3126 4.20686C27.2497 5.09464 27.173 5.98242 27.0892 6.8683C26.9915 7.90626 26.8763 8.94422 26.7786 9.98218C26.7157 10.6475 26.6756 11.3148 26.6198 11.9821C26.5587 12.7044 26.4906 13.4249 26.4243 14.1473C26.3929 14.4876 26.3702 14.8279 26.3248 15.1644C26.2289 15.8906 26.1503 16.6225 26.0055 17.3372C25.8816 17.9513 25.2743 18.4265 24.7298 18.4303V18.4322Z" fill="#EEC3BC"/>
<path d="M19.0269 20.4077C19.2555 19.1492 19.4544 17.9991 19.676 16.8546C19.8977 15.7102 20.1193 14.5639 20.3811 13.429C20.6411 12.3017 20.9377 11.1839 21.2431 10.0718C21.6079 8.74297 21.9918 7.41985 22.3827 6.09864C22.4752 5.78687 22.6183 5.49031 22.7649 5.20326C22.812 5.11201 22.9568 5.01316 23.0389 5.03027C23.1226 5.04738 23.2378 5.19946 23.2413 5.29641C23.2727 6.06062 23.3582 6.83624 23.2762 7.59095C23.154 8.73156 22.9394 9.86457 22.709 10.9862C22.531 11.8492 22.2483 12.6838 22.0494 13.5412C21.7632 14.7673 21.4944 15.9992 21.2536 17.2367C21.1489 17.7747 21.1559 18.3355 21.0774 18.8792C20.9866 19.5047 20.6428 19.9191 20.0844 20.1035C19.7685 20.208 19.4474 20.2879 19.0269 20.4077Z" fill="#EEC3BC"/>
<path d="M37.7167 7.03006C38.3118 6.92931 38.6783 7.15933 38.8423 7.80188C39.0517 8.62502 39.2402 9.45387 39.4339 10.2808C39.6381 11.1477 39.8458 12.0145 40.0342 12.8871C40.1616 13.4783 40.2594 14.0772 40.3728 14.6722C40.4967 15.3185 40.6276 15.963 40.7497 16.6093C40.8126 16.9439 40.8701 17.2785 40.919 17.615C40.9696 17.9724 40.8143 18.2024 40.4827 18.2233C40.3012 18.2347 40.0936 18.2252 39.9383 18.1396C39.5055 17.8982 39.0465 17.6701 38.694 17.3203C38.4305 17.058 38.2368 16.6397 38.1513 16.2538C38.0082 15.6056 37.9628 14.9307 37.9 14.2635C37.7691 12.8947 37.6557 11.526 37.5318 10.1572C37.4986 9.79795 37.4462 9.43866 37.4218 9.07746C37.3747 8.37599 37.4445 7.69162 37.7167 7.03006Z" fill="#EEC2BB"/>
<path d="M21.0144 6.40463C20.9237 6.79244 20.8591 7.18976 20.7387 7.56616C20.2326 9.13451 19.7021 10.6952 19.1943 12.2636C18.8365 13.3681 18.4596 14.4669 18.1647 15.5904C17.8732 16.7044 17.6656 17.8469 17.437 18.9799C17.3654 19.3335 17.3532 19.7004 17.2904 20.0559C17.1665 20.7536 16.9099 21.3657 16.2677 21.6642C16.1229 21.7307 15.8943 21.7497 15.7791 21.6661C15.6866 21.5995 15.6552 21.3334 15.6866 21.1775C15.8646 20.2935 16.0409 19.4076 16.273 18.5389C16.5784 17.3945 16.9117 16.2595 17.2712 15.1341C17.6115 14.0677 17.9849 13.0126 18.3706 11.9651C18.9081 10.5051 19.4438 9.04516 20.0389 7.61369C20.2344 7.14413 20.6113 6.76583 20.9062 6.3457C20.9429 6.36471 20.9778 6.38372 21.0144 6.40273V6.40463Z" fill="#EEC2BB"/>
<path d="M18.699 8.78678C18.446 9.30006 18.179 9.80763 17.9451 10.3304C17.5054 11.3075 17.0639 12.2828 16.6625 13.2789C16.2838 14.2161 15.9365 15.1704 15.6137 16.1323C15.2542 17.2026 14.9174 18.2843 14.6102 19.3736C14.3764 20.2062 14.2001 21.0579 14.0064 21.9038C13.9471 22.1586 13.9279 22.4266 13.8564 22.6776C13.7988 22.8772 13.7272 23.1015 13.5946 23.2384C13.4794 23.3581 13.2578 23.4361 13.1042 23.4057C12.9873 23.3828 12.8407 23.1737 12.818 23.0274C12.7726 22.7289 12.75 22.4057 12.8075 22.113C12.9838 21.2081 13.1688 20.3013 13.4131 19.4154C13.8686 17.7634 14.3746 16.1228 15.0884 14.5773C15.7323 13.1839 16.4478 11.8303 17.1005 10.4445C17.3658 9.87987 17.7898 9.49777 18.2034 9.09475C18.3395 8.96168 18.4983 8.85712 18.6467 8.73926C18.6641 8.75447 18.6816 8.76967 18.7008 8.78678H18.699Z" fill="#EEC2BB"/>
<path d="M41.1147 9.81514C41.4585 9.67066 41.661 9.83795 41.7918 10.0642C41.996 10.4235 42.1723 10.8056 42.3259 11.1934C42.5422 11.7409 42.7447 12.296 42.9209 12.8606C43.2159 13.8092 43.4951 14.7635 43.7621 15.7235C44.0273 16.6721 44.2716 17.6264 44.5177 18.5808C44.6207 18.9781 44.3763 19.2404 44.0029 19.1625C43.5544 19.0693 43.263 18.7918 43.0623 18.3412C42.4864 17.0485 42.2578 15.6475 41.9716 14.2654C41.7709 13.2921 41.6313 12.3036 41.4498 11.3246C41.3556 10.8189 41.2282 10.3208 41.1147 9.81324V9.81514Z" fill="#EEC2BB"/>
<path d="M23.4524 19.9875C23.3565 20.1833 23.2221 20.2213 23.0144 20.1909C22.6096 20.13 22.196 20.1262 21.7859 20.0958C21.6794 20.0882 21.5747 20.0654 21.4683 20.0502C21.5433 19.7422 21.6183 19.4343 21.6951 19.1263C21.929 18.1853 22.175 17.25 22.3967 16.3052C22.6759 15.1151 22.9446 13.9213 23.1977 12.7236C23.4402 11.5735 23.6898 10.4234 23.8748 9.26188C24.0789 7.9863 24.2151 6.6974 24.3774 5.41421C24.4035 5.2032 24.3913 4.98268 24.4437 4.78117C24.4786 4.6481 24.5972 4.54164 24.6775 4.42188C24.7351 4.53784 24.8433 4.6538 24.8398 4.76596C24.8154 5.45793 24.7944 6.15181 24.7142 6.83618C24.5868 7.91786 24.4367 8.99764 24.2482 10.0698C24.1505 10.6211 24.1208 11.18 23.887 11.7199C23.695 12.1628 23.7439 12.7275 23.6671 13.2331C23.606 13.6399 23.4891 14.0392 23.442 14.446C23.3373 15.3357 23.2099 16.2291 23.1872 17.1226C23.1628 18.0826 23.1628 19.0541 23.4542 19.9856L23.4524 19.9875Z" fill="#AE867F"/>
<path d="M17.2434 8.7945C17.0968 9.02833 16.9468 9.25835 16.8037 9.49408C16.2801 10.3667 15.7444 11.2316 15.2418 12.1175C14.5403 13.3551 13.9923 14.6858 13.5508 16.0507C13.0115 17.7179 12.5718 19.4231 12.118 21.1207C11.8825 22.0009 11.7271 22.9058 11.5003 23.7898C11.4357 24.0426 11.2577 24.2669 11.1059 24.4818C11.0553 24.5521 10.9192 24.5521 10.8214 24.5825C10.797 24.4856 10.7394 24.3829 10.7534 24.2936C10.8476 23.7156 10.9314 23.1339 11.0675 22.5674C11.4724 20.8755 11.8842 19.1855 12.324 17.5031C12.5177 16.7598 12.7323 16.0127 13.0255 15.3112C13.4653 14.2599 13.919 13.2011 14.4896 12.2316C15.0411 11.2982 15.7357 10.4617 16.3936 9.60624C16.6326 9.29447 16.9485 9.05304 17.2312 8.7793L17.2434 8.7926V8.7945Z" fill="#EDC2BB"/>
<path d="M27.8604 18.8187C27.3229 18.9404 26.8273 19.1704 26.3823 19.524C26.4713 18.9613 26.5638 18.3986 26.6476 17.8359C26.7174 17.3739 26.7785 16.9101 26.8395 16.4462C26.9285 15.76 27.0141 15.0737 27.0978 14.3874C27.2287 13.3191 27.3648 12.2526 27.4852 11.1823C27.6004 10.1576 27.6912 9.12919 27.8028 8.10454C27.8657 7.53614 27.9564 6.96963 28.0192 6.40123C28.0751 5.89745 28.1082 5.38988 28.1519 4.88611C28.1641 4.73783 28.178 4.58765 28.192 4.43937C28.2304 4.43176 28.2688 4.42606 28.3072 4.41846C28.3456 4.52111 28.4171 4.62567 28.4171 4.72832C28.4171 5.2359 28.37 5.74727 28.3979 6.25295C28.4224 6.70539 28.2618 7.13502 28.3578 7.60838C28.4241 7.93535 28.2444 8.31556 28.2007 8.67675C28.0786 9.6881 27.9616 10.6994 27.8622 11.7127C27.7784 12.5605 27.6912 13.4084 27.6597 14.2601C27.6283 15.1383 27.6423 16.0204 27.6772 16.9006C27.7034 17.5431 27.7976 18.1819 27.8604 18.8206V18.8187Z" fill="#AE877F"/>
<path d="M18.376 21.8521C18.1893 22.1639 17.9799 22.4224 17.5925 22.4319C17.4354 22.4357 17.2784 22.5403 17.123 22.5992C17.3429 21.6677 17.5663 20.7362 17.7792 19.8028C17.8176 19.6355 17.7967 19.4511 17.8316 19.2819C17.849 19.1945 17.945 19.1279 17.9764 19.0386C18.0445 18.8523 18.1038 18.6603 18.1527 18.4645C18.4005 17.4531 18.6413 16.4399 18.8926 15.4304C19.006 14.9704 19.1404 14.5161 19.2608 14.0579C19.5138 13.1017 19.7564 12.1417 20.0182 11.1893C20.2573 10.3224 20.4963 9.45173 20.7773 8.60007C20.8925 8.25028 21.1193 7.94422 21.2956 7.61914C21.3218 7.62865 21.348 7.63815 21.3741 7.64766C21.3183 7.88148 21.2694 8.11721 21.2083 8.34913C21.0548 8.93275 20.8942 9.51446 20.7389 10.0962C20.4771 11.0771 20.2119 12.058 19.9554 13.039C19.7721 13.7366 19.5924 14.4362 19.4231 15.1396C19.2102 16.0217 18.9903 16.9018 18.8071 17.7934C18.6535 18.5367 18.5191 19.2876 18.4354 20.0442C18.3691 20.6393 18.3935 21.2476 18.3778 21.8502L18.376 21.8521Z" fill="#AE877F"/>
<path d="M43.968 12.3666C44.4462 12.648 44.7865 12.9636 44.9767 13.4293C45.3833 14.4217 45.7847 15.4178 46.1756 16.4177C46.4112 17.0223 46.6485 17.6268 46.8457 18.2465C46.9993 18.7275 47.1092 19.2274 47.2069 19.7255C47.2733 20.0696 47.1947 20.1228 46.8841 20.0582C46.4478 19.9669 46.1529 19.6647 45.9941 19.2484C45.7934 18.718 45.6573 18.1591 45.495 17.6097C45.3222 17.0242 45.1495 16.4367 44.9784 15.8493C44.7498 15.0585 44.5317 14.2658 44.2961 13.4787C44.2158 13.2126 44.0919 12.9636 44.0012 12.7012C43.9732 12.6195 43.982 12.5225 43.968 12.3647V12.3666Z" fill="#EDC2BB"/>
<path d="M15.1788 23.1985C15.0514 23.3962 14.9275 23.5977 14.7914 23.7878C14.7425 23.8562 14.6658 23.9114 14.5907 23.9475C14.3115 24.0863 14.0271 24.2174 13.7461 24.3505C13.8717 23.8715 13.9887 23.3886 14.123 22.9114C14.329 22.189 14.5436 21.4705 14.76 20.7519C15.0881 19.6607 15.4179 18.5714 15.7512 17.4821C16.0025 16.6628 16.2364 15.8358 16.5191 15.0298C16.9135 13.9044 17.3305 12.7847 17.7686 11.6783C18.046 10.9768 18.3759 10.2981 18.6865 9.61377C18.7633 9.44458 18.8505 9.26969 19.1821 9.34193C18.8348 9.54534 19.0285 10.0453 18.6516 10.148C18.6027 10.3476 18.5783 10.5529 18.5033 10.7335C18.252 11.3418 17.9623 11.933 17.7249 12.5471C17.4108 13.3569 17.1054 14.1743 16.8419 15.0051C16.4737 16.1628 16.1247 17.3281 15.8106 18.5049C15.5767 19.3793 15.4005 20.2728 15.2207 21.1644C15.0846 21.8355 15.0026 22.516 15.1753 23.2004L15.1788 23.1985Z" fill="#AE877F"/>
<path d="M32.8236 18.6305C32.41 18.6039 31.9947 18.5773 31.5811 18.5507C31.6055 18.4176 31.6317 18.2826 31.6596 18.1382C31.5776 18.1172 31.5131 18.1001 31.4485 18.083C31.4555 18.0602 31.4607 18.0298 31.4642 18.0298C31.6963 18.0526 31.7277 17.8397 31.7399 17.6933C31.8342 16.5394 31.9109 15.3855 31.9947 14.2297C32.0331 13.7107 32.0767 13.1936 32.1169 12.6746C32.1535 12.1975 32.1919 11.7184 32.2268 11.2412C32.2704 10.6386 32.3176 10.036 32.3525 9.43337C32.3978 8.63113 32.4292 7.8289 32.4746 7.02857C32.4938 6.6997 32.5392 6.37462 32.5741 6.04764C32.616 6.04574 32.6596 6.04194 32.7015 6.04004C32.7346 6.19212 32.8009 6.3461 32.7957 6.49819C32.7538 7.62549 32.6893 8.7528 32.6474 9.88201C32.6177 10.6595 32.6125 11.437 32.5915 12.2127C32.5706 13.0453 32.5182 13.8761 32.5287 14.7087C32.5409 15.5851 32.5985 16.4615 32.6596 17.3378C32.6893 17.7713 32.7678 18.2009 32.8236 18.6324V18.6305Z" fill="#AE877F"/>
<path d="M37.9056 19.4079C37.8358 19.4003 37.7538 19.4136 37.6979 19.3794C37.3262 19.1551 36.9615 18.9213 36.5933 18.6893C36.7922 14.7884 36.5619 10.9028 36.1919 7.02086C36.2355 7.01326 36.2774 7.00565 36.321 6.99805C36.3716 7.20526 36.4449 7.40867 36.4676 7.61778C36.6142 8.99602 36.7451 10.3781 36.8917 11.7563C37.0121 12.8874 37.136 14.0204 37.2756 15.1496C37.4135 16.2674 37.567 17.3833 37.7224 18.4992C37.766 18.8053 37.8428 19.1038 37.9056 19.406V19.4079Z" fill="#AE877F"/>
<path d="M42.6103 19.976C42.2212 19.8848 41.832 19.7916 41.4411 19.7004C41.7116 19.1719 41.6244 18.594 41.5982 18.0408C41.5633 17.3526 41.4743 16.6625 41.3556 15.9839C41.1567 14.8547 40.9159 13.735 40.689 12.6134C40.5302 11.8282 40.3609 11.0469 40.1951 10.2637C40.155 9.9158 40.1166 9.56791 40.0747 9.19531C40.3068 9.24094 40.4045 9.41013 40.4202 9.61354C40.504 10.6173 40.7187 11.5925 40.9281 12.5696C41.1253 13.4897 41.2928 14.4193 41.5092 15.3337C41.7448 16.328 42.024 17.3108 42.284 18.2974C42.4236 18.824 42.5632 19.3506 42.6976 19.8791C42.7028 19.9019 42.6418 19.9437 42.6121 19.9779L42.6103 19.976Z" fill="#AE877F"/>
<path d="M46.0254 21.731C45.7706 21.5124 45.5158 21.2937 45.2611 21.0751C45.2157 20.1607 45.1406 19.2539 44.8824 18.37C44.659 17.6115 44.5072 16.8282 44.3135 16.0602C44.1773 15.5165 44.0238 14.9766 43.8807 14.4329C43.8702 14.3949 43.8702 14.355 43.933 14.2847C44.0447 14.5432 44.1791 14.7941 44.2646 15.0641C44.4792 15.739 44.6852 16.4195 44.8736 17.1039C45.1546 18.1304 45.4146 19.1627 45.6886 20.1911C45.8108 20.6493 45.9486 21.1017 46.0725 21.5599C46.0847 21.6074 46.0429 21.6739 46.0272 21.731H46.0254Z" fill="#AE877F"/>
<path d="M17.2312 8.77885C17.2853 8.70281 17.3394 8.62677 17.3935 8.54883L17.4563 8.61726C17.3848 8.6762 17.3132 8.73323 17.2434 8.79216L17.2312 8.77885Z" fill="#EDC2BB"/>
<path d="M43.7604 14.0147C43.7569 14.0014 43.7552 13.9938 43.7534 13.9862C43.7587 13.9862 43.7656 13.9824 43.7709 13.9805C43.7674 13.99 43.7656 13.9995 43.7604 14.0147Z" fill="#AE877F"/>
<path d="M40.1934 10.2637L40.1794 10.2808L40.1951 10.2637H40.1934Z" fill="#AE877F"/>
<path d="M19.8924 57.0047C19.7318 56.7538 19.5695 56.501 19.4107 56.2519C19.3531 56.2329 19.2502 56.231 19.2013 56.174C18.9012 55.828 18.601 55.482 18.3235 55.1132C17.8977 54.5448 17.4929 53.9574 17.074 53.3833C16.8856 53.1229 16.6447 52.8985 16.4999 52.6153C16.2399 52.1058 16.0409 51.5602 15.8053 51.0336C15.7443 50.8968 15.6343 50.7884 15.5715 50.6534C15.4301 50.3455 15.2923 50.0356 15.1754 49.7162C14.959 49.125 14.7391 48.5338 14.5541 47.9312C14.3133 47.1479 14.1108 46.3514 13.9922 45.534C13.9538 45.2716 13.8857 45.0131 13.856 44.7488C13.8334 44.5606 13.8526 44.3667 13.8526 44.15C13.8578 44.15 13.8037 44.1557 13.7164 44.1652C13.6658 43.6938 13.6082 43.2166 13.5646 42.7376C13.5053 42.0836 13.418 41.4278 13.4215 40.7719C13.4215 40.405 13.3936 40.0457 13.3692 39.6845C13.3447 39.2948 13.3482 38.9032 13.3343 38.5135C13.3325 38.4622 13.3029 38.4127 13.2854 38.3633C13.5472 37.9603 13.7915 37.5383 14.0794 37.1581C14.2714 36.9014 14.5262 36.7018 14.753 36.4756C15.0637 36.6296 15.3848 36.7645 15.6832 36.9413C16.0165 37.139 16.3219 37.3634 16.5313 37.7474C16.9327 38.4755 16.9833 39.2777 17.0601 40.0856C17.1316 40.8498 17.1805 41.6198 17.3149 42.3707C17.4353 43.0417 17.7703 43.6063 18.4178 43.8211C18.7947 43.9466 19.1926 43.9998 19.5817 44.0835C20.107 44.1975 20.6515 44.2527 21.1541 44.4371C21.6724 44.6272 22.0842 45.0245 22.1697 45.6613C22.2203 46.0358 22.2151 46.4236 22.1959 46.8038C22.1837 47.0643 22.0773 47.3209 22.0615 47.5833C21.997 48.6669 21.9254 49.7504 21.908 50.8359C21.901 51.2979 22.0057 51.7655 22.093 52.2237C22.1401 52.4727 22.2553 52.7065 22.3408 52.948C22.3792 52.948 22.4158 52.948 22.4542 52.948C22.5257 52.6039 22.6165 52.2617 22.6636 51.9138C22.8835 50.296 23.2796 48.7372 24.0283 47.3095C24.585 46.2468 25.2848 45.3001 26.1625 44.5321C27.508 43.3573 29.1013 42.9505 30.7766 42.8744C31.6439 42.8364 32.52 42.8725 33.3873 42.9448C34.1464 43.0075 34.9073 43.133 35.6542 43.2965C36.7013 43.5284 37.7134 43.8972 38.6819 44.401C39.6086 44.8838 40.4497 45.5054 41.0064 46.4465C41.3712 47.0624 41.5701 47.7924 41.8441 48.4711C42.0919 49.087 42.3327 49.7086 42.5927 50.3188C42.6678 50.4956 42.8021 50.642 42.9086 50.8017C42.94 50.7865 42.9697 50.7732 43.0011 50.758C43.029 50.6496 43.0796 50.5394 43.0814 50.431C43.0866 49.8759 43.0814 49.3227 43.0726 48.7676C43.0622 48.0528 43.0168 47.3361 43.0447 46.6252C43.0604 46.205 43.1791 45.8039 43.4443 45.4446C43.8667 44.8724 44.46 44.5873 45.0062 44.2242C45.5681 43.8497 46.0952 43.4048 46.3168 42.7319C46.5838 41.9239 46.7391 41.0704 46.9171 40.2301C47.1789 39.0039 47.8595 38.2055 48.9571 37.8557C49.547 37.6675 50.1578 37.5535 50.7581 37.4071C50.9727 37.793 51.1856 38.1789 51.4003 38.5648C51.3514 38.9716 51.3008 39.3765 51.2554 39.7834C51.231 39.9963 51.2048 40.1978 50.9378 40.1674C50.8209 40.1332 50.7022 40.0989 50.5853 40.0628C50.5818 40.097 50.5766 40.1313 50.5731 40.1655H50.9396C51.163 40.2643 51.2136 40.424 51.135 40.6749C51.0548 40.9259 50.9867 41.1901 50.9605 41.4525C50.8628 42.3821 50.6743 43.287 50.4143 44.1785C50.3061 44.5511 50.252 44.9427 50.1368 45.3134C49.9065 46.0663 49.6534 46.8096 49.4056 47.5567C49.3323 47.7772 49.2556 47.9977 49.1648 48.2087C48.7931 49.0775 48.3551 49.8835 47.6605 50.5204C47.1248 51.0108 46.5506 51.2675 45.8683 51.1306C45.5646 51.0697 45.2802 50.893 44.9905 50.7618C44.8858 50.7143 44.7863 50.6477 44.6834 50.5888C44.542 51.0564 44.8858 51.5564 44.5926 51.9309C44.6432 52.0735 44.7497 52.218 44.7305 52.3377C44.6415 52.8795 44.5263 53.4194 44.3989 53.9517C44.3466 54.1665 44.2366 54.3623 44.1511 54.5676C44.0604 55.0866 43.7846 55.4877 43.4653 55.8622C43.2035 56.1683 42.9487 56.482 42.6782 56.7785C42.6032 56.8603 42.481 56.8926 42.3816 56.9477C42.3763 56.9439 42.3711 56.9401 42.3641 56.9363C42.3694 56.9401 42.3763 56.9439 42.3816 56.9477C41.9627 57.5998 41.4148 58.1016 40.8389 58.5807C40.2456 59.075 39.6871 59.6206 39.0938 60.1148C38.7343 60.4133 38.3347 60.6528 37.9595 60.9304C37.8792 60.9893 37.846 61.1243 37.7675 61.187C37.5529 61.36 37.3277 61.5197 37.1026 61.6756C36.7903 61.8885 36.4831 62.1128 36.1568 62.2991C35.3977 62.7306 34.6316 63.1546 33.8585 63.5595C33.5199 63.7363 33.1604 63.8789 32.7992 63.9929C32.5165 64.0823 32.2181 64.126 31.9249 64.145C31.3281 64.1868 30.7504 64.0328 30.1746 63.8941C29.7645 63.7952 29.3788 63.6564 29.0175 63.3903C28.7715 63.2097 28.4364 63.1793 28.152 63.0519C27.7785 62.8827 27.4068 62.7021 27.0508 62.4911C26.3074 62.0501 25.5849 61.5691 24.8363 61.1414C24.3599 60.8676 23.9829 60.4494 23.4943 60.1776C22.9952 59.9019 22.5781 59.4438 22.1436 59.0426C21.463 58.4172 20.7981 57.7728 20.1245 57.1397C20.0617 57.0808 19.9709 57.0542 19.8924 57.0143V57.0047ZM38.0712 58.0313C38.2404 58.0826 38.4062 58.1454 38.5772 58.1796C38.8512 58.2347 39.0816 58.4419 39.4027 58.3697C39.64 58.3146 39.7883 58.2157 39.8407 57.98C39.9 57.71 39.7116 57.5903 39.5213 57.5218C39.1968 57.4059 38.8634 57.3165 38.5354 57.2177C38.6139 57.0123 38.6889 56.8032 38.7744 56.5998C38.942 56.1949 39.188 55.8071 39.2718 55.3832C39.4323 54.5676 39.5039 53.7331 39.6103 52.9061C39.7255 52.0089 39.6121 51.1249 39.4533 50.2466C39.3364 49.5984 39.1584 48.9596 39.092 48.3076C39.038 47.7734 38.846 47.319 38.5825 46.9027C37.9036 45.8305 36.9037 45.2355 35.7833 44.9446C34.7136 44.6671 33.6176 44.4542 32.5008 44.5911C31.8254 44.6728 31.1448 44.7241 30.4765 44.8477C29.7924 44.9732 29.1921 45.3153 28.6249 45.7659C28.0054 46.2602 27.5604 46.878 27.1991 47.6004C26.9426 48.1156 26.7175 48.6326 26.5814 49.2048C26.4051 49.9519 26.1364 50.6743 25.9793 51.4252C25.7612 52.4613 25.6006 53.5164 25.7961 54.5809C25.8903 55.098 26.0003 55.6151 26.1608 56.1113C26.2568 56.4097 26.4627 56.6664 26.6198 56.942C26.009 57.2614 25.372 57.4857 24.6914 57.518C24.3023 57.537 23.9096 57.5218 23.5187 57.5218C23.8433 57.7366 24.1784 57.8773 24.496 58.0541C24.8188 58.2328 25.119 58.459 25.4418 58.6377C25.749 58.8088 26.0509 58.7974 26.351 58.5598C26.6006 58.3602 26.8833 58.2062 27.1503 58.0332C27.5045 58.3735 27.8309 58.7613 28.2218 59.0464C29.0106 59.6244 29.8377 60.1528 30.7679 60.4152C31.4066 60.5958 32.0645 60.8239 32.7102 60.8125C33.4466 60.7992 34.19 60.5863 34.9073 60.3753C35.3383 60.2479 35.7414 59.9798 36.1358 59.7327C36.5407 59.4799 36.9403 59.2023 37.3051 58.8868C37.5895 58.6415 37.8181 58.3203 38.0712 58.0332V58.0313Z" fill="#DBCBAA"/>
<path d="M50.7582 37.4008C50.1579 37.5472 49.5471 37.6613 48.9573 37.8495C47.8596 38.1993 47.1773 38.9977 46.9172 40.2238C46.7375 41.0641 46.5822 41.9177 46.3169 42.7256C46.0936 43.4005 45.5683 43.8434 45.0064 44.2179C44.4601 44.5829 43.8668 44.868 43.4445 45.4384C43.1792 45.7957 43.0623 46.1988 43.0449 46.6189C43.0169 47.3318 43.0623 48.0485 43.0728 48.7613C43.0798 49.3164 43.0867 49.8696 43.0815 50.4247C43.0815 50.535 43.0292 50.6434 43.0012 50.7517C42.9698 50.7669 42.9401 50.7802 42.9087 50.7954C42.8023 50.6358 42.6679 50.4875 42.5929 50.3126C42.3329 49.7024 42.092 49.0826 41.8442 48.4648C41.5702 47.7861 41.3713 47.0561 41.0066 46.4402C40.4499 45.4992 39.6087 44.8776 38.6821 44.3947C37.7136 43.8909 36.7014 43.5221 35.6543 43.2902C34.9074 43.1248 34.1483 43.0012 33.3874 42.9385C32.5201 42.8663 31.6458 42.8283 30.7768 42.8682C29.1014 42.9423 27.5082 43.351 26.1627 44.5259C25.2832 45.2939 24.5851 46.2406 24.0284 47.3033C23.2798 48.7328 22.8854 50.2898 22.6637 51.9075C22.6166 52.2554 22.5259 52.5976 22.4543 52.9417C22.4159 52.9417 22.3793 52.9417 22.3409 52.9417C22.2571 52.7003 22.1402 52.4664 22.0931 52.2174C22.0058 51.7593 21.9011 51.2916 21.9081 50.8297C21.9256 49.7442 21.9954 48.6606 22.0617 47.577C22.0774 47.3147 22.1821 47.0599 22.1961 46.7976C22.2153 46.4174 22.2205 46.0296 22.1699 45.6551C22.0826 45.0182 21.6708 44.6209 21.1542 44.4308C20.6499 44.2464 20.1072 44.1913 19.5819 44.0772C19.1927 43.9936 18.7948 43.9403 18.4179 43.8149C17.7705 43.6001 17.4371 43.0355 17.315 42.3644C17.1806 41.6135 17.1318 40.8436 17.0602 40.0794C16.9834 39.2733 16.9328 38.4692 16.5314 37.7411C16.3203 37.359 16.0166 37.1328 15.6833 36.9351C15.3849 36.7583 15.0638 36.6233 14.7532 36.4693C14.9608 36.2108 15.1633 35.9484 15.3779 35.6975C15.4547 35.6063 15.5577 35.5397 15.6484 35.4618C16.1178 35.5701 16.5855 35.6899 17.0567 35.7812C17.8682 35.937 18.5156 36.3591 19.0095 37.0834C19.4824 37.7791 20.0112 38.4236 20.6464 38.9578C21.3427 39.5433 22.0931 39.9406 23.0058 39.8341C23.3164 39.798 23.6288 39.7695 23.9394 39.7258C24.2762 39.6783 24.5275 39.8303 24.463 40.0851C24.2937 40.7561 23.9883 41.3569 23.4979 41.8093C23.3251 41.969 23.0581 42.0374 22.8243 42.085C22.6096 42.1287 22.3793 42.0792 22.1577 42.0811C21.7406 42.0811 21.5835 42.3302 21.7336 42.7522C21.9954 43.4879 22.4142 44.119 22.8749 44.716C23.189 45.1247 23.3827 45.0562 23.641 44.5886C24.0424 43.8586 24.4839 43.1552 24.9045 42.4366C25.25 41.8454 25.6043 41.258 25.9288 40.6516C26.2569 40.0356 26.5344 39.3855 26.8695 38.7715C27.2638 38.0472 27.9287 37.608 28.4924 37.0681C28.9182 36.6594 29.1939 36.2184 29.1887 35.5606C29.1852 35.0987 29.0404 34.9162 28.632 34.9789C27.9322 35.0854 27.2359 35.1253 26.5309 35.0797C25.6444 35.0226 24.8242 34.7926 24.2919 33.9505C23.648 32.9296 23.0494 31.8764 22.4316 30.8385C22.8348 30.6085 23.2326 30.3594 23.6445 30.1503C24.2099 29.8652 24.7788 29.5876 25.3599 29.3443C25.9969 29.0781 26.6461 28.85 27.2935 28.6124C27.3738 28.5839 27.468 28.5972 27.5553 28.5896C27.8921 28.8082 28.2306 29.0211 28.5622 29.2473C29.3493 29.7796 30.0717 30.3975 30.6511 31.194C31.1432 31.8726 31.6127 32.5722 32.1327 33.2243C32.5847 33.787 33.0716 33.9866 33.6509 33.3307C34.2687 32.6312 34.5846 31.7605 34.9109 30.8917C35.2704 29.9336 35.6159 28.9698 35.9684 28.0098C36.2773 28.0497 36.5914 28.0687 36.8968 28.1333C37.5774 28.2778 38.2615 28.4128 38.9299 28.6086C39.7675 28.8519 40.6104 29.0972 41.4167 29.4355C42.6539 29.9564 43.8825 30.5096 44.9732 31.3613C45.1233 31.4791 45.2926 31.5685 45.4531 31.6711C45.4723 31.7016 45.4915 31.732 45.5107 31.7605L45.5055 31.7814C45.5177 31.8764 45.5386 31.9715 45.5404 32.0666C45.5561 32.6711 45.652 33.2908 45.5613 33.8763C45.4077 34.8687 44.8092 35.2127 43.9157 35.0074C42.8651 34.766 41.8233 34.4295 40.7274 34.5645C39.9962 34.6538 39.3906 34.939 39.0381 35.7089C38.8287 36.1671 38.3505 36.342 37.9038 36.1785C37.7188 36.1119 37.5425 36.0074 37.3541 35.9579C37.0748 35.8838 36.7939 35.669 36.4553 35.9427C36.5757 36.1119 36.6857 36.2678 36.7956 36.4237C37.0871 36.84 37.4291 37.224 37.656 37.6784C38.2179 38.8019 38.7414 39.9501 39.2527 41.1021C39.7815 42.2922 40.3539 43.4442 41.2544 44.3567C41.387 44.4916 41.5615 44.5791 41.7168 44.6894C41.743 44.6646 41.7692 44.6399 41.7954 44.6152C41.7779 44.484 41.7884 44.3396 41.7378 44.2236C41.4463 43.5373 41.1322 42.8644 40.8443 42.1762C40.6174 41.6344 40.3853 41.0926 40.216 40.528C40.0886 40.1079 40.2632 39.9558 40.6715 39.9615C41.0991 39.9672 41.5336 39.9653 41.9559 39.8912C42.9122 39.7258 43.7761 39.3475 44.3275 38.4084C44.5544 38.0225 44.7603 37.6194 44.961 37.2164C45.1669 36.802 45.3938 36.6689 45.8161 36.6955C46.0168 36.7088 46.2279 36.686 46.4251 36.6328C47.4443 36.3629 48.3901 35.9142 49.226 35.2127C49.7373 35.9408 50.2487 36.667 50.7582 37.3951V37.4008ZM36.7712 33.1501C36.7398 33.6729 36.8672 34.171 37.0818 34.6405C37.2616 35.034 37.4343 35.4409 37.8392 35.6367C37.8933 35.6633 37.9387 35.764 37.9806 35.7583C38.5023 35.7013 38.9822 35.5435 39.2824 35.0245C39.4063 34.8116 39.4831 34.5626 39.6244 34.3668C39.9578 33.9048 40.0991 33.3649 40.2213 32.8137C40.3905 32.0399 40.3085 31.3271 39.8042 30.7073C39.4307 30.2492 38.8426 30.0172 38.4099 30.1921C38.2982 30.2378 38.2074 30.3784 38.0992 30.3898C37.5635 30.4469 37.3279 30.9449 37.1028 31.3194C36.7921 31.8403 36.6927 32.4905 36.7712 33.1501ZM24.072 31.135C24.072 31.135 24.0773 31.1826 24.086 31.232C24.189 31.8574 24.5764 32.3099 24.9306 32.7566C25.2657 33.1787 25.6671 33.5512 26.0859 33.8744C26.6129 34.2793 26.9707 34.5208 27.66 34.0474C27.9724 33.8326 28.2533 33.5912 28.4052 33.2338C28.536 32.9277 28.6722 32.5741 28.6547 32.2529C28.6181 31.578 28.1434 31.1845 27.6478 30.9012C27.2656 30.6845 26.8101 30.6237 26.407 30.4431C25.9079 30.2188 25.4001 30.2188 24.8835 30.2625C24.4804 30.2967 24.086 30.6978 24.0703 31.135H24.072Z" fill="#C5A575"/>
<path d="M22.4263 30.8427C23.0441 31.8806 23.6444 32.9338 24.2866 33.9546C24.8171 34.7968 25.639 35.0268 26.5256 35.0839C27.2306 35.1295 27.9251 35.0896 28.6267 34.9831C29.0368 34.9204 29.1799 35.1029 29.1834 35.5648C29.1886 36.2245 28.9129 36.6655 28.4871 37.0723C27.9216 37.6122 27.2585 38.0514 26.8641 38.7756C26.529 39.3878 26.2533 40.0379 25.9235 40.6558C25.6006 41.2622 25.2464 41.8496 24.8991 42.4408C24.4785 43.1594 24.0388 43.8628 23.6357 44.5928C23.3774 45.0604 23.1837 45.1289 22.8696 44.7201C22.4106 44.1232 21.99 43.4921 21.7283 42.7564C21.5782 42.3344 21.7352 42.0872 22.1523 42.0853C22.3757 42.0853 22.6043 42.1329 22.8189 42.0891C23.0528 42.0416 23.3198 41.9751 23.4926 41.8135C23.9812 41.3629 24.2866 40.7603 24.4576 40.0893C24.5222 39.8345 24.2709 39.6843 23.9341 39.73C23.6234 39.7737 23.3111 39.8003 23.0004 39.8383C22.0895 39.9448 21.3374 39.5475 20.6411 38.9619C20.0076 38.4278 19.4788 37.7852 19.0041 37.0875C18.5103 36.3632 17.8611 35.9412 17.0514 35.7853C16.5784 35.6941 16.1125 35.5743 15.6431 35.466C15.9851 35.1542 16.3149 34.8272 16.6692 34.5326C17.0688 34.2018 17.4807 33.8843 17.9012 33.5858C18.3218 33.2874 18.7616 33.0193 19.1926 32.7361C19.6114 32.4604 20.0215 32.1677 20.4491 31.9072C20.9238 31.6183 21.4089 31.3521 21.894 31.086C22.0651 30.9909 22.2466 30.9206 22.4246 30.8389L22.4263 30.8427ZM23.2779 39.2186C23.5187 39.1882 23.7596 39.1406 24.0021 39.1349C24.5798 39.1197 25.1015 38.9144 25.5815 38.5874C26.3772 38.0457 26.5517 37.1807 26.0352 36.3575C25.5937 35.6561 24.9759 35.2036 24.2255 35.0173C23.0284 34.7208 21.8277 34.888 20.6411 35.1219C20.1926 35.2112 19.758 35.3918 19.3252 35.561C19.1647 35.6237 19.0041 35.7625 19.1001 36.0059C19.8819 37.9829 21.1768 39.1692 23.2779 39.2167V39.2186Z" fill="#8C6E4B"/>
<path d="M49.2243 35.2189C48.3884 35.9204 47.4426 36.3691 46.4234 36.639C46.2262 36.6903 46.0168 36.7151 45.8144 36.7017C45.3921 36.6732 45.1652 36.8082 44.9593 37.2226C44.7586 37.6256 44.5544 38.0287 44.3258 38.4146C43.7743 39.3537 42.9105 39.732 41.9542 39.8974C41.5336 39.9696 41.0991 39.9715 40.6698 39.9677C40.2614 39.962 40.0869 40.116 40.2143 40.5342C40.3836 41.0988 40.6157 41.6406 40.8426 42.1824C41.1305 42.8706 41.4446 43.5435 41.7361 44.2298C41.7849 44.3458 41.7762 44.4902 41.7936 44.6214C41.7675 44.6461 41.7413 44.6708 41.7151 44.6956C41.5598 44.5853 41.387 44.4978 41.2527 44.3629C40.3504 43.4504 39.7798 42.2965 39.251 41.1083C38.738 39.9563 38.2162 38.8081 37.6542 37.6846C37.4274 37.2302 37.0836 36.8462 36.7939 36.4299C36.684 36.2721 36.5723 36.1181 36.4536 35.9489C36.7904 35.6752 37.0731 35.89 37.3523 35.9641C37.5408 36.0136 37.7171 36.1162 37.9021 36.1847C38.3505 36.3482 38.827 36.1733 39.0364 35.7151C39.3889 34.9452 39.9944 34.6619 40.7256 34.5707C41.8216 34.4357 42.8634 34.7722 43.9139 35.0136C44.8074 35.2189 45.406 34.8749 45.5596 33.8825C45.6503 33.297 45.5544 32.6773 45.5386 32.0728C45.5369 31.9777 45.516 31.8826 45.5037 31.7876C45.7149 31.9112 45.947 32.0081 46.1337 32.1659C46.584 32.5461 47.0133 32.9548 47.4495 33.3559C47.8073 33.6848 48.172 34.0042 48.5106 34.354C48.7688 34.6201 48.9905 34.93 49.2278 35.2208L49.2243 35.2189ZM41.4237 35.1182C41.1532 35.1486 40.8827 35.1828 40.6105 35.2094C39.696 35.2988 39.0591 35.8178 38.6786 36.7132C38.3209 37.5572 38.6298 38.4355 39.4186 38.7815C40.1393 39.0989 40.8722 39.2985 41.6732 39.1256C42.9943 38.8385 43.9942 38.0629 44.7184 36.8557C45.0064 36.3748 44.8964 36.0725 44.4183 35.8368C43.4672 35.3691 42.4673 35.1505 41.4237 35.1201V35.1182Z" fill="#8C6E4B"/>
<path d="M35.963 28.014C35.6105 28.9759 35.2649 29.9397 34.9054 30.896C34.5791 31.7647 34.2632 32.6354 33.6455 33.335C33.0661 33.9908 32.5775 33.7912 32.1272 33.2285C31.6054 32.5784 31.1377 31.8769 30.6456 31.1982C30.0663 30.4017 29.3438 29.7839 28.5567 29.2516C28.2234 29.0272 27.8849 28.8124 27.5498 28.5938C28.1414 28.4208 28.7243 28.2041 29.3246 28.0881C30.0942 27.938 30.8742 27.8353 31.6543 27.7726C32.2756 27.7212 32.9038 27.7441 33.5285 27.7631C34.0992 27.7802 34.6681 27.8315 35.237 27.8847C35.4813 27.9075 35.7221 27.9703 35.963 28.0159V28.014Z" fill="#8C6E4A"/>
<path d="M16.7914 34.325L16.7844 34.3003L16.8054 34.3041L16.7914 34.325Z" fill="#8C6E4B"/>
<path d="M45.5053 31.7646C45.4861 31.7342 45.467 31.7038 45.4478 31.6753C45.467 31.7057 45.4861 31.7361 45.5053 31.7646Z" fill="#8C6E4B"/>
<path d="M19.8908 57.0044C19.8908 57.0044 19.8839 57.0177 19.8804 57.0234C19.8839 57.0177 19.8874 57.0101 19.8908 57.0044Z" fill="#DBCBAA"/>
<path d="M26.6198 56.94C26.4627 56.6643 26.2568 56.4077 26.1608 56.1092C26.0002 55.613 25.8903 55.096 25.7961 54.5789C25.6006 53.5124 25.7612 52.4573 25.9793 51.4232C26.1381 50.6723 26.4051 49.9499 26.5814 49.2028C26.7175 48.6306 26.9409 48.1116 27.1991 47.5983C27.5604 46.8759 28.0054 46.2581 28.6249 45.7638C29.192 45.3114 29.7924 44.9711 30.4764 44.8456C31.1448 44.7221 31.8254 44.6726 32.5008 44.589C33.6176 44.4521 34.7136 44.665 35.7833 44.9426C36.9054 45.2334 37.9054 45.8285 38.5825 46.9006C38.846 47.3189 39.0379 47.7713 39.092 48.3055C39.1584 48.9575 39.3364 49.5963 39.4533 50.2445C39.6121 51.1228 39.7255 52.0049 39.6103 52.9041C39.5039 53.731 39.4323 54.5675 39.2718 55.3811C39.188 55.805 38.942 56.1929 38.7744 56.5978C38.6907 56.8012 38.6156 57.0103 38.5354 57.2156C38.1113 57.1377 37.6611 57.132 37.2649 56.9704C36.3034 56.5788 35.3627 56.1244 34.4221 55.6701C34.1569 55.5427 33.9126 55.3488 33.6857 55.1492C33.4693 54.9591 33.4728 54.6872 33.5548 54.4135C33.6386 54.134 33.8288 54.1093 34.0644 54.1036C34.8741 54.0884 35.6734 53.982 36.3889 53.5333C36.8601 53.2368 37.244 52.8451 37.2387 52.1798C37.3016 52.0771 37.3539 51.965 37.4255 51.8699C37.8391 51.3205 38.1724 50.735 38.1951 49.9955C38.2352 49.6761 38.312 49.3587 38.305 49.0412C38.2963 48.6306 38.2212 48.22 38.1759 47.8093C38.1636 47.4881 38.1322 47.1725 37.8932 46.9368C37.4604 46.3265 36.8496 46.0224 36.2109 45.7695C35.2999 45.4083 34.3506 45.3114 33.3908 45.2163C32.431 45.1213 31.4938 45.1954 30.5724 45.4426C29.7051 45.6764 28.9338 46.1022 28.5027 47.0318L28.1886 48.0983C28.1589 48.1477 28.1031 48.1933 28.1014 48.2447C28.0769 48.756 28.0717 49.2655 28.2636 49.7503C28.2828 49.8301 28.2881 49.9176 28.3212 49.9917C28.487 50.3567 28.6598 50.7198 28.8291 51.0829C28.9757 51.4517 29.0786 51.8528 29.2776 52.1836C29.9459 53.2862 30.9546 53.7976 32.1203 53.9534C32.4624 53.9991 32.6177 54.1854 32.677 54.4952C32.7346 54.788 32.5915 55.0294 32.3681 55.1682C32.1413 55.3108 31.8935 55.4267 31.6404 55.5009C30.1658 55.9286 28.686 56.3392 27.2079 56.7575C27.0107 56.8126 26.8152 56.8791 26.618 56.94H26.6198Z" fill="#B7AC9A"/>
<path d="M37.2408 52.1837C37.246 52.8491 36.8638 53.2407 36.3909 53.5372C35.6754 53.9859 34.8761 54.0923 34.0664 54.1075C33.8308 54.1113 33.6406 54.1361 33.5568 54.4174C33.4748 54.6912 33.4713 54.963 33.6877 55.1531C33.9146 55.3527 34.1589 55.5466 34.4241 55.674C35.363 56.1283 36.3054 56.5808 37.2669 56.9743C37.6631 57.1359 38.1116 57.1416 38.5374 57.2195C38.8672 57.3203 39.1988 57.4077 39.5234 57.5237C39.7136 57.5921 39.9038 57.7119 39.8427 57.9818C39.7904 58.2157 39.642 58.3164 39.4047 58.3715C39.0853 58.4457 38.855 58.2366 38.5793 58.1814C38.4082 58.1472 38.2407 58.0826 38.0732 58.0332C37.5549 57.8373 37.0401 57.6282 36.5183 57.4457C35.7644 57.1815 35.021 57.1188 34.316 57.6377C34.206 57.7176 34.0612 57.7461 33.9285 57.7803C32.9862 58.0217 32.0543 57.9362 31.1503 57.5978C30.4523 57.3355 29.7612 57.153 29.0248 57.326C28.3739 57.4781 27.7264 57.6377 27.154 58.0312C26.887 58.2042 26.6061 58.3582 26.3548 58.5578C26.0564 58.7955 25.7545 58.805 25.4456 58.6358C25.1227 58.4571 24.8226 58.2309 24.4997 58.0522C24.1821 57.8754 23.8471 57.7347 23.5225 57.5199C23.9134 57.5199 24.3043 57.5351 24.6952 57.5161C25.3758 57.4838 26.0127 57.2594 26.6235 56.9401C26.8207 56.8792 27.0162 56.8146 27.2134 56.7576C28.6915 56.3393 30.1696 55.9287 31.6459 55.501C31.899 55.4287 32.1468 55.3109 32.3736 55.1683C32.597 55.0276 32.7401 54.7881 32.6825 54.4953C32.6215 54.1855 32.4679 53.9992 32.1258 53.9536C30.9601 53.7977 29.9514 53.2882 29.2831 52.1837C29.0824 51.8529 28.9812 51.4518 28.8346 51.083C28.8817 51.1191 28.9358 51.1495 28.9724 51.1952C29.475 51.8358 30.1085 52.2711 30.8484 52.4765C31.5604 52.6742 32.2881 52.8377 33.0176 52.9346C34.2112 53.0943 35.4014 53.0962 36.5287 52.524C36.7661 52.4042 37.0069 52.294 37.246 52.1799L37.2408 52.1837Z" fill="#494236"/>
<path d="M27.1504 58.0314C27.7246 57.6379 28.372 57.4782 29.0212 57.3261C29.7594 57.1531 30.4504 57.3356 31.1467 57.598C32.0507 57.9363 32.9826 58.0219 33.9249 57.7805C34.0576 57.7462 34.2042 57.7177 34.3123 57.6379C35.0156 57.1208 35.759 57.1835 36.5147 57.4459C37.0365 57.6284 37.5513 57.8356 38.0696 58.0333C37.8165 58.3203 37.5879 58.6416 37.3035 58.8869C36.937 59.2024 36.5391 59.4781 36.1342 59.7328C35.7398 59.978 35.3367 60.248 34.9057 60.3754C34.1867 60.5864 33.4433 60.7993 32.7086 60.8126C32.0629 60.824 31.405 60.5978 30.7663 60.4153C29.8361 60.151 29.0107 59.6225 28.2202 59.0465C27.831 58.7614 27.5047 58.3755 27.1487 58.0333L27.1504 58.0314Z" fill="#B7AC9A"/>
<path d="M50.9363 40.1593H50.5698C50.5733 40.1251 50.5786 40.0909 50.582 40.0566C50.699 40.0909 50.8176 40.1251 50.9346 40.1612L50.9363 40.1593Z" fill="#C9BA9D"/>
<path d="M44.1495 54.5617C44.1495 54.5617 44.1373 54.5541 44.1321 54.5503C44.1373 54.5541 44.1443 54.5579 44.1495 54.5617Z" fill="#C9BA9D"/>
<path d="M42.3783 56.9396C42.3783 56.9396 42.3661 56.932 42.3608 56.9282C42.3661 56.932 42.3713 56.9358 42.3783 56.9396Z" fill="#C9BA9D"/>
<path d="M36.7712 33.1501C36.6927 32.4924 36.7922 31.8403 37.1028 31.3194C37.3262 30.9449 37.5635 30.445 38.0993 30.3898C38.2075 30.3784 38.2982 30.2358 38.4099 30.1921C38.8427 30.0172 39.4308 30.2491 39.8042 30.7073C40.3086 31.327 40.3923 32.0399 40.2213 32.8136C40.1009 33.3649 39.9578 33.9048 39.6245 34.3668C39.4831 34.5626 39.4064 34.8116 39.2825 35.0245C38.9823 35.5435 38.5024 35.7013 37.9806 35.7583C37.9387 35.7621 37.8933 35.6614 37.8393 35.6366C37.4344 35.4408 37.2599 35.034 37.0819 34.6405C36.8672 34.171 36.7398 33.6729 36.7712 33.1501Z" fill="#CABA9C"/>
<path d="M24.072 31.1355C24.0877 30.6982 24.4804 30.2971 24.8852 30.2629C25.4035 30.2192 25.9114 30.2192 26.4087 30.4435C26.8118 30.6241 27.2673 30.6849 27.6495 30.9017C28.1451 31.1849 28.6215 31.5784 28.6564 32.2533C28.6739 32.5765 28.5378 32.9282 28.4069 33.2342C28.255 33.5897 27.9758 33.833 27.6617 34.0479C26.9706 34.5212 26.6146 34.2798 26.0876 33.8749C25.6688 33.5517 25.2657 33.1791 24.9324 32.7571C24.5781 32.3103 24.1907 31.856 24.0877 31.2324C24.079 31.1811 24.0738 31.1317 24.0738 31.1355H24.072Z" fill="#CABA9C"/>
<path d="M23.278 39.2185C21.1769 39.171 19.882 37.9847 19.1002 36.0077C19.0042 35.7644 19.1648 35.6256 19.3253 35.5628C19.7564 35.3937 20.1926 35.2112 20.6411 35.1237C21.8278 34.8899 23.0284 34.7207 24.2256 35.0192C24.976 35.2055 25.5955 35.6579 26.0353 36.3594C26.5518 37.1825 26.379 38.0475 25.5815 38.5893C25.1016 38.9163 24.5798 39.1216 24.0022 39.1368C23.7596 39.1425 23.5188 39.1919 23.278 39.2204V39.2185Z" fill="#161514"/>
<path d="M41.4237 35.1181C42.4673 35.1485 43.4672 35.3671 44.4183 35.8348C44.8964 36.0705 45.0081 36.3728 44.7184 36.8537C43.9942 38.0609 42.996 38.8384 41.6732 39.1236C40.8722 39.2966 40.1393 39.097 39.4186 38.7795C38.628 38.4316 38.3209 37.5552 38.6786 36.7112C39.0573 35.8158 39.6943 35.2968 40.6105 35.2075C40.881 35.1808 41.1514 35.1466 41.4237 35.1162V35.1181Z" fill="#161514"/>
<path d="M37.2405 52.1836C37.0014 52.2977 36.7606 52.408 36.5233 52.5277C35.3959 53.098 34.2058 53.098 33.0121 52.9384C32.2827 52.8414 31.5567 52.6779 30.8429 52.4802C30.103 52.2749 29.4695 51.8396 28.9669 51.1989C28.9303 51.1533 28.8745 51.1229 28.8291 51.0868C28.6581 50.7237 28.4853 50.3625 28.3213 49.9956C28.2881 49.9233 28.2829 49.8359 28.2637 49.7541C28.2881 49.7579 28.3282 49.7503 28.3352 49.7655C28.5586 50.1781 28.8884 50.4214 29.3177 50.5164C29.391 50.5336 29.4556 50.5887 29.5289 50.6115C29.7627 50.6818 29.9966 50.7503 30.2339 50.8073C30.2601 50.813 30.302 50.7427 30.3369 50.7065C30.4171 50.7065 30.4957 50.7066 30.5759 50.7047C31.1222 50.9119 31.534 50.6172 31.9301 50.2579C31.8726 49.7598 31.7713 49.6002 31.3804 49.5165C31.1117 49.4576 30.8307 49.4633 30.5585 49.4177C30.11 49.3435 29.6493 49.5754 29.2078 49.3568C29.1572 49.3321 29.0996 49.3207 29.0455 49.3036C29.1223 49.0184 28.871 49.1914 28.8081 49.1021C28.9914 48.8283 29.138 48.5128 29.3631 48.2865C30.3002 47.3455 31.4223 46.8779 32.6945 46.8494C33.0069 46.8418 33.3227 46.8494 33.6334 46.8836C34.2023 46.9501 34.7747 47.0167 35.3366 47.1326C35.6874 47.2049 36.0242 47.3588 36.3627 47.4938C36.8513 47.6896 37.3243 47.9177 37.6052 48.4405C37.6506 48.7181 37.4953 48.8778 37.2894 48.9329C36.9683 49.0184 36.6367 49.0508 36.3086 49.1002C36.2004 49.1173 36.0887 49.123 35.9788 49.1268C35.5739 49.1363 35.1708 49.1667 34.8096 49.3948C34.5286 49.5735 34.4815 50.1762 34.731 50.3549C34.9352 50.5012 35.1464 50.6343 35.3558 50.7731C35.6507 50.8491 35.9456 50.9214 36.2388 51.005C36.7065 51.1362 37.1114 50.9822 37.4761 50.6799C37.7291 50.4708 37.9595 50.2313 38.2003 50.0032C38.1794 50.7427 37.8443 51.3282 37.4307 51.8776C37.3592 51.9726 37.3051 52.0829 37.244 52.1874L37.2405 52.1836ZM34.6769 49.0812L34.663 49.104L34.6839 49.1078L34.6752 49.0831L34.6769 49.0812Z" fill="#232220"/>
<path d="M37.6001 48.4388C37.3191 47.916 36.8462 47.6897 36.3576 47.492C36.0208 47.3571 35.6822 47.2031 35.3315 47.1308C34.7695 47.0149 34.1989 46.9483 33.6282 46.8818C33.3176 46.8457 33.0018 46.84 32.6894 46.8476C31.4155 46.8742 30.2951 47.3438 29.358 48.2848C29.1346 48.511 28.9863 48.8266 28.803 49.1003C28.7402 49.011 28.6372 48.9273 28.6215 48.8304C28.5657 48.4597 28.529 48.0852 28.5011 47.7107C28.4854 47.4882 28.5011 47.262 28.5011 47.0358C28.9339 46.1081 29.7035 45.6804 30.5708 45.4465C31.494 45.1975 32.4294 45.1234 33.3892 45.2203C34.349 45.3154 35.2983 45.4142 36.2093 45.7735C36.848 46.0264 37.4605 46.3305 37.8915 46.9407C37.8532 47.3609 37.8217 47.7829 37.7676 48.2011C37.7572 48.2867 37.656 48.3608 37.5966 48.4388H37.6001Z" fill="#3F3E3B"/>
<path d="M37.6 48.4384C37.6594 48.3586 37.7606 48.2864 37.7711 48.2008C37.8252 47.7826 37.8548 47.3606 37.895 46.9404C38.1323 47.1762 38.1637 47.4898 38.1777 47.813C38.1236 47.9385 38.0677 48.0658 38.0136 48.1913C37.7501 48.7958 37.4622 49.3889 37.2318 50.0068C37.0678 50.4516 36.7449 50.6132 36.3767 50.6874C36.0417 50.7539 35.6944 50.7444 35.3541 50.7672C35.1464 50.6284 34.9335 50.4953 34.7293 50.349C34.4798 50.1703 34.5269 49.5676 34.8079 49.3889C35.1691 49.1608 35.5705 49.1304 35.9771 49.1209C36.087 49.119 36.197 49.1114 36.3069 49.0943C36.635 49.0449 36.9666 49.0125 37.2877 48.927C37.4936 48.8719 37.6489 48.7141 37.6035 48.4346L37.6 48.4384Z" fill="#161514"/>
<path d="M28.5029 47.0356C28.5029 47.26 28.4872 47.4862 28.5029 47.7105C28.5308 48.085 28.5657 48.4595 28.6233 48.8302C28.639 48.9291 28.742 49.0108 28.8048 49.1002C28.8676 49.1895 29.1189 49.0165 29.0421 49.3017C29.0962 49.3188 29.1538 49.3302 29.2044 49.3549C29.6477 49.5735 30.1066 49.3416 30.5551 49.4157C30.8274 49.4614 31.1083 49.4576 31.3771 49.5146C31.768 49.5982 31.8692 49.7579 31.9268 50.256C31.5306 50.6153 31.1188 50.9099 30.5569 50.7122C30.5953 50.6989 30.6162 50.6894 30.6354 50.6818C30.6319 50.6761 30.6302 50.6685 30.6267 50.6628C30.6075 50.6742 30.5883 50.6875 30.5551 50.7122C30.4923 50.7046 30.412 50.7046 30.3335 50.7065C29.6477 50.4803 29.0526 50.0963 28.6861 49.4157C28.468 49.0108 28.3493 48.5432 28.187 48.1021L28.5011 47.0356H28.5029Z" fill="#161514"/>
<path d="M35.3526 50.7672C35.6946 50.7444 36.0419 50.7539 36.3752 50.6873C36.7452 50.6132 37.0663 50.4516 37.2303 50.0068C37.4607 49.387 37.7486 48.7958 38.0121 48.1913C38.068 48.0658 38.1221 47.9385 38.1762 47.813C38.2215 48.2236 38.2966 48.6342 38.3053 49.0449C38.3123 49.3623 38.2355 49.6817 38.1954 49.9992C37.9545 50.2254 37.7242 50.4649 37.4711 50.6759C37.1064 50.9782 36.6998 51.1322 36.2339 51.001C35.9407 50.9174 35.6458 50.8451 35.3508 50.7691L35.3526 50.7672Z" fill="#333333"/>
<path d="M28.1887 48.1021C28.351 48.5412 28.4697 49.0107 28.6878 49.4157C29.0543 50.0962 29.6494 50.4821 30.3352 50.7065C30.3003 50.7426 30.2584 50.8129 30.2323 50.8072C29.9949 50.7502 29.7611 50.6817 29.5272 50.6114C29.4539 50.5886 29.3894 50.5335 29.3161 50.5163C28.8868 50.4213 28.557 50.1761 28.3336 49.7654C28.3266 49.7521 28.2865 49.7578 28.262 49.754C28.0701 49.2693 28.0753 48.7598 28.0997 48.2484C28.1015 48.199 28.1573 48.1515 28.187 48.1021H28.1887Z" fill="#333333"/>
<path d="M34.6773 49.0811L34.686 49.1077L34.665 49.1039L34.6773 49.0811Z" fill="#161514"/>
<path d="M30.541 50.7216C30.5916 50.6893 30.6108 50.676 30.6283 50.6646C30.6318 50.6703 30.6335 50.6779 30.637 50.6836C30.6161 50.6912 30.5951 50.7007 30.541 50.7235V50.7216Z" fill="#232220"/>
</svg>
