<svg width="52" height="68" viewBox="0 0 52 68" fill="none" xmlns="http://www.w3.org/2000/svg">
<path d="M29.7547 67.9997H22.2514C21.0585 67.8231 19.8673 67.6484 18.6744 67.4718C17.8203 67.3096 16.9644 67.1491 16.1103 66.9868C15.4755 66.7657 14.8425 66.5446 14.2077 66.3235C14.2273 66.3021 14.2523 66.2843 14.263 66.2593C14.2719 66.2361 14.2755 66.1862 14.2648 66.1809C14.0704 66.0792 13.8743 65.9829 13.6567 65.8742C15.0173 65.5033 16.2922 65.1538 17.5707 64.8186C17.5707 64.8186 17.6224 65.0022 17.6491 65.1003C17.6367 65.1235 17.6224 65.1467 17.6099 65.1698C17.6224 65.1467 17.6349 65.1217 17.6474 65.0985C17.9023 65.0218 18.1573 64.9434 18.4943 64.8417C18.4212 65.0325 18.3767 65.152 18.3303 65.2715C18.3178 65.2947 18.3035 65.3178 18.2911 65.341C18.3035 65.3178 18.316 65.2929 18.3285 65.2697C18.7208 64.7544 19.1684 64.2729 19.4875 63.7166C19.7996 63.1763 20.1348 62.8001 20.8035 62.9071C20.8712 62.9178 20.9265 62.998 21.0228 63.0711C20.8356 63.2191 20.6751 63.3457 20.5342 63.458C20.9283 63.5151 21.2974 63.5704 21.7592 63.6381C22.0927 63.2423 22.5509 62.702 23.0556 62.1064C23.068 62.3454 23.0752 62.4934 23.0805 62.6039C24.0113 61.5483 24.935 60.4999 25.8604 59.4478C25.9763 59.512 26.1493 59.6885 26.2545 59.6564C27.0301 59.4122 27.8022 59.1447 28.56 58.8451C29.1556 58.6097 29.7066 58.2264 30.3182 58.0695C31.3025 57.818 31.3114 57.8698 31.6609 57.317C31.734 57.2029 31.9212 57.0263 31.964 57.0495C32.4544 57.317 32.877 56.9372 33.2835 56.848C34.2018 56.6483 35.1932 56.429 35.623 55.6819C36.215 55.607 36.6715 55.5481 37.2135 55.4786C37.012 55.1826 36.9157 55.0399 36.9407 55.0774C37.4917 54.5282 38.1835 54.1306 38.3797 53.5635C38.6026 52.9216 38.9414 52.5792 39.4727 52.3046C39.5013 52.3795 39.528 52.4544 39.5565 52.5275L39.6439 52.3064C39.7973 52.1709 39.9417 52.0247 40.104 51.8999C40.457 51.6306 40.8172 51.3721 41.1738 51.1082L41.1792 51.1135C41.5322 51.0315 42.1973 50.9227 42.192 50.8728C42.101 49.8511 42.7929 50.3486 43.1941 50.3343C43.5258 50.3236 43.8628 50.3914 44.1909 50.3557C45.423 50.2184 45.6905 50.4217 45.8367 51.5611C45.8634 51.7644 46.1024 51.9391 46.2486 52.1352C46.2183 52.2476 46.163 52.4295 46.1202 52.6149C45.8813 53.6669 45.735 54.7511 45.3856 55.7639C45.0628 56.6965 44.5207 57.5524 44.075 58.4421C44.0518 58.4671 44.0304 58.4921 44.0072 58.5188C44.0322 58.4956 44.0554 58.4724 44.0803 58.4475C44.2426 58.4493 44.4048 58.451 44.5671 58.4528C44.4779 58.8362 44.51 59.3587 44.2693 59.5744C43.8913 59.9132 43.3118 60.0166 42.85 60.2787C42.5664 60.4392 42.2455 60.6621 42.1189 60.9385C41.7997 61.6339 41.5857 62.3757 40.9581 62.8892C40.8457 62.9802 40.819 63.1763 40.7316 63.376H41.7355C41.707 63.2155 41.682 63.0711 41.641 62.8429C42.5575 63.0568 43.4972 62.9053 44.2533 63.5276C44.2497 63.59 44.2479 63.6506 44.2444 63.713C43.7914 63.9466 43.3385 64.1802 42.8838 64.4138C42.8303 64.4209 42.7751 64.4281 42.7216 64.4352L42.7269 64.4227C42.6663 64.4798 42.6057 64.535 42.5433 64.5921H42.5468C42.4327 64.6492 42.3168 64.708 42.2027 64.7669L42.2098 64.7615C42.0939 64.8203 41.978 64.881 41.8621 64.9398L41.871 64.9345C41.7533 64.988 41.6357 65.0432 41.518 65.0967C41.3486 65.1556 41.1792 65.2144 41.0098 65.2715C40.3304 65.5978 39.6528 65.9241 38.9735 66.2504C38.114 66.5446 37.2527 66.8388 36.3933 67.1331C35.5962 67.2989 34.7992 67.4647 34.0021 67.6305C32.7646 67.6965 31.5272 67.7571 30.2897 67.8338C30.1078 67.8445 29.9313 67.9408 29.753 67.9979L29.7547 67.9997Z" fill="#E7CF90"/>
<path d="M14.2076 66.3241C14.056 66.3062 13.9045 66.2902 13.7547 66.2724C13.514 66.1725 13.2733 66.0709 13.0325 65.971C12.4174 65.7303 11.8004 65.4914 11.1852 65.2506C10.2741 64.7924 9.36288 64.3341 8.4517 63.8776C8.23595 63.7635 8.02197 63.6476 7.80621 63.5335C7.17499 63.1269 6.54377 62.7204 5.91254 62.312C4.17578 60.8606 2.45329 59.3913 0.691571 57.9702C0.0960099 57.4887 -0.141145 56.9627 0.0835281 56.2352C1.12487 54.8069 1.35846 53.0933 1.74183 51.4404C1.78641 51.2514 1.54569 50.9964 1.4387 50.7717C1.62236 49.9229 1.8078 49.0742 1.99146 48.2236C2.0093 47.8206 2.04852 47.4177 2.04139 47.0147C2.03426 46.5618 1.9879 46.1089 1.95759 45.6559C2.31956 44.8072 2.67975 43.9584 3.04172 43.1114C3.09878 42.9902 3.15584 42.8671 3.2129 42.7459C3.92615 43.345 4.26316 44.2045 4.23819 45.039C4.18648 46.6955 5.31698 47.7832 5.9482 49.1027C6.25312 49.7393 6.77379 50.2974 7.28198 50.8056C8.02732 51.5545 8.9064 52.1732 9.625 52.9453C10.5433 53.9314 11.3778 54.9977 12.2034 56.064C12.4477 56.3778 12.6759 56.8147 12.6688 57.1892C12.6545 57.9077 13.1609 58.2341 13.5372 58.6798C13.4623 58.9776 13.4034 59.2825 13.3089 59.5767C13.1591 60.0439 13.8439 61.6452 14.311 61.7753C14.4804 61.8235 14.7069 61.6737 14.9048 61.6077C15.2204 61.5043 15.5521 61.4294 15.8445 61.2796C16.3277 61.0318 16.8127 60.7679 17.2443 60.4416C17.4885 60.2561 17.5955 59.9031 17.8166 59.673C18.3141 59.1559 18.8491 58.6745 19.3537 58.1609C19.4375 58.0754 19.5177 57.8632 19.4714 57.7883C18.7385 56.5668 20.0527 57.0465 20.2934 56.6738C20.3897 55.9481 20.4878 55.2045 20.5858 54.461C20.6589 54.4699 20.7303 54.4788 20.8034 54.4877C20.8569 54.6232 20.9104 54.7588 21.0173 55.028C21.5897 53.1843 22.829 52.266 24.5301 51.8541C24.6674 51.1176 25.7159 50.2706 26.6235 50.2706C27.1548 50.2706 27.449 50.1476 27.3742 49.5645C27.8592 49.577 28.3656 49.6858 28.8256 49.5824C29.4979 49.429 30.1326 49.1223 30.7853 48.8852C31.7161 48.5482 32.021 48.7924 31.9247 49.6002H35.3073L35.3429 49.8463C35.1236 49.964 34.9025 50.0816 34.6832 50.1993C34.6903 50.2707 34.6992 50.342 34.7063 50.4133C35.268 50.3598 35.8297 50.3063 36.3914 50.2528C37.0333 50.4828 37.636 50.5756 38.0622 49.8552C38.1353 49.7322 38.3118 49.668 38.4402 49.577C38.3921 49.7839 38.3421 49.9889 38.2583 50.342C38.8396 50.0781 39.2337 49.8998 39.6295 49.7215C39.6866 49.832 39.7454 49.9426 39.8827 50.21C40.3428 49.6751 40.7565 49.1954 41.1702 48.714C41.2254 48.6587 41.2825 48.6017 41.3378 48.5464C42.3452 49.3488 42.3238 47.8688 42.9818 47.8349C43.0246 47.9633 43.0745 48.1166 43.169 48.4002C43.6273 47.6619 45.0252 47.8831 44.7061 46.535C44.6936 46.4833 44.8576 46.3817 44.9468 46.3157C45.4906 45.9234 46.0363 45.5347 46.5926 45.1371C46.6247 45.3403 46.6515 45.5115 46.7014 45.8289C47.0045 45.2476 47.2363 44.8036 47.4806 44.3382C47.6108 44.4773 47.6892 44.5629 47.7053 44.5789C48.3864 43.074 49.0694 41.5708 49.7541 40.0676C49.7612 40.0516 49.8076 40.0552 49.8361 40.048C49.8646 40.2139 49.895 40.3815 49.9235 40.5473C49.9663 40.5348 50.0109 40.5223 50.0536 40.5099C50.0002 40.3405 49.9449 40.1711 49.8914 40.0017C49.8575 39.7966 49.8218 39.5916 49.7737 39.3063C49.4938 39.4917 49.2994 39.6201 48.9659 39.843C49.1532 39.1814 49.4153 38.6715 49.401 38.1722C49.3885 37.7478 49.0551 37.3306 48.8554 36.9133C48.8144 36.8295 48.6949 36.76 48.6931 36.6833C48.6806 35.8524 48.686 35.0214 48.686 34.1245C48.9232 34.2422 49.0676 34.3153 49.2138 34.3884C49.4349 34.8395 49.6542 35.2907 49.8753 35.7418C50.141 36.4961 50.4049 37.2503 50.6706 38.0028C50.7455 38.2792 50.8543 38.5502 50.8899 38.8302C50.9613 39.3954 50.9951 39.966 51.0433 40.533C51.1806 41.3568 51.3678 42.1771 51.4409 43.008C51.498 43.6553 51.4177 44.3168 51.3963 44.9712L51.4088 44.9605C51.2947 45.0764 51.1788 45.1923 51.0647 45.3082C50.9506 45.1567 50.8347 45.0069 50.6742 44.7947C50.4281 45.3867 50.182 45.8414 50.0536 46.3282C49.9467 46.7329 49.9574 47.1128 49.7345 47.5496C49.1496 48.6962 48.7734 49.9622 48.9392 51.3066C48.9535 51.4297 48.875 51.5616 48.85 51.6918C48.7805 52.0573 48.6539 52.4264 48.6664 52.7902C48.6878 53.4321 49.1639 54.1828 48.0102 54.3879C47.7713 54.4307 47.6054 54.9335 47.4218 55.2331C47.2845 55.456 47.2328 55.7876 47.0402 55.9107C46.4838 56.2673 46.2806 56.9591 45.578 57.2266C45.1483 57.3906 44.8969 58.0237 44.5634 58.4462C44.4012 58.4445 44.2389 58.4427 44.0766 58.4409L44.0713 58.4356C44.5171 57.5458 45.0591 56.6899 45.3819 55.7573C45.7332 54.7445 45.8794 53.6604 46.1165 52.6083C46.1593 52.4229 46.2146 52.2392 46.2449 52.1287C46.0987 51.9343 45.858 51.7578 45.833 51.5545C45.6886 50.4151 45.4193 50.2136 44.1872 50.3491C43.8591 50.3848 43.5221 50.317 43.1904 50.3277C42.7892 50.342 42.0974 49.8445 42.1883 50.8662C42.1919 50.9161 41.5286 51.0249 41.1755 51.1069C41.2183 51.0463 41.2593 50.9857 41.3021 50.9233C41.2807 50.909 41.2593 50.8947 41.2379 50.8805C41.2147 50.9536 41.1933 51.0285 41.1702 51.1016C40.8135 51.3655 40.4516 51.624 40.1003 51.8933C39.938 52.0181 39.7936 52.1643 39.6402 52.2998H39.6385C39.6171 52.2214 39.5957 52.1447 39.5511 51.9807C39.5083 52.1447 39.4887 52.2214 39.4673 52.2998H39.4691C38.9377 52.5727 38.5971 52.9132 38.376 53.5569C38.1799 54.124 37.488 54.5198 36.937 55.0708C36.9121 55.0351 37.0101 55.1778 37.2098 55.472C36.6678 55.5415 36.2113 55.5986 35.6193 55.6753C35.1896 56.4224 34.1982 56.6417 33.2799 56.8414C32.8715 56.9306 32.4489 57.3086 31.9603 57.0429C31.9175 57.0198 31.7285 57.1963 31.6572 57.3104C31.3077 57.8632 31.2988 57.8097 30.3145 58.0629C29.7029 58.2198 29.1519 58.6032 28.5564 58.8385C27.7985 59.1381 27.0282 59.4056 26.2508 59.6499C26.1456 59.6837 25.9726 59.5072 25.8567 59.4412C24.9313 60.4933 24.0058 61.5417 23.0768 62.5973C23.0715 62.485 23.0644 62.3388 23.0519 62.0999C22.5473 62.6954 22.0908 63.2357 21.7556 63.6316C21.2937 63.5638 20.9228 63.5085 20.5306 63.4515C20.6714 63.3391 20.8319 63.2125 21.0191 63.0645C20.9228 62.9896 20.8676 62.9112 20.7998 62.9005C20.1311 62.7935 19.7959 63.1697 19.4839 63.71C19.1629 64.2664 18.7153 64.7478 18.3248 65.2631C18.3712 65.1436 18.4158 65.0242 18.4889 64.8334C18.1519 64.935 17.8969 65.0135 17.6419 65.0902C17.6152 64.9939 17.5652 64.8084 17.5634 64.8102C16.2849 65.1472 15.01 65.4949 13.6495 65.8658C13.867 65.9746 14.0632 66.0709 14.2575 66.1725C14.2682 66.1779 14.2647 66.2278 14.2558 66.251C14.2451 66.2759 14.2201 66.2938 14.2005 66.3152L14.2076 66.3241ZM45.0431 46.5742C45.0484 46.5974 45.0449 46.6295 45.0591 46.6384C45.0787 46.6527 45.1108 46.6491 45.1358 46.6527C45.1287 46.6153 45.1215 46.5796 45.1144 46.5422C45.0912 46.5529 45.0663 46.5618 45.0431 46.5725V46.5742Z" fill="#E3C170"/>
<path d="M44.567 58.4567C44.8987 58.0341 45.1501 57.4011 45.5816 57.2371C46.2841 56.9678 46.4874 56.2778 47.0438 55.9211C47.2363 55.7981 47.288 55.4664 47.4253 55.2436C47.609 54.9422 47.7748 54.4412 48.0138 54.3984C49.1675 54.1933 48.6914 53.4426 48.67 52.8007C48.6575 52.4369 48.7859 52.0678 48.8536 51.7023C48.8786 51.5721 48.9588 51.4402 48.9428 51.3171C48.777 49.9727 49.1532 48.7049 49.7381 47.5601C49.9609 47.1232 49.9502 46.7452 50.0572 46.3387C50.1856 45.8537 50.4317 45.399 50.6778 44.8052C50.84 45.0174 50.9541 45.1689 51.0683 45.3187C51.0379 45.5434 51.0076 45.7681 50.9791 45.9927C50.9702 46.0159 50.9452 46.048 50.9541 46.0623C50.9773 46.1051 51.013 46.1407 51.0433 46.1782C51.3821 47.9613 51.753 49.7391 51.605 51.5757C51.5818 51.8699 51.7351 52.1766 51.8065 52.4779C51.851 52.7632 51.8956 53.0485 51.942 53.3356C51.9634 54.1879 51.9848 55.0385 52.0062 55.8908C51.9794 56.0852 51.9259 56.2778 51.9277 56.4721C51.9313 57.2977 51.5925 57.8558 50.9648 58.455C49.6756 59.6835 48.4685 60.9905 46.9671 61.9766C46.1415 62.5044 45.3177 63.0304 44.4921 63.5582C44.4119 63.5511 44.3316 63.5422 44.2514 63.5351C43.4954 62.9127 42.5557 63.0643 41.6391 62.8503C41.6784 63.0786 41.7051 63.223 41.7336 63.3835H40.7297C40.8189 63.1838 40.8439 62.9876 40.9562 62.8967C41.5856 62.3832 41.7996 61.6414 42.117 60.946C42.2436 60.6696 42.5663 60.4467 42.8481 60.2862C43.3099 60.0241 43.8894 59.9225 44.2674 59.5819C44.5082 59.3661 44.4743 58.8455 44.5652 58.4603L44.567 58.4567Z" fill="#D49A30"/>
<path d="M39.1267 66.2778C39.0749 66.276 39.025 66.2671 38.9751 66.2529C39.6545 65.9265 40.332 65.6002 41.0114 65.2739C41.0114 65.2739 41.0524 65.3274 41.0524 65.3256C40.694 65.5325 40.3356 65.7411 39.9772 65.9479C39.6937 66.0567 39.4102 66.1673 39.1284 66.276L39.1267 66.2778Z" fill="#E6C37A"/>
<path d="M41.0096 65.2739C41.179 65.215 41.3484 65.1562 41.5178 65.0991L41.5196 65.1027C41.3627 65.1776 41.2057 65.2525 41.0488 65.3274L41.0078 65.2739H41.0096Z" fill="#E6C37A"/>
<path d="M39.6456 52.3089L39.5582 52.53C39.5297 52.4551 39.503 52.3802 39.4744 52.3071L39.4727 52.3089C39.5297 52.3089 39.5868 52.3089 39.6438 52.3071H39.6456V52.3089Z" fill="#E3C170"/>
<path d="M42.5465 64.5908C42.4324 64.6497 42.3165 64.7085 42.2024 64.7691C42.3165 64.7103 42.4324 64.6514 42.5465 64.5908Z" fill="#E6C37A"/>
<path d="M41.8709 64.9346C41.812 64.9952 41.7532 65.0558 41.6926 65.1164C41.6355 65.1111 41.5767 65.1057 41.5196 65.1004L41.5178 65.0968C41.6355 65.0433 41.7532 64.9881 41.8709 64.9346Z" fill="#E6C37A"/>
<path d="M44.0802 58.4516C44.0552 58.4748 44.032 58.498 44.0071 58.523C44.0303 58.498 44.0517 58.473 44.0748 58.4463L44.0802 58.4516Z" fill="#E3C170"/>
<path d="M17.6456 65.1006C17.6331 65.1238 17.6206 65.1487 17.6082 65.1719C17.6206 65.1487 17.6349 65.1256 17.6474 65.1024L17.6456 65.1006Z" fill="#E3C170"/>
<path d="M18.3285 65.2705C18.316 65.2937 18.3035 65.3187 18.291 65.3418C18.3035 65.3187 18.3178 65.2955 18.3302 65.2723L18.3285 65.2705Z" fill="#E3C170"/>
<path d="M42.8837 64.4165L42.8052 64.445L42.7214 64.4379C42.7749 64.4308 42.8302 64.4236 42.8837 64.4165Z" fill="#E6C37A"/>
<path d="M42.7269 64.4248C42.6662 64.4819 42.6056 64.5371 42.5432 64.5942C42.6038 64.5371 42.6645 64.4819 42.7269 64.4248Z" fill="#E6C37A"/>
<path d="M0.77376 35.4224C0.821904 35.3279 0.93424 35.1852 0.907494 35.1478C0.360076 34.422 0.386823 33.5786 0.418919 32.7441C0.451015 31.9399 0.520557 31.1357 0.574051 30.3316C1.71168 30.3191 2.84931 30.3084 3.98694 30.2959C4.0547 30.8647 4.12424 31.4335 4.192 32.0041C4.24371 32.063 4.29542 32.1218 4.34891 32.1807C4.34356 32.2948 4.34 32.4071 4.33465 32.5212C4.51296 33.0865 4.67522 33.666 5.4277 33.6963C5.76293 34.1564 6.09637 34.6164 6.4316 35.0764C6.30321 35.3047 6.17483 35.5329 6.04644 35.7612C6.01078 36.0857 5.97333 36.4102 5.93411 36.7633C6.04288 36.7811 6.19979 36.8061 6.35492 36.831C6.35849 36.8756 6.36384 36.9184 6.37275 36.963C6.36027 37.2893 6.26577 37.5746 6.52253 37.9241C6.79 38.2878 7.10205 38.7925 6.79357 39.306C6.642 39.5592 6.34244 39.7197 6.18018 39.9675C5.54895 40.9393 4.4559 41.2407 3.42347 40.7271C3.03654 40.5346 2.61572 40.4222 2.29476 40.8787C2.18956 40.7646 2.08435 40.6505 1.97915 40.5346C1.80262 39.8516 1.62609 39.1669 1.45134 38.484C1.61896 38.0311 1.78835 37.5764 1.95597 37.1235C2.04334 37.0557 2.12893 36.9879 2.2163 36.9202C2.19847 36.9024 2.18064 36.8827 2.16103 36.8649C2.09327 36.9523 2.02551 37.0379 1.95775 37.1252L1.28373 38.1434C1.11255 37.2358 0.943156 36.3282 0.771976 35.4188L0.77376 35.4224ZM2.64069 36.2711C2.58363 36.3282 2.52657 36.3852 2.46951 36.4423C2.45702 36.4673 2.44454 36.4922 2.43206 36.5172C2.44633 36.4922 2.45881 36.4691 2.47307 36.4441C2.53013 36.387 2.58719 36.33 2.64425 36.2729C2.65673 36.2479 2.66922 36.223 2.6817 36.198C2.66743 36.2212 2.65495 36.2462 2.64069 36.2693V36.2711ZM4.00121 34.7323C3.94415 34.7894 3.88709 34.8464 3.83003 34.9035C3.77297 34.9605 3.71591 35.0176 3.65885 35.0747C3.60179 35.1317 3.54473 35.1888 3.48767 35.2458C3.43061 35.3029 3.37355 35.36 3.31649 35.417C3.20415 35.5329 3.09181 35.6488 2.97948 35.7629C2.967 35.7879 2.95451 35.8129 2.94203 35.8378C2.9563 35.8147 2.96878 35.7897 2.98304 35.7665C3.09895 35.6542 3.21307 35.5418 3.32897 35.4277C3.38603 35.3707 3.44309 35.3136 3.50015 35.2565C3.55721 35.1995 3.61427 35.1424 3.67133 35.0854C3.72839 35.0283 3.78545 34.9712 3.84251 34.9142C3.89957 34.8571 3.95663 34.8001 4.01369 34.743C4.07075 34.6859 4.12602 34.6307 4.18308 34.5736C4.31682 34.5041 4.45055 34.4363 4.58428 34.3668C4.53436 34.3133 4.48621 34.2616 4.43629 34.2081C4.34713 34.3257 4.25976 34.4434 4.1706 34.5611L4.00121 34.7305V34.7323ZM1.96132 35.0818C2.37857 34.7269 2.7976 34.3739 3.21485 34.0191C3.18989 33.9424 3.16671 33.8657 3.14174 33.7908C2.65317 33.9103 2.16459 34.028 1.66532 34.151C1.80084 34.5789 1.87929 34.8286 1.95775 35.08C1.88286 35.1014 1.80797 35.1246 1.73486 35.146C1.74913 35.1674 1.76339 35.1888 1.77766 35.212L1.96132 35.0854V35.0818Z" fill="#EFDFAD"/>
<path d="M0.429443 30.1337C0.493636 29.9607 0.559611 29.7895 0.623803 29.6166C0.673731 29.6184 0.723658 29.6201 0.775368 29.6184C1.44225 29.4918 2.10914 29.3634 2.87767 29.2172C2.08953 28.6073 1.43691 29.0977 0.775368 29.2903C0.716525 29.1761 0.657682 29.062 0.600623 28.9479C1.00361 27.6979 1.40838 26.4498 1.81136 25.1998C2.02533 24.3439 2.24109 23.488 2.45685 22.6321C2.58523 22.1685 2.71184 21.7031 2.84022 21.2395C3.22537 21.0879 3.71573 21.0362 3.9725 20.7634C4.63582 20.0555 5.19037 19.2442 5.79841 18.4828C6.29412 17.864 6.8772 17.8498 7.62968 18.062C8.45704 18.2938 8.34471 19.2121 8.95275 19.5455C8.89391 19.6953 8.83328 19.8469 8.77444 19.9966L8.60504 20.0965C8.49627 20.3033 8.38572 20.5084 8.2823 20.717C8.19314 20.8953 8.11112 21.079 7.95955 21.4053C7.74201 20.9274 7.62611 20.6742 7.47811 20.3515C7.44245 20.6011 7.41927 20.7652 7.39609 20.9292C7.2891 20.7741 7.08404 20.6154 7.08939 20.4638C7.11436 19.8379 7.20173 19.2156 7.26592 18.5915C7.17676 18.5523 7.08939 18.5131 7.00024 18.4739C6.45995 19.0213 5.45605 19.0088 5.34728 20.1072C5.31875 20.3996 4.92112 20.9078 4.73924 20.8882C4.17578 20.8258 4.23105 21.1682 4.1098 21.4927C3.81737 22.2808 3.49106 23.0565 3.138 23.8197C2.9686 24.187 2.56384 24.4972 2.52461 24.8628C2.43189 25.7222 2.49429 26.5995 2.49429 27.4002C2.61555 27.4412 2.80456 27.5214 3.0007 27.5696C3.26104 27.6337 3.58913 27.796 3.78171 27.6997C4.74816 27.2218 5.69321 26.694 6.6133 26.1341C6.76665 26.0414 6.75238 25.6884 6.83619 25.4619C7.07334 24.8182 6.34405 24.0568 7.08226 23.4791C7.66712 24.6702 7.87575 24.7932 8.95988 24.5828C8.73521 24.9145 8.52837 25.2586 8.2823 25.5725C8.06832 25.8453 7.81155 26.0842 7.57262 26.3392L6.63113 26.9044C6.50453 27.0221 6.37614 27.1398 6.24954 27.2575C5.103 27.3877 4.05096 28.7268 3.98676 30.139C2.80099 30.1372 1.61522 30.1355 0.429443 30.1337Z" fill="#EFDFAD"/>
<path d="M0.429443 30.1338C1.61522 30.1356 2.80099 30.1374 3.98677 30.1391C4.0153 30.1908 4.0153 30.2443 3.98677 30.2961C2.84914 30.3085 1.71151 30.3192 0.573876 30.3317C0.525732 30.2657 0.477588 30.1998 0.429443 30.1338Z" fill="#EFDFAD"/>
<path d="M41.8515 1.85349C41.8586 1.89628 41.8711 1.93551 41.8872 1.97474C41.9424 2.14235 41.9977 2.30818 42.053 2.4758L42.0191 2.51503C42.0209 2.81637 41.9959 3.12129 42.0334 3.41907C42.0976 3.90764 42.7876 4.32133 42.201 4.88836C42.1796 4.86339 42.1582 4.83843 42.1368 4.81347C42.1404 4.82773 42.1368 4.84913 42.1457 4.85626C42.16 4.87053 42.1832 4.87588 42.2028 4.88479C42.0013 5.81201 42.1939 6.5948 43.048 7.11547C42.9125 7.40791 42.7948 7.66467 42.6432 7.99098C42.8821 7.93214 43.0052 7.90183 43.1264 7.8733C43.1746 8.49917 43.2227 9.12683 43.2691 9.73309C43.3725 9.65998 43.5223 9.55656 43.7452 9.39965C43.6721 9.90784 43.6168 10.2948 43.5615 10.6817C43.5383 10.7049 43.5169 10.7299 43.4938 10.753C43.5187 10.7316 43.5437 10.7102 43.5704 10.6888C43.5009 11.0116 43.442 11.3361 43.36 11.6553C43.1514 12.472 42.9321 13.2851 42.7163 14.0999C42.6967 14.1089 42.6753 14.1142 42.661 14.1285C42.6521 14.1356 42.6539 14.1552 42.6503 14.1695C42.6699 14.1445 42.6913 14.1196 42.711 14.0946C42.8429 14.1142 42.9766 14.1338 43.303 14.1838C42.7288 14.4815 42.3151 14.6955 41.9032 14.9095C41.9228 14.963 41.9424 15.0165 41.9621 15.07C42.2135 15.0824 42.4631 15.0931 42.8019 15.1092C42.6717 15.2893 42.6075 15.3767 42.5451 15.464C42.4863 15.6334 42.4274 15.8028 42.3686 15.9704C41.971 16.1898 41.5733 16.4109 41.1757 16.6302C41.8854 16.8887 42.0084 16.796 42.374 15.9758C42.431 15.8563 42.4881 15.7369 42.5451 15.6174C42.7502 15.5514 42.9552 15.4854 43.146 15.4248C43.2298 15.7565 43.3065 16.0667 43.385 16.3752C43.4617 16.3806 43.5383 16.3841 43.6132 16.3895C43.7202 15.9508 43.8272 15.5104 43.936 15.0717C44.3265 15.8831 44.717 16.6944 45.1075 17.5057C45.5212 18.3117 45.9366 19.1176 46.3503 19.9236C46.2808 20.0502 46.1292 20.1946 46.1524 20.2999C46.3307 21.0933 46.5429 21.8797 46.7462 22.6696C46.8763 23.5077 47.0083 24.344 47.1384 25.182C47.0261 25.1856 46.912 25.1892 46.7997 25.1909C46.7818 25.1749 46.764 25.1606 46.7462 25.1446C46.7676 25.1571 46.7872 25.1696 46.8086 25.182C47.0261 26.0379 47.2419 26.8938 47.4594 27.7497C47.5075 27.9173 47.5539 28.085 47.6021 28.2526C47.4826 28.3774 47.2686 28.4986 47.2615 28.6288C47.2419 29.0086 47.3043 29.3938 47.3328 29.7789C47.2811 29.7985 47.2312 29.8199 47.1795 29.8395C46.8906 29.433 46.6035 29.0264 46.3039 28.6056C46.2308 28.7483 46.1292 28.9462 46.0383 29.1263C45.8885 29.0157 45.7904 28.9426 45.6816 28.8606C45.4819 29.4526 45.3018 29.9822 45.0772 30.6473C44.9506 30.3566 44.8864 30.2104 44.8347 30.0927C44.3746 30.4351 43.9609 30.7436 43.5472 31.0538C43.5134 30.9914 43.4813 30.929 43.4474 30.8666C43.3671 31.3623 43.2887 31.8562 43.2085 32.352C42.9731 32.0863 42.9481 31.7742 42.8215 31.5103C42.7466 31.3552 42.5113 31.275 42.349 31.1626C42.0423 30.9469 41.7356 30.7311 41.3986 30.4922C41.6036 29.934 41.8158 29.3563 41.9353 29.0264C41.7249 28.3346 41.5626 27.805 41.4218 27.3414C41.7855 27.1292 42.0262 26.9883 42.2741 26.8439C41.7035 26.4801 41.1293 26.1093 41.2773 25.3443C41.3915 24.7505 41.0081 24.0248 40.5623 23.9428C40.45 23.5772 40.359 23.2812 40.2485 22.9175C40.0202 23.135 39.8829 23.2634 39.7028 23.4346C39.5816 23.1297 39.4835 22.88 39.3944 22.6536C38.8309 22.7088 38.2799 22.7623 37.6505 22.823C38.0642 23.1546 38.3869 23.4132 38.7079 23.6717C38.6829 23.7324 38.6579 23.7912 38.633 23.8518C37.4757 23.5487 36.3167 23.2456 35.1202 22.9317C35.1898 22.8747 35.2985 22.7837 35.6195 22.5181C35.122 22.543 34.8545 22.5519 34.5871 22.5733C33.8881 22.6268 33.1838 22.6429 32.4919 22.7516C31.9374 22.839 31.0993 22.8872 30.9263 23.226C30.6535 23.7591 30.6803 24.294 29.9296 24.6043C29.4035 24.8201 29.1325 25.6118 28.6832 26.0843C28.3533 26.4338 27.7631 27.0204 27.5616 26.9241C26.5666 26.4516 26.6861 27.2433 26.522 27.7283C24.7478 27.9156 23.0235 27.5892 21.2547 27.5857C21.244 27.616 21.1994 27.7497 21.1531 27.8835C20.734 27.4002 20.4059 26.9134 20.6039 26.1984C20.6805 25.922 20.5093 25.5797 20.422 25.1018C20.2241 25.4014 20.1652 25.4887 20.0974 25.5921C19.9352 25.059 19.7818 24.5562 19.6017 23.9659C18.9313 24.763 19.2148 25.906 18.2073 26.1449C17.9203 25.0929 17.6492 24.1015 17.3568 23.0334C17.7295 23.2491 18.0272 23.4221 18.325 23.5951C18.2448 23.6503 18.1628 23.7038 18.0825 23.7591C18.1628 23.3258 18.243 22.8925 18.325 22.461C18.35 22.4842 18.3767 22.5056 18.4017 22.5288C18.3803 22.502 18.3571 22.477 18.3357 22.4503C18.5729 21.8369 18.81 21.2253 19.0472 20.6119C19.0668 20.5709 19.0864 20.5317 19.1078 20.4906C19.0668 20.5103 19.0276 20.5299 18.9866 20.5513C18.8974 20.2588 18.8083 19.9664 18.6888 19.5795C18.2163 20.175 17.7919 20.7082 17.3675 21.2413L17.2766 21.1058C16.9984 21.4232 16.7202 21.7406 16.401 22.1026C16.3297 21.9029 16.2709 21.7406 16.1282 21.3465C14.8693 22.3041 13.68 23.2081 12.4924 24.1104C12.4336 24.0711 12.3748 24.0337 12.3159 23.9945C12.4211 23.7003 12.455 23.3419 12.6458 23.1225C13.1486 22.543 13.0167 21.5356 13.9225 21.2413C13.8583 21.1344 13.7959 21.0274 13.7317 20.9204C13.9136 20.7777 14.0973 20.6351 14.3754 20.4193C14.0313 20.4532 13.8316 20.4728 13.7228 20.4835C13.8423 20.1001 13.9546 19.7435 14.0669 19.3869C14.0598 19.3388 14.0562 19.2888 14.0545 19.2389C14.1151 19.1711 14.1757 19.1052 14.2346 19.0374L14.231 19.0428C14.2898 18.8698 14.3469 18.6968 14.4057 18.5257L14.4004 18.5292C14.4557 18.5185 14.5341 18.5274 14.5626 18.4936C14.9371 18.0389 15.0459 17.3274 15.8518 17.2882C15.9909 17.281 16.2762 16.7925 16.2156 16.6855C15.8215 15.999 16.7488 15.7939 16.6828 15.2554C17.5226 15.1591 17.2908 14.5457 17.3996 13.993C17.5422 13.2672 17.9934 12.6057 18.2751 11.9014C18.4819 11.3825 18.8814 10.7602 18.7423 10.3304C18.5657 9.78302 17.9399 9.3729 17.4852 8.92891C17.4353 8.87898 17.1571 8.94317 17.1161 9.02341C16.845 9.54943 16.6632 9.12683 16.4545 8.98062C16.6828 8.75238 16.9092 8.52414 17.1375 8.2959C17.824 8.29946 18.5123 8.30125 19.1988 8.30481C19.8228 8.18 20.4469 8.05696 21.0692 7.93214C21.9127 8.00168 22.7543 8.06944 23.5977 8.13898C24.1701 8.3066 24.7336 8.35296 25.322 8.17821C25.536 8.33156 25.8569 8.5598 26.1797 8.78982C27.0142 8.81122 27.8487 8.83262 28.6832 8.85401C29.6104 8.94317 30.5358 9.03411 31.463 9.12327C32.9947 9.49237 33.7223 8.37257 34.555 7.4507C34.6994 7.44 34.8421 7.4293 34.9116 7.42574C34.8046 7.78771 34.7048 8.11937 34.6227 8.39397C35.1987 7.93749 35.7194 7.52559 36.24 7.11191C36.24 7.44892 36.2436 7.78771 36.2454 8.12472C36.1295 8.35652 36.0136 8.58655 35.8977 8.81835C35.837 8.98597 35.7764 9.15179 35.7158 9.31941L35.7194 9.31406C34.9687 9.9114 34.2197 10.5105 33.4655 11.1043C33.1124 11.3825 32.7522 11.6553 32.3279 11.9816C32.3421 11.9941 32.4919 12.1171 32.6399 12.2419C32.4794 12.5914 32.4759 12.7822 32.9252 12.9926C33.3211 13.1799 33.601 13.6435 33.8881 14.0197C34.0789 14.2711 34.1912 14.585 34.3374 14.8703C34.5157 14.223 34.3802 13.5846 34.5461 13.039C34.8438 12.0601 34.6299 10.86 35.6605 10.1575C35.6855 10.1396 35.5981 9.95598 35.5624 9.85078C35.6177 9.79015 35.673 9.72953 35.7283 9.6689C36.577 9.42996 36.4255 8.75059 36.4059 8.12828C37.0817 7.4186 37.0834 7.15649 36.4112 6.93894C36.6573 6.61263 36.8463 6.0991 37.1637 6.00281C37.6808 5.84589 37.7771 5.46965 37.9982 5.11838C38.3067 4.62802 38.6544 4.16263 38.9771 3.69902C39.0449 3.71507 38.9201 3.68475 38.9807 3.69902C38.8862 3.31921 38.8202 3.05175 38.7524 2.78606C39.1019 2.50611 39.455 2.22973 39.7991 1.94443C40.1468 1.65556 40.4589 1.45229 40.9403 1.78038C41.1579 1.92838 41.5412 1.83566 41.8497 1.85171L41.8515 1.85349ZM37.6005 10.5141C37.6005 10.5747 37.6005 10.6336 37.6005 10.6942C37.3349 10.86 37.0674 11.0259 36.7197 11.2434C37.2778 11.3985 37.72 11.5233 38.3067 11.6874C38.0214 12.0351 37.6647 12.4167 37.3777 12.8429C37.219 13.0782 37.1762 13.3903 37.0799 13.6667L37.2921 13.7843C36.5449 14.4922 35.7978 15.2019 34.9223 16.0311C35.5321 15.949 36.0029 15.8028 36.4522 15.8528C36.8552 15.8955 37.2332 16.1559 37.6219 16.3181C37.6023 16.402 37.5827 16.484 37.5631 16.5678C37.8591 16.3128 38.1533 16.0596 38.4493 15.8046C38.567 15.9936 38.6865 16.1826 38.8041 16.3699L38.9539 15.9597C39.0092 15.8474 39.0645 15.7351 39.1198 15.6227C39.4086 15.571 39.8187 15.6227 39.9667 15.448C40.7032 14.5903 41.3861 13.6827 42.053 12.7662C42.1832 12.5861 42.1564 12.2919 42.201 12.0511H42.2028C42.2901 11.7676 42.3757 11.4823 42.4702 11.1739C41.839 10.9403 42.0958 10.457 42.2046 10.0095C42.2794 9.98629 42.3526 9.9649 42.4274 9.94172C42.4132 9.92032 42.3989 9.89892 42.3829 9.87574C42.3222 9.91854 42.2598 9.96133 42.1992 10.0023C41.8354 9.93993 41.7088 9.85969 41.8354 9.38895C41.987 8.8237 41.8711 8.18534 41.8711 7.4507C41.6036 7.67359 41.4663 7.78771 41.3469 7.88756C40.8262 7.24921 40.3394 6.65186 39.9115 6.12584C39.2517 7.04415 38.5527 8.01773 37.8841 8.94852C38.0963 8.98953 38.4012 9.04837 38.7382 9.11257C38.4761 9.47989 38.2906 9.73844 38.1034 9.99878C38.0535 10.0023 38.0035 10.0077 37.9536 10.013C37.8359 10.1254 37.7182 10.2377 37.6005 10.35C37.5328 10.3875 37.4632 10.4232 37.3955 10.4606C37.4632 10.4784 37.5328 10.4963 37.6005 10.5141ZM21.2351 23.645C21.3403 23.8732 21.4455 24.1032 21.5507 24.3315C22.2532 24.5811 22.954 24.829 23.6548 25.0786C26.0317 25.9987 27.5812 24.7719 28.8633 23.0066C28.446 21.885 27.8094 20.9525 26.6665 20.4586C26.3936 20.0324 26.119 19.6044 25.8462 19.1783C25.7571 19.1908 25.6679 19.2032 25.5805 19.2175C25.7909 18.5239 26.0031 17.8285 26.251 17.0136C25.9693 16.7033 25.5467 16.2272 25.1151 15.76C24.4946 15.0896 23.6583 14.9986 22.9397 15.3374C22.2408 15.6673 21.3385 16.2005 21.1477 16.8335C20.8535 17.8088 19.6766 18.8395 20.8303 19.9949C20.8571 20.0217 20.8357 20.1019 20.8267 20.1572C20.6752 21.1237 20.7447 21.1843 21.7415 21.1183C22.1463 21.0916 22.5564 21.1272 22.9629 21.1344C22.8488 21.2413 22.7347 21.3483 22.6206 21.4571C21.9287 21.6604 21.2761 22.0794 20.5022 21.573C20.3203 21.4535 19.8639 21.7192 19.55 21.8476C19.3717 21.9207 19.2273 22.0723 18.9777 22.2542C19.2558 22.6197 19.4858 23.1243 19.8781 23.374C20.2419 23.6058 20.7786 23.5665 21.2386 23.6468L21.2351 23.645ZM42.966 23.0298C43.0123 22.9977 43.0569 22.9638 43.1032 22.9317C43.1764 22.2078 43.1532 21.4553 43.3529 20.767C43.5169 20.2071 42.9232 19.3726 43.8967 19.082C43.8379 18.8965 43.8094 18.6933 43.7131 18.5292C43.5936 18.3242 43.4189 18.153 43.2316 17.9212C42.8393 18.5898 42.4988 19.2853 41.543 19.2353C41.7249 18.8823 41.9531 18.5595 42.2545 18.3366C42.579 18.0959 42.5986 18.1494 42.3508 17.9372C41.8604 17.5218 41.3469 17.2989 40.8173 17.6109C40.557 18.5898 42.0797 19.1925 41.124 20.2606C41.5109 20.5103 41.864 20.6921 42.1564 20.9436C42.3757 21.1326 42.5844 21.3893 42.6753 21.6586C42.8233 22.0972 42.8732 22.5715 42.9642 23.0298H42.966ZM18.1449 18.2225C18.3482 17.9836 18.794 17.6751 18.7476 17.4825C18.4784 16.336 19.3735 15.6834 19.7444 14.815C19.871 14.519 19.8032 14.0714 20.0029 13.8895C20.611 13.335 20.5504 12.8054 20.1456 12.2295C18.6406 12.8607 19.3628 14.8667 18.0504 15.653C17.9613 15.7065 18.1628 16.1684 18.1414 16.4341C18.1271 16.6159 17.9399 16.7782 17.865 16.9636C17.7277 17.2971 17.2837 17.6787 17.9934 17.923C18.0897 17.9568 18.1235 18.1744 18.1467 18.2243L18.1449 18.2225Z" fill="#C89435"/>
<path d="M36.24 7.1141C35.7193 7.52779 35.1969 7.93969 34.6227 8.39616C34.7047 8.12156 34.8046 7.78812 34.9116 7.42793C34.842 7.43328 34.6994 7.44398 34.5549 7.45289C34.9276 6.95362 35.2593 6.4169 35.6801 5.96399C36.6822 4.8852 37.7253 3.84565 38.7524 2.79004C38.8184 3.05751 38.8861 3.32319 38.9806 3.703C38.92 3.68873 39.0448 3.71904 38.9771 3.703C38.6543 4.16661 38.3066 4.632 37.9981 5.12236C37.777 5.47363 37.6807 5.84987 37.1636 6.00679C36.848 6.10307 36.659 6.61661 36.4112 6.94292C36.3541 6.99998 36.2953 7.05883 36.2382 7.11589L36.24 7.1141Z" fill="#E3AF50"/>
<path d="M51.4033 44.9785C51.4497 45.0373 51.496 45.0962 51.4229 45.0034C51.4497 45.1265 51.4319 45.048 51.4158 44.9678L51.4051 44.9785H51.4033Z" fill="#E3C170"/>
<path d="M51.0451 46.1747C51.0148 46.1373 50.9791 46.1016 50.9559 46.0588C50.9488 46.0445 50.972 46.0124 50.9809 45.9893C51.0023 46.0517 51.0237 46.1123 51.0451 46.1747Z" fill="#E3C170"/>
<path d="M42.5466 15.4657C42.609 15.3783 42.6732 15.2909 42.8033 15.1108C42.4645 15.0948 42.2131 15.0823 41.9635 15.0716C41.9439 15.0181 41.9243 14.9646 41.9046 14.9111C42.3183 14.6972 42.7302 14.4832 43.3044 14.1854C42.9781 14.1355 42.8461 14.1159 42.7124 14.0962L42.7178 14.1016C42.9335 13.2867 43.151 12.4736 43.3615 11.6569C43.4435 11.3378 43.5023 11.0132 43.5719 10.6905L43.5647 10.6834C43.62 10.2964 43.6753 9.91127 43.7484 9.4013C43.5255 9.55821 43.3757 9.66163 43.2723 9.73474C43.2259 9.1267 43.1778 8.50082 43.1297 7.87495C43.0084 7.90526 42.8854 7.93379 42.6464 7.99263C42.798 7.66632 42.9157 7.40955 43.0512 7.11712C42.1971 6.59645 42.0045 5.81366 42.206 4.88644H42.2042C42.7909 4.32298 42.099 3.90751 42.0366 3.41894C41.9974 3.12115 42.0241 2.81624 42.0223 2.51489C42.0847 2.55412 42.1472 2.59513 42.2113 2.6308C42.2167 2.63436 42.2452 2.59513 42.2631 2.57552C42.1935 2.54164 42.1258 2.50955 42.0562 2.47567C42.0009 2.30805 41.9457 2.14044 41.8904 1.97461C42.1561 2.0388 42.4218 2.10299 42.6874 2.16719C42.9852 2.55056 43.4203 2.89292 43.5558 3.32621C43.8589 4.29623 44.0123 5.31261 44.2334 6.30937C44.335 6.76585 44.4545 7.21698 44.5668 7.67167C44.6417 8.39205 44.7148 9.11065 44.7897 9.83103C44.6738 10.6851 44.5597 11.5375 44.4438 12.3916C44.3119 12.9533 44.1799 13.515 44.0462 14.0749C44.0105 14.4065 43.9749 14.74 43.9392 15.0716C43.8322 15.5103 43.7252 15.9507 43.6164 16.3893C43.5398 16.384 43.4631 16.3804 43.3882 16.3751C43.3097 16.0648 43.2331 15.7563 43.1493 15.4247C42.9603 15.4853 42.7534 15.5513 42.5484 15.6172C42.5519 15.5655 42.5519 15.5138 42.5484 15.4621L42.5466 15.4657Z" fill="#875214"/>
<path d="M21.0689 7.93399C20.4448 8.0588 19.8207 8.18184 19.1984 8.30666C18.9934 8.11943 18.7705 7.95003 18.5886 7.74141C18.0947 7.17794 17.5205 6.65371 17.1621 6.01178C16.711 5.20403 16.4489 4.29107 16.0869 3.43161C16.0441 3.32997 15.8872 3.27648 15.7838 3.20159C15.6803 3.0001 15.6072 2.77364 15.4681 2.60246C14.9029 1.91239 15.2881 1.48801 15.8551 1.10107C15.9121 1.1296 15.971 1.15635 16.028 1.18488C16.028 1.18488 16.0584 1.16527 16.0601 1.16527C16.1368 1.25977 16.2153 1.35606 16.2919 1.45057L16.3133 1.47196C16.3615 1.52189 16.4096 1.57003 16.4578 1.61996C16.5202 1.68415 16.5808 1.74835 16.6432 1.81254C16.6949 1.87138 16.7466 1.92844 16.7984 1.98728C16.8465 2.04613 16.8946 2.10675 16.9428 2.1656C17.2602 2.6827 17.5954 3.19267 17.8932 3.72048C18.4567 4.72081 18.931 5.78176 19.58 6.72146C19.9295 7.22787 20.5643 7.53635 21.0707 7.93399H21.0689Z" fill="#BC7B20"/>
<path d="M13.5798 0.350403C14.1468 -0.302219 14.6122 0.0811519 15.0758 0.496619C14.8636 0.740906 14.4945 0.970928 14.4678 1.23483C14.4036 1.86427 14.5213 2.51154 14.5302 3.15168C14.5409 3.92734 14.5124 4.703 14.5034 5.47865C14.4999 5.78535 14.5034 6.09204 14.5034 6.49681C13.7522 7.27425 13.575 8.0398 13.9721 8.79347C13.5905 9.22855 13.216 9.68146 12.8059 10.0987C12.7489 10.1558 12.5206 10.0452 12.3726 10.0131C12.3637 9.9525 12.3566 9.89365 12.3477 9.83303C12.5153 8.98248 12.6829 8.13015 12.8487 7.2796C12.904 6.4237 12.9575 5.56959 13.0128 4.71369C13.0324 4.27861 13.052 3.84532 13.0698 3.41023C13.093 3.33891 13.1144 3.26759 13.1376 3.19626C13.1287 2.79684 13.118 2.39921 13.109 1.99979C13.266 1.45059 13.4229 0.901386 13.578 0.350403H13.5798Z" fill="#E3AF50"/>
<path d="M12.3746 10.0131C12.5226 10.0452 12.7508 10.1557 12.8079 10.0987C13.218 9.68143 13.5924 9.22852 13.974 8.79343C13.5758 8.03977 13.7529 7.27422 14.5054 6.49678C14.5054 6.09201 14.5018 5.78531 14.5054 5.47862C14.5143 4.70296 14.5428 3.9273 14.5321 3.15165C14.5232 2.51151 14.4073 1.86602 14.4697 1.23479C14.4965 0.970892 14.8638 0.740869 15.0778 0.496582C15.3363 0.698074 15.5967 0.899567 15.8552 1.10106C15.2882 1.488 14.9048 1.91238 15.4683 2.60245C15.6092 2.77362 15.6805 3.00008 15.7839 3.20157C15.6306 3.61882 15.5343 4.06817 15.3114 4.44262C15.0082 4.95616 15.0118 6.33095 15.4505 6.38266C16.2047 6.47003 15.9747 6.73215 15.7679 7.10839C15.7447 7.09591 15.7215 7.08521 15.6983 7.07272L15.7732 7.10304C16.2261 7.50067 16.6808 7.90009 17.1337 8.29773C16.9055 8.52597 16.679 8.75421 16.4508 8.98244C15.7928 9.04485 15.4344 9.52095 14.9619 9.91323C14.1827 10.5605 13.234 11.0188 12.3157 11.4717C11.9983 11.6286 11.5543 11.5287 11.1692 11.5466C11.5704 11.0366 11.9698 10.5248 12.371 10.0131H12.3746Z" fill="#C78F30"/>
<path d="M36.3966 50.258C35.8349 50.3115 35.2733 50.365 34.7116 50.4185C34.7044 50.3472 34.6955 50.2758 34.6884 50.2045C34.9077 50.0868 35.1288 49.9691 35.3482 49.8514L35.3125 49.6054H31.9299C32.0262 48.7976 31.7213 48.5516 30.7905 48.8903C30.1379 49.1275 29.5013 49.4342 28.8309 49.5875C28.3726 49.691 27.8662 49.584 27.3794 49.5697C27.4329 49.4592 27.4864 49.3486 27.5381 49.2381C28.1016 49.0847 28.665 48.9314 29.405 48.7317C29.0627 48.4446 28.9503 48.3501 28.797 48.2217C29.6974 47.8365 30.548 47.471 31.3272 47.1358C31.074 46.8112 30.8244 46.6294 30.8048 46.4279C30.7852 46.2246 30.9652 45.8448 31.1115 45.8145C31.5341 45.7307 31.9816 45.7842 32.4969 45.7842C32.3525 46.2228 32.2687 46.4778 32.1671 46.7863C33.0016 46.3975 33.3368 45.531 33.1656 44.3184C32.9891 44.4272 32.8322 44.5449 32.6592 44.6269C31.7873 45.0406 30.7994 45.1761 30.0594 45.9339C29.8597 46.1372 29.1875 45.8769 28.731 45.8287L28.7256 45.8234C29.0894 45.2706 29.4549 44.7178 29.8561 44.1098C30.0683 44.3541 30.1789 44.4807 30.2538 44.5663C30.7477 44.1276 31.1953 43.7318 31.6375 43.3377C31.5269 43.2878 31.4003 43.2307 31.4253 43.2414C31.7801 42.9847 32.1796 42.7208 32.5326 42.4051C32.5718 42.3713 32.3507 42.045 32.233 41.8221C32.4559 41.6384 32.7323 41.4423 32.9695 41.2069C33.2441 40.9341 33.2958 40.6684 32.8233 40.54L32.8179 40.5347C33.0319 39.3132 33.4491 39.0119 34.733 39.2437C34.8738 38.7177 35.0183 38.1845 35.1609 37.6496C36.1773 37.8065 36.8923 36.6706 37.0136 35.7238C36.7746 35.8165 36.5357 35.9075 36.2968 36.0002C36.2611 35.9396 36.2237 35.8771 36.188 35.8165C36.7639 35.4171 37.3417 35.0177 37.9176 34.6183L37.6698 34.2492C37.0689 34.645 36.4162 34.9838 35.8849 35.4581C35.4801 35.8183 35.3981 35.9235 35.0397 35.5901C35.0825 35.5312 35.1253 35.4706 35.1681 35.4118C35.1467 35.3975 35.1253 35.3832 35.1039 35.369C35.0825 35.4421 35.0611 35.517 35.0397 35.5901C34.4691 35.9681 33.9074 36.3604 33.319 36.7081C33.2102 36.7723 32.9909 36.6492 32.8215 36.6136C32.8357 36.5904 32.8482 36.5672 32.8625 36.544C32.85 36.5672 32.8375 36.5922 32.8233 36.6154C32.2794 36.9042 31.7356 37.1913 31.1917 37.4802C31.0758 37.5426 30.9652 37.6692 30.8529 37.6692C30.3305 37.671 29.5227 38.4341 29.4389 38.912C29.3515 39.4077 29.5031 40.1745 28.5616 40.03L28.5563 40.0247C28.5563 39.9123 28.558 39.8 28.5598 39.6859C28.5723 39.6609 28.5866 39.6377 28.599 39.6128C28.5866 39.6377 28.5741 39.6609 28.5598 39.6859C28.0891 39.7929 27.6183 39.9016 26.9443 40.0568C27.4329 40.2939 27.6986 40.4241 27.909 40.5257C27.3027 41.5261 26.5449 42.2161 25.204 41.8488C25.3841 42.1573 25.4804 42.3231 25.5874 42.5068C24.9918 42.6013 24.4711 42.6833 23.8274 42.7867C24.0717 42.8937 24.2001 42.9508 24.2465 42.9704C23.7721 43.6587 23.3103 44.3309 22.8628 44.9782C22.5115 44.9782 22.0764 44.9122 21.6698 44.9925C20.8888 45.1458 20.1685 45.9696 19.3179 45.1511C19.2894 45.1226 19.2002 45.1654 19.1521 45.1458C18.8864 45.0263 18.6136 44.9176 18.3675 44.766C18.0662 44.5805 17.6311 44.1169 17.5259 44.1865C16.8412 44.6394 16.6397 44.051 16.2937 43.73C16.0459 43.5 15.7659 43.3056 15.5234 43.113C16.5559 42.9133 17.6436 42.7029 18.7313 42.4925C18.7206 42.423 18.7081 42.3517 18.6974 42.2821C18.4567 42.2589 18.2142 42.2357 17.8076 42.1965C18.3301 42.0735 18.6813 41.9897 19.177 41.8738C18.8953 41.7543 18.7741 41.7026 18.4691 41.5742C19.3322 41.3745 20.0312 41.0625 20.7177 41.0874C21.6538 41.1231 22.0764 40.5792 22.5186 39.9587C22.6452 39.7804 22.7041 39.5361 22.861 39.3988C23.5938 38.7587 23.6402 38.4502 23.0892 37.5907C22.9376 37.3554 22.7486 37.1146 22.6934 36.8507C22.5525 36.1856 22.1549 36.0983 21.5967 36.2659C21.5771 36.2177 21.5611 36.1696 21.5504 36.1197C21.1973 35.9164 20.8443 35.7149 20.4145 35.467C20.616 34.7894 20.8282 34.0833 21.0386 33.3772C21.5878 33.7196 22.0211 34.3508 22.7397 34.2688L22.8984 34.0013C22.7112 33.8872 22.524 33.7713 22.3367 33.6572C22.4063 33.5858 22.474 33.5145 22.5436 33.4432C22.7558 33.6589 22.9876 33.8587 23.173 34.0958C23.5582 34.5862 23.9201 35.0961 24.291 35.5972C24.3142 35.6703 24.3374 35.7434 24.3606 35.8165C24.382 35.8005 24.4212 35.7737 24.4194 35.7719C24.3802 35.7113 24.3374 35.6525 24.2964 35.5936C24.4907 35.3707 24.6459 35.0658 24.8902 34.9464C25.2272 34.7805 25.796 35.0016 25.7871 34.324C25.7871 34.3116 26.0135 34.2509 26.0742 34.2955C26.1651 34.3615 26.2043 34.5024 26.2667 34.6111C25.8637 34.8073 25.853 35.0034 26.2667 35.1996C26.495 35.3083 26.8605 35.5687 26.93 35.5045C27.547 34.9428 27.7253 35.6988 28.1301 35.9271C28.4528 35.1799 28.9557 34.8394 29.7313 34.5915C30.3893 34.3811 30.8404 33.5252 31.7338 33.9353C31.8836 33.7142 31.9816 33.3861 32.1742 33.3166C33.0729 32.9921 33.9894 32.6996 34.9184 32.4803C35.3785 32.3733 35.9954 32.6301 36.3396 32.409C36.9868 31.9917 37.5699 32.3626 38.1708 32.3127C38.9411 32.2467 39.7632 32.4054 40.48 32.1914C41.0167 32.0327 41.2574 32.0773 41.5088 32.4999C41.3911 32.8155 41.2752 33.1294 41.154 33.4557C40.9864 33.3433 40.8562 33.256 40.6779 33.1365C40.9757 36.0893 40.8687 35.8914 40.4122 35.7862C40.2838 36.1981 40.1554 36.6082 40.0271 37.0166C39.9753 37.0076 39.9254 36.9987 39.8737 36.9916C39.8363 36.692 39.8006 36.3925 39.756 36.0341C38.8038 36.9952 39.3067 37.9135 39.6241 38.8246L39.6597 38.855C39.3727 39.3524 39.0874 39.8499 38.7807 40.3795C38.6006 40.162 38.4989 40.0389 38.4436 39.9694C38.1334 40.4491 37.832 40.8734 37.5753 41.3246C37.4005 41.6313 37.1134 42.02 37.183 42.2928C37.4825 43.459 36.714 43.7389 35.9027 44.0385C35.7404 44.0991 35.5924 44.1954 35.3214 44.3363C36.3663 44.429 37.101 44.1098 37.7678 43.5249C38.1173 43.2182 38.5596 43.0132 38.959 42.7636L38.9536 42.7582C38.2136 43.6551 37.4736 44.552 36.7479 45.4311C36.9226 45.3937 37.1598 45.3419 37.3952 45.292C37.4148 45.3134 37.4362 45.3348 37.4576 45.3544C37.6056 45.5791 36.7889 45.7503 37.4201 46.0035C37.3827 46.2085 37.3435 46.4154 37.29 46.7078C37.6573 46.5241 37.9426 46.3815 38.2083 46.2478C38.918 46.945 38.5185 47.5387 38.1102 48.0897C37.561 48.8315 36.9654 49.5394 36.3913 50.2633L36.3966 50.258Z" fill="#E7CF90"/>
<path d="M36.3967 50.2581C36.9726 49.5359 37.5682 48.828 38.1156 48.0845C38.524 47.5317 38.9234 46.9379 38.2137 46.2425C37.9498 46.3744 37.6645 46.5171 37.2954 46.7025C37.3489 46.4101 37.3881 46.2033 37.4256 45.9964C37.4523 45.975 37.4791 45.9554 37.5058 45.934C37.4898 45.934 37.4701 45.9322 37.4612 45.9411C37.447 45.9554 37.438 45.9786 37.4273 45.9982C36.7961 45.745 37.6128 45.5756 37.4648 45.3492C37.4844 45.3081 37.504 45.2689 37.5236 45.2279C37.4826 45.2475 37.4416 45.2671 37.4024 45.2867C37.1652 45.3385 36.9299 45.3884 36.7551 45.4258C37.4808 44.5468 38.2208 43.6498 38.9608 42.7529C38.9769 42.7298 38.9911 42.7084 39.0072 42.6852C38.9929 42.7084 38.9787 42.7333 38.9662 42.7565C38.5668 43.0079 38.1263 43.2112 37.7751 43.5179C37.1082 44.1045 36.3735 44.4237 35.3286 44.3292C35.5996 44.1883 35.7476 44.0921 35.9099 44.0314C36.7194 43.7319 37.488 43.4519 37.1902 42.2858C37.1206 42.0129 37.4077 41.6242 37.5825 41.3175C37.8392 40.8664 38.1406 40.442 38.4509 39.9624C38.5079 40.0301 38.6096 40.1531 38.7879 40.3725C39.0928 39.8429 39.3799 39.3454 39.6652 38.8479C39.7062 38.7748 39.7454 38.7017 39.7864 38.6304C39.7579 38.6161 39.7294 38.6018 39.699 38.5894C39.6759 38.666 39.6527 38.7427 39.6277 38.8194C39.3103 37.9064 38.8075 36.9899 39.7597 36.0288C39.8042 36.3872 39.8399 36.6868 39.8774 36.9863C39.9291 36.9952 39.979 37.0042 40.0307 37.0113C40.1591 36.6012 40.2875 36.1928 40.4159 35.7809C40.8723 35.8879 40.9793 36.0859 40.6815 33.1312C40.8598 33.2507 40.99 33.3381 41.1576 33.4504C41.2789 33.1259 41.3948 32.8103 41.5125 32.4947C41.7122 32.27 41.9137 32.0471 42.1134 31.8224C42.1901 31.7065 42.2667 31.5888 42.3434 31.4729L42.3309 31.4694C42.3487 31.423 42.3666 31.3766 42.3862 31.3303C42.3737 31.275 42.3612 31.2197 42.3488 31.1644C42.511 31.2786 42.7464 31.357 42.8213 31.5122C42.9479 31.7761 42.9728 32.0881 43.2082 32.3538C43.2885 31.8581 43.3669 31.3642 43.4472 30.8684C43.481 30.9309 43.5131 30.9933 43.547 31.0557C43.9607 30.7472 44.3744 30.4387 44.8344 30.0946C44.8861 30.2123 44.9503 30.3585 45.0769 30.6491C45.3016 29.984 45.4817 29.4544 45.6814 28.8624C45.7902 28.9427 45.8882 29.0158 46.038 29.1281C46.1307 28.948 46.2306 28.7501 46.3037 28.6075C46.6033 29.0283 46.8904 29.4348 47.1792 29.8414C47.2309 29.8218 47.2809 29.8004 47.3326 29.7807C47.3023 29.3974 47.2398 29.0122 47.2612 28.6306C47.2684 28.4987 47.4824 28.3792 47.6018 28.2544C47.8622 28.9908 48.1243 29.7273 48.3846 30.4637L48.5255 31.3231C48.5326 31.3838 48.5415 31.4444 48.5487 31.505C48.5808 31.571 48.6146 31.637 48.6467 31.7029C48.6467 31.7029 48.6271 31.6922 48.6289 31.6922C48.6521 31.8545 48.6735 32.015 48.6949 32.1773C48.7038 32.2379 48.7127 32.3003 48.7216 32.3609C48.7662 32.5071 48.809 32.6533 48.8536 32.7996C48.9748 33.3309 49.0961 33.8623 49.2191 34.3937C49.0729 34.3206 48.9285 34.2475 48.6913 34.1298C48.6913 35.0267 48.686 35.8576 48.6984 36.6885C48.6984 36.7652 48.8197 36.8348 48.8607 36.9186C49.0586 37.3358 49.3921 37.7513 49.4063 38.1775C49.4224 38.6785 49.1585 39.1885 48.9713 39.8482C49.3065 39.6253 49.4991 39.497 49.779 39.3115C49.8272 39.5968 49.8628 39.8019 49.8967 40.0069L49.8414 40.0533C49.8129 40.0586 49.7683 40.0569 49.7612 40.0729C49.0765 41.5761 48.3953 43.081 47.7124 44.5842C47.6963 44.5664 47.6179 44.4826 47.4877 44.3435C47.2452 44.8089 47.0134 45.2529 46.7085 45.8342C46.6586 45.5168 46.6318 45.3456 46.5997 45.1423C46.0434 45.5399 45.4977 45.9287 44.9539 46.321C44.863 46.3869 44.7007 46.4886 44.7132 46.5403C45.0323 47.8901 43.6344 47.669 43.1761 48.4054C43.0816 48.1201 43.0317 47.9686 42.9889 47.8402C42.3291 47.8758 42.3523 49.3558 41.3449 48.5516C41.4536 48.3608 41.5446 48.1576 41.6747 47.981C42.133 47.3605 42.7268 46.8042 43.0388 46.1177C43.399 45.3242 43.6807 44.5575 44.5063 44.4059C44.5063 43.9013 44.3565 43.4056 44.5349 43.1131C45.0145 42.3321 44.608 42.1699 43.8929 42.0967C44.1551 41.7508 44.3494 41.2408 44.5937 41.2159C45.496 41.1267 45.3176 40.3529 45.5905 39.8714C45.9578 39.2206 46.3198 38.5662 46.6978 37.9207C46.7103 37.8993 46.8618 37.9617 46.9581 37.9867C46.885 37.0915 46.8172 36.2642 46.7531 35.476C46.3073 37.4499 44.9271 38.5858 42.9728 39.3329C43.2813 39.4577 43.4382 39.5219 43.4989 39.5451C42.8962 40.3332 42.2953 41.1178 41.6961 41.9024C41.6355 41.9434 41.5767 41.9844 41.516 42.0272C41.5749 41.9844 41.6355 41.9434 41.6943 41.9006C41.7496 41.9113 41.8049 41.922 41.8602 41.9327C41.7889 42.045 41.7443 42.1912 41.6444 42.2644C40.8206 42.8671 39.9879 43.4573 39.0536 44.1242C39.362 44.2401 39.5189 44.2989 39.5528 44.3114C39.3335 44.6983 39.1284 45.0603 39.0482 45.2029C39.3068 45.6166 39.4779 45.8894 39.6491 46.164C39.6295 46.173 39.6081 46.1783 39.5921 46.1926C39.5831 46.2015 39.5831 46.2211 39.5796 46.2354C39.6027 46.2122 39.6259 46.189 39.6491 46.1658C40.0432 45.959 40.439 45.7521 40.9882 45.4633C40.5228 47.1626 39.9362 48.6354 38.4491 49.5823C38.3207 49.6732 38.1442 49.7356 38.0711 49.8604C37.6449 50.579 37.0422 50.4881 36.4003 50.2581H36.3967Z" fill="#D49A30"/>
<path d="M27.5361 49.2386C27.4826 49.3492 27.4291 49.4597 27.3774 49.5703C27.4505 50.1533 27.1563 50.2764 26.6267 50.2746C25.7191 50.2746 24.6724 51.1216 24.5333 51.858C22.8322 52.2699 21.5912 53.1882 21.0206 55.032C20.9136 54.7627 20.8601 54.6272 20.8066 54.4917C20.7335 54.4828 20.6622 54.4738 20.5891 54.4649C20.491 55.2085 20.3929 55.952 20.2966 56.6778C20.0559 57.0504 18.7417 56.5708 19.4746 57.7922C19.521 57.8689 19.4407 58.0793 19.3569 58.1649C18.8523 58.6767 18.3174 59.1581 17.8199 59.677C17.6006 59.9052 17.4918 60.2601 17.2475 60.4455C16.816 60.7718 16.3328 61.0357 15.8477 61.2836C15.5553 61.4334 15.2237 61.5065 14.908 61.6117C14.7101 61.6776 14.4837 61.8256 14.3143 61.7793C13.8471 61.6473 13.1606 60.0479 13.3122 59.5807C13.4067 59.2865 13.4655 58.9816 13.5404 58.6838C13.1659 58.238 12.6577 57.9135 12.672 57.1931C12.6791 56.8186 12.4491 56.3818 12.2066 56.0679C11.381 55.0016 10.5465 53.9353 9.62823 52.9493C8.90963 52.1772 8.03055 51.5584 7.28521 50.8095C6.77702 50.2996 6.25635 49.7432 5.95144 49.1066C5.32021 47.7889 4.18972 46.6994 4.24143 45.0429C4.26639 44.2084 3.92938 43.3472 3.21613 42.7498C3.12163 42.4734 3.02712 42.1971 2.93262 41.9207C3.00751 41.6621 3.08062 41.4036 3.13233 41.2271C3.44794 41.5712 3.84201 41.9385 4.1594 42.3611C4.4875 42.798 4.74248 43.2883 5.02957 43.7555C5.42542 44.4402 5.81592 45.1303 6.22247 45.8079C6.38474 46.0789 6.53987 46.382 6.77702 46.5764C7.80766 47.427 8.86684 48.2418 9.91174 49.0746C9.99912 49.1441 10.0526 49.2707 10.1471 49.3153C10.3664 49.4205 10.6018 49.4918 10.8318 49.5774C10.8532 49.5917 10.8728 49.6059 10.8942 49.622C10.8711 49.6095 10.8479 49.597 10.8247 49.5845C11.381 49.3706 11.5183 49.6648 11.579 50.1516C11.6182 50.4618 11.7073 50.8077 11.8892 51.0503C12.3404 51.6512 12.8378 52.2218 13.3603 52.7638C13.5047 52.9154 13.9255 53.0491 14.004 52.9707C14.2911 52.6872 14.4819 52.3323 14.851 52.8726C15.0685 53.19 15.4198 53.4557 15.525 53.8016C15.846 54.8626 16.076 55.952 16.3417 57.0308C16.4451 57.0683 16.5467 57.1057 16.6501 57.1432C17.128 56.3925 17.6326 55.6578 18.0749 54.8875C18.2603 54.563 18.3298 54.1671 18.4208 53.7963C18.4422 53.7053 18.3405 53.5858 18.2942 53.4789C18.4386 53.4325 18.5848 53.3844 18.7061 53.3451C18.7578 53.7356 18.8024 54.0691 18.847 54.4043C18.9201 54.4061 18.9914 54.4079 19.0645 54.4096C19.48 53.4361 19.8936 52.4625 20.3483 51.3997C21.2773 51.7564 21.88 50.8131 22.67 50.3941C23.5259 49.9394 24.2926 49.3135 25.0772 48.7322C25.1895 48.6484 25.1806 48.4023 25.2287 48.2294C26.172 48.3399 26.4894 47.5143 27.0297 47.0204C27.4969 46.892 27.9658 46.7636 28.433 46.637C28.4508 46.7191 28.4687 46.7993 28.4847 46.8813C27.8481 47.443 27.2116 48.0029 26.7123 48.4433C27.0546 48.7732 27.2972 49.0068 27.5397 49.2404L27.5361 49.2386Z" fill="#E3AF4F"/>
<path d="M38.4454 49.5841C39.9307 48.6373 40.5191 47.1644 40.9845 45.4651C40.4336 45.754 40.0395 45.9608 39.6454 46.1677C39.4742 45.8931 39.3031 45.6203 39.0445 45.2066C39.1265 45.0621 39.3316 44.7002 39.5491 44.315C39.5153 44.3025 39.3583 44.2437 39.0499 44.1278C39.9842 43.4609 40.8169 42.8707 41.6407 42.268C41.7406 42.1949 41.7869 42.0487 41.8565 41.9363C41.8012 41.9256 41.7459 41.9149 41.6907 41.9042H41.6924C42.2916 41.1232 42.8925 40.3387 43.4952 39.5505C43.4363 39.5273 43.2794 39.4632 42.9692 39.3383C44.9252 38.5894 46.3036 37.4554 46.7494 35.4814C46.8136 36.2714 46.8813 37.0987 46.9544 37.9921C46.8581 37.9671 46.7066 37.9065 46.6941 37.9261C46.3161 38.5716 45.9541 39.226 45.5868 39.8768C45.3157 40.3583 45.494 41.1304 44.59 41.2213C44.3457 41.2463 44.1514 41.7562 43.8892 42.1022C44.6043 42.1771 45.0108 42.3375 44.5312 43.1185C44.3511 43.411 44.5026 43.9067 44.5026 44.4113C43.677 44.5629 43.3971 45.3278 43.0351 46.1231C42.7231 46.8096 42.1293 47.3641 41.671 47.9865C41.5409 48.1612 41.4499 48.3663 41.3412 48.5571C41.2841 48.6123 41.2288 48.6694 41.1735 48.7247C40.4746 48.7764 39.9824 49.1455 39.6329 49.7321C39.2389 49.9104 38.8448 50.0888 38.2617 50.3527C38.3455 49.9996 38.3937 49.7945 38.4436 49.5877L38.4454 49.5841Z" fill="#BC7B20"/>
<path d="M39.6331 49.7287C39.9825 49.142 40.4765 48.7729 41.1737 48.7212C40.76 49.2026 40.3463 49.6823 39.8863 50.2172C39.749 49.9515 39.6901 49.841 39.6331 49.7287Z" fill="#D49A30"/>
<path d="M49.8968 40.0107C49.9503 40.1801 50.0056 40.3495 50.0591 40.5189C50.0163 40.5314 49.9717 40.5439 49.9289 40.5564C49.9004 40.3905 49.8719 40.2229 49.8416 40.0571L49.8968 40.0107Z" fill="#D49A30"/>
<path d="M41.1755 51.1108C41.1987 51.0377 41.2201 50.9628 41.2433 50.8896C41.2647 50.9039 41.2861 50.9182 41.3075 50.9324C41.2647 50.9931 41.2237 51.0537 41.1809 51.1161L41.1755 51.1108Z" fill="#E7CF90"/>
<path d="M39.6419 52.3067C39.5848 52.3067 39.5278 52.3084 39.4707 52.3084C39.4903 52.2318 39.5117 52.1551 39.5545 51.9893C39.5991 52.1515 39.6205 52.2282 39.6419 52.3049V52.3067Z" fill="#E7CF90"/>
<path d="M45.0432 46.5743C45.0664 46.5636 45.0914 46.5546 45.1145 46.5439C45.1217 46.5814 45.1288 46.6171 45.1359 46.6545C45.1092 46.6509 45.0789 46.6545 45.0593 46.6402C45.045 46.6313 45.0486 46.5974 45.0432 46.576V46.5743Z" fill="#D49A30"/>
<path d="M2.93118 41.9169C2.71899 41.571 2.50858 41.2251 2.29639 40.8791C2.61735 40.4209 3.03816 40.535 3.4251 40.7276C4.45753 41.2411 5.55058 40.9398 6.1818 39.968C6.34407 39.7183 6.64363 39.5579 6.79519 39.3064C7.10367 38.7929 6.79163 38.2865 6.52416 37.9245C6.26739 37.575 6.36011 37.2897 6.37438 36.9634C6.76488 37.2755 7.21066 37.5376 7.53341 37.9085C8.75306 39.3082 9.97628 39.5436 11.5419 38.6164C11.9056 38.4898 12.2854 38.2223 12.6278 38.2651C13.6299 38.3899 14.616 38.6378 15.6074 38.8375C16.7396 38.6146 17.8755 38.4042 19.0042 38.1635C19.7335 38.0083 20.4646 37.8425 21.1743 37.6178C21.6646 37.4627 21.9143 37.1132 21.6111 36.5783C21.6076 36.4748 21.604 36.3714 21.5986 36.2662C22.1568 36.1004 22.5526 36.186 22.6953 36.8511C22.7505 37.115 22.9395 37.3557 23.0911 37.5911C23.6421 38.4488 23.5957 38.7572 22.8629 39.3992C22.706 39.5365 22.6471 39.7807 22.5205 39.9591C22.0783 40.5796 21.6557 41.1234 20.7196 41.0878C20.0331 41.061 19.3341 41.3731 18.4711 41.5746C18.776 41.7047 18.8972 41.7547 19.179 41.8741C18.685 41.99 18.332 42.0738 17.8095 42.1969C18.2161 42.2361 18.4568 42.2593 18.6993 42.2825C18.71 42.352 18.7225 42.4233 18.7332 42.4929C17.6455 42.7033 16.556 42.9137 15.5253 43.1134C15.7678 43.306 16.0478 43.5003 16.2957 43.7304C16.6416 44.0513 16.8431 44.638 17.5278 44.1868C17.633 44.1173 18.0681 44.5809 18.3694 44.7663C18.6155 44.9179 18.8901 45.0267 19.154 45.1462C19.2004 45.1675 19.2895 45.1248 19.3198 45.1515C20.1686 45.97 20.8907 45.1462 21.6718 44.9928C22.0783 44.9126 22.5134 44.9785 22.8647 44.9785C23.3104 44.3313 23.774 43.659 24.2484 42.9707C24.202 42.9511 24.0736 42.8941 23.8293 42.7871C24.473 42.6854 24.9937 42.6016 25.5893 42.5071C25.4823 42.3235 25.386 42.1576 25.2059 41.8492C26.5468 42.2165 27.3046 41.5264 27.9109 40.5261C27.7005 40.4245 27.4348 40.2943 26.9462 40.0571C27.6202 39.902 28.091 39.795 28.5617 39.6862C28.5617 39.7986 28.5599 39.9109 28.5582 40.025C28.4833 40.0464 28.4102 40.0696 28.3353 40.091C28.3495 40.1124 28.3638 40.1338 28.3781 40.1552L28.5617 40.0304C29.5032 40.1748 29.3516 39.4081 29.439 38.9124C29.5228 38.4363 30.3306 37.6731 30.853 37.6695C30.9654 37.6695 31.0759 37.5412 31.1918 37.4805C31.7357 37.1917 32.2795 36.9046 32.8234 36.6157C32.9928 36.6514 33.2121 36.7744 33.3209 36.7102C33.9093 36.3625 34.471 35.9702 35.0416 35.5922C35.3982 35.9239 35.482 35.8204 35.8868 35.4585C36.4181 34.9842 37.0708 34.6471 37.6717 34.2495L37.9195 34.6186C37.3436 35.018 36.7659 35.4175 36.1899 35.8169C36.2256 35.8775 36.263 35.9399 36.2987 36.0005C36.5376 35.9078 36.7766 35.8169 37.0155 35.7242C36.896 36.6728 36.1792 37.8068 35.1628 37.6499C35.0202 38.1831 34.8757 38.718 34.7349 39.244C33.451 39.014 33.0338 39.3154 32.8198 40.535C32.777 40.5956 32.736 40.6563 32.6932 40.7187C32.7146 40.7329 32.736 40.7472 32.7574 40.7615L32.8234 40.5404C33.2959 40.6705 33.2442 40.9344 32.9696 41.2072C32.7324 41.4426 32.4561 41.6388 32.2332 41.8224C32.3508 42.0471 32.572 42.3716 32.5327 42.4055C32.1779 42.7211 31.7803 42.985 31.4254 43.2418C31.4022 43.2311 31.5288 43.2881 31.6376 43.3381C31.1936 43.7321 30.7478 44.128 30.2539 44.5666C30.179 44.481 30.0685 44.3527 29.8563 44.1102C29.4551 44.7182 29.0913 45.271 28.7258 45.8237C28.7133 45.8487 28.7008 45.8754 28.6883 45.9004C28.7026 45.8754 28.7169 45.8523 28.7293 45.8273C29.1858 45.8754 29.8581 46.1358 30.0578 45.9325C30.7978 45.1765 31.7856 45.0409 32.6575 44.6255C32.8305 44.5435 32.9874 44.4258 33.164 44.317C33.3333 45.5295 32.9981 46.3961 32.1654 46.7848C32.267 46.4764 32.3508 46.2214 32.4953 45.7827C31.98 45.7827 31.5306 45.7292 31.1098 45.813C30.9636 45.8416 30.7835 46.2232 30.8031 46.4264C30.8227 46.6297 31.0706 46.8098 31.3256 47.1343C30.5463 47.4696 29.694 47.8333 28.7953 48.2202C28.9487 48.3486 29.061 48.4431 29.4034 48.7302C28.6634 48.9317 28.0999 49.0833 27.5364 49.2366C27.2939 49.003 27.0514 48.7694 26.7091 48.4396C27.2083 47.9991 27.8449 47.4392 28.4815 46.8776C28.4637 46.7955 28.4458 46.7153 28.4298 46.6333C27.9626 46.7617 27.4936 46.89 27.0265 47.0166C26.8392 47.063 26.6467 47.0933 26.4666 47.1593C25.8639 47.3786 25.2826 47.6924 24.662 47.8155C24.0683 47.9332 23.4174 47.7673 22.8254 47.8868C21.0673 48.2434 19.3305 48.7177 17.5082 48.3861C17.3209 48.3522 17.1159 48.4003 16.9215 48.4271C16.0549 48.5483 15.1901 48.6803 14.3235 48.798C14.2486 48.8087 14.1167 48.7694 14.0935 48.7177C13.8385 48.1703 13.4213 48.4128 13.0272 48.4663C12.7544 48.5038 12.4441 48.5448 12.1998 48.4538C11.253 48.1026 10.3204 47.7067 9.3932 47.3073C9.09542 47.1789 8.78515 47.0327 8.54978 46.8187C7.51379 45.8844 6.50811 44.9197 5.48104 43.9764C5.36157 43.8677 5.18326 43.8231 5.03169 43.7482C4.74461 43.281 4.48962 42.7906 4.16153 42.3538C3.84413 41.9312 3.45006 41.5639 3.13445 41.2197C3.08274 41.398 3.00963 41.6566 2.93474 41.9134L2.93118 41.9169ZM28.5189 48.5501C28.5064 48.5323 28.4975 48.5055 28.4833 48.5002C28.4708 48.4966 28.4494 48.5162 28.4316 48.5269C28.453 48.5537 28.4726 48.5804 28.494 48.6072C28.5029 48.5876 28.5118 48.5697 28.5207 48.5501H28.5189Z" fill="#E3C16F"/>
<path d="M6.43143 35.0767C6.0962 34.6167 5.76276 34.1566 5.42753 33.6966C5.45963 33.5949 5.55057 33.4541 5.51312 33.397C5.31163 33.0939 5.07982 32.8104 4.85693 32.5215C5.2724 31.8279 5.68787 31.136 6.10155 30.4424C6.51345 31.0576 6.85938 31.7316 7.34973 32.2736C8.43209 33.4666 9.12037 33.4969 10.4666 32.5786C11.2601 32.0365 12.0643 31.5105 12.8649 30.9791C13.0735 31.0986 13.4605 31.2198 13.4587 31.3357C13.4516 31.7619 12.305 32.7212 11.7737 32.7908C12.0928 33.2651 12.3977 33.7144 12.7027 34.1655C12.9897 33.973 13.1912 33.8374 13.432 33.6752C13.5479 34.112 13.6459 34.4294 13.7155 34.754C13.8367 35.321 14.1274 35.0714 14.4038 34.9091C14.3752 35.1159 14.3663 35.4975 14.3128 35.5029C13.5336 35.5956 13.7279 36.1733 13.7048 36.6459C12.4637 36.1876 11.2512 35.6223 9.97448 35.3085C8.99377 35.0678 7.93638 35.148 6.91287 35.0838C6.75239 35.0821 6.59191 35.0785 6.43143 35.0767Z" fill="#938A76"/>
<path d="M6.1016 30.4423C5.68613 31.1359 5.27066 31.8278 4.85698 32.5214C4.68223 32.5214 4.50749 32.5214 4.33452 32.5214C4.33987 32.4073 4.34344 32.295 4.34879 32.1808C4.40763 32.1256 4.46469 32.0685 4.52354 32.0132C4.54493 31.9883 4.56633 31.9615 4.58951 31.9365C4.56455 31.9579 4.5378 31.9793 4.51284 32.0025C4.40585 32.0025 4.29886 32.0025 4.19188 32.0025C4.12412 31.4337 4.05457 30.8649 3.98682 30.2943C4.01535 30.2426 4.01535 30.1909 3.98682 30.1374C4.05101 28.7269 5.10305 27.386 6.24781 27.2559L6.26029 27.2683C5.90545 27.9638 5.61837 28.6645 6.06058 29.433C6.07485 29.6809 6.08911 29.9288 6.10516 30.1748C6.10516 30.2622 6.1016 30.3496 6.1016 30.4387V30.4423Z" fill="#F9F8F7"/>
<path d="M6.43147 35.0767C6.59195 35.0784 6.75243 35.082 6.91291 35.0838C6.90043 35.1373 6.90043 35.1908 6.91291 35.2443C6.59195 35.8826 6.7346 36.3534 7.24814 36.8919C7.85974 37.532 8.68176 37.5498 9.38966 37.8815C9.83722 38.0919 10.4667 38.3915 10.8179 38.2292C11.4171 37.9528 11.3939 38.3255 11.5419 38.6144C9.97631 39.5416 8.75309 39.3062 7.53343 37.9065C7.21069 37.5356 6.76491 37.2735 6.37441 36.9614C6.36549 36.9186 6.35836 36.874 6.35658 36.8295C6.25315 36.4728 6.14973 36.1162 6.0481 35.7614C6.17648 35.5331 6.30487 35.3049 6.43325 35.0767H6.43147Z" fill="#B69860"/>
<path d="M1.95771 35.0787C1.87926 34.8291 1.79902 34.5795 1.66528 34.1497C2.16456 34.0285 2.65313 33.909 3.14171 33.7896C3.16667 33.8662 3.18985 33.9429 3.21481 34.0178C2.79756 34.3726 2.37853 34.7257 1.96128 35.0805L1.95771 35.077V35.0787Z" fill="#EFDFAD"/>
<path d="M4.33447 32.5215C4.50922 32.5215 4.68396 32.5215 4.85693 32.5215C5.07803 32.8121 5.31162 33.0939 5.51311 33.397C5.55056 33.4541 5.45962 33.5949 5.42753 33.6966C4.67327 33.668 4.511 33.0885 4.33447 32.5215Z" fill="#EEEDEB"/>
<path d="M1.45277 38.486C1.39749 38.3737 1.34043 38.2596 1.28516 38.1472C1.50983 37.8066 1.7345 37.4678 1.95917 37.1273L1.95739 37.1255C1.78978 37.5784 1.62038 38.0331 1.45277 38.486Z" fill="#EFDFAD"/>
<path d="M6.04617 35.7616C6.14959 36.1182 6.25302 36.473 6.35465 36.8296C6.19774 36.8047 6.04083 36.7797 5.93384 36.7619C5.97307 36.4106 6.01051 36.0861 6.04617 35.7598V35.7616Z" fill="#E3C16F"/>
<path d="M4.1687 34.5635C4.25786 34.4458 4.34523 34.3281 4.43439 34.2104C4.48431 34.2639 4.53246 34.3157 4.58238 34.3691C4.44865 34.4387 4.31492 34.5064 4.18118 34.576L4.17048 34.5653L4.1687 34.5635Z" fill="#EFDFAD"/>
<path d="M1.9593 37.1275C2.02706 37.0401 2.09482 36.9546 2.16258 36.8672C2.18041 36.885 2.19824 36.9046 2.21785 36.9225C2.13048 36.9902 2.04489 37.058 1.95752 37.1257L1.9593 37.1275Z" fill="#E7CF90"/>
<path d="M3.32874 35.4262C3.21284 35.5386 3.09872 35.6509 2.98282 35.765L2.97925 35.7615C3.09158 35.6456 3.20392 35.5296 3.31626 35.4155L3.32696 35.4262H3.32874Z" fill="#E7CF90"/>
<path d="M1.96108 35.082L1.77741 35.2086C1.76315 35.1872 1.74888 35.1658 1.73462 35.1426C1.80951 35.1212 1.8844 35.0981 1.95751 35.0767L1.96108 35.0802V35.082Z" fill="#E7CF90"/>
<path d="M4.52331 32.0133C4.46447 32.0686 4.40741 32.1256 4.34856 32.1809C4.29685 32.1221 4.24336 32.0632 4.19165 32.0044C4.29864 32.0044 4.40562 32.0044 4.51261 32.0044L4.52331 32.0151V32.0133Z" fill="#EEEDEB"/>
<path d="M3.31836 35.4134C3.37542 35.3563 3.43248 35.2992 3.48954 35.2422L3.50024 35.2529C3.44318 35.3099 3.38612 35.367 3.32906 35.4241L3.31836 35.4134Z" fill="#E7CF90"/>
<path d="M3.67114 35.0839C3.61408 35.141 3.55702 35.1981 3.49996 35.2551L3.48926 35.2444C3.54632 35.1874 3.60338 35.1303 3.66044 35.0732L3.67114 35.0839Z" fill="#E7CF90"/>
<path d="M3.84057 34.914C3.78351 34.9711 3.72645 35.0281 3.66939 35.0852L3.65869 35.0745C3.71575 35.0174 3.77281 34.9604 3.82987 34.9033L3.84057 34.914Z" fill="#E7CF90"/>
<path d="M4.01171 34.7436C3.95465 34.8007 3.89759 34.8577 3.84053 34.9148L3.82983 34.9041C3.88689 34.847 3.94395 34.79 4.00101 34.7329L4.01171 34.7436Z" fill="#E7CF90"/>
<path d="M4.18107 34.5737C4.12401 34.6307 4.06873 34.686 4.01167 34.7431L4.00098 34.7324C4.05804 34.6753 4.11331 34.62 4.17037 34.563L4.18107 34.5737Z" fill="#E7CF90"/>
<path d="M2.4729 36.4461C2.45863 36.4711 2.44615 36.4943 2.43188 36.5192C2.44437 36.4943 2.45685 36.4693 2.46933 36.4443L2.4729 36.4479V36.4461Z" fill="#E7CF90"/>
<path d="M2.64227 36.275C2.58522 36.3321 2.52816 36.3892 2.4711 36.4462L2.46753 36.4427C2.52459 36.3856 2.58165 36.3285 2.63871 36.2715L2.64227 36.275Z" fill="#E7CF90"/>
<path d="M2.64062 36.2715C2.65489 36.2483 2.66737 36.2234 2.68164 36.2002C2.66915 36.2252 2.65667 36.2501 2.64419 36.2751L2.64062 36.2715Z" fill="#E7CF90"/>
<path d="M2.98266 35.7633C2.9684 35.7865 2.95592 35.8115 2.94165 35.8347C2.95413 35.8097 2.96661 35.7847 2.9791 35.7598L2.98266 35.7633Z" fill="#E7CF90"/>
<path d="M11.1729 11.5465C11.5581 11.5287 12.0021 11.6285 12.3195 11.4716C13.2396 11.0187 14.1882 10.5604 14.9656 9.91317C15.4381 9.52089 15.7948 9.04479 16.4545 8.98238C16.6631 9.1286 16.845 9.54942 17.1161 9.02518C17.1571 8.94494 17.4352 8.88075 17.4852 8.93067C17.9399 9.37645 18.5657 9.78479 18.7423 10.3322C18.8813 10.7619 18.4819 11.386 18.2751 11.9031C17.9933 12.6075 17.5422 13.269 17.3996 13.9947C17.2908 14.5475 17.5226 15.1609 16.6828 15.2572C16.747 15.7939 15.8215 16.0007 16.2156 16.6872C16.2762 16.7924 15.9909 17.2828 15.8518 17.2899C15.0459 17.3292 14.9371 18.0424 14.5626 18.4953C14.5341 18.5292 14.4556 18.5203 14.4004 18.531C14.4432 17.9693 14.5698 17.3987 14.5056 16.8513C14.4467 16.3556 14.1793 15.8866 14.0045 15.4052C13.6354 15.5835 13.2306 15.7137 12.9061 15.9544C12.4639 16.2789 12.1108 16.7247 11.6668 17.0474C11.3744 17.2596 10.991 17.3452 10.6487 17.4861C9.8231 17.7696 9.55741 18.4882 9.30778 19.2193C9.18831 19.3298 9.07062 19.4386 8.95115 19.5491C8.34311 19.2139 8.45723 18.2974 7.62808 18.0656C6.8756 17.8552 6.29252 17.8677 5.79682 18.4864C5.18699 19.246 4.63422 20.0573 3.9709 20.767C3.71592 21.0398 3.22378 21.0898 2.83862 21.2431C3.00267 20.8544 3.16672 20.4639 3.33255 20.0752C3.38961 19.9646 3.44488 19.8541 3.50194 19.7435C3.72305 18.9429 3.94416 18.1405 4.16705 17.3399C4.52367 16.6159 4.88208 15.8938 5.2387 15.1698C5.45981 15.004 5.68091 14.8381 5.90024 14.6723C6.897 13.5222 8.35381 13.1941 9.65014 12.5754C10.1048 12.2437 10.5613 11.9103 11.016 11.5786C11.0677 11.5643 11.1212 11.5536 11.1747 11.5483L11.1729 11.5465Z" fill="#E3AF50"/>
<path d="M18.3249 22.4632C18.2447 22.8965 18.1645 23.3298 18.0824 23.7613C18.1627 23.706 18.2447 23.6526 18.3249 23.5973C18.0272 23.4243 17.7294 23.2531 17.3567 23.0356C17.6491 24.1037 17.9202 25.0933 18.2073 26.1471C19.2147 25.9082 18.933 24.7652 19.6017 23.9682C19.7817 24.5584 19.9351 25.0612 20.0974 25.5944C20.1651 25.4909 20.224 25.4036 20.4219 25.104C20.511 25.5819 20.6804 25.926 20.6038 26.2006C20.4058 26.9157 20.7339 27.4024 21.153 27.8857C21.1779 28.4224 21.194 28.9609 21.2332 29.4976C21.2475 29.6938 21.2689 29.9166 21.3687 30.0718C21.7093 30.596 21.5738 30.9312 21.0174 31.1452C20.9711 31.1488 20.9229 31.1523 20.8766 31.1541C20.4825 31.1541 20.0867 31.1541 19.6926 31.1541C19.3788 30.473 19.1844 29.6938 18.719 29.1392C18.2447 28.574 17.5065 28.2298 16.886 27.7876C16.401 27.4417 15.1635 27.6236 14.912 28.0783C14.6125 28.0925 14.3129 28.1068 14.0134 28.121C13.2983 27.6931 12.5833 27.2652 11.8683 26.8372C10.5149 25.9813 9.04559 26.124 7.56738 26.3361C7.80632 26.0829 8.06309 25.844 8.27706 25.5694C8.52313 25.2556 8.72998 24.9097 8.95465 24.5798C8.97961 24.537 9.01706 24.5084 9.06699 24.496C10.0067 24.2624 10.5256 23.5527 10.9928 22.786C10.9928 22.7253 10.9945 22.6647 10.9963 22.6041C11.4439 22.3241 11.8932 22.046 12.3408 21.766C12.6332 21.5289 12.915 21.2739 13.2234 21.0635C13.3607 20.9707 13.5569 20.9636 13.7263 20.919C13.7905 21.026 13.8529 21.133 13.9171 21.24C13.0112 21.5342 13.1432 22.5417 12.6404 23.1212C12.4496 23.3423 12.4157 23.6989 12.3105 23.9931C12.3693 24.0324 12.4282 24.0698 12.487 24.109C13.6746 23.205 14.8621 22.3027 16.1228 21.3452C16.2654 21.7393 16.3243 21.9015 16.3956 22.1012C16.7148 21.7375 16.9929 21.4201 17.2711 21.1045L17.3621 21.24C17.7864 20.7068 18.2108 20.1719 18.6833 19.5781C18.801 19.9651 18.8902 20.2575 18.9811 20.5499C19.0007 20.5713 19.0221 20.5927 19.0435 20.6123C18.8064 21.2257 18.5692 21.8373 18.3321 22.4507L18.3214 22.4614L18.3249 22.4632Z" fill="#E6C37A"/>
<path d="M7.08214 23.4813C6.34393 24.0608 7.07323 24.8222 6.83607 25.4641C6.75227 25.6906 6.76653 26.0418 6.61318 26.1364C5.69309 26.698 4.74804 27.2258 3.78159 27.7019C3.58901 27.7964 3.26092 27.6342 3.00058 27.5718C2.80444 27.5236 2.61543 27.4434 2.49418 27.4024C2.49418 26.6 2.43177 25.7245 2.52449 24.865C2.56372 24.5012 2.96849 24.1892 3.13788 23.8219C3.48916 23.0587 3.81725 22.283 4.10969 21.4949C4.23094 21.1704 4.17566 20.828 4.73913 20.8904C4.91922 20.91 5.31686 20.4018 5.34717 20.1094C5.45594 19.011 6.45984 19.0235 7.00012 18.4761C7.08928 18.5153 7.17665 18.5545 7.2658 18.5938C7.20161 19.2179 7.11424 19.8402 7.08928 20.466C7.08393 20.6176 7.2872 20.7763 7.39597 20.9314C7.40132 21.042 7.40489 21.1525 7.41024 21.2631C7.19626 21.3398 6.98051 21.4164 6.6007 21.5537C6.7487 21.9977 6.91096 22.4845 7.07501 22.9731C7.07858 23.1425 7.08214 23.3137 7.08749 23.4831L7.08214 23.4813Z" fill="#FAEDC9"/>
<path d="M7.40691 21.2611C7.40156 21.1505 7.39799 21.0399 7.39264 20.9294C7.41582 20.7653 7.439 20.6013 7.47467 20.3517C7.62266 20.6744 7.73679 20.9276 7.95611 21.4055C8.10767 21.081 8.1897 20.8973 8.27885 20.7172C8.38227 20.5086 8.49461 20.3035 8.6016 20.0967C8.62299 21.8067 9.44858 22.6697 10.9999 22.6091C10.9999 22.6697 10.9981 22.7303 10.9963 22.791C9.89436 22.8427 9.55557 23.7539 9.07056 24.501C9.02063 24.5135 8.98318 24.542 8.95822 24.5848C7.87408 24.7934 7.66724 24.6704 7.0806 23.4793C7.07703 23.3099 7.07346 23.1387 7.06812 22.9693C7.1644 22.98 7.26247 22.9907 7.35876 23.0032C7.37303 22.4219 7.38908 21.8424 7.40334 21.2611H7.40691Z" fill="#E3AF50"/>
<path d="M7.57278 26.3408C9.05099 26.1304 10.5203 25.986 11.8737 26.8419C11.2407 27.5533 10.449 27.6568 9.55383 27.5105C8.92082 27.4071 8.27176 27.4053 7.63162 27.3519C7.21972 27.318 6.80961 27.2752 6.39771 27.2377C6.47616 27.1272 6.55284 27.0166 6.63129 26.9061L7.57278 26.3408Z" fill="#6A6252"/>
<path d="M11.0016 22.6112C9.45025 22.6718 8.62467 21.807 8.60327 20.0987C8.66033 20.0666 8.71561 20.0328 8.77267 19.9989C8.91888 19.9472 9.0651 19.8955 9.21488 19.8438C9.36466 21.4343 9.71415 21.8622 10.8036 21.7963C11.3832 21.6215 11.9627 21.4468 12.544 21.2738C12.478 21.4396 12.412 21.6055 12.346 21.7731C11.8985 22.053 11.4491 22.3312 11.0016 22.6112Z" fill="#6A6252"/>
<path d="M10.8017 21.7959C9.71224 21.8619 9.36275 21.434 9.21296 19.8434C9.06497 19.8951 8.91697 19.9468 8.77075 19.9985C8.82959 19.8488 8.89022 19.6972 8.94906 19.5474C9.06853 19.4369 9.18622 19.3281 9.30569 19.2175C9.60882 19.0981 9.91373 18.9768 10.3631 18.8003C9.69976 20.0039 9.95474 20.9596 10.8017 21.7977V21.7959Z" fill="#D5D0C4"/>
<path d="M0.775391 29.6206C0.775391 29.5101 0.775391 29.4013 0.775391 29.2925C1.43693 29.1 2.08955 28.6096 2.87769 29.2194C2.10916 29.3656 1.44228 29.494 0.775391 29.6206Z" fill="#EFDFAD"/>
<path d="M6.63085 26.9062C6.5524 27.0168 6.47572 27.1274 6.39727 27.2379C6.35447 27.2611 6.30989 27.2736 6.26175 27.2718L6.24927 27.2593C6.37587 27.1416 6.50425 27.0239 6.63085 26.9062Z" fill="#F9F8F7"/>
<path d="M21.0193 31.1464C21.5774 30.9325 21.7111 30.5972 21.3706 30.073C21.2689 29.9161 21.2493 29.6932 21.235 29.4988C21.1958 28.9621 21.1798 28.4236 21.1548 27.8869C21.1994 27.7532 21.2457 27.6212 21.2564 27.5891C23.0253 27.5927 24.7513 27.919 26.5238 27.7318C26.686 27.245 26.5683 26.455 27.5633 26.9276C27.7648 27.0239 28.355 26.4372 28.6849 26.0877C29.1325 25.6134 29.4035 24.8235 29.9313 24.6077C30.682 24.2993 30.6553 23.7625 30.9281 23.2294C31.1028 22.8888 31.9391 22.8424 32.4936 22.7551C33.1837 22.6463 33.8898 22.6285 34.5888 22.5768C34.8563 22.5571 35.1237 22.5482 35.6212 22.5215C35.3003 22.7872 35.1915 22.8781 35.122 22.9352C36.3202 23.249 37.4775 23.5521 38.6347 23.8553C38.6597 23.7946 38.6846 23.7358 38.7096 23.6752C38.3886 23.4166 38.0659 23.1598 37.6522 22.8264C38.2816 22.7658 38.8326 22.7123 39.3961 22.657C39.4853 22.8852 39.5833 23.1331 39.7046 23.438C39.8847 23.2668 40.022 23.1367 40.2502 22.9209C40.3608 23.2829 40.4517 23.5807 40.564 23.9462C41.0098 24.0282 41.3932 24.7539 41.2791 25.3477C41.1329 26.1127 41.7052 26.4818 42.2758 26.8473C42.028 26.9918 41.7873 27.1326 41.4235 27.3448C41.5644 27.8102 41.7266 28.3398 41.937 29.0299C41.8158 29.3597 41.6036 29.9375 41.4003 30.4956C41.7373 30.7327 42.044 30.9485 42.3507 31.166C42.3632 31.2213 42.3757 31.2766 42.3864 31.3319C42.3454 31.3693 42.3275 31.4157 42.3311 31.471L42.3436 31.4745C42.2669 31.5904 42.1902 31.7081 42.1136 31.824C41.9139 32.0487 41.7124 32.2734 41.5127 32.4962C41.2612 32.0736 41.0187 32.0273 40.4838 32.186C39.767 32.4 38.945 32.2413 38.1747 32.3072C37.572 32.3589 36.9907 31.9863 36.3434 32.4035C35.9993 32.6246 35.3823 32.3679 34.9223 32.4749C33.9932 32.6924 33.0767 32.9866 32.178 33.3111C31.9855 33.3807 31.8874 33.7088 31.7376 33.9299C30.846 33.5198 30.3949 34.3739 29.7352 34.5861C28.9577 34.8339 28.4549 35.1745 28.1339 35.9216C27.7292 35.6934 27.5508 34.9373 26.9339 35.499C26.8626 35.5632 26.4988 35.3029 26.2706 35.1941C25.8551 34.998 25.8676 34.8018 26.2706 34.6057C26.2099 34.4969 26.1707 34.3578 26.078 34.2901C26.0174 34.2455 25.7909 34.3079 25.7909 34.3186C25.7998 34.9962 25.231 34.7769 24.894 34.9409C24.6497 35.0604 24.4946 35.3653 24.3002 35.5882L24.2949 35.5917C23.924 35.0907 23.562 34.5807 23.1769 34.0904C22.9914 33.855 22.7578 33.6553 22.5474 33.4377C22.4779 33.5091 22.4101 33.5804 22.3406 33.6517C22.5278 33.7658 22.715 33.8817 22.9023 33.9959L22.7436 34.2633C22.025 34.3453 21.5917 33.7141 21.0425 33.3718C20.9319 33.0882 20.8196 32.8029 20.709 32.5194C20.7055 32.4606 20.7001 32.4017 20.6965 32.3411C20.8659 32.2038 21.0353 32.0665 21.2047 31.9292C21.2582 32.1432 21.2475 32.4713 21.3795 32.5444C21.6844 32.712 22.0588 32.7566 22.4048 32.8511C22.3709 32.5283 22.3441 32.202 22.2978 31.8811C22.2746 31.7242 22.2175 31.5708 22.1961 31.4941C21.7557 31.3622 21.3884 31.2534 21.0193 31.1429V31.1464ZM32.31 25.3531C33.0321 25.1052 33.7525 24.8574 34.4747 24.6077C34.4426 24.5257 34.4087 24.4437 34.3766 24.3617C33.5831 24.4562 32.6595 24.2565 32.3153 25.3584C32.219 25.4012 32.1228 25.4422 31.8446 25.5653C32.096 25.5474 32.1549 25.5617 32.178 25.5385C32.2315 25.485 32.2672 25.4155 32.3118 25.3531H32.31ZM25.1811 33.534C24.9635 32.4124 23.5656 33.0722 23.0592 32.1664C23.0823 32.5408 23.0217 32.8083 23.1251 32.9777C23.291 33.2505 23.5353 33.6143 23.7956 33.6606C24.2253 33.7373 24.6943 33.5911 25.1829 33.534H25.1811Z" fill="#FAEDC9"/>
<path d="M22.961 21.1329C22.5545 21.1258 22.1444 21.0901 21.7396 21.1169C20.7428 21.1829 20.6733 21.1222 20.8248 20.1558C20.8338 20.1023 20.8552 20.0203 20.8284 19.9935C19.6765 18.8381 20.8516 17.8074 21.1458 16.8321C21.3366 16.1991 22.2389 15.6659 22.9378 15.336C23.6564 14.9972 24.4927 15.0882 25.1132 15.7586C25.5448 16.2258 25.9691 16.7019 26.2491 17.0122C26.0012 17.827 25.7908 18.5207 25.5786 19.2161C25.6678 19.2036 25.7569 19.1911 25.8443 19.1769C26.1171 19.603 26.3917 20.031 26.6646 20.4571C26.135 20.2895 25.6054 20.1219 25.0758 19.9543C24.3358 19.8313 23.7795 20.0702 23.4549 20.7728L23.4585 20.7692C23.2909 20.8869 23.1233 21.0046 22.9557 21.1222V21.1347L22.961 21.1329Z" fill="#E3AF50"/>
<path d="M25.0794 19.9541C25.609 20.1217 26.1386 20.2893 26.6682 20.4569C27.8112 20.9526 28.4495 21.8834 28.865 23.005C28.5048 23.1191 27.9609 23.1245 27.8165 23.367C27.0676 24.6312 25.7873 24.4511 24.6479 24.6651C24.1772 23.6523 23.7777 22.6359 24.5159 21.4537C24.1451 21.4412 23.7884 21.4644 23.5852 21.6534C22.6419 22.5307 22.5937 23.1851 23.307 24.3049C23.3551 24.4475 23.3926 24.5955 23.4532 24.7311C23.5085 24.8523 23.5887 24.9611 23.6583 25.0752C22.9557 24.8256 22.255 24.5777 21.5524 24.3281C21.4472 24.0998 21.342 23.8698 21.2368 23.6416C21.1548 23.0763 21.342 22.6323 21.7896 22.2668C22.0891 22.0225 22.3441 21.7247 22.6187 21.4519C22.7328 21.3449 22.8469 21.2379 22.9611 21.1292V21.1167C23.1287 20.999 23.2963 20.8813 23.4639 20.7636L23.4603 20.7672C24.0006 20.4944 24.5409 20.2215 25.0812 19.9487L25.0794 19.9541Z" fill="#0E0C0A"/>
<path d="M38.4511 15.8044C38.1551 16.0594 37.8609 16.3126 37.5649 16.5675C37.5845 16.4837 37.6041 16.4017 37.6237 16.3179C37.235 16.1539 36.8552 15.8953 36.454 15.8525C36.0046 15.8044 35.5321 15.9506 34.9241 16.0308C35.7996 15.2017 36.5467 14.492 37.2938 13.7841L37.0816 13.6664C37.1779 13.3882 37.2207 13.0762 37.3794 12.8426C37.6683 12.4147 38.0249 12.0349 38.3084 11.6871C37.7218 11.5231 37.2796 11.4001 36.7215 11.2432C37.0709 11.0256 37.3366 10.8598 37.6023 10.694C37.6023 10.6333 37.6023 10.5745 37.6023 10.5139C37.6059 10.4586 37.6059 10.4033 37.6023 10.3498C37.72 10.2375 37.8377 10.1251 37.9554 10.0128C38.0053 10.0074 38.0552 10.0021 38.1052 9.99854C39.0859 10.0841 40.0666 10.1697 41.2524 10.2731C41.2987 10.9061 41.3576 11.7246 41.4164 12.543C41.37 12.5537 41.3255 12.5627 41.2791 12.5734C41.2149 12.4414 41.1507 12.3095 41.0687 12.1418C40.7406 12.8283 40.4535 13.5024 40.1022 14.1389C39.8169 14.656 39.4532 15.1286 39.1233 15.6207C39.068 15.733 39.0128 15.8454 38.9575 15.9577C38.797 15.881 38.7774 15.3479 38.4529 15.8026L38.4511 15.8044Z" fill="#855012"/>
<path d="M39.1213 15.623C39.4511 15.1309 39.8149 14.6584 40.1002 14.1413C40.4533 13.5029 40.7386 12.8289 41.0667 12.1442C41.1487 12.3118 41.2129 12.4437 41.2771 12.5757C41.3234 12.565 41.368 12.5561 41.4144 12.5454C41.3555 11.7269 41.2967 10.9085 41.2503 10.2755C40.0628 10.172 39.0838 10.0865 38.1031 10.0009C38.2886 9.74053 38.474 9.48198 38.7379 9.11465C38.4009 9.05046 38.096 8.99162 37.8838 8.95061C38.5525 8.01982 39.2514 7.04624 39.9112 6.12793C40.3391 6.65395 40.8259 7.25129 41.3466 7.88965C41.4661 7.79158 41.6034 7.67568 41.8708 7.45279C41.8708 8.18743 41.9867 8.82401 41.8352 9.39104C41.7104 9.86178 41.8352 9.94202 42.1989 10.0044L42.2043 10.0116C42.0955 10.4591 41.8387 10.9424 42.47 11.1759C42.3755 11.4844 42.2899 11.7697 42.2025 12.055C42.1882 12.0782 42.1758 12.1014 42.1615 12.1246C42.174 12.1014 42.1865 12.0782 42.2007 12.0532C42.1561 12.294 42.1829 12.5882 42.0527 12.7683C41.3876 13.6848 40.7047 14.5924 39.9665 15.4501C39.8185 15.623 39.4084 15.5731 39.1195 15.6248L39.1213 15.623Z" fill="#B8781F"/>
<path d="M17.1354 8.29749C16.6825 7.89986 16.2278 7.50044 15.7749 7.10281L15.7678 7.10994C15.9746 6.7337 16.2047 6.47158 15.4504 6.38421C15.0117 6.3325 15.0082 4.95771 15.3113 4.44418C15.5324 4.06794 15.6305 3.61859 15.7838 3.20312C15.8873 3.27802 16.0442 3.33151 16.087 3.43315C16.4489 4.29261 16.7111 5.20557 17.1622 6.01332C17.5206 6.65524 18.0948 7.17948 18.5887 7.74295C18.7706 7.94979 18.9934 8.12097 19.1985 8.30819C18.512 8.30463 17.8237 8.30284 17.1372 8.29928L17.1354 8.29749Z" fill="#875214"/>
<path d="M10.6484 17.4842C10.9908 17.3416 11.3742 17.2578 11.6666 17.0456C12.1106 16.7228 12.4637 16.277 12.9059 15.9525C13.2304 15.7136 13.6352 15.5834 14.0043 15.4033C14.179 15.8848 14.4465 16.3555 14.5053 16.8494C14.5695 17.3968 14.4429 17.9674 14.4001 18.5291L14.4055 18.5256C14.3466 18.6985 14.2896 18.8715 14.2307 19.0427L14.2343 19.0373C14.1737 19.1051 14.113 19.1711 14.0542 19.2388C14.056 19.2887 14.0613 19.3369 14.0667 19.3868C13.8331 19.5509 13.5977 19.7149 13.3641 19.8807C13.184 18.3651 12.3335 17.3416 10.6484 17.4842Z" fill="#BC7B20"/>
<path d="M42.9658 23.0296C42.8749 22.5714 42.825 22.0971 42.677 21.6584C42.586 21.391 42.3774 21.1324 42.1581 20.9434C41.8657 20.692 41.5126 20.5101 41.1257 20.2605C42.0832 19.1924 40.5586 18.5897 40.819 17.6107C41.3486 17.2987 41.8603 17.5198 42.3525 17.9371C42.6021 18.1475 42.5825 18.0957 42.2562 18.3365C41.9548 18.5594 41.7266 18.8821 41.5447 19.2352C42.5005 19.2851 42.841 18.5897 43.2333 17.921C43.4205 18.151 43.5953 18.324 43.7148 18.529C43.811 18.6931 43.8396 18.8964 43.8984 19.0818C42.9248 19.3725 43.5168 20.2052 43.3546 20.7669C43.1549 21.4551 43.178 22.2058 43.1049 22.9316C43.0586 22.9637 43.014 22.9975 42.9676 23.0296H42.9658Z" fill="#B8781F"/>
<path d="M18.1448 18.2224C18.1216 18.1742 18.0878 17.9549 17.9915 17.921C17.2818 17.6767 17.7258 17.2969 17.8631 16.9617C17.9398 16.7763 18.1252 16.614 18.1395 16.4321C18.1609 16.1664 17.9594 15.7046 18.0485 15.6511C19.3609 14.8648 18.6388 12.8588 20.1437 12.2275C20.5485 12.8053 20.6091 13.3331 20.0011 13.8876C19.8013 14.0695 19.8691 14.5171 19.7425 14.8131C19.3716 15.6814 18.4765 16.3341 18.7457 17.4806C18.7903 17.6732 18.3463 17.9817 18.143 18.2206L18.1448 18.2224Z" fill="#B8781F"/>
<path d="M35.5623 9.8509C35.5979 9.95789 35.6853 10.1416 35.6604 10.1576C34.6297 10.8601 34.8437 12.062 34.5459 13.0391C34.3801 13.5848 34.5156 14.2231 34.3373 14.8704C34.1911 14.5851 34.0787 14.273 33.8879 14.0198C33.6026 13.6436 33.3209 13.18 32.9251 12.9928C32.4757 12.7806 32.4793 12.5898 32.6398 12.2421C32.9304 12.3455 33.2228 12.4489 33.608 12.5862C33.6579 11.2899 34.6654 10.6105 35.5605 9.84912L35.5623 9.8509Z" fill="#B8781F"/>
<path d="M22.6185 21.4541C22.3439 21.7287 22.0889 22.0265 21.7893 22.269C21.3418 22.6327 21.1546 23.0785 21.2366 23.6438C20.7765 23.5635 20.2398 23.6045 19.8761 23.371C19.4838 23.1195 19.2538 22.6149 18.9756 22.2512C19.2252 22.0693 19.3697 21.9159 19.548 21.8446C19.8618 21.7162 20.3183 21.4505 20.5002 21.57C21.274 22.0764 21.9266 21.6574 22.6185 21.4541Z" fill="#B8781F"/>
<path d="M24.6478 24.6664C25.7872 24.4507 27.0675 24.6326 27.8164 23.3683C27.9608 23.1258 28.5047 23.1205 28.8649 23.0063C27.581 24.7734 26.0315 25.9984 23.6564 25.0801C23.5886 24.966 23.5066 24.8572 23.4531 24.736C23.3925 24.5987 23.355 24.4525 23.3069 24.3098C23.7544 24.4293 24.202 24.5487 24.6496 24.67L24.6478 24.6664Z" fill="#6A6252"/>
<path d="M35.5624 9.85085C34.6673 10.6122 33.6598 11.2916 33.6099 12.5879C33.2229 12.4506 32.9323 12.3472 32.6416 12.2438C32.4919 12.1208 32.3439 11.9959 32.3296 11.9835C32.754 11.6554 33.1142 11.3843 33.4672 11.1062C34.2197 10.5124 34.9704 9.91326 35.7211 9.31592C35.7246 9.4336 35.7282 9.55129 35.73 9.66898C35.6747 9.7296 35.6194 9.79023 35.5642 9.84907L35.5624 9.85085Z" fill="#855012"/>
<path d="M13.3641 19.8826C13.5977 19.7185 13.8331 19.5545 14.0667 19.3887C13.9543 19.7453 13.8438 20.1037 13.7225 20.4853C13.8295 20.4746 14.031 20.455 14.3751 20.4211C14.0952 20.6386 13.9133 20.7813 13.7314 20.9222C13.562 20.9685 13.3659 20.9739 13.2286 21.0666C12.9183 21.2788 12.6384 21.532 12.3459 21.7691C12.4119 21.6033 12.4779 21.4375 12.5421 21.2699C12.8167 20.8063 13.0895 20.3426 13.3641 19.879V19.8826Z" fill="#E3AF4F"/>
<path d="M36.2397 7.11388C36.2968 7.05682 36.3556 6.99798 36.4127 6.94092C37.0849 7.15668 37.0832 7.41879 36.4074 8.13026C36.3539 8.13026 36.2986 8.13026 36.2451 8.12847C36.2451 7.79147 36.2415 7.45267 36.2397 7.11566V7.11388Z" fill="#C89435"/>
<path d="M42.3755 15.9775C42.01 16.7978 41.8869 16.8905 41.1772 16.6319C41.5749 16.4126 41.9725 16.1915 42.3702 15.9722L42.3773 15.9775H42.3755Z" fill="#B8781F"/>
<path d="M36.2451 8.12842C36.2986 8.12842 36.3539 8.1302 36.4074 8.1302C36.427 8.75073 36.5785 9.43188 35.7298 9.67082C35.7262 9.55313 35.7226 9.43544 35.7208 9.31776L35.7173 9.32311C35.7779 9.15549 35.8385 8.98966 35.8992 8.82205C36.0151 8.59025 36.131 8.36022 36.2469 8.12842H36.2451Z" fill="#C89435"/>
<path d="M38.4509 15.8046C38.7755 15.3499 38.7951 15.8831 38.9555 15.9598C38.9056 16.0971 38.8557 16.2344 38.8058 16.3699C38.6881 16.1809 38.5686 15.9919 38.4509 15.8046Z" fill="#B8781F"/>
<path d="M42.5469 15.4663C42.5505 15.518 42.5505 15.5697 42.5469 15.6214C42.4898 15.7409 42.4328 15.8604 42.3757 15.9798L42.3704 15.9745C42.4292 15.8051 42.4881 15.6357 42.5469 15.4681V15.4663Z" fill="#B8781F"/>
<path d="M14.2307 19.0444C14.2896 18.8715 14.3466 18.6985 14.4055 18.5273C14.3466 18.7003 14.2896 18.8733 14.2307 19.0444Z" fill="#E3AF50"/>
<path d="M37.602 10.3501C37.6056 10.4054 37.6056 10.4607 37.602 10.5141C37.5343 10.4963 37.4647 10.4785 37.397 10.4607C37.4647 10.4232 37.5343 10.3875 37.602 10.3501Z" fill="#B8781F"/>
<path d="M42.199 10.0021C42.2596 9.95929 42.322 9.9165 42.3826 9.87549C42.3969 9.89689 42.4112 9.91828 42.4272 9.94146C42.3523 9.96464 42.2792 9.98604 42.2043 10.0092L42.199 10.0039V10.0021Z" fill="#B8781F"/>
<path d="M14.0542 19.2406C14.1148 19.1728 14.1755 19.1068 14.2343 19.0391C14.1737 19.1068 14.113 19.1728 14.0542 19.2406Z" fill="#E3AF50"/>
<path d="M46.8102 25.1844C46.7888 25.1719 46.7692 25.1595 46.7478 25.147C46.7656 25.163 46.7835 25.1773 46.8013 25.1933L46.8102 25.1844Z" fill="#EEEDEB"/>
<path d="M42.7108 14.0967C42.6912 14.1216 42.6698 14.1466 42.6501 14.1716C42.6537 14.1573 42.6501 14.1377 42.6608 14.1306C42.6769 14.1181 42.6983 14.1109 42.7161 14.102L42.7108 14.0967Z" fill="#875214"/>
<path d="M43.5684 10.6907C43.5434 10.7121 43.5184 10.7335 43.4917 10.7549C43.5149 10.7317 43.5363 10.7068 43.5595 10.6836L43.5666 10.6907H43.5684Z" fill="#875214"/>
<path d="M18.3356 22.4521C18.357 22.4789 18.3802 22.5039 18.4016 22.5306C18.3767 22.5074 18.3499 22.486 18.325 22.4628L18.3356 22.4521Z" fill="#E6C37A"/>
<path d="M42.2027 4.88675C42.1831 4.87784 42.1617 4.87071 42.1456 4.85822C42.1367 4.84931 42.1385 4.82969 42.1367 4.81543C42.1581 4.84039 42.1795 4.86536 42.2009 4.89032V4.88854L42.2027 4.88675Z" fill="#875214"/>
<path d="M18.9844 20.5528C19.0254 20.5332 19.0646 20.5136 19.1056 20.4922C19.086 20.5332 19.0646 20.5724 19.045 20.6134C19.0236 20.5938 19.004 20.5742 18.9844 20.5528Z" fill="#E6C37A"/>
<path d="M42.0527 2.47803C42.1222 2.51191 42.19 2.544 42.2595 2.57788C42.2417 2.5975 42.2132 2.63673 42.2078 2.63316C42.1436 2.5975 42.0812 2.55648 42.0188 2.51726L42.0527 2.47803Z" fill="#C89435"/>
<path d="M15.7748 7.10307L15.7 7.07275C15.7231 7.08524 15.7463 7.09593 15.7695 7.10842L15.7766 7.10128L15.7748 7.10307Z" fill="#875214"/>
<path d="M20.7087 32.5234C20.8192 32.8069 20.9316 33.0922 21.0421 33.3757C20.8317 34.0819 20.6195 34.7898 20.418 35.4656C20.8478 35.7134 21.2008 35.9149 21.5539 36.1182C21.2276 36.1717 20.8799 36.1681 20.5821 36.2894C20.1524 36.4641 19.7601 36.728 19.3535 36.9545H19.3517C19.1823 36.9545 19.0112 36.9545 18.8418 36.9545C18.7847 36.9705 18.7294 36.9705 18.6724 36.9545C18.6527 36.8867 18.6331 36.8189 18.6135 36.7494C18.5743 36.8172 18.5368 36.8849 18.4976 36.9545H17.6489C17.3814 36.9741 17.1014 36.9545 16.8482 37.0222C16.4328 37.1363 16.0316 37.3093 15.625 37.4573C14.9849 37.1863 14.3447 36.9152 13.7046 36.6442C13.7278 36.1735 13.5352 35.5939 14.3126 35.5012C14.3661 35.4941 14.3733 35.1143 14.4036 34.9074C14.5284 34.8433 14.655 34.7773 14.7798 34.7131C15.3682 34.7612 15.9656 34.8878 16.5398 34.8183C16.7626 34.7915 16.9338 34.3244 17.1282 34.0569C17.0676 33.9463 17.0069 33.834 16.9463 33.7235C17.2833 33.5237 17.6203 33.3223 17.9591 33.1225C17.9787 32.8765 18.0001 32.6304 18.0197 32.3825C18.0911 32.0331 18.1606 31.6853 18.2319 31.3359C18.7205 31.2752 19.2073 31.2164 19.6959 31.1558C20.0899 31.1558 20.4858 31.1558 20.8799 31.1558C20.9298 31.3305 20.9797 31.5035 21.0296 31.6782C21.0921 31.7549 21.1527 31.8298 21.2151 31.9065L21.2044 31.9332C21.035 32.0705 20.8656 32.2078 20.6962 32.3451C20.6766 32.3647 20.6374 32.3897 20.6409 32.4004C20.657 32.4432 20.6855 32.4824 20.7087 32.5234ZM19.9473 31.557C20.0311 31.6051 20.0828 31.6586 20.1131 31.6479C20.1506 31.6354 20.172 31.5712 20.1987 31.5284C20.1292 31.5356 20.0578 31.5445 19.9455 31.557H19.9473Z" fill="#DFBC6E"/>
<path d="M19.3538 36.9559C19.7621 36.7295 20.1544 36.4656 20.5823 36.2908C20.8801 36.1696 21.2278 36.1713 21.5541 36.1196C21.5648 36.1696 21.5791 36.2195 21.6005 36.2658C21.6041 36.3693 21.6076 36.4727 21.613 36.5779L21.5755 36.6136C20.8355 36.7277 20.0938 36.8436 19.3538 36.9577V36.9559Z" fill="#B69860"/>
<path d="M35.0398 35.5922C35.0612 35.5191 35.0826 35.4442 35.104 35.3711C35.1254 35.3854 35.1468 35.3996 35.1682 35.4139C35.1254 35.4727 35.0826 35.5334 35.0398 35.5922Z" fill="#E3C16F"/>
<path d="M24.3003 35.5903C24.3431 35.6492 24.3841 35.708 24.4233 35.7686C24.4233 35.7686 24.3841 35.7972 24.3645 35.8132C24.3413 35.7401 24.3181 35.667 24.2949 35.5939L24.3003 35.5903Z" fill="#FAEDC9"/>
<path d="M28.5601 39.6859C28.5725 39.6609 28.585 39.6378 28.5993 39.6128C28.5868 39.6378 28.5725 39.6609 28.5601 39.6859Z" fill="#E3C16F"/>
<path d="M32.8233 36.6158C32.8358 36.5926 32.8483 36.5676 32.8625 36.5444C32.8483 36.5676 32.8358 36.5908 32.8215 36.614L32.8233 36.6158Z" fill="#E3C16F"/>
<path d="M41.6891 41.9023C41.6302 41.9451 41.5696 41.9862 41.5107 42.0289C41.5714 41.9879 41.6302 41.9469 41.6908 41.9041L41.6891 41.9023Z" fill="#BC7B20"/>
<path d="M39.6294 38.8174C39.6526 38.7408 39.6758 38.6641 39.7007 38.5874C39.7292 38.6017 39.7578 38.6159 39.7881 38.6284C39.7471 38.7015 39.7061 38.7728 39.6668 38.846L39.6312 38.8156L39.6294 38.8174Z" fill="#E7CF90"/>
<path d="M42.3327 31.4696C42.3274 31.4144 42.3452 31.368 42.388 31.3306C42.3702 31.3769 42.3523 31.4233 42.3327 31.4696Z" fill="#C89435"/>
<path d="M38.9643 42.7588C38.9786 42.7356 38.9929 42.7107 39.0053 42.6875C38.9893 42.7107 38.975 42.7321 38.959 42.7553L38.9625 42.7606L38.9643 42.7588Z" fill="#E7CF90"/>
<path d="M37.4023 45.2869C37.4434 45.2673 37.4844 45.2476 37.5236 45.228C37.504 45.2673 37.4844 45.3083 37.4648 45.3493C37.4434 45.3297 37.422 45.3083 37.4023 45.2869Z" fill="#E7CF90"/>
<path d="M37.4273 45.9968C37.438 45.9772 37.4451 45.954 37.4612 45.9398C37.4701 45.9308 37.4915 45.9344 37.5058 45.9326C37.479 45.954 37.4523 45.9736 37.4255 45.995L37.4273 45.9968Z" fill="#E7CF90"/>
<path d="M39.6438 46.1678C39.6206 46.191 39.5974 46.2142 39.5742 46.2373C39.5778 46.2231 39.5778 46.2017 39.5867 46.1945C39.6027 46.1821 39.6241 46.1749 39.6438 46.166V46.1678Z" fill="#BC7B20"/>
<path d="M5.0283 43.7515C5.17986 43.8264 5.35818 43.8692 5.47765 43.9797C6.50472 44.923 7.51218 45.8876 8.54639 46.822C8.78355 47.036 9.09203 47.1822 9.38981 47.3106C10.3188 47.71 11.2496 48.1058 12.1964 48.4571C12.4407 48.5481 12.751 48.5053 13.0238 48.4696C13.4197 48.4161 13.8351 48.1736 14.0901 48.721C14.1151 48.7745 14.247 48.812 14.3201 48.8013C15.1867 48.6836 16.0515 48.5516 16.9181 48.4304C17.1125 48.4036 17.3176 48.3555 17.5048 48.3894C19.3271 48.721 21.0639 48.2467 22.822 47.8901C23.414 47.7706 24.0649 47.9364 24.6587 47.8188C25.2792 47.6957 25.8605 47.3819 26.4632 47.1626C26.6433 47.0966 26.8358 47.0663 27.0231 47.0199C26.4828 47.5138 26.1654 48.3412 25.2221 48.2289C25.174 48.4001 25.1829 48.6479 25.0706 48.7317C24.286 49.313 23.5192 49.9389 22.6633 50.3936C21.8734 50.8126 21.2707 51.7559 20.3417 51.3993C19.8888 52.4638 19.4733 53.4374 19.0579 54.4092C18.9848 54.4074 18.9134 54.4056 18.8403 54.4038C18.7958 54.0704 18.7512 53.7351 18.6995 53.3446C18.5764 53.3839 18.432 53.432 18.2876 53.4784C18.3321 53.5854 18.4356 53.7066 18.4142 53.7958C18.3232 54.1667 18.2555 54.5625 18.0682 54.887C17.626 55.6573 17.1232 56.3938 16.6435 57.1427C16.5401 57.1052 16.4385 57.0678 16.3351 57.0303C16.0694 55.9516 15.8393 54.8639 15.5184 53.8011C15.4132 53.4552 15.0619 53.1895 14.8444 52.8721C14.4753 52.3318 14.2845 52.6849 13.9974 52.9702C13.9189 53.0469 13.4999 52.9131 13.3537 52.7633C12.8312 52.2213 12.3337 51.6507 11.8826 51.0498C11.7007 50.8073 11.6098 50.4613 11.5723 50.1511C11.5117 49.6643 11.3744 49.3701 10.8181 49.584L10.8252 49.5769C10.597 49.4913 10.3598 49.42 10.1405 49.3148C10.046 49.2702 9.9925 49.1436 9.90513 49.0741C8.85844 48.2431 7.79927 47.4265 6.77041 46.5759C6.53503 46.3816 6.3799 46.0784 6.21586 45.8074C5.80931 45.128 5.42058 44.4397 5.02295 43.755L5.0283 43.7515Z" fill="#BC7B20"/>
<path d="M10.8232 49.5804C10.8464 49.5929 10.8696 49.6053 10.8928 49.6178C10.8714 49.6036 10.8518 49.5893 10.8304 49.5732L10.8232 49.5804Z" fill="#BC7B20"/>
<path d="M11.54 38.6162C11.392 38.3255 11.4152 37.9529 10.816 38.231C10.4647 38.3933 9.83531 38.0937 9.38775 37.8833C8.67985 37.5517 7.85783 37.5338 7.24622 36.8937C6.73447 36.357 6.59003 35.8845 6.91099 35.2461C7.26584 35.5046 7.58858 35.9041 7.98265 36.0004C9.81926 36.4497 11.6898 36.7653 13.521 37.2343C14.3074 37.4358 15.0295 37.8922 15.7802 38.2328C15.7214 38.4343 15.6643 38.6358 15.6055 38.8373C14.6141 38.6376 13.6262 38.3897 12.6259 38.2649C12.2835 38.2221 11.9037 38.4896 11.54 38.6162Z" fill="#564D40"/>
<path d="M15.6074 38.8377C15.6663 38.6362 15.7233 38.4347 15.7822 38.2332C16.178 38.1494 16.5703 38.0477 16.9679 37.9835C17.8399 37.8427 18.7386 37.8052 19.5802 37.5663C20.2792 37.3666 20.9122 36.9386 21.5755 36.6123C21.5755 36.6123 21.613 36.5784 21.613 36.5767C21.9161 37.1116 21.6647 37.4611 21.1761 37.6162C20.4664 37.8409 19.7353 38.0067 19.006 38.1619C17.8773 38.4026 16.7415 38.613 15.6092 38.8359L15.6074 38.8377Z" fill="#B69860"/>
<path d="M28.5188 48.5494C28.5099 48.569 28.501 48.5868 28.4921 48.6064C28.4707 48.5797 28.4511 48.5529 28.4297 48.5262C28.4475 48.5155 28.4689 48.4959 28.4814 48.4995C28.4974 48.5048 28.5064 48.5315 28.5171 48.5494H28.5188Z" fill="#E7CF90"/>
<path d="M32.8269 40.5425L32.761 40.7636C32.7396 40.7493 32.7182 40.735 32.6968 40.7208C32.7396 40.6601 32.7806 40.5995 32.8234 40.5371L32.8287 40.5425H32.8269Z" fill="#E7CF90"/>
<path d="M28.5617 40.0288L28.378 40.1536C28.3637 40.1322 28.3495 40.1108 28.3352 40.0894C28.4101 40.068 28.4832 40.0448 28.5581 40.0234L28.5634 40.0288H28.5617Z" fill="#E7CF90"/>
<path d="M28.7329 45.8293C28.7186 45.8542 28.7044 45.8774 28.6919 45.9024C28.7044 45.8774 28.7169 45.8506 28.7293 45.8257L28.7347 45.831L28.7329 45.8293Z" fill="#E7CF90"/>
<path d="M6.26203 27.272C6.31017 27.272 6.35475 27.2613 6.39755 27.2381C6.80945 27.2774 7.21956 27.3202 7.63146 27.3523C8.27339 27.404 8.92066 27.4075 9.55367 27.511C10.4488 27.6572 11.2405 27.5537 11.8735 26.8423C12.5885 27.2702 13.3036 27.6982 14.0186 28.1261C14.0418 28.2206 14.0667 28.3151 14.0899 28.4096C13.9063 28.9624 13.7226 29.5152 13.5407 30.0679C13.316 30.3711 13.0914 30.6742 12.8667 30.9756C12.0679 31.5087 11.2637 32.0347 10.4684 32.575C9.12037 33.4933 8.43387 33.4648 7.35151 32.2701C6.85937 31.728 6.51523 31.054 6.10333 30.4388C6.10333 30.3515 6.1069 30.2641 6.1069 30.1749C6.26025 30.1339 6.41538 30.0929 6.72742 30.0073C6.44034 29.7595 6.25133 29.5954 6.06232 29.4314C5.62011 28.6629 5.90719 27.9621 6.26203 27.2667V27.272Z" fill="#0A0907"/>
<path d="M21.5754 36.6103C20.9121 36.9366 20.2791 37.3646 19.5801 37.5643C18.7385 37.8032 17.8398 37.8425 16.9678 37.9816C16.5702 38.0457 16.1761 38.1456 15.782 38.2312C15.0313 37.8906 14.3092 37.4341 13.5228 37.2326C11.6916 36.7637 9.82108 36.4481 7.98446 35.9987C7.58861 35.9024 7.26765 35.503 6.91281 35.2445C6.90211 35.191 6.90211 35.1375 6.91281 35.084C7.93632 35.1464 8.99549 35.0679 9.97443 35.3087C11.2511 35.6207 12.4637 36.1877 13.7047 36.646C14.3448 36.917 14.985 37.1881 15.6251 37.4591C16.4454 37.8763 17.0017 37.2309 17.649 36.9563C17.9325 36.9563 18.216 36.9563 18.4977 36.9563C18.5566 36.9563 18.6136 36.9563 18.6725 36.9563C18.7295 36.9723 18.7848 36.9723 18.8419 36.9563C19.0113 36.9563 19.1825 36.9563 19.3518 36.9563H19.3536C20.0936 36.8421 20.8354 36.7262 21.5754 36.6121V36.6103Z" fill="#15120F"/>
<path d="M12.8667 30.9771C13.0913 30.674 13.316 30.3708 13.5407 30.0695C13.5835 30.1889 13.6245 30.3084 13.6441 30.3637C13.9133 29.9357 14.1773 29.5185 14.4394 29.103C14.7799 30.3566 14.6319 31.496 13.596 32.4731C13.7832 32.5534 13.9294 32.6158 14.0756 32.6782C13.7564 33.2309 13.9276 33.7017 14.3181 34.1403C14.4822 34.324 14.6284 34.5237 14.7817 34.7145C14.6569 34.7787 14.5303 34.8447 14.4055 34.9089C14.1273 35.0693 13.8385 35.319 13.7172 34.7537C13.6477 34.4292 13.5496 34.1118 13.4337 33.6749C13.1948 33.8354 12.9915 33.9727 12.7044 34.1653C12.3995 33.7142 12.0946 33.263 11.7754 32.7905C12.3085 32.721 13.4551 31.7617 13.4604 31.3355C13.4604 31.2196 13.0753 31.0983 12.8667 30.9789V30.9771Z" fill="#BFB69C"/>
<path d="M6.06226 29.4365C6.25127 29.6006 6.44028 29.7628 6.72736 30.0125C6.41531 30.0963 6.26018 30.1373 6.10683 30.1801C6.09257 29.9322 6.07652 29.6844 6.06226 29.4383V29.4365Z" fill="#0A0907"/>
<path d="M4.51099 32.0025C4.53595 31.9811 4.5627 31.9597 4.58766 31.9365C4.56626 31.9615 4.54487 31.9882 4.52168 32.0132L4.51099 32.0025Z" fill="#EEEDEB"/>
<path d="M13.3643 19.8827C13.0897 20.3463 12.8169 20.81 12.5423 21.2736C11.9628 21.4483 11.3832 21.6231 10.8019 21.796C9.95496 20.958 9.70176 20.0022 10.3633 18.7986C9.91395 18.9769 9.60904 19.0964 9.30591 19.2158C9.55733 18.4865 9.82123 17.768 10.6468 17.4844C12.3319 17.3418 13.1824 18.3653 13.3625 19.8809L13.3643 19.8827Z" fill="#0E0C0A"/>
<path d="M14.0739 32.6783C13.9277 32.6159 13.7815 32.5535 13.5942 32.4732C14.6302 31.4961 14.7782 30.3567 14.4377 29.1031C14.4377 29.0015 14.4377 28.8998 14.4394 28.7982C14.4287 28.7322 14.4163 28.6663 14.4056 28.6003C14.3004 28.5379 14.1951 28.4737 14.0899 28.4113C14.0668 28.3168 14.0418 28.2223 14.0186 28.1278C14.3182 28.1135 14.6177 28.0992 14.9173 28.085C15.1384 28.2312 15.4416 28.3275 15.5682 28.5325C15.9908 29.2155 17.1319 29.3759 16.9732 30.4708L16.9608 30.4833H16.4633C16.6826 30.7739 16.9465 30.888 17.2211 30.9718C17.4725 31.0503 17.7329 31.0984 17.9878 31.1591C17.7079 31.1858 17.4262 31.2411 17.148 31.2322C16.4829 31.2108 15.7928 31.9062 15.1366 31.168C15.0938 31.1198 14.8406 31.2589 14.6855 31.3106C14.755 31.3962 14.8228 31.4818 14.8923 31.5674C15.1313 31.6209 15.372 31.6726 15.6716 31.7386C15.4629 31.8242 15.3025 31.8901 15.142 31.9543C15.6787 32.1309 16.2029 32.138 16.7218 32.1879C17.1551 32.2289 17.5849 32.3181 18.0182 32.3841C17.9985 32.6301 17.9771 32.8762 17.9575 33.1241C17.3192 33.0153 16.6166 33.0385 16.0549 32.7656C15.3595 32.4286 14.7426 32.4964 14.0721 32.6765L14.0739 32.6783Z" fill="#F9F8F7"/>
<path d="M16.9732 30.4673C17.1319 29.3743 15.9907 29.212 15.5681 28.5291C15.4415 28.324 15.1383 28.2277 14.9172 28.0815C15.1687 27.625 16.4044 27.4432 16.8911 27.7891C17.5117 28.2313 18.2499 28.5754 18.7242 29.1407C19.1878 29.6952 19.3839 30.4745 19.6978 31.1556C19.2092 31.2162 18.7224 31.2751 18.2338 31.3357C18.1518 31.2751 18.0716 31.2145 17.9896 31.1538C17.7328 31.0932 17.4724 31.0451 17.2228 30.9666C16.95 30.881 16.6861 30.7687 16.465 30.478C16.6308 30.478 16.7966 30.478 16.9625 30.478C16.991 30.5012 17.0178 30.5244 17.0445 30.5458C17.0213 30.519 16.9981 30.4923 16.975 30.4656L16.9732 30.4673Z" fill="#EFDFAD"/>
<path d="M21.0299 31.6798C20.98 31.5051 20.9301 31.3321 20.8801 31.1574C20.9265 31.1538 20.9746 31.152 21.021 31.1484C21.3883 31.259 21.7556 31.3678 22.1961 31.4997C22.2175 31.5782 22.2745 31.7297 22.2977 31.8866C22.3441 32.2094 22.3708 32.5339 22.4047 32.8567C22.0588 32.7622 21.6843 32.7176 21.3794 32.55C21.2474 32.4786 21.2581 32.1488 21.2047 31.9348C21.2047 31.9348 21.2154 31.908 21.2154 31.9063C21.2421 31.7921 21.2671 31.678 21.2938 31.5657C21.2064 31.6031 21.1191 31.6424 21.0299 31.6798Z" fill="#FAEDC9"/>
<path d="M9.07056 24.503C9.55556 23.7559 9.89614 22.8447 10.9963 22.793C10.5291 23.5597 10.0103 24.2676 9.07056 24.503Z" fill="#EFDFAD"/>
<path d="M7.4067 21.2611C7.39244 21.8424 7.37639 22.4219 7.36213 23.0032C7.26584 22.9925 7.16777 22.9818 7.07148 22.9693C6.90921 22.4807 6.74517 21.9939 6.59717 21.5499C6.97876 21.4126 7.19273 21.336 7.4067 21.2593V21.2611Z" fill="#EFDFAD"/>
<path d="M25.1811 33.5342C24.6925 33.5912 24.2235 33.7374 23.7938 33.6608C23.5335 33.6144 23.2892 33.2506 23.1233 32.9778C23.0217 32.8084 23.0806 32.541 23.0574 32.1665C23.5656 33.0723 24.9617 32.4126 25.1793 33.5342H25.1811Z" fill="#FAEDC9"/>
<path d="M32.3152 25.3605C32.6593 24.2586 33.583 24.4583 34.3764 24.3638C34.4085 24.4458 34.4424 24.5278 34.4745 24.6098C33.7524 24.8577 33.032 25.1055 32.3098 25.3552L32.3152 25.3605Z" fill="#FAEDC9"/>
<path d="M32.31 25.3535C32.2672 25.4159 32.2297 25.4855 32.1762 25.539C32.153 25.5621 32.096 25.5479 31.8428 25.5657C32.1209 25.4445 32.2172 25.4017 32.3135 25.3589L32.3082 25.3535H32.31Z" fill="#FAEDC9"/>
<path d="M20.7089 32.523C20.6857 32.482 20.6571 32.4446 20.6411 32.4C20.6375 32.3893 20.6768 32.3643 20.6964 32.3447C20.6999 32.4036 20.7053 32.4624 20.7089 32.523Z" fill="#E7CF90"/>
<path d="M25.0791 19.9542C24.5388 20.227 23.9985 20.4999 23.4583 20.7727C23.781 20.0701 24.3391 19.8312 25.0791 19.9542Z" fill="#C89435"/>
<path d="M24.648 24.6668C24.2004 24.5474 23.7529 24.4279 23.3053 24.3066C22.592 23.1851 22.6402 22.5324 23.5835 21.6551C23.7867 21.4661 24.1434 21.4429 24.5142 21.4554C23.7778 22.6358 24.1755 23.6522 24.6462 24.6668H24.648Z" fill="#D5D0C4"/>
<path d="M42.2008 12.0513C42.1884 12.0745 42.1759 12.0976 42.1616 12.1226C42.1759 12.0994 42.1884 12.0762 42.2026 12.0531L42.2008 12.0513Z" fill="#C89435"/>
<path d="M14.0737 32.6782C14.7424 32.4981 15.3611 32.4304 16.0565 32.7674C16.6164 33.0384 17.319 33.017 17.9591 33.1258C17.6221 33.3255 17.2833 33.5252 16.9463 33.7267C17.0069 33.8373 17.0675 33.9496 17.1282 34.0601C16.9338 34.3276 16.7626 34.7948 16.5397 34.8215C15.9656 34.8911 15.3682 34.7645 14.7798 34.7163C14.6265 34.5238 14.4785 34.3258 14.3162 34.1422C13.9257 33.7035 13.7545 33.2346 14.0737 32.68V32.6782ZM14.6621 33.1097C15.2916 33.3487 15.839 33.5573 16.4345 33.7838C16.2224 32.9671 15.5822 32.7282 14.6621 33.1097Z" fill="#EEEDEB"/>
<path d="M17.988 31.1577C18.0682 31.2183 18.1502 31.279 18.2323 31.3396C18.1609 31.6873 18.0914 32.0368 18.0201 32.3863C17.5886 32.3185 17.1588 32.2312 16.7255 32.1901C16.2049 32.1402 15.6824 32.1313 15.1457 31.9566C15.3062 31.8906 15.4649 31.8264 15.6753 31.7408C15.3739 31.6748 15.135 31.6213 14.8961 31.5696C14.8265 31.484 14.7588 31.3984 14.6892 31.3128C14.8443 31.2611 15.0975 31.1221 15.1403 31.1702C15.7965 31.9084 16.4848 31.213 17.1517 31.2344C17.4299 31.2433 17.7116 31.188 17.9915 31.1613L17.988 31.1577Z" fill="#EEEDEB"/>
<path d="M17.6488 36.9561C17.0016 37.2324 16.4452 37.8779 15.625 37.4589C16.0316 37.3109 16.4328 37.1379 16.8482 37.0238C17.1032 36.9543 17.3814 36.9757 17.6488 36.9561Z" fill="#B69860"/>
<path d="M21.0298 31.6796C21.1172 31.6421 21.2045 31.6029 21.2937 31.5654C21.2669 31.6795 21.242 31.7919 21.2152 31.906C21.1546 31.8311 21.0922 31.7544 21.0298 31.6796Z" fill="#FAEDC9"/>
<path d="M19.9475 31.5569C20.0598 31.5444 20.1294 31.5355 20.2007 31.5283C20.1722 31.5711 20.1526 31.6335 20.1151 31.6478C20.0848 31.6585 20.0331 31.6068 19.9493 31.5569H19.9475Z" fill="#E6C37A"/>
<path d="M18.6725 36.956C18.6137 36.956 18.5566 36.956 18.4978 36.956C18.537 36.8883 18.5745 36.8205 18.6137 36.751C18.6333 36.8187 18.6529 36.8865 18.6725 36.956Z" fill="#B69860"/>
<path d="M14.0898 28.4097C14.195 28.4721 14.3002 28.5363 14.4054 28.5987C14.4161 28.6647 14.4286 28.7306 14.4393 28.7966C14.4393 28.8982 14.4393 28.9999 14.4375 29.1015C14.1754 29.5188 13.9133 29.9342 13.6422 30.3622C13.6226 30.3069 13.5798 30.1874 13.5388 30.068C13.7225 29.5152 13.9061 28.9624 14.088 28.4097H14.0898Z" fill="#938A76"/>
<path d="M16.9732 30.4673C16.9964 30.494 17.0195 30.5208 17.0427 30.5475C17.016 30.5243 16.9874 30.5012 16.9607 30.4798L16.9732 30.4673Z" fill="#F9F8F7"/>
<path d="M14.6621 33.1099C15.5822 32.7283 16.2223 32.9672 16.4345 33.7839C15.839 33.5574 15.2916 33.3506 14.6621 33.1099Z" fill="#F9F8F7"/>
</svg>
