<svg width="56" height="55" viewBox="0 0 56 55" fill="none" xmlns="http://www.w3.org/2000/svg">
<path d="M13.9488 50.9453C12.9071 49.9551 11.8457 48.9817 10.8268 47.9688C7.91405 45.0773 5.01797 42.1706 2.11582 39.27C-0.687766 36.4679 -0.712027 32.9471 2.08398 30.1556C11.4712 20.7881 20.8645 11.4267 30.2639 2.07277C32.9083 -0.557964 36.4533 -0.557964 39.0992 2.0758C44.021 6.97639 48.9322 11.8906 53.8328 16.8125C56.5379 19.5281 56.5197 23.0474 53.7904 25.7842C45.6313 33.9645 37.4616 42.1342 29.298 50.3084C29.06 50.5465 28.8325 50.7967 28.4065 51.244C28.9872 51.244 29.345 51.244 29.7014 51.244C36.6489 51.244 43.598 51.2424 50.5456 51.247C51.8647 51.247 52.4409 51.7095 52.4242 52.7056C52.4121 53.4426 52.0239 53.8914 51.3249 54.0415C50.9898 54.1143 50.6335 54.0976 50.2878 54.0976C36.0439 54.1006 21.8001 54.1006 7.55621 54.0991C6.00506 54.0991 5.34396 53.6594 5.36064 52.648C5.37732 51.6488 6.02022 51.2455 7.60473 51.2455C9.3727 51.2455 11.1422 51.2485 12.9102 51.2424C13.2074 51.2424 13.5061 51.2076 13.8032 51.1894C13.8518 51.109 13.9003 51.0287 13.9488 50.9483V50.9453ZM17.0769 19.2339C16.8085 19.4856 16.6205 19.6524 16.4431 19.8283C12.3355 23.9344 8.22488 28.0404 4.12185 32.1511C2.42817 33.8478 2.42969 35.5521 4.12943 37.2579C8.58879 41.7278 13.0466 46.1978 17.5333 50.639C17.8487 50.9513 18.3854 51.1772 18.8297 51.197C20.4051 51.2637 21.9881 51.2622 23.5635 51.197C24.0108 51.1788 24.5567 50.9741 24.869 50.6647C28.6657 46.9196 32.4261 43.138 36.194 39.364C36.3654 39.1911 36.5094 38.991 36.5519 38.9394C30.0486 32.3588 23.5969 25.8312 17.0754 19.2324L17.0769 19.2339Z" fill="#7132F5"/>
</svg>
