<svg width="49" height="55" viewBox="0 0 49 55" fill="none" xmlns="http://www.w3.org/2000/svg">
<path d="M40.5869 35.7055C37.9724 37.2379 35.2645 37.9323 32.3738 37.9574C32.18 37.9588 31.9011 38.1345 31.8105 38.306C31.1886 39.4927 30.186 39.9375 28.9004 39.9264C26.9063 39.911 24.9123 39.9096 22.9183 39.9264C21.6355 39.9375 20.6231 39.5178 20.0026 38.3228C19.9106 38.1457 19.6345 37.9574 19.442 37.956C16.6435 37.9379 14.0108 37.2825 11.4311 35.8379C11.5664 37.5893 11.6821 39.1957 11.8188 40.802C12.0795 43.8781 12.3682 46.9514 12.6108 50.0275C12.7544 51.8458 13.6315 52.7131 15.4638 52.7257C16.6156 52.7327 21.093 52.7424 22.2448 52.734C22.7928 52.7299 23.2112 52.886 23.1986 53.5177C23.1874 54.1438 22.7524 54.2958 22.2183 54.2958C20.8978 54.2944 16.2502 54.3139 14.9311 54.2777C12.813 54.2191 11.2778 52.6922 11.0965 50.5615C10.6558 45.3897 10.2027 40.2178 9.73693 35.0473C9.71462 34.7991 9.58215 34.4993 9.40087 34.3348C6.05707 31.32 4.45907 27.3989 3.56525 23.1153C3.39374 22.294 3.27103 21.4559 3.20828 20.6179C3.08418 18.9376 4.05608 17.9211 5.75169 17.8821C5.97201 17.8765 6.19093 17.857 6.45029 17.8402C6.50468 17.4582 6.52141 17.0942 6.61344 16.7498C6.87559 15.7598 7.80287 15.1002 8.97558 15.0737C9.95027 15.0528 10.9264 15.0695 12.0921 15.0695C10.5192 12.4425 8.73434 10.3536 5.9734 9.21299C4.74353 8.70403 3.5039 8.11419 2.44135 7.32774C0.995344 6.25683 0.599331 4.67835 1.11666 2.95346C1.76506 0.783753 3.88736 -0.260663 6.17838 0.602479C7.2465 1.00546 8.17797 1.79331 9.12757 2.4696C9.58075 2.7931 9.75366 3.3174 9.2684 3.7678C8.82637 4.17915 8.38992 3.97278 8.01761 3.58931C7.26045 2.80844 6.3973 2.21163 5.30548 1.9955C4.22202 1.78076 3.29752 2.10147 2.86386 2.85725C2.29912 3.84031 2.29912 4.99628 3.10091 5.73532C3.8274 6.40324 4.68357 7.06698 5.60109 7.36678C9.31721 8.57992 11.7268 11.1931 13.5771 14.4588C13.8086 14.8673 14.0289 15.0807 14.5337 15.0793C19.7586 15.0612 24.9821 15.0681 30.2069 15.0653C30.3603 15.0653 30.5137 15.0319 30.7312 15.0068C29.8681 14.2984 29.0356 13.6905 28.2896 12.9905C26.4183 11.2377 25.1159 9.08888 24.0562 6.76997C23.5807 5.72974 23.0034 4.73134 22.408 3.75246C22.1514 3.33135 21.7596 2.97717 21.3789 2.65227C20.7877 2.1461 20.0793 1.88952 19.3723 2.3455C18.6319 2.82239 18.5468 3.62139 18.7992 4.37855C19.1172 5.33233 19.5745 6.2387 19.9496 7.17435C20.3219 8.10303 20.644 9.07354 19.9189 9.96179C19.1478 10.9058 18.0239 11.1693 16.9377 10.8612C15.857 10.5544 14.7582 10.0733 13.863 9.40681C12.6122 8.47534 11.5357 7.30682 10.3979 6.22476C10.013 5.85942 9.8443 5.41181 10.278 4.97397C10.7646 4.48174 11.1676 4.77875 11.5776 5.15106C12.8618 6.31679 14.1028 7.54806 15.4903 8.57992C16.1122 9.04147 17.0339 9.23948 17.8343 9.28271C18.7058 9.33012 18.9094 8.90482 18.5887 8.07375C18.2456 7.18551 17.812 6.33213 17.4829 5.4397C17.2919 4.92098 17.1427 4.35764 17.1231 3.80963C17.0283 1.24112 19.4183 -0.236958 21.6843 0.965027C22.9225 1.6204 23.7703 2.669 24.4145 3.8682C25.0894 5.12596 25.6332 6.45344 26.304 7.71399C28.0219 10.9448 30.4133 13.4673 33.9886 14.6177C34.8545 14.8966 35.7971 15.0151 36.7105 15.0472C38.5623 15.1114 40.4168 15.0653 42.2714 15.0667C44.3393 15.0681 45.0965 15.7347 45.3795 17.8821C45.6668 17.8821 45.968 17.8723 46.2692 17.8835C47.6859 17.9406 48.7345 19.0269 48.5895 20.4255C48.054 25.6001 46.5118 30.3481 42.6618 34.0949C42.482 34.2706 42.3369 34.5593 42.3146 34.8075C41.9019 39.476 41.5114 44.1459 41.114 48.8157C41.0541 49.5143 41.0095 50.2157 40.9132 50.9102C40.6567 52.7759 39.0796 54.247 37.1581 54.2637C32.2707 54.3056 27.3832 54.2805 22.4972 54.2818C21.9576 54.2818 21.5351 54.1145 21.5323 53.4884C21.5295 52.8484 21.9618 52.7201 22.5014 52.7201C27.1643 52.7243 31.8258 52.7257 36.4888 52.7201C38.3866 52.7187 39.2581 51.896 39.4198 50.0038C39.8061 45.4747 40.1979 40.9457 40.5856 36.4152C40.6023 36.2214 40.5883 36.0248 40.5883 35.6971L40.5869 35.7055ZM10.3296 22.2828C10.3086 22.5031 10.2821 22.6147 10.2919 22.7221C10.5861 26.2458 10.872 29.7694 11.2025 33.2889C11.2303 33.5873 11.5064 33.9443 11.77 34.127C14.0359 35.6943 16.6184 36.2604 19.3193 36.3831C19.5522 36.3943 19.9022 36.1879 20.0179 35.9829C20.6148 34.9176 21.5044 34.4254 22.7064 34.4282C24.8412 34.4338 26.9747 34.431 29.1095 34.4282C30.2753 34.4282 31.144 34.9092 31.7505 35.9258C31.8858 36.1531 32.2483 36.3901 32.4966 36.3804C35.0497 36.2674 37.476 35.6999 39.7126 34.3794C40.5591 33.8788 40.8937 33.2569 40.9411 32.2947C41.0332 30.4471 41.2507 28.6051 41.4027 26.7603C41.524 25.2934 41.6258 23.8251 41.7429 22.2828C39.82 22.2828 37.9989 22.28 36.1778 22.2842C35.6019 22.2856 35.0441 22.2215 35.0455 21.488C35.0455 20.7462 35.6131 20.7099 36.1834 20.7113C38.3182 20.7183 40.4517 20.703 42.5865 20.7183C43.3646 20.7239 43.7327 20.3948 43.6993 19.6056C43.6784 19.1008 43.6965 18.5946 43.6951 18.0898C43.6909 16.7833 43.6003 16.6898 42.3118 16.6898C31.7241 16.6898 21.1363 16.6898 10.5485 16.6898C7.8475 16.6898 8.0706 16.4625 8.07479 19.2012C8.07757 20.5872 8.20725 20.7155 9.63095 20.7155C17.0729 20.7155 28.634 20.7127 36.076 20.7127C36.3284 20.7127 37.4788 21.2273 37.4593 21.4462C37.4314 21.7362 36.274 22.2814 35.9924 22.2814C29.1681 22.2814 18.2247 22.2856 11.4005 22.2856C11.0672 22.2856 10.7339 22.2856 10.3268 22.2856L10.3296 22.2828ZM9.47617 31.875C9.21263 28.7864 8.95327 25.6978 8.67578 22.6105C8.66462 22.4822 8.51681 22.2926 8.39689 22.2591C7.03176 21.8771 6.48655 20.9079 6.47679 19.5888C5.16604 19.3406 4.60827 19.6627 4.78118 20.5803C5.09213 22.2257 5.37241 23.885 5.8242 25.4942C6.49491 27.88 7.61323 30.0581 9.47478 31.875H9.47617ZM42.581 31.5808L42.7915 31.6296C42.963 31.4093 43.1415 31.1945 43.3047 30.9686C45.5343 27.887 46.5258 24.3577 47.004 20.6528C47.1365 19.6293 46.576 19.296 45.3461 19.6125C45.2764 20.7769 44.8594 21.7111 43.6742 22.181C43.4943 22.2522 43.3451 22.6008 43.3214 22.835C43.1415 24.6464 42.9937 26.4619 42.8417 28.276C42.7497 29.3776 42.6674 30.4806 42.581 31.5836V31.5808ZM25.9456 38.3102C26.9816 38.3102 28.0177 38.3186 29.0524 38.3074C29.9002 38.2977 30.4523 37.8515 30.4677 37.1947C30.483 36.5421 29.9239 36.061 29.0872 36.0555C26.9593 36.0443 24.8329 36.0429 22.705 36.0555C21.8307 36.061 21.3468 36.4933 21.3636 37.2003C21.3789 37.8961 21.8697 38.2977 22.7538 38.3074C23.8177 38.3186 24.8817 38.3102 25.9442 38.3102H25.9456Z" fill="#7132F5"/>
</svg>
