<svg width="51" height="455" viewBox="0 0 51 455" fill="none" xmlns="http://www.w3.org/2000/svg">
<path d="M51 10.8564H30.8L30.8 41.1563H51V51.2563H0.5L0.5 0.756348H51V10.8564ZM10.6 41.1563H20.7L20.7 10.8564H10.6L10.6 41.1563Z" fill="#7132F5"/>
<path d="M40.9 101.717H30.8V111.817H0.5L0.5 101.717H30.8V91.6169H40.9V81.5169H51V91.6169H40.9V101.717ZM30.8 71.4169H0.5L0.5 61.3169H30.8V71.4169ZM40.9 81.5169H30.8V71.4169H40.9V81.5169Z" fill="#7132F5"/>
<path d="M51 131.977H10.6L10.6 162.277H51V172.377H0.5L0.5 121.877H51V131.977Z" fill="#7132F5"/>
<path d="M51 192.538H30.8L30.8 222.838H51V232.938H0.5L0.5 182.438H51V192.538ZM10.6 222.838H20.7L20.7 192.538H10.6L10.6 222.838Z" fill="#7132F5"/>
<path d="M51 293.499H0.5L0.5 242.999H10.6L10.6 283.399H40.9V242.999H51V293.499Z" fill="#7132F5"/>
<path d="M40.9 343.92H30.8L30.8 364.12H51V374.22H0.5L0.5 364.12H20.7L20.7 343.92H30.8V333.82H40.9V323.72H51V333.82H40.9V343.92ZM20.7 333.82V343.92H10.6V333.82H20.7ZM10.6 333.82H0.5L0.5 323.72H10.6L10.6 333.82Z" fill="#7132F5"/>
<path d="M51 394.38H10.6L10.6 424.68H51V434.78H0.5L0.5 384.28H51V394.38Z" fill="#7132F5"/>
<path d="M51 455H0.5L0.5 444.9H51V455Z" fill="#7132F5"/>
</svg>
