<svg width="70" height="532" viewBox="0 0 70 532" fill="none" xmlns="http://www.w3.org/2000/svg">
<path d="M70 70L0 70L-2.44784e-06 14L14 14L14 -6.11959e-07L56 -2.44784e-06L56 14L42 14L42 56L56 56L56 14L70 14L70 70ZM28 14L14 14L14 56L28 56L28 14Z" fill="#7132F5"/>
<path d="M70 97.9453L42 97.9453L42 139.945L70 139.945L70 153.945L0 153.945L-3.0598e-06 83.9453L70 83.9453L70 97.9453ZM14 139.945L28 139.945L28 97.9453L14 97.9453L14 139.945Z" fill="#7132F5"/>
<path d="M70 237.891L0 237.891L-6.11959e-07 223.891L56 223.891L56 167.891L70 167.891L70 237.891Z" fill="#7132F5"/>
<path d="M56 321.781L42 321.781L42 349.781L70 349.781L70 363.781L0 363.781L-6.11959e-07 349.781L28 349.781L28 321.781L42 321.781L42 307.781L56 307.781L56 293.781L70 293.781L70 307.781L56 307.781L56 321.781ZM28 307.781L28 321.781L14 321.781L14 307.781L28 307.781ZM14 307.781L-2.44784e-06 307.781L-3.0598e-06 293.781L14 293.781L14 307.781Z" fill="#7132F5"/>
<path d="M28 433.727L70 433.727L70 447.727L0 447.727L-6.11959e-07 433.727L14 433.727L14 419.727L28 419.727L28 405.727L42 405.727L42 391.727L-2.44784e-06 391.727L-3.0598e-06 377.727L70 377.727L70 391.727L56 391.727L56 405.727L42 405.727L42 419.727L28 419.727L28 433.727Z" fill="#7132F5"/>
<path d="M14 531.672L0 531.672L-3.0598e-06 461.672L14 461.672L14 489.672L56 489.672L56 461.672L70 461.672L70 531.672L56 531.672L56 503.672L14 503.672L14 531.672Z" fill="#7132F5"/>
</svg>
