<svg width="54" height="55" viewBox="0 0 54 55" fill="none" xmlns="http://www.w3.org/2000/svg">
<path d="M0.256224 54.5C0.247908 54.051 0.13565 53.7017 0.253452 53.4647C0.961646 52.04 1.72112 50.6389 2.46812 49.2322C4.51648 45.3711 6.5593 41.5072 8.62567 37.6572C8.89315 37.1582 9.23547 36.6746 9.63461 36.2754C21.3205 24.5729 33.0286 12.8911 44.6923 1.16642C45.4712 0.383386 46.0657 0.336266 46.9694 0.786683C50.1306 2.35968 52.4367 4.72541 53.8614 7.9601C54.1109 8.52693 54.0458 8.9136 53.5815 9.37649C41.7016 21.2218 29.8396 33.0865 17.9611 44.9331C17.5633 45.3295 17.0436 45.6247 16.5419 45.8922C11.4585 48.6002 6.36804 51.293 1.27902 53.99C1.04064 54.1161 0.795339 54.2325 0.257609 54.5H0.256224ZM18.0678 42.2279C18.3048 42.0047 18.557 41.7816 18.7954 41.5446C24.3542 35.9899 29.9117 30.4339 35.4692 24.8778C39.4703 20.8781 43.4755 16.8839 47.4558 12.8634C47.6983 12.6181 47.9436 12.0277 47.8189 11.8198C46.4372 9.52062 44.5717 7.69401 42.328 6.40235C32.265 16.4709 22.2671 26.4743 12.2969 36.45C13.274 37.2539 14.3869 38.0369 15.3348 38.9835C16.3091 39.9564 17.1226 41.09 18.0692 42.2292L18.0678 42.2279ZM16.6168 43.7815C15.2073 41.1108 13.2962 39.1581 10.6214 37.811C9.09411 40.684 7.60704 43.4835 6.10195 46.3163C6.66878 46.8776 7.17463 47.425 7.73731 47.9073C7.91332 48.0583 8.3083 48.1595 8.49124 48.0653C11.1633 46.6849 13.8159 45.2671 16.6168 43.7828V43.7815ZM49.7439 10.718C50.2983 10.1304 51.0023 9.4444 51.6177 8.6877C51.7867 8.47981 51.8214 7.98505 51.6925 7.73836C50.5547 5.54725 48.8583 3.88555 46.6894 2.71863C46.469 2.59944 46.038 2.54123 45.8925 2.66873C45.0984 3.37139 44.3611 4.14056 43.7735 4.71987C45.8135 6.76961 47.7302 8.69463 49.7439 10.7167V10.718Z" fill="#7132F5"/>
</svg>
