<svg width="62" height="51" viewBox="0 0 62 51" fill="none" xmlns="http://www.w3.org/2000/svg">
<path d="M5.49668 16.4649C5.52158 16.4418 5.54649 16.4187 5.57139 16.3955C5.59274 16.3849 5.61764 16.3813 5.63187 16.3653C6.60491 15.2571 7.72915 14.3338 8.98503 13.5636C9.09709 13.4942 9.18248 13.3323 9.21806 13.1971C9.65566 11.5428 10.3974 10.0219 11.2584 8.55431C11.6711 7.85166 12.1087 7.16147 12.5356 6.46593L12.541 6.45882C12.8683 6.06213 13.1956 5.66366 13.5229 5.2652C13.546 5.23852 13.5692 5.21006 13.5923 5.18337C13.7417 5.03573 13.8911 4.88808 14.0406 4.74044L14.0583 4.72265C14.857 4.10183 15.6504 3.47211 16.458 2.86196C16.7622 2.63249 17.102 2.45282 17.4257 2.25003H17.4524L17.4649 2.22691C17.6267 2.16643 17.7957 2.12018 17.9487 2.04368C18.614 1.71104 19.2633 1.34103 19.941 1.03507C21.6132 0.282611 23.3742 -0.0589295 25.2065 0.0549176C27.0511 0.168765 28.8656 0.444487 30.5359 1.30723C30.9486 1.5207 31.34 1.76974 31.742 2.00277C31.7438 2.02945 31.758 2.04013 31.7847 2.03479C32.007 2.22157 32.233 2.40123 32.4482 2.59513C32.6332 2.76234 32.788 2.77302 32.9979 2.60758C34.4814 1.43709 36.2034 0.789586 38.0196 0.360881C38.5746 0.229245 39.1403 0.142081 39.7006 0.0335708C39.7522 0.0317919 39.8038 0.028234 39.8554 0.0264552C40.1115 0.0228974 40.3677 0.0228971 40.6238 0.0122239C41.9758 -0.039363 43.3135 0.0709268 44.6352 0.369775C44.6832 0.380449 44.7312 0.389343 44.7793 0.400016C45.3111 0.604585 45.8501 0.786029 46.3696 1.01728C47.0171 1.30546 47.6468 1.63277 48.2854 1.94407L48.2943 1.95118C48.3975 2.04013 48.5042 2.12551 48.6056 2.21623C49.2282 2.76056 49.8828 3.2711 50.4592 3.8599C50.8452 4.25303 51.1191 4.75467 51.4429 5.20828C51.4393 5.23318 51.45 5.25097 51.4749 5.25631C51.6474 5.7028 51.8396 6.14218 51.9836 6.59579C52.0637 6.84661 52.1953 6.93911 52.4462 6.98714C54.4278 7.36959 56.2992 7.9584 57.4768 9.78529L57.491 9.79774C57.7827 9.92226 58.0727 10.045 58.3644 10.1695C58.4409 10.2122 58.5174 10.2549 58.5921 10.2976C58.7024 10.3527 58.8127 10.4079 58.9212 10.4648L58.9319 10.4879H58.9568C59.0155 10.5253 59.0742 10.5609 59.1329 10.5982C59.1347 10.6231 59.1471 10.632 59.172 10.6285C59.2521 10.6872 59.3339 10.7459 59.414 10.8046L59.4317 10.8188C59.6007 11.0198 59.7679 11.2226 59.9369 11.4236C59.9565 11.4574 59.9761 11.4894 59.9956 11.5232C60.0597 12.0017 60.1095 12.482 60.1984 12.957C60.2216 13.0762 60.3763 13.1722 60.4706 13.2772C60.4759 13.3021 60.4902 13.3092 60.5133 13.3021C60.7979 13.5885 61.0807 13.8767 61.3654 14.1631V14.188L61.3885 14.1986C62.205 15.6431 62.1908 17.0928 61.4241 18.5533C61.3547 18.6849 61.3654 18.8699 61.3707 19.03C61.4063 20.2325 61.0309 21.2251 59.9316 21.8353C59.5331 22.0559 59.1222 22.2729 58.69 22.4081C58.2381 22.5504 58.014 22.8226 57.9428 23.2619C57.9179 23.2691 57.9108 23.2851 57.9197 23.3082C57.7614 23.5501 57.6031 23.792 57.4448 24.034L57.4376 24.0411C57.3825 24.098 57.3291 24.1549 57.274 24.2101L57.2615 24.2225C57.0054 24.3381 57.1477 24.4591 57.2473 24.5961C57.6511 25.1529 58.1438 25.6705 58.4249 26.2842C58.9301 27.3853 59.3054 28.5469 59.743 29.6801C59.7875 29.7939 59.8889 29.9593 59.9814 29.9718C60.7143 30.075 61.175 30.5108 61.4988 31.1352C61.5094 31.1672 61.5201 31.201 61.5308 31.233C61.5415 31.4874 61.5521 31.7418 61.561 31.9979C61.5521 32.0495 61.5432 32.0993 61.5344 32.1509C61.4881 32.2648 61.4401 32.3768 61.3938 32.4907C61.3689 32.496 61.3618 32.5102 61.3707 32.5334C61.2017 32.7717 61.0327 33.0101 60.8655 33.2502C60.8281 33.2823 60.7926 33.3161 60.757 33.3481C60.5684 33.5313 60.3799 33.7127 60.1895 33.896L60.186 33.8995C59.6274 34.2322 59.0671 34.5595 58.5174 34.9046C58.4676 34.9348 58.4623 35.0914 58.4872 35.1732C58.5583 35.4062 58.6722 35.6286 58.7398 35.8634C58.9283 36.5216 59.1009 37.1833 59.2805 37.845C59.2841 37.9429 59.2877 38.0407 59.2912 38.1385C59.2361 38.9355 59.0866 39.7164 58.7344 40.4368C58.4427 41.0328 58.0976 41.602 57.7756 42.1819L57.7685 42.189C57.3469 42.543 56.9253 42.8952 56.5037 43.2492H56.4735L56.4557 43.2723C56.0661 43.4449 55.6766 43.6174 55.2852 43.79C55.2532 43.8078 55.2194 43.8256 55.1874 43.8434C54.9935 43.9448 54.7996 44.0479 54.6057 44.1493L54.5932 44.1653C54.362 44.425 54.1325 44.683 53.9013 44.9427C53.8568 44.9889 53.8105 45.037 53.7661 45.0832C53.5259 45.2913 53.284 45.4995 53.0421 45.7058C53.0189 45.6987 53.0047 45.7094 53.0012 45.7325C52.9193 45.7912 52.8375 45.8517 52.7557 45.9104L52.729 45.9139L52.7183 45.9389C51.9783 46.3729 51.2383 46.8069 50.4983 47.2392L50.4734 47.2356L50.4609 47.257C49.97 47.4811 49.4772 47.707 48.9845 47.9312C48.9596 47.9418 48.9365 47.9507 48.9116 47.9614C48.6892 48.0504 48.4668 48.1375 48.2445 48.2265L48.2214 48.2211C48.2214 48.2211 48.2053 48.2407 48.2053 48.2389C47.4387 48.4808 46.672 48.721 45.9071 48.9647C45.6224 49.0554 45.3396 49.155 45.055 49.2493C45.007 49.26 44.9571 49.2707 44.9091 49.2813C44.5622 49.3649 44.2136 49.4503 43.8667 49.5339C43.8133 49.5393 43.76 49.5464 43.7048 49.5517C43.671 49.5499 43.6337 49.5393 43.6017 49.5446C39.7664 50.3736 35.8832 50.4749 31.9821 50.3309C31.4592 50.3113 30.9344 50.3095 30.4096 50.2988C30.3349 50.2988 30.262 50.2988 30.1873 50.2971C30.0859 50.2775 29.9845 50.2508 29.8831 50.2401C28.17 50.0711 26.4517 49.936 24.7422 49.7278C22.2731 49.4272 19.8414 48.922 17.4453 48.2638C15.1043 47.6199 12.806 46.8496 10.6323 45.7467C9.85133 45.35 9.08108 44.932 8.3055 44.5229L8.29661 44.498H8.2717C8.24146 44.4642 8.21478 44.425 8.1792 44.4001C7.46766 43.8967 6.74188 43.4093 6.04457 42.8845C5.48956 42.4665 4.97014 42.004 4.4347 41.5611C4.41335 41.538 4.39201 41.5166 4.36888 41.4935C3.97042 41.0701 3.57195 40.6485 3.17349 40.2252L3.16815 40.2198C2.98315 39.9797 2.79993 39.7395 2.61493 39.5012C2.58824 39.4602 2.56156 39.4193 2.5331 39.3802C2.49396 39.3233 2.45483 39.2646 2.41569 39.2059V39.181L2.39257 39.1721C2.35521 39.1134 2.31608 39.0529 2.27872 38.9942V38.9693L2.2556 38.9586C2.22891 38.8963 2.20935 38.827 2.17199 38.77C1.26299 37.3505 0.670631 35.8047 0.377119 34.1486C0.257935 33.4833 0.17255 32.8109 0.0729334 32.142C0.065818 32.046 0.0569237 31.9499 0.0498082 31.8538C0.0337985 31.153 0.0160097 30.4503 0 29.7494C0 29.6552 4.07547e-08 29.5591 0.0017789 29.4648C0.0249041 29.2834 0.0462504 29.1019 0.0693756 28.9205C0.176107 28.0951 0.282839 27.2679 0.39135 26.4425C0.402023 26.3927 0.412696 26.3429 0.423369 26.2931C0.688419 25.4339 0.941018 24.573 1.22208 23.7191C1.40352 23.1659 1.62766 22.6287 1.83223 22.0826L1.85357 22.0719L1.85179 22.047C2.17199 21.4244 2.49396 20.8 2.81416 20.1774C2.83017 20.1472 2.8444 20.1187 2.86041 20.0884C3.33714 19.368 3.81566 18.6494 4.29417 17.9289L4.31907 17.92L4.32085 17.8933C4.38311 17.8133 4.44359 17.7315 4.50585 17.6514L4.51119 17.6461C4.8385 17.2494 5.16581 16.8509 5.49312 16.4525L5.49668 16.4649ZM12.7776 6.84839C12.4858 7.302 12.1959 7.75561 11.9041 8.21099C11.8846 8.24123 11.865 8.27147 11.8454 8.30171L11.5057 8.89585C11.4879 8.90297 11.4808 8.91542 11.4879 8.93321C11.2228 9.37081 10.9258 9.7924 10.7016 10.2496C9.62364 12.4482 9.08998 14.7892 8.94767 17.2263C8.94055 17.3437 8.84805 17.4557 8.79647 17.5696C8.74666 17.4557 8.64526 17.3383 8.65594 17.2316C8.74666 16.3475 8.86051 15.4652 8.96368 14.5829C8.98503 14.4068 8.99214 14.2271 9.00637 14.051C8.96724 14.0243 8.9281 13.9994 8.88897 13.9727C8.20766 14.5064 7.49434 15.0027 6.85395 15.5826C5.98409 16.3724 5.22807 17.2707 4.5272 18.2206C3.52748 19.5761 2.7519 21.0526 2.04747 22.57C1.818 23.0627 1.69881 23.6053 1.52804 24.1247C1.50847 24.1282 1.50136 24.1407 1.50847 24.1585C1.48357 24.1816 1.44088 24.2012 1.43376 24.2279C1.11712 25.5602 0.716881 26.8784 0.514091 28.2285C0.277502 29.7957 0.355772 31.386 0.56212 32.9621C0.745343 34.362 1.01395 35.7424 1.63833 37.0214C1.92829 37.6173 2.29651 38.1741 2.62916 38.7487C2.66295 38.8056 2.69853 38.8608 2.73233 38.9177C3.07565 39.3838 3.37094 39.8978 3.77296 40.3088C4.56811 41.1235 5.4024 41.9008 6.25625 42.6533C6.63159 42.9842 7.0941 43.2154 7.51747 43.4929C7.52458 43.5143 7.53881 43.5232 7.56016 43.5196C7.65088 43.605 7.72915 43.7099 7.83232 43.774C8.1881 43.9999 8.55276 44.2134 8.91387 44.4304C10.7194 45.5226 12.6459 46.3551 14.6436 47.0133C16.0773 47.4865 17.5289 47.9347 19.0018 48.2638C20.9781 48.705 22.974 49.0999 24.9788 49.3667C27.0316 49.6407 29.1075 49.783 31.1781 49.895C33.0032 49.9929 34.839 50.048 36.6641 49.9786C38.3682 49.9146 40.0706 49.6958 41.7659 49.4823C44.0677 49.1924 46.2913 48.5644 48.4491 47.7159C50.292 46.9902 52.0388 46.0936 53.5241 44.7541C53.622 44.667 53.6967 44.5549 53.7821 44.4535C53.7572 44.4215 53.7323 44.3912 53.7056 44.3592C53.4619 44.4197 53.22 44.4926 52.9727 44.5371C52.0281 44.7061 51.0871 44.8929 50.1354 45.0192C48.9525 45.1757 47.766 45.3483 46.5759 45.3874C44.6761 45.4497 42.7745 45.4088 40.8729 45.4052C40.2396 45.4052 39.6028 45.4248 38.9731 45.3696C35.9437 45.1028 32.9658 44.5175 30.004 43.8558C28.1754 43.4484 26.3538 42.9931 24.5518 42.4772C22.1717 41.7959 19.8147 41.0416 17.8651 39.398C16.7035 38.4178 15.4921 37.5213 14.6382 36.2031C13.8075 34.9224 13.7399 33.6825 14.3732 32.3484C14.7325 31.5923 15.3035 31.0178 16.1289 30.9253C17.2087 30.8043 18.3116 30.7705 19.3949 30.8363C20.6899 30.9164 21.9743 31.1387 23.2639 31.3024C24.5892 31.4696 25.9127 31.6546 27.2397 31.804C29.5576 32.0655 31.8754 32.3377 34.1968 32.5476C35.9348 32.7059 37.6781 32.8215 39.4231 32.8713C41.5186 32.9318 43.6194 32.9514 45.7149 32.9051C48.0257 32.8536 50.3133 32.5511 52.5849 32.0922C54.8103 31.6421 56.9734 31.0124 59.0849 30.1817C59.3855 30.0625 59.4033 29.9149 59.3108 29.6516C59.0617 28.9472 58.85 28.2285 58.5868 27.5294C58.215 26.5457 57.7311 25.6225 56.9645 24.8807C56.872 24.7918 56.6549 24.7153 56.5589 24.7615C55.5218 25.2614 54.4065 25.4944 53.2929 25.7221C51.7666 26.0334 50.2332 25.9196 48.7034 25.7541C48.5878 25.7417 48.4864 25.5922 48.3797 25.5069C48.5078 25.4713 48.6376 25.3983 48.7639 25.4055C49.2317 25.4304 49.6978 25.482 50.1639 25.5229C51.9463 25.6812 53.6611 25.3308 55.3653 24.8522C56.3347 24.5801 57.0659 24.0393 57.5301 23.1481C57.5746 23.0627 57.5782 22.956 57.5995 22.8599C57.491 22.851 57.3736 22.8119 57.2758 22.8386C55.6143 23.2922 53.9137 23.4861 52.2042 23.5537C50.2101 23.6319 48.216 23.6177 46.2593 23.1161C46.1134 23.0787 45.9515 23.0947 45.7985 23.0876C45.7879 23.1161 45.7754 23.1463 45.7648 23.1748C45.8395 23.2548 45.9106 23.3384 45.9889 23.4131C46.3464 23.7511 46.7378 24.0606 47.058 24.4306C47.6486 25.1102 48.2 25.8235 48.7604 26.5279C48.8742 26.6702 49.1001 26.8036 48.8991 27.0189C48.8831 27.0349 48.6198 26.825 48.4793 26.7111C48.4259 26.6685 48.3975 26.5973 48.3566 26.5404C47.6824 25.5922 46.9352 24.7081 46.0529 23.945C44.9429 22.9862 43.8382 22.0203 42.4899 21.3924C42.408 21.355 42.3796 21.2002 42.3262 21.1006C42.4329 21.0899 42.5379 21.0739 42.6446 21.0704C42.6749 21.0704 42.7069 21.1006 42.7371 21.1202C43.4558 21.5809 44.1691 22.047 44.8913 22.5006C45.0639 22.6091 45.2524 22.7301 45.4446 22.755C45.9302 22.8154 46.4247 22.7977 46.9086 22.8599C47.6041 22.9489 48.2907 23.1303 48.9898 23.1854C50.9146 23.3366 52.8375 23.2228 54.7462 22.9649C56.3294 22.7514 57.8823 22.3974 59.3428 21.7143C60.1451 21.339 60.7605 20.7982 60.9313 19.8803C60.9651 19.7007 60.9367 19.5085 60.9367 19.2328C60.7303 19.384 60.604 19.4836 60.4724 19.5726C60.2127 19.7505 59.9707 19.9817 59.6826 20.0884C58.818 20.4086 57.9517 20.7484 57.0552 20.9565C55.0059 21.4333 52.9087 21.5649 50.8114 21.6699C47.8567 21.8175 44.9927 21.3746 42.223 20.3268C41.8827 20.1987 41.7256 20.3239 41.7516 20.7022C41.7943 21.3354 41.7588 21.9527 41.2802 22.4419C40.7946 22.94 40.2574 23.3776 39.6117 23.6515C37.8275 24.4075 35.9294 24.6494 34.0225 24.7953C33.0299 24.8718 32.0284 24.8309 31.0304 24.8256C29.6678 24.8184 28.3195 24.6832 26.9835 24.388C24.9361 23.9343 23.0185 23.1783 21.2396 22.0683C21.1596 22.0185 21.0653 21.9758 21.0137 21.9047C20.9674 21.8406 20.9674 21.7428 20.9479 21.6592C21.0315 21.6432 21.1329 21.588 21.1969 21.6165C21.357 21.6859 21.4958 21.7997 21.6505 21.8833C22.2251 22.2 22.7836 22.5522 23.3813 22.819C25.1798 23.6213 27.0476 24.2101 29.0239 24.3435C30.3331 24.4324 31.6477 24.4716 32.9587 24.468C34.903 24.4644 36.8135 24.1798 38.6796 23.6248C39.6455 23.3384 40.4637 22.8172 41.1148 22.0452C41.3888 21.7214 41.483 21.138 41.2963 20.8C40.9565 21.0473 40.6345 21.323 40.2752 21.5329C39.601 21.9278 38.9339 22.3636 38.2099 22.6411C36.6125 23.253 34.9084 23.3313 33.222 23.374C30.2406 23.4505 27.4087 22.7265 24.6941 21.5453C23.0576 20.8338 21.5171 19.9372 20.0958 18.8486C19.7685 18.5978 19.4856 18.5195 19.0729 18.6671C18.6193 18.8308 18.1195 18.9375 17.6374 18.9411C16.7106 18.9482 16.305 18.2171 16.7124 17.3703C16.981 16.8118 17.5164 16.5805 18.027 16.319C18.5375 16.0593 19.0712 15.8334 19.5479 15.5203C20.2897 15.0329 20.9603 14.4317 21.7199 13.9763C22.9455 13.2434 24.189 12.5301 25.4804 11.9217C26.5673 11.4094 27.7271 11.0429 28.8638 10.6409C30.447 10.0806 32.0764 9.78884 33.7628 9.81908C34.8372 9.83865 35.9134 9.82264 37.0999 9.82264C36.9861 9.59673 36.9309 9.45442 36.8491 9.3299C36.3226 8.52407 35.4794 8.1345 34.6611 7.74137C33.3768 7.12589 31.991 6.87685 30.5804 6.76656C27.9246 6.55665 25.2794 6.48194 22.7178 7.40339C22.1806 7.59551 21.6541 7.81431 21.1204 8.02066C21.0475 8.04556 20.9745 8.06868 20.8998 8.09359C20.6028 8.21455 20.3057 8.33551 20.0086 8.45648C19.9535 8.47604 19.8983 8.49739 19.8432 8.51696C19.7774 8.52941 19.7044 8.52585 19.644 8.55431C19.1654 8.77667 18.694 9.01326 18.2102 9.22139C18.1213 9.25874 17.9878 9.19115 17.874 9.17158C17.9327 9.08797 17.9736 8.96523 18.0537 8.92432C18.4183 8.73754 18.7865 8.55431 19.169 8.40489C20.2274 7.99042 21.2841 7.56883 22.3567 7.19526C23.5752 6.77012 24.8187 6.39122 26.119 6.36809C27.6061 6.34141 29.0968 6.3592 30.5804 6.43569C32.1476 6.51752 33.6685 6.8555 35.0863 7.56883C35.362 7.70758 35.6377 7.84455 35.9792 8.0171C35.9615 7.83743 35.9792 7.72359 35.9401 7.6382C35.5594 6.84661 35.225 6.02655 34.7678 5.28299C34.2146 4.38289 33.3697 3.74072 32.5211 3.13057C31.7811 2.59691 31.05 2.03479 30.2478 1.61142C29.0363 0.97281 27.7093 0.634825 26.3449 0.519199C25.4608 0.444487 24.5661 0.3929 23.6802 0.437372C22.4901 0.496074 21.3481 0.823385 20.2612 1.31791C19.8503 1.50469 19.4536 1.71637 19.0498 1.91738L19.0463 1.91916C18.4005 2.24114 17.7441 2.54354 17.1109 2.89042C15.9528 3.5237 14.9407 4.35798 14.0263 5.30078C13.5674 5.77395 13.1885 6.32718 12.774 6.84305L12.7704 6.84661L12.7776 6.84839ZM51.329 7.20594C51.233 7.19349 51.1369 7.18281 51.0409 7.17036C50.9733 7.15969 50.9039 7.15079 50.8363 7.14012C50.694 7.12945 50.5499 7.11699 50.4076 7.10632C50.3151 7.09565 50.2226 7.08498 50.1301 7.0743C49.9878 7.06185 49.8455 7.04762 49.7032 7.03517C49.5413 7.02094 49.3794 7.00671 49.2175 6.9907C48.9347 6.97646 48.6518 6.96223 48.3672 6.948C47.2892 6.948 46.2095 6.95156 45.1315 6.95334C44.7793 6.97291 44.4271 6.9907 44.0748 7.01026C44.0037 7.01204 43.9343 7.0156 43.8632 7.01738C43.6977 7.03517 43.5323 7.05296 43.3668 7.07074C43.2512 7.07786 43.1356 7.08675 43.02 7.09387C42.666 7.12945 42.3102 7.1668 41.9562 7.20238C41.9117 7.21127 41.8673 7.22195 41.8246 7.23084C41.7285 7.24685 41.6325 7.26108 41.5364 7.27709C41.4688 7.28954 41.4012 7.30022 41.3336 7.31267C41.2838 7.32512 41.2358 7.33579 41.186 7.34825C41.1166 7.35714 41.0472 7.36603 40.9778 7.37671C40.7662 7.43719 40.5527 7.49767 40.341 7.55815C40.2965 7.56883 40.2503 7.5795 40.2058 7.59017C40.0866 7.62931 39.9692 7.66844 39.85 7.7058C39.8056 7.71647 39.7593 7.72714 39.7148 7.73782C39.4071 7.84099 39.0994 7.94594 38.7916 8.04912C38.7471 8.06157 38.7009 8.07224 38.6564 8.08469C38.5426 8.13095 38.4305 8.17898 38.3167 8.22523C38.2864 8.23768 38.2544 8.25013 38.2242 8.26258C37.8666 8.40133 37.5073 8.53297 37.1568 8.68595C37.0928 8.71263 37.0199 8.8247 37.027 8.89052C37.0519 9.18581 37.6781 9.76216 37.9751 9.8013C38.3345 9.84932 38.6991 9.8849 39.0496 9.97207C39.9301 10.1873 40.7306 10.5573 41.3194 11.2813C41.5809 11.6051 41.668 11.614 42.0576 11.4485C42.9079 11.0892 43.7564 10.7103 44.6316 10.4203C46.4888 9.80841 48.4099 9.51668 50.3578 9.3886C52.1758 9.26942 53.9884 9.28187 55.7957 9.53447C56.0501 9.57004 56.3027 9.62341 56.5571 9.65009C56.6229 9.65721 56.7119 9.61096 56.7563 9.55937C56.7777 9.53269 56.7385 9.4224 56.6959 9.38148C56.1248 8.80513 55.5022 8.30349 54.7106 8.05445C54.6822 8.04022 54.6519 8.02599 54.6235 8.00998C54.5345 7.98152 54.4456 7.95484 54.3566 7.92638C54.3068 7.90503 54.2553 7.88368 54.2054 7.86234L53.0172 7.5208C52.9727 7.50834 52.9282 7.49411 52.8838 7.48166L52.3803 7.39094C52.2896 7.37315 52.2007 7.35714 52.11 7.33935C52.037 7.32512 51.9641 7.31267 51.8911 7.29844C51.8467 7.29132 51.8004 7.28243 51.756 7.27531L51.6065 7.24329C51.5158 7.23084 51.4233 7.21839 51.3326 7.20416L51.329 7.20594ZM36.7424 1.13113C36.6979 1.14536 36.6516 1.15959 36.6072 1.17382C36.4222 1.2432 36.2372 1.31435 36.0522 1.38373C36.0024 1.40329 35.9508 1.42464 35.901 1.44421C35.7871 1.49402 35.6751 1.54382 35.5612 1.59363C35.4118 1.65411 35.2641 1.71637 35.1147 1.77685C34.9582 1.85868 34.8016 1.94051 34.6469 2.02234C34.4957 2.10239 34.3445 2.18243 34.1933 2.26248L34.0207 2.3959C33.8695 2.49551 33.7201 2.59691 33.5689 2.69653L33.391 2.82282C33.3003 2.89576 33.2078 2.96869 33.0868 3.06653C33.2042 3.16081 33.2807 3.22307 33.359 3.28355C33.4248 3.33869 33.4924 3.39384 33.5582 3.44898C33.6347 3.50946 33.713 3.56817 33.7895 3.62865C33.8535 3.68557 33.9158 3.7425 33.9798 3.8012C34.2662 4.09649 34.5508 4.39356 34.8372 4.68885C35.0613 5.05707 35.3228 5.40751 35.5007 5.79708C35.8405 6.54064 36.1429 7.30378 36.44 8.06513C36.6018 8.4796 36.6285 8.50806 37.0305 8.33196C37.2565 8.23234 37.4842 8.14162 37.7118 8.04378C39.4818 7.28421 41.3176 6.763 43.2441 6.6705C44.9874 6.58689 46.7378 6.57088 48.4828 6.57978C49.3705 6.58512 50.2582 6.70074 51.1458 6.78613C51.5532 6.82526 51.6332 6.763 51.4962 6.38233C51.0569 5.16914 50.3578 4.12851 49.3812 3.28177C48.369 2.40301 47.2074 1.76796 45.9675 1.27877C45.441 1.07065 44.8878 0.931895 44.3452 0.761124C44.3008 0.750451 44.2563 0.738 44.2118 0.727327C44.162 0.714875 44.1122 0.702423 44.0642 0.689971C43.9966 0.67574 43.929 0.661509 43.8614 0.645499C43.7902 0.62949 43.7191 0.6117 43.6479 0.59569C43.6017 0.588575 43.5554 0.58146 43.5092 0.574345C42.6731 0.366218 41.8246 0.318189 40.9689 0.396459C40.8053 0.396459 40.6416 0.396459 40.4762 0.396459C40.309 0.410689 40.1436 0.426699 39.9763 0.44093C39.8607 0.448046 39.7451 0.453382 39.6295 0.460498C39.5334 0.474729 39.4373 0.490738 39.3413 0.504969C39.295 0.510306 39.2506 0.515642 39.2043 0.520978C38.8752 0.586796 38.5461 0.652614 38.217 0.716653C38.1726 0.727326 38.1263 0.736221 38.0819 0.746894C37.7332 0.842953 37.3863 0.93901 37.0377 1.03507C36.9843 1.05286 36.9327 1.07065 36.8793 1.08666C36.8313 1.10089 36.7851 1.11512 36.737 1.12935L36.7424 1.13113ZM41.8459 15.4332C41.6698 14.4299 41.0508 13.7913 40.1169 13.5013C39.3502 13.263 38.5515 13.1064 37.7563 12.9748C35.5007 12.6012 33.2434 12.5692 31.0233 13.1794C29.8297 13.5067 28.6628 13.9407 27.487 14.3338C26.1297 14.7874 24.8187 15.3496 23.5806 16.0753C22.451 16.7371 21.309 17.3792 20.1723 18.0303C19.9304 18.1691 19.9161 18.3327 20.1687 18.5053C20.8856 18.9927 21.6096 19.4712 22.3425 19.9337C22.6449 20.124 22.9775 20.2663 23.296 20.43C23.3173 20.446 23.3404 20.462 23.3618 20.478C23.4098 20.5083 23.4596 20.5403 23.5076 20.5705C23.5966 20.6132 23.6838 20.6559 23.7727 20.7004C23.8261 20.7253 23.8776 20.7502 23.931 20.7751C24.0644 20.8462 24.1961 20.9156 24.3295 20.9868C24.4327 21.0312 24.5358 21.0739 24.639 21.1184C24.7955 21.1913 24.9521 21.2643 25.1086 21.3354C25.1638 21.355 25.2171 21.3728 25.2723 21.3924C25.3345 21.4208 25.395 21.4511 25.4573 21.4795C25.5124 21.5204 25.5605 21.5774 25.6209 21.5987C28.1434 22.4792 30.7014 23.1605 33.4106 23.0431C35.0525 22.972 36.6819 22.8403 38.2508 22.3067C39.1581 21.9989 39.9568 21.5044 40.6612 20.8551C40.6986 20.8196 40.7377 20.784 40.775 20.7484C40.9138 20.6114 41.0543 20.4745 41.1931 20.3375C41.2162 20.3268 41.2287 20.309 41.2304 20.2841C41.6912 19.6971 41.8922 19.0176 41.942 18.2847C41.9509 18.2331 41.9598 18.1797 41.9687 18.1281L41.9918 17.9965C41.9918 17.4557 41.9918 16.9132 41.9918 16.3724C41.9847 16.3048 41.9776 16.239 41.9704 16.1714C41.9295 15.9241 41.8886 15.6769 41.8459 15.4296V15.4332ZM41.9865 40.6147V40.6574C40.59 40.6112 39.1865 40.6467 37.8026 40.5009C36.0806 40.3194 34.3676 40.0277 32.6634 39.7146C30.9967 39.4069 29.3405 39.0422 27.6915 38.6455C26.304 38.3111 24.9307 37.9109 23.5592 37.5142C21.6825 36.9716 19.9179 36.1693 18.2707 35.1163C18.0448 34.9722 18.0199 34.6662 18.2564 34.547C18.4326 34.4581 18.6638 34.4118 18.8577 34.4385C19.6564 34.5488 20.448 34.7107 21.2449 34.8263C22.6947 35.0344 24.1463 35.2248 25.5978 35.4205C27.0725 35.6197 28.5454 35.8385 30.0218 36.0128C31.5463 36.1925 33.0726 36.365 34.6006 36.4753C36.7281 36.6301 38.8592 36.7759 40.9903 36.8275C42.4276 36.8631 43.872 36.7635 45.3094 36.6585C46.8036 36.55 48.3014 36.4237 49.7814 36.1996C51.9694 35.8705 54.1414 35.4311 56.3258 35.0736C57.5853 34.8672 58.7647 34.5043 59.7395 33.6487C60.1504 33.2876 60.5578 32.9123 60.8975 32.4889C61.2818 32.0086 61.2231 31.3522 60.8424 30.8683C60.5062 30.4379 59.8035 30.3044 59.1667 30.5161C57.6671 31.0124 56.1764 31.5461 54.6537 31.9606C53.3 32.3288 51.9178 32.6348 50.5303 32.8286C48.8849 33.0599 47.2216 33.2218 45.5602 33.268C43.3473 33.3285 41.1273 33.2912 38.9144 33.2164C37.2511 33.1613 35.5932 32.9905 33.9336 32.8571C32.5443 32.745 31.1514 32.649 29.7675 32.48C27.0583 32.1491 24.3508 31.7809 21.647 31.4073C20.1669 31.2028 18.6798 31.1423 17.1891 31.1796C16.5096 31.1974 15.8141 31.2348 15.2715 31.724C14.4906 32.4284 13.9196 34.0169 14.5689 35.3564C14.8019 35.8367 15.0776 36.3188 15.4263 36.719C16.4758 37.9251 17.7352 38.9017 19.0356 39.8196C20.2648 40.6859 21.6665 41.2089 23.0949 41.6322C25.0232 42.205 26.9569 42.7743 28.9136 43.2421C30.8615 43.7082 32.8324 44.0746 34.8034 44.4339C37.0643 44.8466 39.3413 45.1313 41.652 45.0654C43.7369 45.0067 45.827 45.0548 47.9101 44.9498C49.1677 44.8858 50.4236 44.6563 51.667 44.4339C52.85 44.224 54.0169 43.9412 55.1233 43.4307C56.107 42.9771 57.0997 42.5626 57.6902 41.5771C58.3858 40.419 59.0297 39.2219 58.8127 37.8184C58.6882 37.0072 58.3626 36.2281 58.1492 35.4293C58.0638 35.1091 57.9073 35.054 57.6137 35.1554C57.3167 35.2586 57.0089 35.3333 56.7012 35.3938C56.0572 35.5201 55.408 35.6197 54.7676 35.7584C54.6715 35.7798 54.5363 35.9506 54.5452 36.0413C54.5577 36.1907 54.6715 36.3312 54.7444 36.4753C55.086 37.1637 55.2621 37.8824 54.6857 38.5068C54.346 38.875 53.9119 39.213 53.453 39.3998C52.7094 39.7004 51.9143 39.8783 51.1351 40.0828C49.9219 40.3995 48.6928 40.6467 47.4333 40.661C46.8712 40.6681 46.3109 40.6201 45.7487 40.6165C44.4929 40.6094 43.237 40.6147 41.9811 40.6147H41.9865ZM49.7565 21.2643C50.436 21.2643 51.1156 21.2678 51.7951 21.2589C51.8858 21.2589 51.9748 21.1878 52.0655 21.1504C52.0174 21.0615 51.9765 20.969 51.9196 20.8872C51.8805 20.832 51.8111 20.7982 51.7613 20.7502C50.9501 19.9906 50.4538 19.0709 50.3827 17.952C50.1763 14.711 53.3658 12.4607 56.3258 13.7913C57.8236 14.4655 58.6419 15.6875 58.77 17.3383C58.8447 18.3025 58.6437 19.2026 58.0585 19.9959C58.0122 20.06 58.0211 20.1632 58.0051 20.2485C58.0923 20.2592 58.1848 20.2912 58.2666 20.2752C58.4142 20.245 58.5548 20.1792 58.7006 20.1365C60.6396 19.569 61.7585 17.9716 61.6144 15.9526C61.5432 14.9582 60.7943 13.512 59.3962 13.279C58.7967 13.1794 58.2043 13.0121 57.6013 12.9481C55.4667 12.7204 53.332 12.5728 51.1832 12.8503C49.4417 13.0744 47.7322 13.4213 46.0992 14.0528C44.934 14.5046 43.8311 15.1094 42.6838 15.6111C42.3476 15.7587 42.2817 15.9348 42.3227 16.2781C42.4507 17.3721 42.392 18.4572 42.0167 19.505C41.9011 19.827 42.0754 19.9123 42.3227 19.9995C44.7312 20.832 47.1878 21.3977 49.7583 21.2625L49.7565 21.2643ZM16.965 17.936C16.933 18.2562 17.0806 18.4857 17.3688 18.5569C17.6125 18.6173 17.8918 18.6351 18.1337 18.5782C18.7581 18.4288 19.3896 18.3274 19.9108 17.8542C20.3021 17.5002 20.8198 17.2832 21.2841 17.011C23.3066 15.8227 25.3541 14.6985 27.5919 13.9425C29.3138 13.3608 31.0216 12.7364 32.8342 12.5069C35.2037 12.2081 37.5411 12.4874 39.8411 13.0726C40.4744 13.2327 41.0614 13.5547 41.5204 14.0581C41.5844 14.1275 41.6823 14.1648 41.7641 14.2182C41.7997 14.115 41.8797 14.0047 41.8619 13.9122C41.773 13.4088 41.7214 12.8858 41.5417 12.4127C40.9867 10.9451 39.7291 10.3776 38.3167 10.2264C37.0181 10.0877 35.6964 10.1553 34.3854 10.1464C32.6172 10.1339 30.8775 10.3456 29.1875 10.8917C27.6488 11.388 26.1155 11.9021 24.6924 12.6919C23.5148 13.3448 22.3087 13.9443 21.2467 14.7892C20.263 15.5719 19.1939 16.2159 18.0359 16.7193C17.5129 16.947 17.0059 17.2565 16.9597 17.936H16.965ZM52.1206 9.62163C50.8968 9.73548 49.6711 9.82798 48.4491 9.96673C46.2397 10.2175 44.1318 10.8295 42.1288 11.8007C41.8619 11.9306 41.805 12.0516 41.9028 12.3415C42.1892 13.1936 42.3369 14.0634 42.1252 14.9653C42.0985 15.0792 42.1572 15.2571 42.2426 15.3371C42.2942 15.3851 42.481 15.3264 42.5877 15.2748C43.4078 14.8746 44.2029 14.4157 45.0425 14.0652C47.2964 13.1242 49.6516 12.5301 52.0904 12.4038C54.5416 12.2775 56.9929 12.3468 59.3997 12.9303C59.7377 13.0121 59.8533 12.9179 59.8195 12.5639C59.7662 11.984 59.5634 11.4752 59.0831 11.1016C58.4783 10.6302 57.7685 10.3741 57.0481 10.1766C55.4382 9.7337 53.7856 9.67855 52.1206 9.62163ZM26.489 36.1124C26.4819 36.1516 26.4748 36.1889 26.4694 36.2281C26.5495 36.2618 26.6278 36.301 26.7096 36.3294C27.2699 36.5216 27.8338 36.7083 28.3924 36.904C28.7428 37.0268 29.0862 37.1726 29.4401 37.2918C30.0112 37.4857 30.5911 37.6547 31.1621 37.8539C32.2579 38.2346 33.3359 38.6722 34.4459 39.0013C35.627 39.35 36.8295 39.6435 38.0374 39.8783C38.861 40.0384 39.7095 40.0793 40.5509 40.1273C41.8281 40.2002 43.0982 40.1611 44.299 39.6417C44.7508 39.446 45.2062 39.2432 45.6296 38.996C46.1276 38.7042 46.4887 38.2542 46.7663 37.7561C46.8587 37.5889 46.8676 37.3559 46.8463 37.1602C46.841 37.1121 46.5599 37.0623 46.4087 37.0712C45.1937 37.1353 43.9788 37.2118 42.7638 37.2847C42.6233 37.2936 42.4828 37.3132 42.344 37.3149C41.3816 37.3221 40.4193 37.3594 39.4587 37.3185C38.3362 37.2705 37.2173 37.1548 36.0984 37.0606C34.8728 36.9574 33.6489 36.8542 32.4251 36.7368C31.4236 36.6407 30.4221 36.534 29.4224 36.4184C28.6325 36.3277 27.8445 36.212 27.0547 36.1178C26.8697 36.0964 26.6776 36.1142 26.4908 36.1142L26.489 36.1124ZM52.3768 15.7836C52.4017 16.488 52.8464 16.9025 53.5419 16.874C54.056 16.8527 54.4278 16.4293 54.4154 15.8797C54.4047 15.3745 53.7892 14.8906 53.1897 14.9173C52.713 14.9386 52.359 15.3158 52.375 15.7836H52.3768ZM57.1157 16.5876C56.4255 16.5485 55.995 17.084 56.0288 17.4824C56.0768 18.0481 56.4184 18.3096 57.0908 18.2722C57.5871 18.2438 57.877 17.8079 57.829 17.1587C57.7987 16.7424 57.571 16.561 57.1157 16.5894V16.5876ZM53.9955 20.8213C54.5043 20.816 54.7053 20.6719 54.7053 20.3144C54.7053 19.7273 54.3513 19.3182 53.8497 19.3235C53.4868 19.3289 53.2644 19.6259 53.2733 20.0902C53.2858 20.6772 53.4352 20.8285 53.9955 20.8213Z" fill="#1C180C"/>
<path d="M57.2759 24.2168C57.331 24.1599 57.3844 24.103 57.4395 24.0479C57.3844 24.1048 57.331 24.1617 57.2759 24.2168Z" fill="#F8BE67"/>
<path d="M21.1274 8.0243C21.6593 7.81795 22.1876 7.59915 22.7248 7.40704C25.2881 6.48736 27.9333 6.5603 30.5874 6.7702C31.998 6.88227 33.3837 7.12953 34.6681 7.74502C35.4864 8.13815 36.3295 8.52772 36.8561 9.33354C36.9379 9.45806 36.993 9.60037 37.1069 9.82629C35.9204 9.82629 34.846 9.8423 33.7698 9.82273C32.0834 9.79249 30.454 10.0842 28.8708 10.6446C27.7341 11.0466 26.576 11.413 25.4874 11.9253C24.1977 12.5337 22.9525 13.247 21.7269 13.9799C20.9673 14.4353 20.2984 15.0366 19.5549 15.524C19.0781 15.8371 18.5445 16.063 18.034 16.3227C17.5234 16.5842 16.988 16.8154 16.7194 17.374C16.3102 18.2225 16.7194 18.9536 17.6444 18.9447C18.1247 18.9412 18.6245 18.8344 19.0799 18.6708C19.4926 18.5231 19.7755 18.6014 20.1028 18.8522C21.5241 19.9391 23.0646 20.8374 24.7011 21.549C27.4157 22.7301 30.2476 23.4541 33.229 23.3776C34.9136 23.335 36.6177 23.2567 38.2169 22.6448C38.9409 22.3673 39.608 21.9314 40.2822 21.5365C40.6415 21.3266 40.9635 21.0509 41.3032 20.8036C41.49 21.1416 41.3957 21.7251 41.1218 22.0488C40.4689 22.8226 39.6524 23.3421 38.6865 23.6285C36.8205 24.1835 34.91 24.4681 32.9657 24.4716C31.6529 24.4734 30.3383 24.4343 29.0309 24.3471C27.0546 24.2137 25.1868 23.6267 23.3883 22.8226C22.7906 22.5558 22.2321 22.2036 21.6575 21.887C21.5045 21.8016 21.364 21.6895 21.2039 21.6201C21.1398 21.5917 21.0384 21.6468 20.9548 21.6628C20.9744 21.7464 20.9744 21.8443 21.0207 21.9083C21.074 21.9795 21.1683 22.0222 21.2466 22.072C23.0254 23.182 24.943 23.938 26.9905 24.3916C28.3264 24.6869 29.6748 24.8221 31.0374 24.8292C32.0354 24.8345 33.0369 24.8737 34.0295 24.799C35.9364 24.6531 37.8345 24.4129 39.6186 23.6551C40.2644 23.3812 40.7998 22.9436 41.2872 22.4455C41.7657 21.9546 41.8013 21.3391 41.7586 20.7058C41.7337 20.3275 41.8908 20.2024 42.23 20.3305C44.9997 21.3764 47.8637 21.8194 50.8184 21.6735C52.9156 21.5685 55.0111 21.4369 57.0622 20.9602C57.9569 20.7521 58.8232 20.4123 59.6895 20.0921C59.9777 19.9854 60.2179 19.7541 60.4794 19.5762C60.611 19.4855 60.7373 19.3877 60.9436 19.2365C60.9436 19.5122 60.9721 19.7043 60.9383 19.884C60.7675 20.8019 60.152 21.3426 59.3498 21.718C57.8911 22.4011 56.3364 22.755 54.7532 22.9685C52.8445 23.2247 50.9215 23.3403 48.9968 23.1891C48.2995 23.1339 47.6129 22.9525 46.9155 22.8636C46.4317 22.8013 45.9354 22.8191 45.4515 22.7586C45.2594 22.7337 45.0691 22.6127 44.8983 22.5042C44.1761 22.0506 43.461 21.5846 42.7441 21.1238C42.7139 21.1043 42.6818 21.074 42.6516 21.074C42.5449 21.0776 42.4399 21.0936 42.3332 21.1043C42.3866 21.2039 42.415 21.3586 42.4968 21.396C43.8452 22.0239 44.9499 22.9881 46.0599 23.9487C46.9422 24.7118 47.6893 25.5959 48.3635 26.544C48.4044 26.6009 48.4347 26.6721 48.4863 26.7148C48.6268 26.8286 48.8901 27.0385 48.9061 27.0225C49.1071 26.8091 48.8812 26.6757 48.7673 26.5316C48.207 25.8271 47.6538 25.1138 47.065 24.4343C46.7448 24.0643 46.3534 23.7548 45.9959 23.4168C45.9158 23.3421 45.8464 23.2585 45.7717 23.1784C45.7824 23.15 45.7949 23.1197 45.8055 23.0913C45.9603 23.1001 46.1204 23.0824 46.2663 23.1197C48.2212 23.6214 50.2171 23.6338 52.2112 23.5573C53.9225 23.4915 55.6231 23.2958 57.2827 22.8422C57.3824 22.8155 57.498 22.8547 57.6065 22.8636C57.5834 22.9596 57.5816 23.0663 57.5371 23.1517C57.0728 24.0447 56.3435 24.5855 55.3722 24.8559C53.6681 25.3326 51.9533 25.6831 50.1708 25.5265C49.7048 25.4856 49.2387 25.434 48.7709 25.4091C48.6446 25.402 48.5147 25.4749 48.3867 25.5105C48.4952 25.5959 48.5948 25.7453 48.7104 25.7578C50.2402 25.9232 51.7736 26.037 53.2999 25.7257C54.4134 25.498 55.5288 25.265 56.5659 24.7652C56.6637 24.7189 56.8789 24.7936 56.9714 24.8843C57.7399 25.6243 58.222 26.5494 58.5938 27.5331C58.8588 28.2322 59.0687 28.9508 59.3178 29.6552C59.412 29.9203 59.3942 30.0679 59.0918 30.1853C56.9821 31.0161 54.8172 31.6458 52.5919 32.0958C50.3203 32.5566 48.0344 32.859 45.7219 32.9088C43.6264 32.955 41.5256 32.9372 39.4301 32.875C37.6868 32.8234 35.9417 32.7078 34.2038 32.5512C31.8806 32.3396 29.5645 32.0692 27.2467 31.8077C25.9196 31.6582 24.5962 31.4732 23.2709 31.306C21.9812 31.1424 20.6969 30.92 19.4019 30.84C18.3186 30.7742 17.2157 30.8079 16.1359 30.9289C15.3105 31.0214 14.7395 31.596 14.3802 32.352C13.7469 33.6861 13.8145 34.926 14.6452 36.2068C15.4991 37.5249 16.7105 38.4215 17.8721 39.4016C19.8199 41.0471 22.1787 41.7995 24.5588 42.4808C26.3608 42.9967 28.1824 43.4521 30.011 43.8595C32.9728 44.5212 35.9506 45.1064 38.98 45.3733C39.6098 45.4284 40.2466 45.4088 40.8799 45.4088C42.7815 45.4124 44.6831 45.4515 46.5829 45.3911C47.7729 45.3519 48.9594 45.1794 50.1424 45.0228C51.0923 44.8965 52.0351 44.7097 52.9797 44.5408C53.2269 44.4963 53.4689 44.4234 53.7126 44.3629C53.7375 44.3949 53.7624 44.4251 53.7891 44.4571C53.7037 44.5585 53.6272 44.6706 53.5311 44.7578C52.0458 46.099 50.2989 46.9956 48.456 47.7196C46.2983 48.5681 44.0747 49.1943 41.7729 49.486C40.0776 49.6995 38.3752 49.9183 36.6711 49.9823C34.846 50.0517 33.0102 49.9983 31.1851 49.8987C29.1145 49.7866 27.0403 49.6443 24.9857 49.3704C22.9792 49.1035 20.9851 48.7086 19.0088 48.2675C17.5359 47.9384 16.0861 47.4901 14.6506 47.0169C12.6547 46.3588 10.7264 45.5262 8.92085 44.434C8.55974 44.2152 8.19507 44.0035 7.8393 43.7776C7.73613 43.7118 7.65786 43.6086 7.56714 43.5232C7.81618 43.6442 8.07055 43.7527 8.3107 43.8879C9.14676 44.3558 9.97749 44.8343 10.8136 45.3021C10.8634 45.3306 10.9416 45.3057 11.059 45.3057C10.9808 45.1705 10.9292 45.0709 10.8687 44.9748C10.3137 44.0854 9.72311 43.2155 9.20902 42.303C8.67892 41.3602 8.20397 40.3836 7.74146 39.4052C7.06372 37.9732 6.55141 36.4772 6.30948 34.91C6.14405 33.8391 6.06222 32.7522 5.99284 31.6707C5.9626 31.21 6.05866 30.7404 6.10313 30.2761C6.16006 29.6784 6.17429 29.0718 6.29881 28.4901C6.45357 27.775 6.69905 27.0777 6.91251 26.3768C7.02458 26.0121 7.13131 25.6439 7.27896 25.2935C7.44973 24.8879 7.66319 24.5001 7.85531 24.1052C8.04387 23.7174 8.18796 23.2994 8.4281 22.9454C9.08095 21.983 9.73201 21.0118 10.4667 20.1117C11.0768 19.3645 11.8062 18.7153 12.4839 18.0251C12.5159 17.993 12.5728 17.9824 12.5995 17.9486C12.6974 17.8169 12.8397 17.6906 12.8681 17.543C12.966 17.0502 13.014 16.5486 13.0941 16.0541C13.4231 14.06 13.7505 12.0659 14.3535 10.1287C14.6595 9.14854 14.9654 8.16305 15.6111 7.34478C16.0434 6.79867 16.5842 6.33616 17.0004 5.77938C17.5928 4.98779 18.4466 4.53418 19.2027 3.96138C19.8644 3.45974 20.6115 3.06484 21.348 2.67171C21.9083 2.37286 22.5042 2.13449 23.0966 1.89968C23.4186 1.7716 23.7637 1.70045 24.1016 1.61862C24.6531 1.48699 25.2063 1.35001 25.7631 1.2504C26.3537 1.14545 26.9496 1.07963 27.5437 0.9978C27.4601 0.896405 27.3712 0.846597 27.2769 0.834145C26.0993 0.684721 24.9324 0.4677 23.7281 0.601115C22.4509 0.743424 21.2323 1.03338 20.0779 1.60439C19.7612 1.76093 19.4001 1.82319 19.0586 1.92814C19.4624 1.72713 19.8608 1.51545 20.27 1.32867C21.3569 0.834145 22.4989 0.506835 23.6889 0.448133C24.5748 0.403661 25.4678 0.455248 26.3537 0.52996C27.7199 0.645586 29.0469 0.983569 30.2565 1.62218C31.0588 2.04555 31.7899 2.60945 32.5299 3.14133C33.3784 3.75148 34.2234 4.39542 34.7766 5.29375C35.2338 6.03731 35.57 6.85915 35.9489 7.64896C35.9898 7.73435 35.972 7.84642 35.988 8.02786C35.6465 7.85709 35.3707 7.71834 35.095 7.57959C33.6773 6.86804 32.1563 6.52828 30.5892 6.44645C29.1038 6.36818 27.6131 6.35217 26.1278 6.37885C24.8292 6.40198 23.584 6.78088 22.3655 7.20602C21.2928 7.57959 20.2362 8.00118 19.1778 8.41565C18.7971 8.56507 18.4271 8.7483 18.0624 8.93508C17.9806 8.97599 17.9415 9.09695 17.8827 9.18234C17.9966 9.20191 18.13 9.2695 18.219 9.23215C18.7028 9.02402 19.1742 8.78743 19.6527 8.56507C19.7114 8.53839 19.7844 8.54017 19.8519 8.52772C19.683 8.63801 19.5211 8.76253 19.3432 8.85859C19.1297 8.97421 18.9038 9.06671 18.6832 9.16811C18.7882 9.25527 18.8665 9.26772 18.9447 9.27306C19.6794 9.32643 20.3732 9.16099 21.0705 8.93863C21.6112 8.76431 22.184 8.69493 22.739 8.55796C23.2425 8.43344 23.7334 8.25555 24.2422 8.15238C25.1209 7.97093 26.005 7.80728 26.8927 7.67386C27.6185 7.56535 28.3531 7.46218 29.086 7.45329C29.9256 7.44261 30.7688 7.50487 31.6049 7.5956C32.4249 7.68454 33.2379 7.85353 34.0544 7.97805C34.186 7.99762 34.3265 7.9656 34.4635 7.9567C34.4688 7.92291 34.4724 7.88733 34.4777 7.85353C34.3941 7.80016 34.3159 7.72367 34.2251 7.70055C33.3446 7.4693 32.473 7.15266 31.5764 7.04593C30.2565 6.88761 28.9206 6.87694 27.59 6.8129C25.6012 6.71506 23.7156 7.1829 21.8692 7.86776C21.6344 7.95493 21.3782 7.97983 21.1327 8.0332L21.1274 8.0243ZM29.8065 26.7557C29.8082 26.7237 29.81 26.6917 29.8118 26.6614C31.7757 26.7183 33.7342 26.6899 35.6127 26.0282C36.3278 25.7756 37.018 25.4554 37.7117 25.1458C37.7989 25.1067 37.8309 24.9484 37.8896 24.8452C37.7651 24.8452 37.6228 24.8043 37.5196 24.8505C37.2652 24.9662 37.0411 25.1583 36.7814 25.2543C35.3476 25.7809 33.8907 26.2505 32.3502 26.279C30.687 26.311 29.0202 26.2932 27.3587 26.2256C25.9926 26.1705 24.6193 26.1011 23.3118 25.6119C23.1944 25.5674 23.0272 25.6528 22.8849 25.6777C22.9774 25.7756 23.0521 25.9285 23.1642 25.9623C23.6356 26.1029 24.1105 26.2665 24.5944 26.3145C26.3306 26.4853 28.0703 26.6134 29.8082 26.7575L29.8065 26.7557ZM9.88855 33.7502C9.98994 34.2074 10.1643 35.0274 10.3582 35.8439C10.3777 35.9293 10.5076 35.9862 10.5876 36.0574C10.6143 35.9578 10.6784 35.851 10.6588 35.7603C10.5752 35.3725 10.4524 34.9918 10.3688 34.604C10.1678 33.6612 10.1643 32.7309 10.4756 31.8006C10.6766 31.2011 10.9363 30.6567 11.4024 30.2174C11.4575 30.1658 11.4397 30.0377 11.4557 29.9434C11.3614 29.9541 11.2423 29.9328 11.1764 29.9808C11.0484 30.0768 10.9399 30.2067 10.8385 30.3348C10.1394 31.2242 9.93836 32.2702 9.88855 33.7484V33.7502Z" fill="#8FC891"/>
<path d="M41.9865 40.6146C43.2424 40.6146 44.4983 40.6093 45.7542 40.6164C46.3163 40.6199 46.8784 40.668 47.4387 40.6608C48.7 40.6448 49.9274 40.3993 51.1406 40.0827C51.9197 39.8781 52.7148 39.7003 53.4584 39.3996C53.9174 39.2146 54.3514 38.8749 54.6912 38.5066C55.2675 37.8823 55.0932 37.1654 54.7499 36.4752C54.6787 36.3311 54.5631 36.1906 54.5506 36.0411C54.5435 35.9504 54.6787 35.7796 54.773 35.7583C55.4152 35.6213 56.0644 35.5217 56.7066 35.3936C57.0144 35.3332 57.3221 35.2567 57.6192 35.1553C57.9127 35.0539 58.0692 35.109 58.1546 35.4292C58.3681 36.2279 58.6936 37.0071 58.8181 37.8182C59.0334 39.2217 58.3894 40.4189 57.6957 41.577C57.1051 42.5607 56.1107 42.9769 55.1288 43.4305C54.0223 43.9411 52.8554 44.2221 51.6724 44.4338C50.4272 44.6562 49.1731 44.8856 47.9155 44.9497C45.8324 45.0546 43.7423 45.0066 41.6574 45.0653C39.3467 45.1311 37.0698 44.8465 34.8088 44.4338C32.8379 44.0745 30.8651 43.708 28.919 43.242C26.9623 42.7741 25.0304 42.2049 23.1004 41.6321C21.6719 41.2087 20.2702 40.6857 19.041 39.8194C17.7407 38.9033 16.4812 37.925 15.4317 36.7189C15.083 36.3186 14.8073 35.8366 14.5743 35.3563C13.9268 34.0168 14.4978 32.4283 15.2769 31.7238C15.8177 31.2347 16.5132 31.1973 17.1946 31.1795C18.6852 31.1404 20.1706 31.2026 21.6524 31.4072C24.3562 31.7808 27.0637 32.1472 29.7729 32.4799C31.1568 32.6489 32.5479 32.7449 33.939 32.857C35.5986 32.9904 37.2565 33.1612 38.9198 33.2163C41.1345 33.291 43.3527 33.3284 45.5656 33.2679C47.2253 33.2216 48.8903 33.0598 50.5357 32.8285C51.925 32.6346 53.3054 32.3287 54.6591 31.9604C56.1818 31.546 57.6708 31.0105 59.1721 30.516C59.8089 30.3061 60.5116 30.4377 60.8478 30.8682C61.2285 31.3538 61.2872 32.0102 60.9029 32.4888C60.5632 32.9121 60.154 33.2892 59.7449 33.6486C58.7701 34.5042 57.5889 34.8689 56.3313 35.0734C54.1468 35.431 51.9748 35.8704 49.7868 36.1995C48.3068 36.4218 46.809 36.5499 45.3148 36.6584C43.8775 36.7616 42.433 36.8612 40.9957 36.8274C38.8646 36.7758 36.7336 36.6299 34.606 36.4752C33.0762 36.3631 31.55 36.1923 30.0273 36.0127C28.549 35.8383 27.0779 35.6196 25.6032 35.4203C24.1517 35.2229 22.7001 35.0343 21.2504 34.8262C20.4516 34.7106 19.6601 34.5505 18.8631 34.4384C18.6692 34.4117 18.438 34.458 18.2619 34.5469C18.0253 34.6661 18.0502 34.972 18.2761 35.1161C19.9233 36.1692 21.6862 36.9715 23.5647 37.514C24.9362 37.9107 26.3094 38.311 27.6969 38.6454C29.3442 39.0421 31.0021 39.4067 32.6689 39.7145C34.373 40.0293 36.0861 40.3211 37.808 40.5007C39.1919 40.6466 40.5955 40.6128 41.9901 40.6573V40.6146H41.9865Z" fill="#E95859"/>
<path d="M19.0571 1.91895C19.3986 1.81399 19.7615 1.75173 20.0764 1.59519C21.2309 1.02418 22.4512 0.734224 23.7266 0.591915C24.9309 0.458501 26.0978 0.675521 27.2754 0.824946C27.3697 0.837398 27.4587 0.887207 27.5423 0.988602C26.9481 1.07043 26.3522 1.13625 25.7616 1.2412C25.2031 1.34082 24.6516 1.47779 24.1002 1.60942C23.7622 1.68947 23.4171 1.76241 23.0951 1.89048C22.5027 2.12529 21.9068 2.36188 21.3465 2.66251C20.61 3.05564 19.8629 3.45054 19.2012 3.95218C18.4452 4.52498 17.5913 4.97859 16.999 5.77018C16.5827 6.32696 16.0419 6.78947 15.6097 7.33558C14.9622 8.15385 14.658 9.13934 14.352 10.1195C13.749 12.0549 13.4199 14.0508 13.0926 16.0449C13.0107 16.5412 12.9627 17.0428 12.8667 17.5338C12.8382 17.6814 12.6941 17.8077 12.5981 17.9394C12.5714 17.9749 12.5144 17.9838 12.4824 18.0159C11.8047 18.7061 11.0753 19.3571 10.4652 20.1025C9.73053 21.0026 9.07946 21.9738 8.42662 22.9362C8.18647 23.2902 8.04239 23.7082 7.85383 24.096C7.66171 24.4927 7.44825 24.8787 7.27748 25.2843C7.12983 25.6347 7.02132 26.0029 6.91103 26.3676C6.69579 27.0703 6.45031 27.7658 6.29732 28.4809C6.17103 29.0644 6.15857 29.671 6.10165 30.2669C6.05718 30.7312 5.96112 31.2008 5.99136 31.6615C6.06074 32.7448 6.14256 33.8299 6.308 34.9008C6.5517 36.468 7.06223 37.964 7.73998 39.396C8.20248 40.3744 8.67744 41.3492 9.20754 42.2937C9.71985 43.2063 10.3104 44.0762 10.8672 44.9656C10.9259 45.0617 10.9793 45.1613 11.0576 45.2965C10.9419 45.2965 10.8619 45.3214 10.8121 45.2929C9.97601 44.8251 9.14528 44.3466 8.30922 43.8787C8.06907 43.7435 7.81469 43.635 7.56565 43.514C7.54431 43.5176 7.53008 43.5087 7.52296 43.4874C7.47671 43.4109 7.44647 43.313 7.38243 43.2597C6.9555 42.9181 6.52324 42.5819 6.08742 42.2528C5.14106 41.5377 4.31211 40.7034 3.55432 39.7927C3.29816 39.4849 3.01177 39.2039 2.73782 38.9104C2.70403 38.8534 2.66845 38.7983 2.63465 38.7414C2.59374 38.6026 2.57239 38.455 2.51013 38.3251C2.17392 37.6314 1.78613 36.9589 1.4944 36.2474C0.861125 34.7034 0.661892 33.0597 0.565834 31.4125C0.441314 29.2672 0.68146 27.1574 1.3343 25.0993C1.43036 24.7951 1.45704 24.4678 1.51575 24.1494C1.51041 24.1298 1.51575 24.1191 1.53531 24.1156C1.59224 24.0515 1.66873 23.9964 1.70253 23.9235C2.21128 22.8206 2.68624 21.6999 3.23057 20.613C3.56321 19.9477 3.9599 19.3038 4.40106 18.7043C4.96318 17.9447 5.5929 17.2367 6.20482 16.5163C6.94127 15.6482 7.8307 14.9598 8.85888 14.3016C8.82331 14.4795 8.79307 14.5862 8.78061 14.6947C8.68811 15.5877 8.5885 16.4807 8.52446 17.3755C8.51556 17.4964 8.68633 17.6316 8.7735 17.7597C8.87489 17.6387 9.04389 17.5285 9.06523 17.395C9.13639 16.9236 9.13461 16.4398 9.20043 15.9666C9.27514 15.4241 9.37475 14.8815 9.4975 14.3478C9.66827 13.6007 9.81413 12.8394 10.0738 12.1207C10.435 11.1246 10.8352 10.1373 11.4525 9.25852C11.5076 9.17848 11.4809 9.03973 11.4916 8.92944C11.4845 8.91165 11.4916 8.8992 11.5094 8.89208C11.7869 8.78713 11.8865 8.58256 11.8491 8.29794C11.8687 8.2677 11.8883 8.23746 11.9079 8.20722C12.317 7.82832 12.6479 7.39962 12.7813 6.84461L12.7848 6.84105C12.9823 6.65783 13.2064 6.49418 13.3719 6.28605C14.4908 4.87897 15.8747 3.79564 17.4312 2.91867C17.8973 2.65539 18.3811 2.4277 18.849 2.16799C18.9379 2.11996 18.9877 2.00255 19.0571 1.91895Z" fill="#C2EAA4"/>
<path d="M24.3295 20.9846C24.1961 20.9134 24.0645 20.8441 23.9311 20.7729C23.8777 20.748 23.8261 20.7231 23.7727 20.6982C23.6838 20.6555 23.5966 20.6128 23.5077 20.5683C23.4597 20.5381 23.4098 20.5061 23.3618 20.4758C23.3405 20.4598 23.3173 20.4438 23.296 20.4278C23.2604 20.3851 23.2337 20.3318 23.1893 20.3033C22.4777 19.8515 21.7626 19.4067 21.0529 18.9531C20.8358 18.8144 20.6259 18.6632 20.4285 18.4978C20.247 18.3465 20.1812 18.206 20.4658 18.0495C21.446 17.5069 22.4368 16.9768 23.3814 16.3756C24.9486 15.3794 26.6776 14.7657 28.4049 14.1467C29.216 13.8567 30.0379 13.581 30.8739 13.3729C31.7545 13.1558 32.651 12.937 33.5494 12.8837C34.5597 12.825 35.5844 12.905 36.5948 13.0082C37.6087 13.1114 38.6209 13.2786 39.6188 13.4885C40.5883 13.6913 41.3301 14.2214 41.6503 15.2211C41.677 15.3029 41.7784 15.3616 41.8442 15.431C41.8851 15.6783 41.926 15.9255 41.9687 16.1728C41.9758 16.2386 41.9829 16.3062 41.99 16.3738C41.99 16.9146 41.99 17.4571 41.99 17.9979C41.9829 18.0406 41.974 18.0851 41.9669 18.1295C41.958 18.1811 41.9491 18.2345 41.9402 18.2861C41.8958 18.359 41.8371 18.4284 41.8104 18.5084C41.6823 18.8944 41.5631 19.284 41.4386 19.67C41.3728 19.8764 41.2981 20.0809 41.2287 20.2855C41.2269 20.3104 41.2127 20.3282 41.1913 20.3371C40.9227 20.3424 40.7822 20.4776 40.7733 20.748C40.736 20.7836 40.6968 20.8192 40.6595 20.8547C40.5581 20.8957 40.4389 20.917 40.3571 20.9828C39.3449 21.7744 38.2064 22.3276 36.9505 22.5358C35.7889 22.7279 34.6024 22.7777 33.4248 22.8595C31.3738 23 29.3922 22.6176 27.439 22.0306C26.7808 21.8331 26.1155 21.6623 25.4555 21.4791C25.3933 21.4507 25.3328 21.4204 25.2705 21.392C25.2154 21.3724 25.162 21.3546 25.1069 21.335C24.9503 21.2621 24.7938 21.1892 24.6373 21.118C24.5341 21.0735 24.4309 21.0308 24.3277 20.9864L24.3295 20.9846ZM34.9582 22.2832C37.301 22.2832 39.1439 20.4118 39.1421 18.037C39.1403 15.8063 37.2476 13.9279 35.0667 13.8763C32.5514 13.8176 30.7512 15.8935 30.7121 18.0139C30.6676 20.4296 32.7987 22.4024 34.9582 22.2832Z" fill="#CFCECE"/>
<path d="M49.7566 21.2641C47.1862 21.3993 44.7296 20.8336 42.321 20.0011C42.0737 19.9157 41.8994 19.8303 42.015 19.5066C42.3904 18.4588 42.4473 17.3737 42.321 16.2797C42.2819 15.9364 42.3459 15.7603 42.6821 15.6126C43.8277 15.111 44.9324 14.5062 46.0975 14.0544C47.7305 13.4229 49.44 13.076 51.1815 12.8518C53.3304 12.5743 55.465 12.722 57.5996 12.9497C58.2027 13.0137 58.7933 13.1809 59.3945 13.2806C60.7927 13.5136 61.5416 14.9598 61.6128 15.9542C61.7586 17.9732 60.6397 19.5706 58.699 20.1381C58.5531 20.1808 58.4126 20.2466 58.2649 20.2768C58.1831 20.2946 58.0906 20.2608 58.0034 20.2501C58.0195 20.1647 58.0106 20.0598 58.0568 19.9975C58.6421 19.2042 58.8431 18.3041 58.7684 17.3399C58.6403 15.6909 57.822 14.4671 56.3242 13.7929C53.3642 12.4605 50.1747 14.7125 50.381 17.9536C50.4522 19.0725 50.9485 19.9922 51.7596 20.7518C51.8112 20.7998 51.8788 20.8336 51.918 20.8887C51.9767 20.9688 52.0158 21.0631 52.0638 21.152C51.9731 21.1894 51.8842 21.2587 51.7934 21.2605C51.1139 21.2694 50.4344 21.2659 49.7549 21.2659L49.7566 21.2641Z" fill="#CFCECE"/>
<path d="M44.3505 0.763184C44.8913 0.933954 45.4463 1.07271 45.9729 1.28083C47.2127 1.77002 48.3725 2.40507 49.3865 3.28383C50.3631 4.13057 51.0622 5.1712 51.5016 6.38438C51.6403 6.76506 51.5585 6.82732 51.1511 6.78819C50.2653 6.7028 49.3776 6.58717 48.4882 6.58184C46.7413 6.57294 44.9927 6.58895 43.2494 6.67256C41.3229 6.76506 39.4854 7.28627 37.7172 8.04584C37.4913 8.14368 37.2618 8.2344 37.0359 8.33401C36.6338 8.51012 36.6072 8.48166 36.4453 8.06719C36.1482 7.30405 35.8458 6.5427 35.506 5.79914C35.3282 5.40957 35.0667 5.05913 34.8425 4.69091C34.9759 4.66067 35.1307 4.66423 35.2392 4.59485C36.0593 4.06475 36.8491 3.48662 37.6905 2.99388C38.2775 2.65056 38.9161 2.37661 39.5583 2.14892C40.3107 1.88209 41.097 1.71132 41.8637 1.48184C42.6677 1.23992 43.4664 0.983763 44.3221 1.00689C44.3399 1.00689 44.3577 0.981984 44.3861 0.960637C44.3754 0.898377 44.3648 0.83078 44.3541 0.763184H44.3505Z" fill="#8FC891"/>
<path d="M16.9651 17.9361C17.0096 17.2566 17.5183 16.9471 18.0413 16.7194C19.1993 16.2142 20.2684 15.5702 21.2521 14.7893C22.3159 13.9444 23.522 13.3449 24.6978 12.692C26.1209 11.9022 27.6543 11.3881 29.193 10.8918C30.8829 10.3457 32.6226 10.1358 34.3908 10.1465C35.7018 10.1554 37.0235 10.0878 38.3221 10.2265C39.7345 10.3777 40.9904 10.9452 41.5472 12.4128C41.7268 12.8859 41.7766 13.4089 41.8674 13.9123C41.8834 14.0048 41.8033 14.1169 41.7695 14.2183C41.6877 14.1667 41.5881 14.1276 41.5258 14.0582C41.0687 13.5548 40.4799 13.2328 39.8466 13.0727C37.5465 12.4875 35.2109 12.2082 32.8396 12.507C31.0288 12.7365 29.3193 13.3609 27.5973 13.9426C25.3595 14.6986 23.3103 15.8228 21.2895 17.0111C20.8252 17.2833 20.3076 17.5003 19.9162 17.8543C19.3932 18.3275 18.7617 18.4289 18.1391 18.5783C17.8972 18.6352 17.6179 18.6174 17.3742 18.5569C17.0861 18.4858 16.9384 18.2563 16.9704 17.9361H16.9651ZM32.9731 11.4593C32.9695 11.4166 32.9677 11.3721 32.9642 11.3294C32.8592 11.2992 32.7489 11.2316 32.6475 11.244C32.1494 11.3081 31.6407 11.3472 31.1586 11.4788C29.7604 11.8631 28.3498 12.2278 26.9872 12.7169C25.7562 13.1581 24.5786 13.7487 23.3832 14.2895C23.2943 14.3304 23.2623 14.4958 23.2036 14.6043C23.3156 14.6132 23.4455 14.6612 23.538 14.6221C25.0358 13.9888 26.514 13.3004 28.0314 12.7187C28.9777 12.3558 29.9792 12.1317 30.9647 11.8862C31.5073 11.751 32.0747 11.7101 32.628 11.6123C32.7489 11.5909 32.8574 11.5109 32.9731 11.4575V11.4593ZM37.1107 11.0413C37.1054 11.075 37.1018 11.1071 37.0965 11.1409C36.7336 11.1409 36.3707 11.1266 36.0096 11.1498C35.9046 11.1569 35.8068 11.2761 35.7054 11.3419C35.8103 11.3863 35.9153 11.4735 36.0185 11.4717C37.2192 11.4486 38.4039 11.5376 39.5673 11.8577C39.6936 11.8915 39.8519 11.8044 39.996 11.7741C39.875 11.6745 39.7647 11.5126 39.6296 11.486C38.7935 11.3205 37.9521 11.1853 37.1107 11.0395V11.0413Z" fill="#8FC891"/>
<path d="M52.1207 9.62158C53.7857 9.67851 55.4383 9.73187 57.0482 10.1766C57.7704 10.3758 58.4784 10.6302 59.0832 11.1016C59.5617 11.4752 59.7663 11.9839 59.8196 12.5638C59.8534 12.9196 59.736 13.0121 59.3998 12.9303C56.993 12.345 54.5417 12.2756 52.0905 12.4037C49.6517 12.53 47.2964 13.1242 45.0426 14.0652C44.203 14.4156 43.4079 14.8746 42.5878 15.2748C42.4811 15.3264 42.2943 15.3851 42.2427 15.3371C42.1591 15.257 42.0986 15.0791 42.1253 14.9653C42.337 14.0634 42.1876 13.1935 41.9029 12.3415C41.8051 12.0515 41.862 11.9288 42.1288 11.8007C44.1318 10.8294 46.2398 10.2175 48.4491 9.96668C49.6712 9.82793 50.8969 9.73543 52.1207 9.62158ZM53.1916 11.203C53.1934 11.2279 53.1951 11.2546 53.1969 11.2795C53.7946 11.2795 54.3941 11.2884 54.9918 11.2724C55.1128 11.2688 55.2319 11.1674 55.3511 11.1123C55.2355 11.0393 55.1181 10.9024 55.006 10.9041C53.108 10.9504 51.2046 10.9344 49.3172 11.098C47.1203 11.2902 45.0319 11.9643 43.0485 12.9427C42.9329 12.9996 42.8013 13.037 42.707 13.1188C42.6323 13.1846 42.602 13.302 42.5522 13.3963C42.6554 13.4159 42.7586 13.4461 42.8617 13.4479C42.9133 13.4479 42.9667 13.4017 43.0183 13.375C44.7865 12.4838 46.6418 11.8238 48.6039 11.5694C50.123 11.3738 51.66 11.3186 53.1898 11.203H53.1916Z" fill="#8FC891"/>
<path d="M26.4891 36.1122C26.6777 36.1122 26.868 36.0927 27.053 36.1158C27.8428 36.2101 28.6291 36.3239 29.4207 36.4164C30.4204 36.532 31.4219 36.6388 32.4234 36.7348C33.6473 36.8522 34.8711 36.9554 36.0967 37.0586C37.2156 37.1529 38.3363 37.2667 39.457 37.3165C40.4176 37.3574 41.38 37.3183 42.3423 37.313C42.4829 37.313 42.6216 37.2916 42.7621 37.2827C43.9771 37.2098 45.1921 37.1333 46.407 37.0692C46.5582 37.0621 46.8393 37.1119 46.8446 37.1582C46.866 37.3539 46.8589 37.5887 46.7646 37.7541C46.4853 38.2522 46.126 38.7022 45.6279 38.994C45.2027 39.2412 44.7491 39.444 44.2973 39.6397C43.0966 40.1591 41.8265 40.2 40.5492 40.1253C39.7096 40.0773 38.8593 40.0346 38.0357 39.8763C36.8261 39.6415 35.6253 39.3497 34.4442 38.9993C33.3342 38.6702 32.2562 38.2326 31.1604 37.8519C30.5894 37.6545 30.0113 37.4837 29.4385 37.2898C29.0863 37.1706 28.7429 37.0248 28.3907 36.902C27.8304 36.7064 27.2683 36.5196 26.7079 36.3275C26.6261 36.299 26.5478 36.2599 26.4678 36.2261C26.4749 36.1869 26.482 36.1496 26.4873 36.1104L26.4891 36.1122Z" fill="#AD3A40"/>
<path d="M54.7071 8.0562C55.4987 8.30524 56.1195 8.80688 56.6923 9.38323C56.735 9.42592 56.7742 9.53621 56.7528 9.56111C56.7101 9.6127 56.6194 9.65895 56.5536 9.65184C56.2992 9.62515 56.0466 9.57179 55.7922 9.53621C53.9849 9.28361 52.1722 9.27116 50.3543 9.39034C48.4064 9.51842 46.4852 9.80838 44.6281 10.4221C43.7529 10.7103 42.9044 11.0892 42.0541 11.4503C41.6627 11.6157 41.5774 11.605 41.3159 11.2831C40.7288 10.5591 39.9266 10.1891 39.046 9.97381C38.6956 9.88842 38.3309 9.85107 37.9716 9.80304C37.6745 9.7639 37.0484 9.18755 37.0235 8.89226C37.0181 8.82645 37.0911 8.71438 37.1533 8.68769C37.5038 8.53649 37.8649 8.40308 38.2206 8.26432C38.3131 8.66101 38.4199 8.71438 38.8041 8.64678C39.4356 8.53471 40.0707 8.44933 40.7039 8.35149C41.5578 8.21985 42.4081 8.06331 43.2637 7.95836C44.4431 7.8125 45.626 7.62749 46.8108 7.59369C48.5274 7.54567 50.2511 7.49052 51.9588 7.78937C52.7966 7.93701 53.6363 8.07577 54.4705 8.23942C54.6627 8.27678 54.7018 8.2163 54.7071 8.05798V8.0562Z" fill="#8FC891"/>
<path d="M44.3507 0.76279C44.3613 0.830387 44.372 0.896205 44.3827 0.960244C44.3542 0.979811 44.3364 1.00649 44.3186 1.00649C43.4648 0.985148 42.6643 1.23952 41.8603 1.48145C41.0936 1.71092 40.3073 1.88347 39.5549 2.14852C38.9127 2.37622 38.2741 2.65016 37.687 2.99348C36.8456 3.48623 36.0558 4.06436 35.2358 4.59446C35.1273 4.66383 34.9725 4.66027 34.8391 4.69052C34.5527 4.39522 34.2681 4.09815 33.9817 3.80286C33.9176 3.74594 33.8536 3.68902 33.7913 3.63031C33.7149 3.56983 33.6366 3.51113 33.5601 3.45065C33.4943 3.3955 33.4267 3.34036 33.3591 3.28521C33.2826 3.22295 33.2043 3.16069 33.0869 3.06819C33.2079 2.97036 33.2986 2.89742 33.3911 2.82449C33.4498 2.7818 33.5085 2.74088 33.569 2.69819C33.7202 2.59857 33.8696 2.49718 34.0208 2.39756C34.0777 2.35309 34.1364 2.30862 34.1934 2.26415C34.3446 2.1841 34.4958 2.10405 34.647 2.024C34.8729 2.07559 35.0454 2.024 35.1148 1.77852C35.2642 1.71804 35.4119 1.65578 35.5613 1.5953C35.6752 1.54549 35.7872 1.49568 35.9011 1.44587C35.9509 1.42631 36.0025 1.40496 36.0523 1.38539C36.3049 1.49212 36.4668 1.36582 36.6073 1.17549C36.6518 1.16125 36.698 1.14702 36.7425 1.13279C36.7905 1.11856 36.8368 1.10433 36.8848 1.0901C36.9381 1.07231 36.9897 1.05452 37.0431 1.03851C37.4238 1.06342 37.7902 1.03496 38.0855 0.750338C38.13 0.739665 38.1762 0.730771 38.2207 0.720098C38.4644 0.816156 39.0479 0.700531 39.208 0.524423C39.2542 0.519087 39.2987 0.51375 39.3449 0.508413C39.4641 0.63827 39.5655 0.65428 39.6331 0.463941C39.7487 0.456826 39.8644 0.451489 39.98 0.444374C40.1579 0.567115 40.3304 0.613366 40.4799 0.399902C40.6435 0.399902 40.8072 0.399902 40.9726 0.399902C41.0438 0.442595 41.1131 0.517308 41.1878 0.524423C41.846 0.581347 42.5042 0.632934 43.1624 0.67029C43.2762 0.677405 43.3954 0.611587 43.511 0.577788C43.5573 0.584904 43.6035 0.59202 43.6498 0.599135C43.7209 0.615145 43.7921 0.632933 43.8633 0.648943C43.9309 0.663174 43.9984 0.677405 44.066 0.693415C44.1159 0.705867 44.1657 0.718319 44.2137 0.730771C44.2582 0.741444 44.3026 0.753896 44.3471 0.764569L44.3507 0.76279Z" fill="#C2EAA4"/>
<path d="M21.1275 8.02424C21.373 7.97087 21.6309 7.94597 21.8639 7.85881C23.7104 7.17394 25.596 6.7061 27.5847 6.80394C28.9153 6.86976 30.2512 6.88043 31.5712 7.03697C32.4677 7.14371 33.3393 7.46212 34.2199 7.69159C34.3106 7.71472 34.3889 7.79299 34.4725 7.84458C34.4671 7.87837 34.4636 7.91395 34.4583 7.94775C34.3213 7.95664 34.1825 7.99044 34.0491 7.9691C33.2326 7.84458 32.4197 7.67558 31.5996 7.58664C30.7636 7.49592 29.9204 7.43366 29.0808 7.44433C28.3479 7.45323 27.615 7.5564 26.8874 7.66491C25.9998 7.79655 25.1157 7.96198 24.2369 8.14342C23.7299 8.24838 23.239 8.42626 22.7338 8.54901C22.1806 8.6842 21.606 8.75535 21.0652 8.92968C20.3697 9.15382 19.6741 9.31747 18.9395 9.26411C18.8612 9.25877 18.7847 9.24632 18.678 9.15915C18.8986 9.05776 19.1245 8.96526 19.3379 8.84963C19.5158 8.75357 19.6777 8.63083 19.8467 8.51876C19.9018 8.4992 19.957 8.47785 20.0121 8.45828C20.3092 8.33732 20.6063 8.21636 20.9033 8.0954C20.9763 8.07049 21.0492 8.04737 21.1239 8.02246L21.1275 8.02424Z" fill="#C2EAA4"/>
<path d="M54.7072 8.05598C54.7018 8.21252 54.6627 8.27478 54.4706 8.23743C53.6363 8.07377 52.7967 7.93502 51.9588 7.78738C50.2529 7.48853 48.5274 7.54367 46.8108 7.5917C45.6261 7.6255 44.4432 7.8105 43.2638 7.95637C42.4064 8.0631 41.5561 8.21786 40.704 8.3495C40.0707 8.44733 39.4357 8.53272 38.8042 8.64479C38.4199 8.71238 38.3132 8.65902 38.2207 8.26233C38.2509 8.24988 38.283 8.23743 38.3132 8.22498C38.4271 8.17873 38.5391 8.1307 38.653 8.08445C38.6974 8.07199 38.7437 8.06132 38.7882 8.04887C39.0959 7.94569 39.4036 7.84074 39.7114 7.73757C39.7559 7.72689 39.8021 7.71622 39.8466 7.70555C39.9658 7.66641 40.0832 7.62728 40.2024 7.58992C40.2468 7.57925 40.2931 7.56858 40.3375 7.5579C40.6026 7.68598 40.7965 7.5579 40.9744 7.37646C41.0438 7.36756 41.1131 7.35867 41.1825 7.348C41.2323 7.33555 41.2803 7.32487 41.3302 7.31242C41.3978 7.29997 41.4653 7.28929 41.5329 7.27684C41.629 7.26083 41.7251 7.2466 41.8211 7.23059C41.8656 7.2217 41.9101 7.21103 41.9528 7.20213C42.3281 7.36045 42.6768 7.27151 43.0165 7.09362C43.1321 7.0865 43.2478 7.07761 43.3634 7.07049C43.5431 7.179 43.7156 7.22703 43.8597 7.01713C43.9308 7.01535 44.0002 7.01179 44.0714 7.01001C44.1265 7.05271 44.1888 7.13987 44.235 7.13275C44.5357 7.08472 44.8309 7.01535 45.1298 6.95309C46.2078 6.95309 47.2876 6.94953 48.3655 6.94775C48.6377 7.18612 48.9259 7.10607 49.2158 6.99045C49.3777 7.00468 49.5396 7.01891 49.7015 7.03492C49.8438 7.04737 49.9861 7.0616 50.1284 7.07405C50.2209 7.08473 50.3134 7.0954 50.4059 7.10607C50.5482 7.11675 50.6923 7.1292 50.8346 7.13987C50.9022 7.15054 50.9716 7.15944 51.0392 7.17011C51.1352 7.18256 51.2313 7.19324 51.3273 7.20569C51.4181 7.21814 51.5106 7.23059 51.6013 7.24482C51.6511 7.2555 51.7009 7.26617 51.7507 7.27684C51.7952 7.28396 51.8414 7.29285 51.8859 7.29997C51.9588 7.3142 52.0318 7.32665 52.1047 7.34088C52.1954 7.35867 52.2844 7.37468 52.3751 7.39247C52.5174 7.56146 52.6775 7.63439 52.8785 7.48319C52.923 7.49564 52.9675 7.50987 53.0119 7.52233C53.4086 7.63617 53.8053 7.75002 54.2002 7.86387C54.25 7.88521 54.3016 7.90656 54.3514 7.92791C54.4404 7.95637 54.5293 7.98305 54.6182 8.01151C54.6467 8.02574 54.6769 8.03997 54.7054 8.05598H54.7072Z" fill="#C2EAA4"/>
<path d="M11.4897 8.93112C11.4791 9.04141 11.5075 9.18016 11.4506 9.26021C10.8333 10.139 10.4331 11.1262 10.072 12.1224C9.81227 12.8411 9.6664 13.6024 9.49563 14.3495C9.37289 14.8832 9.27505 15.4257 9.19856 15.9683C9.13274 16.4415 9.13452 16.9253 9.06337 17.3967C9.0438 17.5301 8.87303 17.6404 8.77163 17.7614C8.68447 17.6333 8.5137 17.4981 8.52259 17.3771C8.58663 16.4824 8.68625 15.5894 8.77875 14.6964C8.78942 14.5879 8.82144 14.4812 8.85702 14.3033C7.82884 14.9615 6.9394 15.6499 6.20296 16.518C5.59103 17.2384 4.95953 17.9464 4.39919 18.706C3.95626 19.3037 3.56135 19.9494 3.2287 20.6147C2.68437 21.6998 2.20941 22.8205 1.70066 23.9251C1.66686 23.9998 1.59037 24.055 1.53345 24.1173C1.70422 23.5978 1.8234 23.0553 2.05287 22.5625C2.7573 21.0452 3.53289 19.5687 4.53261 18.2132C5.23348 17.2633 5.98949 16.365 6.85936 15.5752C7.49797 14.9953 8.21307 14.499 8.89437 13.9653C8.93351 13.992 8.97264 14.0169 9.01178 14.0436C8.99755 14.2214 8.98865 14.3993 8.96909 14.5754C8.86591 15.4578 8.75206 16.3401 8.66134 17.2242C8.65067 17.3309 8.75206 17.4501 8.80187 17.5621C8.85524 17.4483 8.94596 17.3362 8.95308 17.2188C9.09716 14.7818 9.62904 12.4426 10.707 10.2421C10.9312 9.78497 11.23 9.36338 11.4933 8.92578L11.4897 8.93112Z" fill="#8FC891"/>
<path d="M41.846 15.4328C41.7801 15.3634 41.6788 15.3047 41.6521 15.2229C41.3301 14.225 40.5883 13.6931 39.6206 13.4903C38.6227 13.2804 37.6105 13.1132 36.5965 13.01C35.5862 12.9068 34.5615 12.8268 33.5511 12.8855C32.6528 12.9389 31.7545 13.1559 30.8757 13.3747C30.0397 13.581 29.2178 13.8568 28.4067 14.1485C26.6794 14.7675 24.9486 15.3795 23.3832 16.3774C22.4386 16.9787 21.4478 17.5087 20.4676 18.0513C20.1848 18.2078 20.2488 18.3484 20.4303 18.4996C20.6277 18.665 20.8376 18.8162 21.0546 18.955C21.7644 19.4086 22.4795 19.8533 23.1911 20.3051C23.2355 20.3336 23.2622 20.3869 23.2978 20.4296C22.9794 20.266 22.6467 20.1237 22.3443 19.9333C21.6114 19.4708 20.8874 18.9923 20.1705 18.5049C19.9179 18.3324 19.9322 18.1687 20.1741 18.03C21.3108 17.3789 22.4528 16.7385 23.5824 16.075C24.8205 15.3492 26.1315 14.7871 27.4888 14.3335C28.6646 13.9404 29.8298 13.5063 31.0252 13.179C33.2452 12.5706 35.5025 12.6009 37.7581 12.9744C38.5533 13.1061 39.352 13.2626 40.1187 13.501C41.0508 13.7909 41.6716 14.4313 41.8477 15.4328H41.846Z" fill="#CFCECE"/>
<path d="M52.3766 15.7839C52.3588 15.3142 52.7146 14.9371 53.1913 14.9176C53.7908 14.8909 54.4063 15.3747 54.417 15.8799C54.4276 16.4296 54.0559 16.853 53.5435 16.8743C52.8462 16.9045 52.4033 16.4901 52.3784 15.7839H52.3766Z" fill="#CFCECE"/>
<path d="M57.1156 16.5876C57.5728 16.5592 57.7987 16.7388 57.8289 17.1569C57.8769 17.8079 57.5888 18.2437 57.0907 18.2704C56.4165 18.3078 56.075 18.0463 56.0287 17.4806C55.9949 17.0821 56.4254 16.5485 57.1156 16.5858V16.5876Z" fill="#CFCECE"/>
<path d="M25.4573 21.4794C26.119 21.6626 26.7843 21.8334 27.4407 22.0308C29.3939 22.6161 31.3755 23.0003 33.4266 22.8598C34.6042 22.7797 35.7907 22.7299 36.9523 22.536C38.2082 22.3279 39.3466 21.7747 40.3588 20.9831C40.4424 20.9172 40.5598 20.8959 40.6612 20.855C39.9568 21.5043 39.1581 21.9988 38.2508 22.3065C36.6819 22.8402 35.0507 22.9718 33.4106 23.043C30.7014 23.1604 28.1434 22.4791 25.6209 21.5985C25.5604 21.5772 25.5106 21.5203 25.4573 21.4794Z" fill="#CFCECE"/>
<path d="M1.51021 24.1548C1.45151 24.4714 1.42483 24.7987 1.32877 25.1047C0.675927 27.1611 0.43578 29.2726 0.560301 31.4179C0.656359 33.0651 0.855592 34.7088 1.48887 36.2528C1.7806 36.9644 2.16839 37.6368 2.5046 38.3305C2.56686 38.4586 2.58998 38.608 2.62912 38.7468C2.29647 38.1722 1.92824 37.6154 1.63829 37.0195C1.01391 35.7405 0.745302 34.3601 0.56208 32.9601C0.355732 31.3841 0.277462 29.7938 0.51405 28.2266C0.71684 26.8782 1.11886 25.5583 1.43372 24.2259C1.44084 24.1975 1.48175 24.1797 1.50843 24.1566L1.51021 24.1548Z" fill="#8FC891"/>
<path d="M53.9954 20.8211C53.4351 20.8282 53.2857 20.677 53.2732 20.09C53.2643 19.6257 53.4885 19.3287 53.8496 19.3233C54.3494 19.3162 54.7052 19.7271 54.7052 20.3142C54.7052 20.6717 54.5042 20.8158 53.9954 20.8211Z" fill="#CFCECE"/>
<path d="M19.0535 1.92072C18.9859 2.00611 18.9343 2.12174 18.8454 2.16977C18.3775 2.4277 17.8937 2.65717 17.4276 2.92044C15.8711 3.79742 14.4872 4.88075 13.3683 6.28783C13.2028 6.49595 12.9787 6.65961 12.7812 6.84283C13.1957 6.32696 13.5746 5.77374 14.0336 5.30056C14.9479 4.35776 15.9601 3.52348 17.1181 2.8902C17.7514 2.5451 18.4078 2.24092 19.0535 1.91895V1.92072Z" fill="#8FC891"/>
<path d="M2.73413 38.9141C3.0063 39.2076 3.29447 39.4886 3.55063 39.7964C4.30842 40.7072 5.13737 41.5397 6.08373 42.2565C6.51955 42.5874 6.95181 42.9218 7.37874 43.2634C7.44455 43.3167 7.47302 43.4146 7.51927 43.4911C7.0959 43.2136 6.63339 42.9823 6.25805 42.6515C5.4042 41.899 4.56992 41.1216 3.77476 40.3069C3.37452 39.896 3.07745 39.3837 2.73413 38.9158V38.9141Z" fill="#8FC891"/>
<path d="M43.5126 0.575815C43.3969 0.607834 43.2777 0.673652 43.1639 0.668315C42.5039 0.630959 41.8458 0.579372 41.1894 0.522449C41.1146 0.515333 41.0453 0.440622 40.9741 0.397929C41.8298 0.321438 42.6783 0.367688 43.5143 0.575815H43.5126Z" fill="#C2EAA4"/>
<path d="M41.2305 20.2861C41.2998 20.0815 41.3746 19.8769 41.4404 19.6706C41.5649 19.2828 41.6841 18.895 41.8122 18.509C41.8388 18.4289 41.8975 18.3613 41.942 18.2866C41.8922 19.0195 41.6912 19.699 41.2305 20.2861Z" fill="#CFCECE"/>
<path d="M12.7775 6.84814C12.6441 7.40315 12.3132 7.83186 11.9041 8.21075C12.1958 7.75714 12.4857 7.30353 12.7775 6.84814Z" fill="#8FC891"/>
<path d="M54.2 7.86449C53.8033 7.75064 53.4066 7.6368 53.0117 7.52295C53.4084 7.6368 53.8051 7.75064 54.2 7.86449Z" fill="#8FC891"/>
<path d="M45.1297 6.95312C44.8326 7.01539 44.5356 7.08476 44.2349 7.13279C44.1887 7.1399 44.1264 7.05274 44.0713 7.01005C44.4235 6.99048 44.7757 6.97269 45.1279 6.95312H45.1297Z" fill="#8FC891"/>
<path d="M43.0183 7.09375C42.6786 7.27164 42.3282 7.36058 41.9546 7.20226C42.3086 7.16668 42.6644 7.12933 43.0183 7.09375Z" fill="#8FC891"/>
<path d="M39.2097 0.520996C39.0496 0.697103 38.4661 0.814508 38.2224 0.716671C38.5515 0.650853 38.8806 0.585035 39.2097 0.520996Z" fill="#C2EAA4"/>
<path d="M38.0871 0.746582C37.7918 1.0312 37.4254 1.06144 37.0447 1.03476C37.3916 0.938698 37.7402 0.842641 38.0871 0.746582Z" fill="#C2EAA4"/>
<path d="M49.2158 6.99045C48.9258 7.10607 48.6376 7.18612 48.3655 6.94775C48.6483 6.96198 48.9312 6.97622 49.2158 6.99045Z" fill="#8FC891"/>
<path d="M11.8471 8.2998C11.8862 8.58442 11.7848 8.78899 11.5073 8.89394C11.6212 8.69649 11.7332 8.49726 11.8471 8.2998Z" fill="#8FC891"/>
<path d="M40.9742 7.37646C40.7963 7.55791 40.6025 7.68421 40.3374 7.55791C40.5491 7.49743 40.7626 7.43695 40.9742 7.37646Z" fill="#8FC891"/>
<path d="M40.7749 20.7483C40.7838 20.4779 40.9243 20.3427 41.1929 20.3374C41.0542 20.4744 40.9137 20.6113 40.7749 20.7483Z" fill="#CFCECE"/>
<path d="M36.6073 1.17383C36.4685 1.36417 36.3048 1.49047 36.0522 1.38373C36.2372 1.31436 36.4223 1.2432 36.6073 1.17383Z" fill="#C2EAA4"/>
<path d="M40.4815 0.396484C40.3321 0.609948 40.1614 0.563697 39.9817 0.440956C40.1489 0.426725 40.3143 0.410715 40.4815 0.396484Z" fill="#C2EAA4"/>
<path d="M43.8615 7.01758C43.7174 7.22748 43.5449 7.17945 43.3652 7.07094C43.5307 7.05315 43.6961 7.03537 43.8615 7.01758Z" fill="#8FC891"/>
<path d="M52.8784 7.48525C52.6774 7.63646 52.5191 7.56174 52.375 7.39453C52.5422 7.42477 52.7094 7.45501 52.8784 7.48525Z" fill="#8FC891"/>
<path d="M35.1165 1.77686C35.0471 2.02234 34.8746 2.07392 34.6487 2.02234C34.8052 1.94051 34.9618 1.85868 35.1165 1.77686Z" fill="#C2EAA4"/>
<path d="M40.2005 7.58984C40.0813 7.62898 39.9639 7.66811 39.8447 7.70547C39.9639 7.66634 40.0813 7.6272 40.2005 7.58984Z" fill="#8FC891"/>
<path d="M39.6349 0.460449C39.5655 0.650787 39.4659 0.634778 39.3467 0.504921C39.4427 0.49069 39.5388 0.47468 39.6349 0.460449Z" fill="#C2EAA4"/>
<path d="M33.7913 3.63037C33.8553 3.68729 33.9193 3.74422 33.9816 3.80292C33.9176 3.746 33.8535 3.68907 33.7913 3.63037Z" fill="#8FC891"/>
<path d="M25.1086 21.3354C25.1638 21.355 25.2172 21.3746 25.2723 21.3924C25.2172 21.3728 25.1638 21.3532 25.1086 21.3354Z" fill="#8FC891"/>
<path d="M44.2155 0.72925C44.1657 0.716798 44.1159 0.704347 44.0679 0.691895C44.1177 0.704347 44.1675 0.716798 44.2155 0.72925Z" fill="#8FC891"/>
<path d="M33.5707 2.69629C33.512 2.73898 33.4533 2.7799 33.3928 2.82259C33.4515 2.7799 33.5102 2.73898 33.5707 2.69629Z" fill="#8FC891"/>
<path d="M29.8066 26.7556C28.0687 26.6115 26.329 26.4834 24.5928 26.3127C24.1089 26.2646 23.634 26.101 23.1626 25.9604C23.0505 25.9266 22.9758 25.7737 22.8833 25.6758C23.0274 25.6509 23.1928 25.5673 23.3102 25.61C24.6177 26.0992 25.991 26.1686 27.3571 26.2237C29.0186 26.2895 30.6854 26.3073 32.3486 26.2771C33.8891 26.2486 35.346 25.7772 36.7798 25.2525C37.0395 25.1564 37.2636 24.9643 37.518 24.8487C37.6212 24.8024 37.7635 24.8415 37.888 24.8433C37.8311 24.9465 37.7973 25.1048 37.7101 25.144C37.0164 25.4535 36.3262 25.7737 35.6111 26.0263C33.7308 26.6898 31.774 26.7165 29.8102 26.6595C29.8084 26.6916 29.8066 26.7236 29.8048 26.7538L29.8066 26.7556Z" fill="#1C180C"/>
<path d="M9.88867 33.7503C9.93848 32.2721 10.1395 31.2261 10.8386 30.3367C10.94 30.2086 11.0485 30.0787 11.1766 29.9827C11.2424 29.9329 11.3616 29.9542 11.4558 29.9453C11.4398 30.0378 11.4558 30.1677 11.4025 30.2193C10.9364 30.6586 10.6767 31.203 10.4757 31.8024C10.1644 32.7328 10.168 33.6649 10.369 34.6059C10.4526 34.9937 10.5753 35.3744 10.6589 35.7622C10.6785 35.8511 10.6144 35.9596 10.5878 36.0593C10.5095 35.9881 10.3796 35.9294 10.3583 35.8458C10.1644 35.0293 9.98829 34.2075 9.88867 33.7521V33.7503Z" fill="#1C180C"/>
<path d="M34.958 22.2836C32.7985 22.4028 30.6674 20.43 30.7119 18.0143C30.751 15.8939 32.5512 13.818 35.0665 13.8767C37.2456 13.9283 39.1383 15.8068 39.1419 18.0375C39.1437 20.4122 37.3008 22.2836 34.958 22.2836ZM32.7362 16.2052C32.7576 16.9452 33.1614 17.3526 33.864 17.3366C34.4243 17.3259 34.7748 16.9221 34.7606 16.3084C34.7499 15.8317 34.1842 15.3781 33.6167 15.3905C33.0386 15.4047 32.7202 15.6965 32.7362 16.2035V16.2052ZM37.5053 17.0591C36.8329 17.0466 36.3686 17.4184 36.3615 17.977C36.3544 18.4146 36.6871 18.6796 37.2118 18.7152C37.9056 18.7615 38.1955 18.2829 38.1938 17.7955C38.192 17.2423 38.0354 17.068 37.5053 17.0591ZM34.4048 21.3034C34.8691 21.2963 35.1039 21.1113 35.1021 20.7556C35.0968 20.1276 34.7481 19.7452 34.1878 19.7612C33.7875 19.7718 33.6007 20.0405 33.6061 20.5972C33.6114 21.1505 33.7982 21.3159 34.4048 21.3052V21.3034Z" fill="#1C180C"/>
<path d="M32.9731 11.4591C32.8593 11.5125 32.749 11.5925 32.628 11.6139C32.0748 11.7117 31.5091 11.7526 30.9648 11.8878C29.9775 12.1315 28.976 12.3574 28.0314 12.7203C26.5141 13.302 25.0358 13.9904 23.538 14.6237C23.4455 14.6628 23.3157 14.613 23.2036 14.6059C23.2623 14.4974 23.2943 14.332 23.3833 14.2911C24.5769 13.7503 25.7563 13.1597 26.9873 12.7186C28.3516 12.2294 29.7605 11.8647 31.1587 11.4805C31.6408 11.3471 32.1495 11.3097 32.6476 11.2457C32.7472 11.2332 32.8575 11.3008 32.9642 11.331C32.9678 11.3737 32.9696 11.4182 32.9731 11.4609V11.4591Z" fill="#1C180C"/>
<path d="M37.1106 11.0415C37.9502 11.1874 38.7934 11.3226 39.6295 11.488C39.7647 11.5147 39.875 11.6766 39.9959 11.7762C39.8518 11.8064 39.6935 11.8954 39.5672 11.8598C38.4039 11.5396 37.2191 11.4506 36.0184 11.4738C35.9152 11.4755 35.8103 11.3902 35.7053 11.3439C35.8067 11.2763 35.9046 11.1571 36.0095 11.1518C36.3706 11.1269 36.7335 11.1429 37.0964 11.1429C37.1017 11.1091 37.1053 11.0771 37.1106 11.0433V11.0415Z" fill="#1C180C"/>
<path d="M53.1915 11.2032C51.6617 11.3206 50.1248 11.374 48.6056 11.5697C46.6418 11.824 44.7882 12.484 43.02 13.3752C42.9684 13.4019 42.9151 13.4499 42.8635 13.4481C42.7603 13.4446 42.6571 13.4143 42.554 13.3965C42.6038 13.3023 42.634 13.1831 42.7087 13.119C42.803 13.0372 42.9346 13.0016 43.0503 12.9429C45.0319 11.9646 47.1203 11.2886 49.319 11.0983C51.2063 10.9346 53.1115 10.9506 55.0078 10.9044C55.1216 10.9008 55.239 11.0396 55.3529 11.1125C55.2337 11.1676 55.1145 11.269 54.9935 11.2726C54.3958 11.2886 53.7981 11.2797 53.1987 11.2797C53.1969 11.2548 53.1951 11.2281 53.1933 11.2032H53.1915Z" fill="#1C180C"/>
<path d="M32.7363 16.2053C32.7221 15.7001 33.0387 15.4066 33.6168 15.3923C34.1843 15.3799 34.75 15.8335 34.7606 16.3102C34.7749 16.9239 34.4227 17.326 33.8641 17.3384C33.1632 17.3526 32.7576 16.9471 32.7363 16.2071V16.2053Z" fill="#CFCECE"/>
<path d="M37.5054 17.0589C38.0355 17.0678 38.1903 17.2421 38.1939 17.7953C38.1956 18.281 37.9057 18.7613 37.2119 18.715C36.6872 18.6794 36.3563 18.4162 36.3616 17.9768C36.3705 17.4182 36.833 17.0464 37.5054 17.0589Z" fill="#CFCECE"/>
<path d="M34.405 21.3032C33.7984 21.3139 33.6134 21.1485 33.6063 20.5952C33.601 20.0385 33.786 19.7698 34.188 19.7592C34.7466 19.7449 35.097 20.1256 35.1023 20.7536C35.1041 21.1093 34.8711 21.2943 34.405 21.3014V21.3032ZM33.9496 20.4761C34.0528 20.5721 34.172 20.7642 34.3356 20.8158C34.5473 20.8834 34.7982 20.5988 34.8053 20.3675C34.8142 20.0634 34.6416 19.9584 34.3694 19.9406C34.0546 19.9211 34.0243 20.1559 33.9496 20.4743V20.4761Z" fill="#CFCECE"/>
<path d="M33.9497 20.4762C34.0262 20.1578 34.0564 19.923 34.3695 19.9425C34.6417 19.9586 34.8142 20.0635 34.8053 20.3695C34.7982 20.6007 34.5474 20.8836 34.3357 20.8177C34.1721 20.7662 34.0529 20.574 33.9497 20.478V20.4762Z" fill="#CFCECE"/>
</svg>
