<svg width="70" height="66" viewBox="0 0 70 66" fill="none" xmlns="http://www.w3.org/2000/svg">
<path d="M43.5301 50.8494C43.4974 52.4787 43.8697 54.068 44.6181 55.5047C45.2175 56.7053 46.0276 57.8987 46.1529 59.2101C46.5034 61.6276 43.3285 63.4094 41.6084 61.5114C40.7783 60.605 40.495 59.3045 40.2607 57.9967C39.9119 56.0097 39.7158 54.0026 39.2344 52.041C38.2772 46.7936 32.0181 44.5994 28.0331 48.1649C26.6 49.5017 25.7554 51.3344 24.9616 53.0981C24.1552 54.9308 23.4686 56.8234 22.7566 58.696C22.1554 60.2581 21.556 61.9019 20.5842 63.2187C19.1857 65.233 16.1651 66.4427 13.9582 65.1913C11.4135 63.4821 12.2708 59.5406 13.9927 57.4936C17.6272 53.2325 24.3786 51.2854 23.8809 44.4686C23.6829 42.0329 21.3217 40.6888 19.0167 40.8105C17.8089 40.8378 16.5774 41.1665 15.2115 41.5988C12.8593 42.2527 6.98166 44.9409 6.46582 41.4299C6.96895 37.5792 16.4375 39.3811 19.2601 36.4622C20.5152 35.356 21.289 33.4344 20.5243 31.856C20.1556 31.0713 19.4799 30.3793 18.737 29.7218C17.7962 28.8753 16.8026 28.1888 16.0652 27.2461C14.8555 25.6913 16.0906 24.5779 17.8343 24.2473C19.6361 23.8513 21.7213 23.9567 23.5122 23.3991C26.2767 22.5908 27.381 20.3912 25.4738 18.0282C24.2587 16.4643 22.5586 15.211 21.8248 13.3474C21.3798 12.3012 21.2944 10.8282 22.2971 10.1053C23.6956 9.21163 25.2377 10.4522 26.0169 11.7254C27.608 14.2483 28.0567 17.9319 30.9338 19.4503C33.0189 20.6001 35.9559 20.4475 37.5525 18.5767C38.9638 16.8857 38.8712 14.459 38.6078 12.3848C38.3644 9.28247 36.7043 4.5291 38.0484 1.76645C38.9129 -0.0953016 41.4776 -0.54757 43.0306 0.707521C45.0794 2.37129 44.5291 5.51174 43.9333 7.80033C43.1341 10.8808 41.9807 13.9723 42.4203 17.1981C42.8035 23.2937 50.3105 26.5377 54.9349 22.5654C56.5896 21.1613 57.7829 18.9708 59.8971 18.2152C61.4683 17.5904 63.4136 18.1172 64.3036 19.5684C67.4259 25.2972 55.3708 24.2419 53.3692 29.8707C52.461 31.885 52.3775 34.437 53.0078 36.4785C54.8186 43.9637 68.4884 40.3946 69.8125 46.4194C70.1922 48.7243 68.5048 50.606 66.0745 50.0848C64.4144 49.805 62.9123 48.8388 61.5536 47.8979C55.478 43.2571 43.3575 41.2029 43.5374 50.8204V50.8494H43.5301Z" fill="#7132F5"/>
<path d="M5.88272 25.3972C4.72752 25.3645 3.51057 25.1029 2.39352 24.6216C1.5798 24.2765 0.853267 23.8188 0.426427 23.1703C-0.142088 22.3475 -0.13119 21.2214 0.393733 20.3768C1.94489 18.0555 5.31783 18.5459 7.77716 19.7193C9.08493 20.3913 10.8831 21.6446 10.5979 23.2939C10.1711 24.9703 7.40663 25.4499 5.90996 25.399H5.8809L5.88272 25.3972Z" fill="#7132F5"/>
<path d="M59.719 61.8165C59.7935 66.2085 53.4599 67.0658 52.2884 62.8773C51.6127 60.3362 53.4708 58.0713 56.0736 58.1603C58.0698 58.1748 59.7172 59.7314 59.719 61.7875V61.8165Z" fill="#7132F5"/>
</svg>
